<svg width="200" height="199" fill="none" xmlns="http://www.w3.org/2000/svg"><path d="M65.622 146.029c0-12.67 10.272-22.942 22.942-22.942l.076.002v-53.67l-4.622 4.622c-.8.8-2.075.89-2.965.193a39.84 39.84 0 01-6.814-6.815 2.243 2.243 0 01.192-2.965l5.694-5.694c.702-.701.85-1.774.389-2.653a27.928 27.928 0 01-1.946-4.701 2.256 2.256 0 00-2.15-1.6h-8.056a2.243 2.243 0 01-2.232-1.959 39.9 39.9 0 01-.292-4.82l.003-.222H21.944c-1.036 0-2.03.412-2.762 1.144L4.074 59.057A3.907 3.907 0 002.93 61.82v84.429a3.906 3.906 0 003.906 3.906H66a23.036 23.036 0 01-.378-4.125z" fill="#fff"/><path d="M19.14 146.248V61.82c0-1.036.412-2.03 1.145-2.763L35.393 43.95a3.907 3.907 0 012.762-1.144h-16.21a3.91 3.91 0 00-2.763 1.144L4.074 59.057A3.907 3.907 0 002.93 61.82v84.429a3.906 3.906 0 003.906 3.906h16.21a3.906 3.906 0 01-3.905-3.906z" fill="#fff"/><path d="M88.564 168.971c12.67 0 22.942-10.272 22.942-22.942 0-12.671-10.272-22.942-22.942-22.942s-22.942 10.271-22.942 22.942c0 12.67 10.272 22.942 22.942 22.942z" fill="#01D0FB"/><path d="M78.726 146.029c0-10.393 6.913-19.167 16.39-21.987a22.932 22.932 0 00-6.552-.955c-12.67 0-22.942 10.272-22.942 22.942s10.272 22.942 22.942 22.942c2.277 0 4.475-.337 6.552-.955-9.477-2.82-16.39-11.594-16.39-21.987z" fill="#01C0FA"/><path d="M130.765 27.293l5.694-5.694c.799-.8.89-2.074.193-2.964a39.858 39.858 0 00-6.815-6.815 2.244 2.244 0 00-2.964.192l-5.695 5.695a2.256 2.256 0 01-2.652.388 27.946 27.946 0 00-4.702-1.946 2.256 2.256 0 01-1.6-2.15V5.944c0-1.13-.837-2.096-1.958-2.233a39.927 39.927 0 00-9.641 0 2.243 2.243 0 00-1.959 2.233V14c0 .992-.653 1.855-1.6 2.15a27.998 27.998 0 00-4.701 1.945 2.257 2.257 0 01-2.653-.388l-5.694-5.694c-.8-.8-2.075-.89-2.965-.193a39.836 39.836 0 00-6.814 6.815 2.244 2.244 0 00.192 2.965l5.694 5.694c.702.701.85 1.774.389 2.653a27.927 27.927 0 00-1.947 4.701 2.256 2.256 0 01-2.149 1.6h-8.056c-1.13 0-2.096.837-2.232 1.959a39.902 39.902 0 000 9.64 2.242 2.242 0 002.232 1.959h8.056c.992 0 1.855.653 2.15 1.6a27.995 27.995 0 001.946 4.702 2.257 2.257 0 01-.389 2.652l-5.694 5.695a2.24 2.24 0 00-.192 2.964 39.836 39.836 0 006.814 6.815c.89.697 2.166.606 2.965-.193l5.694-5.694a2.257 2.257 0 012.653-.388 27.931 27.931 0 004.701 1.946 2.256 2.256 0 011.6 2.15v8.056c0 1.13.837 2.095 1.959 2.232a39.896 39.896 0 009.641 0 2.243 2.243 0 001.958-2.232v-8.057c0-.991.653-1.855 1.6-2.15a28.012 28.012 0 004.702-1.945 2.256 2.256 0 012.652.388l5.695 5.694c.799.8 2.074.89 2.964.193a39.858 39.858 0 006.815-6.815 2.244 2.244 0 00-.193-2.965l-5.694-5.694a2.259 2.259 0 01-.388-2.652 27.994 27.994 0 001.946-4.702 2.256 2.256 0 012.149-1.6h8.057c1.13 0 2.095-.837 2.232-1.959a39.943 39.943 0 000-9.64 2.243 2.243 0 00-2.232-1.959h-8.056a2.256 2.256 0 01-2.15-1.6 27.993 27.993 0 00-1.946-4.701 2.258 2.258 0 01.388-2.653z" fill="#4EAAF5"/><path d="M99.14 62.73c-8.334-2.673-14.384-10.494-14.384-19.703 0-9.21 6.05-17.03 14.384-19.704a30.187 30.187 0 0113.143-8.845 2.173 2.173 0 01-.059-.48V5.944c0-1.13-.837-2.096-1.958-2.233a39.927 39.927 0 00-9.641 0 2.243 2.243 0 00-1.959 2.233V14c0 .992-.653 1.855-1.6 2.15a27.998 27.998 0 00-4.701 1.945 2.257 2.257 0 01-2.653-.388l-5.694-5.694c-.8-.8-2.075-.89-2.965-.193a39.836 39.836 0 00-6.814 6.815 2.244 2.244 0 00.192 2.965l5.694 5.694c.702.701.85 1.774.389 2.653a27.927 27.927 0 00-1.947 4.701 2.256 2.256 0 01-2.149 1.6h-8.056c-1.13 0-2.096.837-2.232 1.959a39.902 39.902 0 000 9.64 2.242 2.242 0 002.232 1.959h8.056c.992 0 1.855.653 2.15 1.6a27.995 27.995 0 001.946 4.702 2.257 2.257 0 01-.389 2.652l-5.694 5.695a2.24 2.24 0 00-.192 2.964 39.836 39.836 0 006.814 6.815c.89.697 2.166.606 2.965-.193l5.694-5.694a2.257 2.257 0 012.653-.388 27.931 27.931 0 004.701 1.946 2.256 2.256 0 011.6 2.15v8.056c0 1.13.837 2.095 1.959 2.232a39.896 39.896 0 009.641 0 2.243 2.243 0 001.958-2.232v-8.057c0-.164.024-.323.059-.479A30.178 30.178 0 0199.14 62.73z" fill="#1092FD"/><path d="M105.445 60.785c9.808 0 17.759-7.95 17.759-17.758 0-9.809-7.951-17.76-17.759-17.76s-17.759 7.951-17.759 17.76c0 9.807 7.951 17.758 17.759 17.758z" fill="#80B4FB"/><path d="M97.656 43.026c0-8.076 5.394-14.889 12.774-17.044a17.748 17.748 0 00-4.985-.715c-9.809 0-17.76 7.952-17.76 17.76 0 9.807 7.952 17.758 17.76 17.758 1.731 0 3.403-.252 4.985-.714-7.38-2.155-12.774-8.968-12.774-17.044z" fill="#539CFF"/><path d="M105.445 49.192a6.165 6.165 0 10.001-12.33 6.165 6.165 0 00-.001 12.33z" fill="#fff"/><path d="M195.117 122.565h-66.859a1.953 1.953 0 01-1.953-1.953V99.244c0-1.078.874-1.953 1.953-1.953h66.859c1.079 0 1.953.875 1.953 1.953v21.368a1.953 1.953 0 01-1.953 1.953z" fill="#01D0FB"/><path d="M139.453 120.612V99.244c0-1.078.875-1.953 1.953-1.953h-13.148a1.953 1.953 0 00-1.953 1.953v21.368c0 1.078.874 1.953 1.953 1.953h13.148a1.953 1.953 0 01-1.953-1.953z" fill="#01C0FA"/><path d="M195.117 159.573h-66.859a1.953 1.953 0 01-1.953-1.954v-21.367c0-1.078.874-1.953 1.953-1.953h66.859c1.079 0 1.953.875 1.953 1.953v21.367a1.953 1.953 0 01-1.953 1.954z" fill="#80B4FB"/><path d="M139.453 157.619v-21.367c0-1.078.875-1.953 1.953-1.953h-13.148a1.953 1.953 0 00-1.953 1.953v21.367c0 1.079.874 1.954 1.953 1.954h13.148a1.954 1.954 0 01-1.953-1.954z" fill="#539CFF"/><path d="M195.117 196.58h-66.859a1.953 1.953 0 01-1.953-1.953V173.26c0-1.079.874-1.953 1.953-1.953h66.859c1.079 0 1.953.874 1.953 1.953v21.367a1.953 1.953 0 01-1.953 1.953z" fill="#4EAAF5"/><path d="M139.453 194.627V173.26c0-1.079.875-1.953 1.953-1.953h-13.148a1.953 1.953 0 00-1.953 1.953v21.367c0 1.078.874 1.953 1.953 1.953h13.148a1.953 1.953 0 01-1.953-1.953z" fill="#1092FD"/><path d="M158.758 48.664v.59a2.93 2.93 0 105.859 0v-.59a8.797 8.797 0 00-2.062-5.657 2.93 2.93 0 00-4.483 3.773 2.9 2.9 0 01.686 1.884zm2.93 21.879a2.93 2.93 0 00-2.93 2.93v4.687a2.93 2.93 0 105.859 0v-4.688a2.93 2.93 0 00-2.929-2.93zm2.929-11.523a2.93 2.93 0 10-5.859 0v4.687a2.93 2.93 0 105.859 0v-4.688zm-50.555 121.994h-4.687a2.93 2.93 0 100 5.859h4.687a2.93 2.93 0 100-5.859zm-14.452 0h-4.688a2.93 2.93 0 100 5.859h4.687a2.93 2.93 0 100-5.859zm-14.454 0H80.47a2.93 2.93 0 100 5.859h4.687a2.93 2.93 0 000-5.859zm-14.453 0h-4.687a2.93 2.93 0 100 5.859h4.687a2.93 2.93 0 000-5.859zm-13.24-.232a2.951 2.951 0 01-1.588-1.643 2.93 2.93 0 00-5.465 2.113 8.842 8.842 0 004.755 4.919 2.93 2.93 0 002.298-5.389zm-4.713-7.373a2.93 2.93 0 002.93-2.93v-4.687a2.93 2.93 0 10-5.86 0v4.687a2.93 2.93 0 002.93 2.93zM66.1 67.283H25.468a2.93 2.93 0 000 5.86H66.1a2.93 2.93 0 000-5.86zm0 14.194H25.468a2.93 2.93 0 000 5.86H66.1a2.93 2.93 0 000-5.86zm0 14.131H25.468a2.93 2.93 0 000 5.859H66.1a2.93 2.93 0 000-5.86zm2.93 17.187a2.93 2.93 0 00-2.93-2.929H25.468a2.93 2.93 0 100 5.859H66.1a2.93 2.93 0 002.93-2.93zM25.468 124.06a2.93 2.93 0 100 5.859h18.215a2.93 2.93 0 000-5.859H25.468zm59.567 30.527a2.921 2.921 0 002.071.859c.75 0 1.5-.286 2.072-.859l11.826-11.826a2.93 2.93 0 10-4.143-4.143l-9.755 9.755-6.84-6.84a2.93 2.93 0 00-4.143 4.143l8.912 8.911z" fill="#000"/><path d="M131.643 76.54a42.798 42.798 0 007.316-7.316c1.605-2.051 1.421-4.992-.428-6.842l-5.34-5.34a30.93 30.93 0 001.782-4.306h7.556c2.616 0 4.826-1.95 5.14-4.535.099-.817.174-1.64.226-2.466h3.277a2.93 2.93 0 100-5.86h-3.31a43.707 43.707 0 00-.192-2.022c-.315-2.586-2.525-4.535-5.14-4.535h-7.556a30.921 30.921 0 00-1.783-4.307l5.341-5.34c1.849-1.85 2.033-4.791.428-6.842a42.873 42.873 0 00-7.316-7.316 5.174 5.174 0 00-6.842.428l-5.341 5.34a30.98 30.98 0 00-4.306-1.783V5.943c0-2.616-1.95-4.826-4.534-5.14a43.024 43.024 0 00-10.349 0c-2.585.314-4.535 2.524-4.535 5.14v7.555a30.992 30.992 0 00-4.306 1.783l-5.34-5.34c-1.85-1.85-4.792-2.034-6.842-.429a42.794 42.794 0 00-7.316 7.316c-1.606 2.052-1.422 4.993.427 6.843l5.34 5.34a31.066 31.066 0 00-1.783 4.307h-7.555c-2.615 0-4.825 1.949-5.14 4.534-.082.67-.143 1.345-.193 2.023H21.944a6.79 6.79 0 00-4.834 2.002L2.002 56.986A6.79 6.79 0 000 61.82v84.428a6.844 6.844 0 006.836 6.836H49.82v2.943a2.93 2.93 0 005.86 0v-2.943h7.998c3.08 10.846 13.067 18.816 24.886 18.816 14.266 0 25.871-11.606 25.871-25.871 0-13.248-10.012-24.196-22.866-25.691v-13.307a2.93 2.93 0 00-5.86 0v13.288c-12.927 1.426-23.016 12.41-23.016 25.71 0 .401.012.799.03 1.196H6.836a.978.978 0 01-.977-.977V61.82c0-.258.105-.51.286-.691L21.253 46.02a.971.971 0 01.691-.286h41.05c.053.825.127 1.65.227 2.466.315 2.585 2.524 4.535 5.14 4.535h7.555a30.992 30.992 0 001.783 4.306l-5.34 5.34a5.176 5.176 0 00-.428 6.843 42.82 42.82 0 007.316 7.316 5.174 5.174 0 006.462-.086V93.36a2.93 2.93 0 005.86 0V70.84a30.98 30.98 0 004.167 1.716v7.555c0 2.616 1.95 4.826 4.534 5.141a42.948 42.948 0 0010.349 0c2.585-.315 4.534-2.525 4.534-5.14v-7.556a30.98 30.98 0 004.307-1.782l5.34 5.34c1.851 1.849 4.791 2.033 6.843.428zm-43.079 49.477c11.035 0 20.012 8.977 20.012 20.011 0 11.035-8.978 20.012-20.012 20.012s-20.012-8.977-20.012-20.012c0-11.034 8.977-20.011 20.012-20.011zm28.599-60.652a25.123 25.123 0 01-4.209 1.742 5.165 5.165 0 00-3.659 4.947v7.45a37.128 37.128 0 01-7.699 0v-7.45a5.167 5.167 0 00-3.66-4.947 25.072 25.072 0 01-4.209-1.743 5.168 5.168 0 00-6.087.91l-5.265 5.266a36.97 36.97 0 01-5.444-5.444l5.265-5.265a5.167 5.167 0 00.91-6.087 25.12 25.12 0 01-1.742-4.209 5.166 5.166 0 00-4.947-3.66h-7.45a37.163 37.163 0 010-7.698h7.45a5.166 5.166 0 004.947-3.66 25.144 25.144 0 011.742-4.209 5.168 5.168 0 00-.91-6.087l-5.265-5.265a36.95 36.95 0 015.444-5.444l5.265 5.265a5.168 5.168 0 006.087.91 25.14 25.14 0 014.209-1.742 5.166 5.166 0 003.66-4.947v-7.45a37.128 37.128 0 017.699 0v7.45a5.166 5.166 0 003.659 4.948 25.089 25.089 0 014.209 1.742 5.169 5.169 0 006.087-.91l5.266-5.265a36.94 36.94 0 015.443 5.444l-5.265 5.265a5.166 5.166 0 00-.91 6.086 25.133 25.133 0 011.742 4.21 5.166 5.166 0 004.947 3.66h7.45a36.975 36.975 0 010 7.699h-7.45a5.165 5.165 0 00-4.947 3.66 25.134 25.134 0 01-1.742 4.208 5.168 5.168 0 00.909 6.087l5.266 5.266a36.947 36.947 0 01-5.444 5.444l-5.265-5.266a5.167 5.167 0 00-6.087-.911z" fill="#000"/><path d="M120.494 33.157a2.93 2.93 0 00-1.489 3.866 14.71 14.71 0 011.27 6.003c0 8.177-6.652 14.83-14.829 14.83s-14.83-6.653-14.83-14.83c0-8.176 6.653-14.829 14.83-14.829 1.809 0 3.582.326 5.269.967a2.929 2.929 0 102.083-5.477 20.608 20.608 0 00-7.352-1.35c-11.408 0-20.69 9.282-20.69 20.69 0 11.407 9.282 20.688 20.69 20.688 11.407 0 20.689-9.28 20.689-20.689 0-2.907-.597-5.727-1.774-8.38a2.931 2.931 0 00-3.867-1.489z" fill="#000"/><path d="M105.445 33.931c-5.015 0-9.095 4.08-9.095 9.096 0 5.015 4.08 9.095 9.095 9.095 5.015 0 9.095-4.08 9.095-9.096 0-5.015-4.08-9.095-9.095-9.095zm0 12.331a3.24 3.24 0 01-3.236-3.236 3.24 3.24 0 013.236-3.235 3.24 3.24 0 013.236 3.236 3.24 3.24 0 01-3.236 3.235zm89.672 79.232a4.888 4.888 0 004.883-4.882V99.245a4.888 4.888 0 00-4.883-4.883h-31.083a2.91 2.91 0 00.583-1.75v-4.687a2.93 2.93 0 10-5.859 0v4.688c0 .656.218 1.26.583 1.749h-31.083a4.888 4.888 0 00-4.883 4.883v21.367a4.888 4.888 0 004.883 4.882h30.5v5.875h-30.5a4.888 4.888 0 00-4.883 4.883v21.367a4.888 4.888 0 004.883 4.883h30.5v5.875h-30.5a4.888 4.888 0 00-4.883 4.883v7.792a2.93 2.93 0 00-2.477 2.891 2.928 2.928 0 002.477 2.891v7.793a4.889 4.889 0 004.883 4.883h66.859a4.889 4.889 0 004.883-4.883V173.26a4.888 4.888 0 00-4.883-4.883h-30.5v-5.875h7.649a2.93 2.93 0 000-5.859h-43.032v-19.415h64.907v19.415h-8.203a2.929 2.929 0 100 5.859h9.179a4.888 4.888 0 004.883-4.883v-21.367a4.888 4.888 0 00-4.883-4.883h-30.5v-5.875h30.5zm-.976 48.742v19.414h-64.907v-19.414h64.907zm-64.907-54.601v-19.414h64.907v19.414h-64.907z" fill="#000"/><path d="M183.17 106.998h-42.965a2.93 2.93 0 000 5.86h42.965a2.93 2.93 0 000-5.86zm2.93 39.938a2.93 2.93 0 00-2.93-2.93h-42.965a2.93 2.93 0 000 5.86h42.965a2.93 2.93 0 002.93-2.93zm-45.895 39.937h42.965a2.93 2.93 0 000-5.859h-42.965a2.93 2.93 0 100 5.859z" fill="#000"/></svg>