<svg width="200" height="200" fill="none" xmlns="http://www.w3.org/2000/svg"><path d="M9.375 153.125h12.5v25h-12.5v-25z" fill="#fff"/><path d="M21.875 146.875h12.5v37.5h-12.5v-37.5z" fill="#50B4F8"/><path d="M34.375 153.125h25v25h-25v-25z" fill="#2D75BB"/><path d="M190.625 178.125h-12.5v-25h12.5v25z" fill="#fff"/><path d="M178.125 184.375h-12.5v-37.5h12.5v37.5z" fill="#50B4F8"/><path d="M165.625 178.125h-25v-25h25v25z" fill="#2D75BB"/><path d="M159.375 75a59.377 59.377 0 00-67.438-58.89 59.376 59.376 0 00-1.312 117.456v13.309h18.75v-13.309a59.344 59.344 0 0050-58.566z" fill="#80B4FB"/><path d="M115.625 156.25v-9.375h-31.25v9.375h-25V175h25v9.375h31.25V175h25v-18.75h-25z" fill="#50B4F8"/><path d="M100 121.875c25.888 0 46.875-20.987 46.875-46.875S125.888 28.125 100 28.125 53.125 49.112 53.125 75 74.112 121.875 100 121.875z" fill="#F4F4E6"/><path d="M100 81.25a6.25 6.25 0 100-12.5 6.25 6.25 0 000 12.5z" fill="#E97424"/><path d="M43.75 162.5H50v6.25h-6.25v-6.25zm46.875 0h6.25v6.25h-6.25v-6.25zm12.5 0h6.25v6.25h-6.25v-6.25zm46.875 0h6.25v6.25H150v-6.25z" fill="#F4F4E6"/><path d="M190.625 150h-9.375v-3.125a3.125 3.125 0 00-3.125-3.125h-12.5a3.125 3.125 0 00-3.125 3.125V150h-21.875a3.125 3.125 0 00-3.125 3.125h-18.75v-6.25a3.125 3.125 0 00-3.125-3.125H112.5v-7.575A62.501 62.501 0 00100 12.438a62.5 62.5 0 00-12.5 123.737v7.575h-3.125a3.125 3.125 0 00-3.125 3.125v6.25H62.5A3.125 3.125 0 0059.375 150H37.5v-3.125a3.125 3.125 0 00-3.125-3.125h-12.5a3.125 3.125 0 00-3.125 3.125V150H9.375a3.125 3.125 0 00-3.125 3.125v25a3.125 3.125 0 003.125 3.125h9.375v3.125a3.125 3.125 0 003.125 3.125h12.5a3.125 3.125 0 003.125-3.125v-3.125h21.875a3.125 3.125 0 003.125-3.125h18.75v6.25a3.125 3.125 0 003.125 3.125h31.25a3.125 3.125 0 003.125-3.125v-6.25h18.75a3.125 3.125 0 003.125 3.125H162.5v3.125a3.125 3.125 0 003.125 3.125h12.5a3.125 3.125 0 003.125-3.125v-3.125h9.375a3.125 3.125 0 003.125-3.125v-25a3.125 3.125 0 00-3.125-3.125zM18.75 175H12.5v-18.75h6.25V175zm12.5 6.25H25V150h6.25v31.25zm25-6.25H37.5v-18.75h18.75V175zM43.75 75a56.25 56.25 0 1165.134 55.478 3.123 3.123 0 00-2.634 3.084v10.188h-12.5v-10.188a3.123 3.123 0 00-2.634-3.084A55.94 55.94 0 0143.75 75zm93.75 96.875h-21.875A3.125 3.125 0 00112.5 175v6.25h-25V175a3.125 3.125 0 00-3.125-3.125H62.5v-12.5h21.875a3.125 3.125 0 003.125-3.125V150h25v6.25a3.125 3.125 0 003.125 3.125H137.5v12.5zm25 3.125h-18.75v-18.75h18.75V175zm12.5 6.25h-6.25V150H175v31.25zm12.5-6.25h-6.25v-18.75h6.25V175z" fill="#000"/><path d="M150 75a49.996 49.996 0 00-59.754-49.04A50 50 0 00100 125a50.062 50.062 0 0050-50zM72.79 97.79l-5.815 5.816a43.916 43.916 0 01-5.028-7.097L70.625 90l-3.75-5-7.65 5.737a43.326 43.326 0 01-2.813-12.612h9.213v-6.25h-9.216a43.204 43.204 0 012.207-10.938l8.75 4.376 2.793-5.594-9.09-4.544a43.96 43.96 0 015.918-8.75l5.816 5.816 4.419-4.42-5.816-5.815a43.573 43.573 0 017.61-5.337l5.896 8.847 5.2-3.47L84.8 34.07a43.213 43.213 0 0112.075-2.66v9.216h6.25V31.41a43.213 43.213 0 0112.094 2.629l-5.313 7.978 5.2 3.468 5.897-8.846a43.558 43.558 0 017.61 5.337l-5.816 5.816 4.419 4.418 5.815-5.815a43.943 43.943 0 015.919 8.765l-9.091 4.544 2.794 5.594 8.75-4.375a43.184 43.184 0 012.206 10.937h-9.234v6.25h9.216a43.443 43.443 0 01-3.538 14.416L130 85l-3.75 5 10.825 8.125a44.098 44.098 0 01-5.537 7.125l-7.454-7.453-4.418 4.419 7.228 7.228a43.506 43.506 0 01-55.5-1.413l5.815-5.815-4.418-4.425zM43.75 162.5H50v6.25h-6.25v-6.25zm46.875 0h6.25v6.25h-6.25v-6.25zm12.5 0h6.25v6.25h-6.25v-6.25zm46.875 0h6.25v6.25H150v-6.25z" fill="#000"/><path d="M90.625 96.875h6.25v6.25h-6.25v-6.25zm12.5 0h6.25v6.25h-6.25v-6.25zm-21.875 0c.829 0 1.624-.33 2.21-.916l12.5-12.5.018-.028a9.24 9.24 0 004.022.944A9.373 9.373 0 00109.375 75a9.238 9.238 0 00-.937-4.022l.028-.019 12.5-12.5a3.127 3.127 0 00-2.221-5.296 3.125 3.125 0 00-2.198.878l-12.5 12.5-.019.028a9.24 9.24 0 00-4.028-.944A9.375 9.375 0 0090.625 75a9.241 9.241 0 00.938 4.022l-.028.019-12.5 12.5a3.126 3.126 0 002.215 5.334zm18.75-25a3.125 3.125 0 110 6.25 3.125 3.125 0 010-6.25z" fill="#000"/></svg>