<svg width="200" height="200" fill="none" xmlns="http://www.w3.org/2000/svg"><path d="M102.673 139.68h45.909v13.179h-45.909V139.68z" fill="#365E7D"/><path d="M127.343 152.859h21.239V139.68h-20.121l-1.118 13.179z" fill="#2B4D66"/><path d="M102.673 197.07H9.66V90.611l93.013 36.032v70.427z" fill="#E7ECF6"/><path d="M9.66 90.611v9.543l77.177 29.896a11.38 11.38 0 017.269 10.611v56.409h8.567v-70.427L9.66 90.611z" fill="#D8E2F1"/><path d="M87.047 135.049v20.379H25.285v-42.16l20.934 7.382 19.894 7.016 20.934 7.383z" fill="#80B4FB"/><path d="M66.113 127.666L46.22 120.65l-20.934-7.382v6.701l12.398 4.373 19.895 7.015 16.956 5.981a5.958 5.958 0 013.977 5.62v12.47h8.536v-20.379l-20.934-7.383z" fill="#61A2F9"/><path d="M170.387 168.461l-6.442 7.813h-23.258l-6.441-7.813 4.297-50.633 2.144-25.316.375-4.409 4.213-7.497c.059-.957.645-1.692 1.347-1.692h11.389c.703 0 1.288.736 1.348 1.692l4.241 7.832 2.494 29.39 2.145 25.317 2.148 25.316z" fill="#C3D5EF"/><path d="M168.238 143.145l-2.144-25.317-4.154-48.94a1.847 1.847 0 00-1.841-1.692h-7.133c.96 0 1.76.735 1.841 1.691l4.154 48.941 2.144 25.317 2.149 33.129 7.133-7.813-2.149-25.316z" fill="#B7C8EA"/><path d="M163.945 92.512h-23.257l2.005-23.625a1.847 1.847 0 011.841-1.691H160.1c.959 0 1.759.735 1.841 1.691l2.004 23.625z" fill="#80B4FB"/><path d="M154.808 68.887l2.005 23.625h7.133l-2.005-23.625a1.849 1.849 0 00-1.841-1.691h-7.133c.96 0 1.76.734 1.841 1.691z" fill="#61A2F9"/><path d="M168.238 143.145h-31.843l2.148-25.317h27.551l2.144 25.317z" fill="#80B4FB"/><path d="M168.238 143.145l-2.144-25.317h-7.133l2.144 25.317h7.133z" fill="#61A2F9"/><path d="M36.66 177.277h39.015v19.793H36.66v-19.793z" fill="#80B4FB"/><path d="M67.418 177.278h8.256v19.793h-8.257v-19.793z" fill="#61A2F9"/><path d="M190.34 197.07h-87.667v-28.608h82.056a5.61 5.61 0 015.611 5.611v22.997z" fill="#E7ECF6"/><path d="M184.729 168.462h-8.544a5.61 5.61 0 015.61 5.611v22.997h8.545v-22.997a5.61 5.61 0 00-5.611-5.611z" fill="#D8E2F1"/><path d="M152.691 23.222h10.146c4.271 0 7.745 3.475 7.745 7.746v4.116c0 4.271-3.474 7.746-7.745 7.746-5.693 0-10.325 4.631-10.325 10.325v4.281a2.93 2.93 0 105.859 0v-4.281a4.471 4.471 0 014.466-4.466c7.502 0 13.605-6.103 13.605-13.605v-4.116c0-7.502-6.103-13.605-13.605-13.605h-10.146a4.583 4.583 0 01-4.578-4.577V2.93a2.93 2.93 0 10-5.859 0v9.855c0 5.755 4.682 10.437 10.437 10.437zm-15.009 23.013a3.618 3.618 0 013.614 3.613v4.767a2.93 2.93 0 105.859 0v-4.767c0-5.223-4.249-9.473-9.473-9.473a3.617 3.617 0 01-3.613-3.613V30.41a2.93 2.93 0 10-5.86 0v6.353c0 5.223 4.25 9.473 9.473 9.473z" fill="#000"/><path d="M159.348 11.456a2.93 2.93 0 002.93-2.93v-5.57a2.93 2.93 0 10-5.86 0v5.57a2.93 2.93 0 002.93 2.93zM119.062 176.68a2.93 2.93 0 00-2.93 2.93v2.765a2.929 2.929 0 105.859 0v-2.765a2.93 2.93 0 00-2.929-2.93zm18.296 0a2.93 2.93 0 00-2.929 2.93v2.765a2.929 2.929 0 105.859 0v-2.765a2.93 2.93 0 00-2.93-2.93zm18.297 0a2.93 2.93 0 00-2.929 2.93v2.765a2.929 2.929 0 105.859 0v-2.765a2.93 2.93 0 00-2.93-2.93zm18.297 0a2.93 2.93 0 00-2.93 2.93v2.765a2.929 2.929 0 105.859 0v-2.765a2.93 2.93 0 00-2.929-2.93z" fill="#000"/><path d="M197.07 194.141h-3.8v-20.069c0-4.709-3.831-8.54-8.54-8.54h-11.651L164.86 68.64c-.207-2.453-2.298-4.374-4.76-4.374h-15.566a4.75 4.75 0 00-4.761 4.373c-9.532 112.425.19-2.238-5.777 68.112h-28.393v-10.108a2.93 2.93 0 00-1.871-2.732l-5.51-2.134a2.928 2.928 0 10-2.117 5.463l3.638 1.41v65.491h-21.14v-16.864a2.93 2.93 0 00-2.929-2.929H36.66a2.93 2.93 0 00-2.93 2.929v16.864H12.59V94.888l71.802 27.814a2.929 2.929 0 102.117-5.463l-54.96-21.29V74.953a2.93 2.93 0 00-5.859 0v18.725l-14.97-5.8a2.93 2.93 0 00-3.988 2.732v103.53H2.93a2.93 2.93 0 100 5.859h194.14a2.929 2.929 0 100-5.859zm-91.467-28.609v-9.743h26.778l-.827 9.743h-25.951zm61.595 0h-29.763l1.65-19.458h7.374a2.929 2.929 0 100-5.859h-6.877l1.65-19.457H163.4l1.65 19.457h-6.877a2.93 2.93 0 100 5.859h7.374l1.651 19.458zm-4.295-50.633H141.73l1.65-19.457h17.873l1.65 19.457zm-17.375-44.774h13.577l1.651 19.457h-16.879l1.651-19.457zM133.5 142.61l-.621 7.319h-27.276v-7.319H133.5zm-93.91 51.531v-13.934h33.155v13.934H39.589zm66.013 0v-22.75h79.126a2.684 2.684 0 012.681 2.681v20.069h-81.807z" fill="#000"/><path d="M26.26 110.505a2.928 2.928 0 00-3.904 2.763v16.773a2.93 2.93 0 005.86 0v-12.634l15.073 5.316v29.775H28.215v-10.744a2.93 2.93 0 00-5.86 0v13.673a2.93 2.93 0 002.93 2.93h61.762a2.93 2.93 0 002.93-2.93v-20.379c0-1.242-.784-2.35-1.956-2.762L26.26 110.505zm22.888 14.285l14.036 4.949v22.759H49.148V124.79zm34.97 27.708H69.042v-20.692l15.074 5.316v15.376z" fill="#000"/></svg>