<svg width="200" height="202" fill="none" xmlns="http://www.w3.org/2000/svg"><path fill-rule="evenodd" clip-rule="evenodd" d="M80.388 73.297l32.951 6.983c6.037 1.279 8.788 1.517 14.668-.39l14.195-4.604c.367-.12.728-.233 1.083-.342 6.806-2.092 11.473-2.304 18.197.757l34.612 15.761V37.09l-45.515-23.525c-7.873-4.07-7.782-3.95-16.602-4.744l-38.94-3.506c-8.761-.788-7.217-1.635-14.728 2.81C69.97 14.245 61 19.317 50.664 25.29c-4.99 2.884-5.837 3.062-8.766 8.018l-13.507 22.86c-4.362 7.381-.296 8.946 3.151 9.363a31.71 31.71 0 002.676.22c5.947.209 7.952-2.042 12.915-7.557l11.102-12.337c4.612-5.125 4.531-5.554 10.96-7.998l14.976-5.694c6.484-2.465 6.96-2.38 13.203.598l15.424 7.358c6.437 3.07 7.382 6.908 4.718 10.41l-2.193 2.884c-4.083 5.366-7.301 4.882-14.242 4.108l-16.742-1.869c-11.28-1.044-13.025 15.333-3.951 17.643z" fill="#fff"/><path fill-rule="evenodd" clip-rule="evenodd" d="M113.34 80.28l-32.952-6.983c-9.074-2.31-7.33-18.687 3.952-17.643 7.717.86 9.024 1.007 16.741 1.868 6.941.774 10.16 1.258 14.242-4.108l2.194-2.884c2.663-3.502 1.718-7.34-4.719-10.41l-15.424-7.358c-6.243-2.977-6.718-3.063-13.203-.598-5.309 2.02-9.667 3.676-14.976 5.694-6.428 2.444-6.348 2.873-10.96 7.999L47.134 58.193c-4.963 5.515-6.969 7.766-12.916 7.558-5.138 11.911.05 23.088 8.92 27.664-3.987 14.941 1.451 30.111 14.66 33.665l14.195-4.604c5.88-1.907 8.632-1.669 14.668-.39l32.952 6.982c9.073 2.311 7.329 18.688-3.952 17.644l-16.742-1.868c-6.94-.774-10.16-1.259-14.241 4.108l-2.194 2.884c-2.663 3.501-1.718 7.339 4.719 10.41l15.424 7.357c6.243 2.978 6.718 3.063 13.202.598l14.977-5.693c6.428-2.444 6.347-2.873 10.959-7.999l11.102-12.337c5.641-6.268 7.462-8.32 15.591-7.336 5.138-11.912-.049-23.089-8.92-27.664 3.987-14.942-3.043-30.674-16.252-34.229a75.01 75.01 0 00-1.083.342l-14.195 4.604c-5.881 1.908-8.632 1.67-14.668.39z" fill="#4EAAF5"/><path fill-rule="evenodd" clip-rule="evenodd" d="M86.66 122.086c-6.035-1.279-8.787-1.517-14.667.39l-14.195 4.604c-7.408 2.403-12.205 2.807-19.28-.415L3.906 110.904v54.372l45.515 23.526c7.873 4.069 7.782 3.949 16.602 4.743a498170 498170 0 0038.941 3.506c8.76.788 7.215 1.636 14.727-2.81 10.341-6.12 19.309-11.192 29.645-17.165 4.991-2.884 5.837-3.062 8.766-8.018l13.507-22.859c4.362-7.382.296-8.946-3.152-9.363-8.129-.984-9.95 1.068-15.591 7.337l-11.102 12.336c-4.612 5.125-4.531 5.555-10.959 7.999l-14.977 5.693c-6.484 2.465-6.959 2.38-13.202-.597l-15.424-7.358c-6.438-3.071-7.382-6.908-4.719-10.41l2.194-2.884c4.082-5.366 7.3-4.882 14.241-4.108l16.742 1.868c11.281 1.044 13.026-15.333 3.952-17.643l-32.951-6.983z" fill="#fff"/><path d="M197.881 33.603l-45.514-23.526c-7.989-4.129-8.633-4.32-17.219-5.089L95.385 1.41c-1.374-.124-2.47-.247-3.438-.356C85.945.377 85.034.775 78.573 4.6l-.247.146C71.172 8.98 64.73 12.68 57.908 16.599a4072.667 4072.667 0 00-9.192 5.291c-.42.243-.81.467-1.175.675-4.499 2.574-5.932 3.547-9.002 8.742L25.032 54.166c-.938 1.586-3.79 6.413-1.694 10.686 1.021 2.081 2.927 3.487 5.68 4.194-1.008 4.23-.989 8.5.084 12.55 1.34 5.057 4.33 9.618 8.42 12.842.387.305.782.59 1.18.868-2.32 11.901.751 22.911 7.682 29.649-1.936-.216-3.935-.806-6.253-1.862L5.52 107.332a3.892 3.892 0 00-3.73.276A3.927 3.927 0 000 110.905v54.372c0 1.469.818 2.815 2.119 3.488l45.515 23.525c7.988 4.13 8.632 4.32 17.218 5.089l39.764 3.58c1.373.123 2.47.247 3.437.356 1.486.167 2.66.269 3.683.269 3.11 0 4.83-.938 9.692-3.816l.247-.146c7.153-4.233 13.594-7.933 20.413-11.851 2.99-1.717 6.03-3.463 9.197-5.294.42-.243.811-.466 1.176-.674 4.498-2.574 5.931-3.547 9.001-8.742l13.507-22.859c.938-1.586 3.79-6.413 1.694-10.686-.677-1.381-1.747-2.461-3.191-3.24 1.187-4.453 1.237-8.964.115-13.233-1.33-5.067-4.317-9.639-8.407-12.872a24.58 24.58 0 00-1.223-.9c2.073-11.36-1.368-22.487-8.396-29.518 1.344.317 2.755.815 4.309 1.523l34.611 15.76a3.888 3.888 0 003.73-.275 3.926 3.926 0 001.79-3.297V37.091a3.928 3.928 0 00-2.12-3.488zm-41.306 70.248c-7.097-1.868-14.94-.301-21.693 4.687a3.934 3.934 0 00-.834 5.484 3.895 3.895 0 005.461.836c8.196-6.051 16.138-4.238 20.837-.523 4.22 3.335 7.907 10.002 5.456 18.367-7.681-.213-10.582 3.006-15.784 8.787l-11.151 12.391c-.458.509-.871.972-1.248 1.396-3.23 3.63-3.292 3.699-8.196 5.564l-14.976 5.693c-2.812 1.069-4.213 1.539-5.115 1.493-.966-.048-2.54-.778-5.029-1.965l-15.424-7.357c-2.6-1.241-3.706-2.436-3.862-3.082-.104-.432.313-1.064.57-1.403l2.195-2.884c2.656-3.492 3.818-3.361 10.276-2.639l17.172 1.916.073.007c6.941.639 12.616-3.786 13.811-10.768 1.01-5.909-1.599-12.816-8.541-14.584a3.828 3.828 0 00-.154-.035l-2.112-.448a3.906 3.906 0 00-4.629 3.028 3.923 3.923 0 003.015 4.649l2.023.428c2.564.7 3.021 3.743 2.698 5.634-.242 1.412-1.241 4.647-5.362 4.287l-17.129-1.911c-6.973-.78-12.011-1.345-17.35 5.673l-2.193 2.884c-2.44 3.208-2.41 6.128-1.956 8.013.806 3.342 3.532 6.142 8.102 8.322l15.425 7.357c7.302 3.484 8.822 3.551 16.261.724l14.976-5.694c6.466-2.458 7.489-3.44 11.256-7.673.368-.414.772-.867 1.219-1.364l11.15-12.391c5.388-5.986 6.079-6.756 12.178-6.017.856.103 1.339.25 1.59.353-.061.425-.315 1.392-1.331 3.113l-13.507 22.859c-2.152 3.641-2.454 3.814-6.15 5.928-.374.214-.774.443-1.205.692-3.162 1.827-6.196 3.57-9.18 5.284-6.842 3.93-13.305 7.642-20.501 11.902l-.246.146c-2.55 1.509-4.09 2.42-4.959 2.661-.614.17-1.399.093-3.579-.152-.957-.108-2.15-.242-3.61-.374l-39.767-3.579c-7.397-.663-7.397-.663-14.337-4.251L7.812 162.884v-45.893l29.093 13.248c8.347 3.8 14.204 3.134 22.093.575l14.196-4.604c4.238-1.375 6.289-1.398 9.284-.929a3.91 3.91 0 004.461-3.271 3.92 3.92 0 00-3.258-4.48c-4.61-.721-7.863-.415-12.888 1.215l-13.03 4.226c-8.624-2.961-13.267-12.83-11.712-24.245 1.944.516 3.944.777 5.963.777 4.098 0 8.271-1.065 12.205-3.183a18.673 18.673 0 003.721 3.817c3.274 2.523 7.099 3.8 10.968 3.8 3.135 0 6.3-.839 9.222-2.533a3.931 3.931 0 001.43-5.358 3.897 3.897 0 00-5.337-1.436c-3.795 2.2-8.105 1.94-11.527-.697-3.035-2.338-4.468-5.826-3.651-8.886a3.924 3.924 0 00-2.763-4.805 3.904 3.904 0 00-4.784 2.774 14.788 14.788 0 00-.315 6.049c-7.467 4.42-14.52 2.627-18.837-.777-4.278-3.372-8.02-10.166-5.38-18.69 5.706-.578 8.49-3.668 13.016-8.697L61.133 48.49c.458-.51.87-.973 1.248-1.397 3.23-3.63 3.293-3.7 8.197-5.564l14.976-5.693c2.81-1.069 4.212-1.538 5.115-1.493.965.048 2.54.778 5.029 1.965l15.424 7.358c2.601 1.24 3.705 2.435 3.861 3.08.104.433-.313 1.065-.571 1.404l-2.193 2.884c-2.656 3.492-3.819 3.362-10.276 2.64l-17.172-1.917-.073-.008c-6.934-.641-12.617 3.786-13.81 10.77-1.012 5.908 1.598 12.815 8.54 14.583.05.013.102.024.154.035l32.951 6.983c6.371 1.35 9.873 1.71 16.675-.495l14.104-4.575c9.073 3.077 14.529 13.545 13.263 24.801zm35.612-18.474L163.096 72.13c-4.144-1.886-7.675-2.672-11.144-2.672-3.52 0-6.977.809-10.95 2.097l-14.195 4.604c-4.989 1.618-6.975 1.49-12.661.285l-32.86-6.964c-2.566-.7-3.022-3.743-2.699-5.633.242-1.412 1.248-4.649 5.361-4.288l17.13 1.912c6.974.78 12.011 1.344 17.35-5.673l2.193-2.884c2.44-3.208 2.41-6.128 1.956-8.013-.806-3.342-3.532-6.142-8.103-8.322L99.05 29.221c-7.303-3.483-8.823-3.551-16.262-.723L67.813 34.19c-6.466 2.458-7.489 3.44-11.256 7.673-.37.415-.772.867-1.22 1.365l-11.1 12.336-.05.055c-5.387 5.986-6.078 6.756-12.177 6.017-.857-.103-1.339-.25-1.59-.353.06-.425.314-1.392 1.33-3.114L45.258 35.31c2.152-3.64 2.454-3.814 6.15-5.928.374-.214.774-.443 1.205-.692 3.16-1.826 6.192-3.568 9.175-5.28 6.843-3.932 13.306-7.645 20.505-11.906l.247-.146c2.55-1.51 4.09-2.42 4.959-2.66.613-.17 1.399-.094 3.578.151.958.108 2.15.242 3.61.374l39.767 3.58c7.398.662 7.398.662 14.338 4.25l43.395 22.43v45.893z" fill="#000"/><path d="M100.299 121.053h-.003c-2.157 0-3.905 1.757-3.905 3.923a3.915 3.915 0 003.908 3.923 3.914 3.914 0 003.906-3.923 3.915 3.915 0 00-3.906-3.923z" fill="#000"/></svg>