<svg width="128" height="188" fill="none" xmlns="http://www.w3.org/2000/svg"><path d="M73.813 39.313a41.942 41.942 0 017.812 24.378v8.434a12.008 12.008 0 0011.649-9.095l.851-3.405 2.31 2.772a24.605 24.605 0 01-.22 31.77 8.652 8.652 0 1013.322 11.034L116 97.125l6.25 15.625a54.615 54.615 0 01.646 29.049 54.613 54.613 0 01-14.341 25.271l-.788.788a57.242 57.242 0 01-40.478 16.767h-6.377a57.251 57.251 0 01-49.088-27.793 57.246 57.246 0 014.954-65.912l25.298-30.625a21.048 21.048 0 003.008-21.953 21.048 21.048 0 017.557-26.06L66 3.374v11.559a41.941 41.941 0 007.812 24.379z" fill="#4EAAF5"/><path d="M89.077 163.301l.028-.028a38.828 38.828 0 009.775-38.023l-9.091 9.091a9.234 9.234 0 01-10.07 2.003 9.239 9.239 0 01-3.564-14.451 24.418 24.418 0 003.083-26.551L64.505 65.875l-2.266 24.922a22.287 22.287 0 01-8.27 15.383l-12.88 10.305a29.193 29.193 0 00-10.957 22.797v3.546a29.196 29.196 0 0029.482 29.193l9.03-.089a29.194 29.194 0 0020.433-8.631z" fill="#80B4FB"/><path d="M12.875 69a3.125 3.125 0 01-3.125-3.125v-6.25a3.125 3.125 0 116.25 0v6.25A3.125 3.125 0 0112.875 69z" fill="#FF6268"/><path d="M22.25 53.375a3.125 3.125 0 01-3.125-3.125V44a3.125 3.125 0 116.25 0v6.25a3.125 3.125 0 01-3.125 3.125z" fill="#E82F3E"/><path d="M9.75 40.875a3.125 3.125 0 01-3.125-3.125V31.5a3.125 3.125 0 116.25 0v6.25a3.125 3.125 0 01-3.125 3.125z" fill="#961B20"/><path d="M119.125 78.375A3.125 3.125 0 01116 75.25V69a3.125 3.125 0 116.25 0v6.25a3.125 3.125 0 01-3.125 3.125z" fill="#E82F3E"/><path d="M109.75 56.5a3.125 3.125 0 01-3.125-3.125v-6.25a3.125 3.125 0 116.25 0v6.25a3.125 3.125 0 01-3.125 3.125z" fill="#FF6268"/><path d="M122.25 47.125A3.125 3.125 0 01119.125 44v-9.375a3.125 3.125 0 116.25 0V44a3.125 3.125 0 01-3.125 3.125z" fill="#E82F3E"/><path d="M125.243 111.852a2.723 2.723 0 00-.091-.263l-6.25-15.625a3.132 3.132 0 00-2.444-1.931 3.125 3.125 0 00-2.898 1.139l-6.462 8.078a5.533 5.533 0 01-4.01 2.066 5.515 5.515 0 01-5.819-5.307 5.552 5.552 0 011.318-3.808 27.659 27.659 0 00.248-35.805l-2.31-2.774a3.125 3.125 0 00-5.432 1.243l-.85 3.405a8.87 8.87 0 01-5.493 6.165v-4.744a44.817 44.817 0 00-8.395-26.195 38.6 38.6 0 01-7.23-22.562V3.375a3.125 3.125 0 00-4.859-2.6L50.907 9.681a24.117 24.117 0 00-8.68 29.931 17.82 17.82 0 01-2.561 18.694L14.368 88.931a60.373 60.373 0 0046.544 98.819h6.377a59.97 59.97 0 0042.688-17.682l.788-.788a57.67 57.67 0 0014.478-57.428zm-18.898 53.007l-.788.789A53.762 53.762 0 0167.289 181.5h-6.377a54.119 54.119 0 01-53.698-60.876 54.121 54.121 0 0111.973-27.713l25.298-30.625a24.035 24.035 0 003.453-25.213 17.884 17.884 0 016.437-22.193l8.5-5.666v5.72a44.817 44.817 0 008.394 26.195A38.6 38.6 0 0178.5 63.69v8.434a3.125 3.125 0 003.126 3.125 15.109 15.109 0 0013.82-8.962 21.418 21.418 0 01-1.602 25.846 11.778 11.778 0 0010.143 19.379 11.77 11.77 0 007.994-4.359l3.112-3.889 4.206 10.515a51.436 51.436 0 01-12.953 51.079z" fill="#000"/><path d="M99.664 122.225a3.12 3.12 0 00-2.994.815l-9.091 9.092a6.112 6.112 0 01-8.46.206 6.117 6.117 0 01-.564-8.445 27.537 27.537 0 003.477-29.949L67.3 64.477a3.125 3.125 0 00-5.908 1.115l-2.265 24.922a19.252 19.252 0 01-7.11 13.226l-12.88 10.304a32.163 32.163 0 00-12.13 25.237v3.547a32.32 32.32 0 0032.32 32.319h.319l9.03-.089a32.123 32.123 0 0022.617-9.549l.03-.031a42.005 42.005 0 0010.563-41.087 3.126 3.126 0 00-2.221-2.166zm-12.769 38.839l-.028.027-.008.009a25.915 25.915 0 01-18.247 7.705l-9.03.089a26.063 26.063 0 01-18.6-7.543 26.075 26.075 0 01-7.727-18.523v-3.547a25.946 25.946 0 019.784-20.356l12.88-10.304a25.532 25.532 0 009.433-17.542l1.27-13.98 9.821 19.64a21.29 21.29 0 01-2.687 23.153 12.366 12.366 0 0018.242 16.659l4.984-4.984a35.748 35.748 0 01-10.087 29.497zM9.75 59.625v6.25a3.125 3.125 0 106.25 0v-6.25a3.125 3.125 0 10-6.25 0zm12.5-6.25a3.125 3.125 0 003.125-3.125V44a3.125 3.125 0 10-6.25 0v6.25a3.125 3.125 0 003.125 3.125zm-12.5-12.5a3.125 3.125 0 003.125-3.125V31.5a3.125 3.125 0 10-6.25 0v6.25a3.125 3.125 0 003.125 3.125zm109.375 37.5a3.125 3.125 0 003.125-3.125V69a3.125 3.125 0 10-6.25 0v6.25a3.125 3.125 0 003.125 3.125zM109.75 56.5a3.125 3.125 0 003.125-3.125v-6.25a3.125 3.125 0 10-6.25 0v6.25a3.125 3.125 0 003.125 3.125zm12.5-9.375A3.125 3.125 0 00125.375 44v-9.375a3.125 3.125 0 10-6.25 0V44a3.125 3.125 0 003.125 3.125z" fill="#000"/></svg>