<svg width="178" height="200" fill="none" xmlns="http://www.w3.org/2000/svg"><path d="M94.994 2.932c-21.488.158-40.93 8.935-55.04 23.044-14.235 14.24-23.043 33.905-23.043 55.632V97.46c0 5.618 4.554 10.173 10.173 10.173 5.618 0 10.172-4.555 10.172-10.173v-5.653c0-5.619 4.556-10.174 10.175-10.174 5.62 0 10.175 4.555 10.175 10.174v11.973c0 5.619 4.555 10.175 10.174 10.175 5.62 0 10.175-4.555 10.175-10.175V84.387c0-9.766 7.99-18.011 17.755-17.944a17.6 17.6 0 0112.348 5.163 17.596 17.596 0 015.164 12.472v29.876h61.043V82.311c-.001-43.598-35.673-79.7-79.27-79.38z" fill="#01D0FB"/><path d="M37.275 81.632c-5.62 0-10.175 4.555-10.175 10.174v5.653c0 3.768-2.05 7.055-5.095 8.813a10.123 10.123 0 005.079 1.359c5.618 0 10.172-4.554 10.172-10.172v-5.653c0-3.77 2.051-7.057 5.097-8.815a10.125 10.125 0 00-5.078-1.36zm48.278-15.189c-9.765-.067-17.755 8.178-17.755 17.944v19.392c0 3.769-2.051 7.057-5.096 8.815a10.125 10.125 0 005.078 1.36c5.619 0 10.174-4.555 10.174-10.175V84.387c0-7.976 5.33-14.936 12.605-17.183a17.62 17.62 0 00-5.006-.761zm9.442-63.511c-1.52.011-3.027.07-4.524.166 40.995 2.667 73.638 37.508 73.638 79.213v31.643h10.156V82.311c-.001-43.598-35.673-79.7-79.27-79.38z" fill="#01C0FA"/><path d="M69.75 197.07H17.855a3.927 3.927 0 01-3.927-3.927v-53.568h59.749v53.569a3.926 3.926 0 01-3.927 3.926z" fill="#fff"/><path d="M63.13 139.575v53.569a3.927 3.927 0 01-3.927 3.927h10.546a3.927 3.927 0 003.928-3.927v-53.569H63.13z" fill="#fff"/><path d="M43.802 166.493a7.38 7.38 0 100-14.761 7.38 7.38 0 100 14.761z" fill="#DDEBFD"/><path d="M79.026 126.882H8.58a4.567 4.567 0 00-4.567 4.566v3.56a4.566 4.566 0 004.567 4.566h70.447a4.566 4.566 0 004.567-4.566v-3.56a4.567 4.567 0 00-4.567-4.566z" fill="#5392F9"/><path d="M79.026 126.882H68.48a4.567 4.567 0 014.566 4.567v3.559a4.566 4.566 0 01-4.567 4.567h10.547a4.567 4.567 0 004.567-4.567v-3.559a4.567 4.567 0 00-4.567-4.567z" fill="#4071F7"/><path d="M113.223 105.437v19.5h61.043v-19.5a1.954 1.954 0 00-1.954-1.953h-57.136a1.953 1.953 0 00-1.953 1.953z" fill="#DDEBFD"/><path d="M172.312 103.484h-10.156c1.079 0 1.953.875 1.953 1.953v19.5h10.157v-19.5a1.954 1.954 0 00-1.954-1.953z" fill="#BED9FD"/><path d="M113.223 124.937h61.043v14.416h-61.043v-14.416z" fill="#fff"/><path d="M164.109 124.937h10.157v14.416h-10.157v-14.416z" fill="#fff"/><path d="M113.223 139.353v12.494c0 5.302 10.254 10.581 19.363 13.467a4.953 4.953 0 013.465 4.72v21.097a5.94 5.94 0 005.94 5.939h3.507a5.939 5.939 0 005.939-5.939v-21.097a4.952 4.952 0 013.466-4.72c9.108-2.886 19.363-8.165 19.363-13.467v-12.494h-61.043z" fill="#5392F9"/><path d="M164.109 139.353v12.494c0 5.302-10.254 10.581-19.363 13.467a4.954 4.954 0 00-3.466 4.72v21.097a5.933 5.933 0 01-2.614 4.922 5.908 5.908 0 003.324 1.017h3.507a5.94 5.94 0 005.94-5.939v-21.097a4.953 4.953 0 013.465-4.72c9.109-2.886 19.363-8.165 19.363-13.467v-12.494h-10.156z" fill="#4071F7"/><path d="M95.571 21.485c15.928 0 30.986 6.359 42.401 17.905 11.438 11.568 17.737 26.81 17.737 42.92a2.93 2.93 0 005.859 0c0-17.662-6.9-34.368-19.429-47.041-12.524-12.668-29.062-19.644-46.568-19.644h-.462a2.93 2.93 0 100 5.86h.462zM79.026 123.953H8.578c-4.133 0-7.496 3.362-7.496 7.496v3.559c0 4.133 3.363 7.496 7.496 7.496h2.42v13.679H3.736a2.93 2.93 0 100 5.859h7.262v31.101A6.865 6.865 0 0017.855 200H69.75a6.864 6.864 0 006.856-6.857v-20.088a2.93 2.93 0 10-5.859 0v20.088c0 .55-.447.998-.997.998H17.855a.999.999 0 01-.997-.998v-31.101h17.06c1.266 4.262 5.217 7.381 9.884 7.381 5.685 0 10.31-4.625 10.31-10.31 0-5.685-4.625-10.311-10.31-10.311-4.667 0-8.618 3.119-9.884 7.381h-17.06v-13.679h53.889v16.88a2.93 2.93 0 005.86 0v-16.88h2.419c4.133 0 7.496-3.362 7.496-7.496v-3.559c0-4.134-3.363-7.496-7.496-7.496zm-35.224 30.709a4.456 4.456 0 014.451 4.451 4.456 4.456 0 01-4.45 4.451 4.456 4.456 0 01-4.452-4.451 4.456 4.456 0 014.451-4.451zm36.86-19.654c0 .903-.734 1.637-1.636 1.637H8.578a1.639 1.639 0 01-1.636-1.637v-3.559c0-.903.734-1.637 1.636-1.637h70.448c.902 0 1.636.735 1.636 1.637v3.559z" fill="#000"/><path d="M177.193 82.31c0-11.14-2.216-21.98-6.586-32.216-4.222-9.888-10.247-18.758-17.908-26.363C137.124 8.27 116.619-.173 94.972.003c-21.56.159-41.835 8.647-57.09 23.902a82.523 82.523 0 00-6.02 6.723 2.93 2.93 0 004.573 3.663 76.454 76.454 0 015.59-6.243c14.16-14.16 32.98-22.039 52.99-22.186l.56-.002c19.87 0 38.673 7.81 52.997 22.03 14.679 14.57 22.763 33.898 22.763 54.42v18.244h-39.559V84.078c0-9.66-3.761-18.746-10.59-25.584a2.93 2.93 0 00-4.146 4.14c5.724 5.732 8.877 13.347 8.877 21.443v16.477h-9.766V84.077c0-5.49-2.138-10.654-6.023-14.544a20.458 20.458 0 00-14.398-6.02c-5.41-.041-10.55 2.087-14.47 5.98-3.963 3.936-6.235 9.364-6.235 14.894v19.392c0 3.995-3.25 7.244-7.245 7.244s-7.244-3.249-7.244-7.244V91.806c0-7.226-5.879-13.104-13.105-13.104-7.225 0-13.103 5.878-13.103 13.104v5.653c0 3.994-3.25 7.243-7.243 7.243-3.994 0-7.243-3.249-7.243-7.243v-15.85c0-12.956 3.327-25.74 9.62-36.972a2.93 2.93 0 10-5.111-2.864c-6.784 12.105-10.37 25.88-10.37 39.836v15.85c0 7.225 5.878 13.102 13.102 13.102 7.225 0 13.103-5.877 13.103-13.102v-5.653c0-3.995 3.25-7.245 7.244-7.245 3.995 0 7.245 3.25 7.245 7.245v11.973c0 7.226 5.879 13.104 13.104 13.104 7.226 0 13.104-5.878 13.104-13.104V84.387c0-3.98 1.642-7.892 4.505-10.735 2.805-2.786 6.473-4.302 10.3-4.279a14.627 14.627 0 0110.296 4.304 14.622 14.622 0 014.307 10.401c.001 14.516.002 51.97.001 67.769 0 3.508 2.567 6.912 7.629 10.115 3.629 2.297 8.523 4.48 13.779 6.145a2.018 2.018 0 011.42 1.927v21.097c0 4.891 3.979 8.869 8.87 8.869h3.507c4.891 0 8.869-3.979 8.869-8.869v-21.097c0-.884.571-1.658 1.421-1.927 5.256-1.666 10.15-3.848 13.779-6.145 5.062-3.203 7.628-6.607 7.628-10.115 0 .039.001-15.224-.001-69.536zm-61.041 45.556h55.183v8.557h-55.183v-8.557zm55.182-21.452l.001 15.593h-55.183v-15.593h55.182zm.001 45.433c0 .996-1.288 2.876-4.903 5.164-3.216 2.036-7.625 3.993-12.415 5.51a7.856 7.856 0 00-5.51 7.513v21.097c0 1.66-1.351 3.01-3.01 3.01h-3.507c-1.66 0-3.01-1.35-3.01-3.01v-21.097a7.857 7.857 0 00-5.51-7.513c-4.79-1.518-9.199-3.475-12.416-5.51-3.614-2.288-4.902-4.168-4.902-5.164v-9.564h55.183v9.564z" fill="#000"/></svg>