<svg width="200" height="200" fill="none" xmlns="http://www.w3.org/2000/svg"><path d="M34.386 158.929h129.786v19.703H34.386v-19.703z" fill="#fff"/><path d="M48.638 4.017V20.37c0 4.082 1.376 8.047 3.905 11.252l8.553 10.841a5.854 5.854 0 01-.36 7.668c-6.941 7.27-12.292 15.195-15.956 24.589h14.702a8.424 8.424 0 018.424 8.423v.184a8.426 8.426 0 01-8.424 8.423h5.002a8.424 8.424 0 018.418 8.736c-.164 4.563-4.054 8.112-8.62 8.112h-3.458a8.048 8.048 0 018.05 8.049c-.002 4.413-3.606 8.124-8.05 8.124h-4.307a8.048 8.048 0 018.04 8.344c-.156 4.359-3.871 7.751-8.233 7.751h-6.007a70.803 70.803 0 008.377 11.763l5.552 6.298h71.5l5.548-6.298a70.874 70.874 0 008.377-11.763h-2.283a8.001 8.001 0 01-8.043-7.751 8.05 8.05 0 018.044-8.344h-8.214a8.045 8.045 0 01-8.045-8.045v-.079a8.045 8.045 0 018.045-8.049h-3.659a8.395 8.395 0 01-5.954-2.466 8.403 8.403 0 01-2.469-6.093c.073-4.631 3.983-8.289 8.615-8.289h4.81a8.426 8.426 0 01-8.424-8.424v-.183a8.424 8.424 0 018.424-8.424h14.706c-3.543-9.406-9.072-17.357-15.969-24.586a5.855 5.855 0 01-.361-7.669l8.553-10.843a18.167 18.167 0 003.903-11.25V4.017H48.638z" fill="#4EAAF5"/><path d="M86.309 178.632h25.939v17.351h-25.94v-17.351z" fill="#838EB1"/><path d="M44.778 74.72H59.48a8.424 8.424 0 018.425 8.425v.183a8.424 8.424 0 01-8.425 8.424h5.004a8.424 8.424 0 018.424 8.424c-.067 4.586-3.786 8.424-8.424 8.424h-3.661a8.048 8.048 0 018.047 8.048c.002 4.413-3.602 8.127-8.047 8.127h-4.31a8.047 8.047 0 018.047 8.047c-.045 4.38-3.633 8.047-8.047 8.047h-7.846c-4.495 0-8.84-1.613-12.247-4.545l-15.06-12.965H3.905v-45.76H21.36l9.61-20.367c2.266-4.802 7.992-6.862 12.798-4.605a9.625 9.625 0 014.871 12.217l-3.862 9.877zm110.444 0h-14.704a8.424 8.424 0 00-8.424 8.425v.183a8.425 8.425 0 008.424 8.424h-5.003a8.424 8.424 0 00-8.425 8.424c.068 4.586 3.787 8.424 8.425 8.424h3.661a8.048 8.048 0 00-8.047 8.048v.079a8.047 8.047 0 008.047 8.047h8.211a8.047 8.047 0 00-8.047 8.047c.045 4.38 3.633 8.048 8.047 8.048h3.944c4.495 0 8.841-1.613 12.247-4.546l15.061-12.964h17.455v-45.76h-17.455l-9.61-20.367a9.626 9.626 0 00-17.669 7.612l3.862 9.877z" fill="#FEFEFE"/><path d="M196.094 73.693h-14.979l-8.553-18.129c-3.178-6.735-11.248-9.64-17.991-6.472a13.452 13.452 0 00-6.035 5.631c-1.991-2.577-4.212-4.934-6.456-7.286a1.958 1.958 0 01-.12-2.552l3.598-4.562h9.126a3.906 3.906 0 000-7.813h-3.069a22.18 22.18 0 003.639-12.138V4.017A3.906 3.906 0 00151.348.11h-34.477a3.906 3.906 0 000 7.812h30.571v12.449c0 3.19-1.088 6.326-3.064 8.83l-2.608 3.308h-30.507a3.907 3.907 0 000 7.813h24.364c-2.77 3.78-2.455 9.095.8 12.507 5.171 5.42 9.623 11.194 12.883 17.984h-8.793c-6.799 0-12.33 5.531-12.33 12.33a12.414 12.414 0 001.518 6.101c-.012-.023-1.882 1.103-2.978 2.292-2.186 2.372-3.607 5.55-3.537 8.788a12.23 12.23 0 003.609 8.571c.641.64 1.34 1.202 2.085 1.679a11.975 11.975 0 00-1.661 6.152c0 5.6 3.871 10.312 9.077 11.603a11.907 11.907 0 00-.841 5.174 11.894 11.894 0 007.638 10.485 65.515 65.515 0 01-4.734 6.06l-4.382 4.973H66.009l-4.386-4.974a65.408 65.408 0 01-4.208-5.311c5.965-.454 10.831-5.501 11.044-11.481a12.008 12.008 0 00-1.505-6.27c3.618-2.171 5.816-6.132 5.825-10.337a11.88 11.88 0 00-1.68-6.106c3.324-2.108 5.556-5.726 5.706-9.916.168-4.664-2.407-9.146-6.529-11.345 1.04-1.876 1.55-3.997 1.535-6.138 0-6.799-5.53-12.33-12.33-12.33H50.77c3.163-6.393 7.381-12.318 12.791-17.984 3.337-3.494 3.596-8.99.602-12.786l-8.553-10.84a14.294 14.294 0 01-2.454-4.719h26.25a3.907 3.907 0 000-7.812h-26.86v-8.75H82.54a3.907 3.907 0 000-7.812h-33.9a3.907 3.907 0 00-3.907 3.906v12.655h-5.809a3.907 3.907 0 000 7.813h6.205a22.164 22.164 0 004.348 9.558l8.553 10.84a1.957 1.957 0 01-.118 2.551 88.458 88.458 0 00-6.368 7.434 13.46 13.46 0 00-6.113-5.777c-6.743-3.169-14.813-.263-17.991 6.473l-8.554 18.129H3.906A3.907 3.907 0 000 77.599v45.76a3.906 3.906 0 003.906 3.906h16.005l13.962 12.019a22.688 22.688 0 0014.21 5.478 74.513 74.513 0 007.516 10.261H34.386a3.906 3.906 0 00-3.907 3.906v19.702a3.907 3.907 0 003.907 3.907h48.016v13.445a3.907 3.907 0 003.907 3.906h25.939a3.906 3.906 0 003.906-3.906v-13.445h48.017a3.907 3.907 0 003.907-3.907v-19.702a3.907 3.907 0 00-3.907-3.906h-19.783a74.446 74.446 0 007.515-10.261 22.688 22.688 0 0014.224-5.478l13.962-12.019h16.005a3.906 3.906 0 003.906-3.906v-45.76a3.906 3.906 0 00-3.906-3.906zm-87.752 118.384H90.215v-9.539h18.127v9.539zm51.923-17.352H38.292v-11.889h121.973v11.889zM23.909 120.398a3.907 3.907 0 00-2.548-.945H7.812V81.505h13.549a3.906 3.906 0 003.533-2.239l9.61-20.368a5.727 5.727 0 017.603-2.736 5.734 5.734 0 012.895 7.26l-3.862 9.876c-.983 2.514.937 5.329 3.638 5.329H59.48A4.523 4.523 0 0164 83.144c.04 2.525-1.94 4.701-4.518 4.701h-8.36a3.907 3.907 0 000 7.813h13.362c2.506 0 4.545 2.108 4.513 4.58-.1 2.501-2.217 4.455-4.714 4.455h-13.96a3.907 3.907 0 000 7.813h10.502a4.146 4.146 0 014.141 4.141c.003 2.278-1.83 4.219-4.142 4.219l-6.187.002a3.906 3.906 0 000 7.812h1.878c2.299 0 4.164 1.933 4.137 4.194-.076 2.301-2.053 4.087-4.327 4.087l-7.656.001a14.872 14.872 0 01-9.698-3.599l-15.06-12.965zm168.279-.945h-13.549c-.935 0-1.839.335-2.548.945l-15.061 12.965a14.872 14.872 0 01-9.698 3.599l-3.945-.001c-2.19 0-4.081-1.947-4.138-4.115-.015-2.242 1.84-4.166 4.138-4.166 2.103 0 3.907-1.794 3.907-3.908a3.906 3.906 0 00-3.906-3.906h-8.213a4.144 4.144 0 01-4.139-4.139c0-2.275 1.83-4.221 4.14-4.221h10.502a3.906 3.906 0 000-7.813h-14.163c-.04 0-.08-.005-.12-.006-2.37-.065-4.31-2.038-4.393-4.477-.017-2.541 2.211-4.552 4.705-4.552h13.172a3.906 3.906 0 000-7.813h-8.36a4.523 4.523 0 01-4.518-4.518v-.183a4.523 4.523 0 014.518-4.517h14.703c2.68 0 4.602-2.772 3.657-5.283-.217-.576-3.881-9.922-3.881-9.922a5.734 5.734 0 012.895-7.26 5.727 5.727 0 017.603 2.737l9.611 20.368a3.906 3.906 0 003.532 2.239h13.549v37.947z" fill="#000"/><path d="M96.285 5.511c.818 1.964 3.133 2.93 5.102 2.114 1.966-.816 2.925-3.136 2.113-5.102-.812-1.967-3.138-2.926-5.102-2.113-1.972.817-2.921 3.131-2.113 5.101z" fill="#000"/></svg>