<svg width="40" height="40" fill="none" xmlns="http://www.w3.org/2000/svg"><path d="M3.125 21.637V38.75h1.25V25.625h12.5V38.75h1.25V21.695A4.41 4.41 0 0020 18.088v-4.963A3.129 3.129 0 0016.875 10H13.75a.625.625 0 00-.183-.442l-.336-.336c.339-.51.52-1.11.519-1.722V4.761l.264-.132a1.784 1.784 0 00-.798-3.379h-2.591A3.129 3.129 0 007.5 4.375V10H4.375a3.129 3.129 0 00-3.125 3.125v4.844a4.527 4.527 0 001.875 3.668zm13.75 2.738h-12.5v-2.1a4.528 4.528 0 005.404-2.174l.286-.536 2.96 2.113a4.41 4.41 0 003.85.63v2.067zm1.875-6.287a3.16 3.16 0 01-5 2.573l-3.091-2.209 1.042-1.954 3.678 1.576a.626.626 0 00.871-.574v-1.25h2.5v1.838zm-1.875-6.838a1.877 1.877 0 011.875 1.875V15h-2.5v-1.25H15v2.802l-2.709-1.16 1.386-2.598a.625.625 0 00.073-.294v-1.25h3.125zm-6.25-8.75h2.591a.534.534 0 01.239 1.011l-.478.239H10a.625.625 0 00-.442.183l-.808.808v-.366A1.877 1.877 0 0110.625 2.5zM8.75 6.509L10.259 5H12.5v2.5a1.875 1.875 0 11-3.75 0v-.991zm.625 5.197a1.25 1.25 0 01-.625-1.081v-.627c.194.146.403.268.625.365v1.343zm-5-.456h3.204a2.51 2.51 0 001.284 1.6L6.25 15.837V13.75H5v1.875H2.5v-2.5a1.877 1.877 0 011.875-1.875zM2.5 16.875H5v.625a.625.625 0 001.095.412l4.375-5c.1-.114.155-.26.155-.412v-1.875c.613 0 1.212-.18 1.722-.52l.153.154v2.085l-3.824 7.169A3.282 3.282 0 012.5 17.969v-1.094z" fill="#fff"/><path d="M11.257 38.845l1.235-.19-1.25-8.125a.625.625 0 00-1.226-.046L8.14 38.61l1.218.282 1.143-4.954.755 4.908zm24.715-33.74l-3.75-2.5a.625.625 0 00-.694 0l-3.75 2.5a.624.624 0 00-.278.52V10a.624.624 0 00.278.52l3.75 2.5a.625.625 0 00.694 0l3.75-2.5a.625.625 0 00.278-.52V5.625a.624.624 0 00-.278-.52zm-4.097-1.229l2.623 1.749-2.623 1.749-2.623-1.749 2.623-1.749zM28.75 6.793l2.5 1.666v2.873l-2.5-1.667V6.793zm3.75 4.54V8.458L35 6.793v2.872l-2.5 1.667zm-4.375 3.042H26.25v1.25h1.875v-1.25zm9.375 0h-8.125v1.25H37.5v-1.25zm-6.25 2.5h-6.875v1.25h6.875v-1.25zm7.5 0H32.5v1.25h6.25v-1.25zm-15.625-12.5v-1.25H21.25a.625.625 0 00-.625.625V7.5a.625.625 0 00.625.625H25a.625.625 0 00.625-.625V4.009l1.067-1.067-.884-.884-3.75 3.75.884.884 1.433-1.433v1.616h-2.5v-2.5h1.25zm5 26.875H26.25v1.25h1.875v-1.25zm9.375 0h-1.875v1.25H37.5v-1.25zm-3.125 0h-5v1.25h5v-1.25zm-3.125 2.5h-4.375V35h4.375v-1.25zm-5.625 0h-1.25V35h1.25v-1.25zm13.125 0H32.5V35h6.25v-1.25zm-18.125-9.375a.625.625 0 00.625.625H25a.625.625 0 00.625-.625v-3.491l1.067-1.067-.884-.884-3.75 3.75.884.884 1.433-1.433v1.616h-2.5v-2.5h1.25V20H21.25a.625.625 0 00-.625.625v3.75zm15.625-3.75H27.5a.625.625 0 00-.625.625v6.875a.625.625 0 00.625.625h8.75a.625.625 0 00.625-.625V21.25a.625.625 0 00-.625-.625zm-.625 1.25v.95l-1.584 1.267a1.534 1.534 0 01-1.88.03 2.774 2.774 0 00-3.103-.16l-.933.56v-2.647h7.5zm-7.5 5.625v-1.521l1.576-.946a1.529 1.529 0 011.71.088 2.783 2.783 0 003.41-.053l.804-.643V27.5h-7.5z" fill="#fff"/></svg>