<svg width="40" height="40" fill="none" xmlns="http://www.w3.org/2000/svg"><path d="M18.34 3.705h17.985a.585.585 0 100-1.17H18.339a.585.585 0 100 1.17zm17.985 1.731H18.339a.585.585 0 100 1.17h17.986a.585.585 0 100-1.17zM18.34 9.509h12.204a.585.585 0 100-1.17H18.339a.585.585 0 100 1.17zm17.985 7.004H18.339a.585.585 0 100 1.17h17.986a.585.585 0 100-1.17zm0 2.902H18.339a.585.585 0 100 1.17h17.986a.585.585 0 000-1.17zM18.34 23.487h12.204a.585.585 0 100-1.17H18.339a.585.585 0 100 1.17zm-2.812 5.338a1.635 1.635 0 00-1.192-.406c-.438.028-.84.225-1.13.555l-.296.338a5.989 5.989 0 00-3.799-1.355 6.028 6.028 0 00-6.021 6.021A6.028 6.028 0 009.11 40a6.028 6.028 0 006.022-6.022 5.98 5.98 0 00-.3-1.872l.844-.96c.29-.33.434-.752.406-1.19a1.635 1.635 0 00-.555-1.13zM9.11 38.83a4.857 4.857 0 01-4.85-4.852 4.857 4.857 0 014.85-4.85c1.144 0 2.196.398 3.026 1.063l-2.479 2.817-.89-1.037a1.634 1.634 0 00-1.122-.57 1.647 1.647 0 00-1.375 2.71l2.122 2.476a1.643 1.643 0 002.484.016l3.018-3.431a4.857 4.857 0 01-4.783 5.658zm5.687-8.457l-4.8 5.457a.475.475 0 01-.354.161H9.64a.473.473 0 01-.357-.166L7.16 33.35a.475.475 0 01.72-.617l1.328 1.549a.585.585 0 00.884.006l3.993-4.541a.471.471 0 01.67-.043.472.472 0 01.043.67zm21.528.118H18.339a.585.585 0 100 1.17h17.986a.585.585 0 100-1.17zm0 2.902H18.339a.585.585 0 100 1.17h17.986a.585.585 0 000-1.17zm-5.781 2.902H18.339a.585.585 0 100 1.17h12.205a.585.585 0 000-1.17zM15.528.869a1.635 1.635 0 00-1.192-.407c-.438.028-.84.225-1.13.555l-.296.337a6.01 6.01 0 00-7.828.192.585.585 0 00.784.87 4.841 4.841 0 016.27-.182L9.659 5.052l-.89-1.038a1.634 1.634 0 00-1.122-.57 1.646 1.646 0 00-1.375 2.71L8.393 8.63a1.644 1.644 0 002.484.016l3.018-3.43a4.857 4.857 0 01-4.783 5.658 4.857 4.857 0 01-4.557-6.52.585.585 0 10-1.1-.403 6.028 6.028 0 005.656 8.092 6.028 6.028 0 006.022-6.022c0-.654-.106-1.283-.3-1.873l.844-.958c.29-.33.434-.753.406-1.192a1.634 1.634 0 00-.555-1.13zm-.73 1.548l-4.8 5.456a.475.475 0 01-.354.161H9.64a.474.474 0 01-.357-.165L7.16 5.393a.475.475 0 01.72-.617l1.328 1.55a.585.585 0 00.884.005l3.993-4.54a.471.471 0 01.67-.044.472.472 0 01.043.67zm.73 12.43a1.634 1.634 0 00-1.192-.406c-.438.028-.84.225-1.13.555l-.297.338a5.988 5.988 0 00-3.798-1.355A6.028 6.028 0 003.09 20a6.028 6.028 0 006.021 6.022A6.028 6.028 0 0015.133 20c0-.654-.106-1.283-.3-1.873l.844-.959c.29-.33.434-.753.406-1.191a1.634 1.634 0 00-.555-1.13zm-.73 1.548l-2.49 2.83a.585.585 0 10.879.773l.708-.804a4.857 4.857 0 01-4.783 5.657 4.857 4.857 0 01-4.852-4.85 4.857 4.857 0 014.851-4.852c1.144 0 2.195.399 3.025 1.063L9.659 19.03l-.89-1.037a1.634 1.634 0 00-1.122-.57 1.647 1.647 0 00-1.375 2.71l2.122 2.476a1.644 1.644 0 002.484.016l.543-.618a.585.585 0 10-.879-.773l-.543.618a.475.475 0 01-.354.16H9.64a.474.474 0 01-.357-.165L7.16 19.371a.475.475 0 01.72-.617l1.328 1.55c.11.128.271.203.44.204h.004a.585.585 0 00.44-.199l3.993-4.54a.47.47 0 01.67-.043.471.471 0 01.043.67z" fill="#fff"/></svg>