<svg width="80" height="80" fill="none" xmlns="http://www.w3.org/2000/svg"><path d="M58.666 26.666c-.505 0-1.005.096-1.474.283a3.997 3.997 0 00-5.193-2.72v-.23a4 4 0 00-7.858-1.05 3.998 3.998 0 00-5.475 3.717v11.176l-1.4.7a7.114 7.114 0 00-.765 12.283l3.645 2.43a2.662 2.662 0 011.187 2.218V80h2.666V55.473a5.321 5.321 0 00-2.375-4.437l-3.644-2.43a4.447 4.447 0 01.478-7.679l.208-.104V44h2.667V26.666a1.333 1.333 0 112.666 0v12h2.667V24a1.333 1.333 0 112.667 0v14.667h2.666V28a1.334 1.334 0 012.667 0v12h2.667v-9.333a1.333 1.333 0 012.666 0v11.37a24.046 24.046 0 01-2.525 10.7c-.093.186-.141.39-.141.597V80h2.666V53.643a26.733 26.733 0 002.667-11.606v-11.37a4.005 4.005 0 00-4-4z" fill="#fff"/><path d="M25.333 48.323a5.299 5.299 0 00-1.562-3.77l-2.468-2.47A4.42 4.42 0 0120 38.938V32a1.333 1.333 0 112.667 0v4a1.333 1.333 0 00.912 1.265l.204.068a4.212 4.212 0 012.884 4h2.666a6.874 6.874 0 00-4-6.25v-13.75a1.334 1.334 0 012.667 0V32h2.667V16a1.333 1.333 0 012.666 0v16H36V20a1.333 1.333 0 112.667 0v1.333h2.666V20A3.999 3.999 0 0036 16.23V16a4 4 0 10-8 0v1.563a4 4 0 00-5.333 3.77v6.896A3.998 3.998 0 0017.333 32v6.938a7.068 7.068 0 002.084 5.031l2.468 2.469a2.648 2.648 0 01.782 1.885v2.344h-1.334A1.333 1.333 0 0020 52v28h2.667V53.333h10.666v-2.666h-8v-2.344z" fill="#fff"/><path d="M25.333 56H28v2.667h-2.667V56zM38.667 0h2.666v12h-2.666V0zM18.846 6.027l2.31-1.333 4.603 7.974-2.31 1.333-4.603-7.974zM4.692 21.154l1.333-2.309 10.392 6-1.333 2.31-10.392-6zM0 38.667h12v2.666H0v-2.666zm4.692 20.179l10.392-6 1.333 2.309-10.392 6-1.333-2.31zm58.888-3.69l1.332-2.309 10.392 6-1.333 2.31-10.392-6zM68 38.667h12v2.666H68v-2.666zm-4.417-13.823l10.392-6 1.334 2.309-10.392 6-1.334-2.31zm-10.741-9.759l6-10.392 2.309 1.334-6 10.392-2.31-1.334zM29.054 4.28l2.576-.691 1.381 5.152-2.576.69-1.38-5.152zm-16.4 10.264l1.886-1.886 3.77 3.77-1.885 1.886-3.77-3.77zM3.596 31.631l.69-2.576 5.153 1.382-.691 2.576-5.152-1.382zm.008 16.746l5.152-1.381.69 2.576-5.151 1.381-.69-2.576zM47.008 8.744l1.382-5.152 2.576.69-1.382 5.152-2.576-.69zm14.667 7.691l3.77-3.77 1.886 1.885-3.77 3.77-1.886-1.885zm8.905 13.984l5.151-1.382.69 2.576-5.151 1.382-.69-2.576zm.003 19.154l.69-2.576 5.153 1.381-.69 2.576-5.153-1.381z" fill="#fff"/></svg>