<svg width="80" height="80" fill="none" xmlns="http://www.w3.org/2000/svg"><path d="M71.464 15.303h2.472a1.562 1.562 0 000-3.123h-5.934c-.862 0-1.561.699-1.561 1.561v5.934a1.562 1.562 0 003.123 0v-1.718A36.757 36.757 0 0176.877 40c0 20.334-16.543 36.877-36.877 36.877C19.666 76.877 3.123 60.334 3.123 40 3.123 19.666 19.666 3.123 40 3.123c1.504 0 3.017.091 4.499.271a1.563 1.563 0 00.377-3.1A40.57 40.57 0 0040 0C29.316 0 19.27 4.16 11.716 11.716 4.16 19.27 0 29.316 0 40c0 10.684 4.16 20.73 11.716 28.284C19.27 75.84 29.316 80 40 80c10.684 0 20.73-4.16 28.284-11.716C75.84 60.73 80 50.684 80 40a39.87 39.87 0 00-8.536-24.697z" fill="#fff"/><path d="M16.937 23.58a1.562 1.562 0 00-2.155.485c-3.564 5.63-5.142 12.4-4.443 19.065a29.893 29.893 0 008.571 17.96c5.815 5.813 13.452 8.72 21.09 8.72 7.637 0 15.274-2.907 21.088-8.72 11.629-11.63 11.629-30.55 0-42.179a29.895 29.895 0 00-17.93-8.568c-6.652-.705-13.415.86-19.043 4.408a1.562 1.562 0 101.665 2.642c10.608-6.686 24.22-5.154 33.1 3.727 10.41 10.41 10.41 27.35 0 37.76-10.41 10.412-27.35 10.412-37.761 0-8.758-8.757-10.313-22.697-3.698-33.145a1.562 1.562 0 00-.484-2.155z" fill="#fff"/><path d="M60.3 41.587h1.925a1.562 1.562 0 000-3.123H60.3a1.562 1.562 0 000 3.123zm-44.085-1.612c0 .863.699 1.562 1.561 1.562h1.926a1.562 1.562 0 000-3.123h-1.926c-.862 0-1.561.7-1.561 1.561zM41.587 19.7v-1.925a1.562 1.562 0 00-3.123 0V19.7a1.562 1.562 0 003.123 0zm-3.173 40.6v1.925a1.562 1.562 0 003.123 0V60.3a1.562 1.562 0 00-3.123 0zm-6.24-30.335a1.562 1.562 0 00-2.209 2.209l5.292 5.292A5.346 5.346 0 0034.621 40a5.385 5.385 0 005.38 5.379A5.385 5.385 0 0045.38 40c0-.915-.231-1.778-.636-2.534l10.678-10.678a1.562 1.562 0 00-2.209-2.208L42.535 35.258a5.345 5.345 0 00-2.534-.637 5.35 5.35 0 00-2.535.636l-5.292-5.291zm10.083 10.036A2.259 2.259 0 0140 42.257a2.259 2.259 0 01-2.257-2.256A2.259 2.259 0 0140 37.744a2.259 2.259 0 012.256 2.257zM21.118 21.12a1.57 1.57 0 00.459-1.105c0-.41-.167-.812-.46-1.104a1.571 1.571 0 00-1.103-.457c-.41 0-.814.167-1.104.457-.29.29-.458.694-.458 1.104a1.567 1.567 0 001.562 1.562 1.57 1.57 0 001.104-.458zM50.817 4.666a1.566 1.566 0 001.563-1.562c0-.41-.167-.813-.458-1.104a1.574 1.574 0 00-1.105-.457c-.41 0-.814.167-1.104.457-.29.29-.458.694-.458 1.104a1.567 1.567 0 001.561 1.561z" fill="#fff"/></svg>