<svg width="40" height="40" fill="none" xmlns="http://www.w3.org/2000/svg"><path d="M39.897 22.924l-2.025-3.098a4.832 4.832 0 00-4.064-2.186H28.57v-3.013a3.34 3.34 0 00-3.336-3.336h-9.802c-.55-2.873-3.079-5.052-6.11-5.052A6.23 6.23 0 003.1 12.462a6.22 6.22 0 002.778 5.178H.635a.635.635 0 100 1.27h6.35v1.27h-2.54a.635.635 0 100 1.27h2.54v1.27H.634a.635.635 0 100 1.27h6.35v2.81a3.184 3.184 0 00-1.906 2.91v.628c0 .35.285.635.635.635h5.632a3.514 3.514 0 003.416 2.716 3.513 3.513 0 003.416-2.716h12.215a3.515 3.515 0 003.416 2.716 3.514 3.514 0 003.417-2.716h2.14a.634.634 0 00.634-.636V23.27a.635.635 0 00-.103-.347zM4.37 12.462a4.96 4.96 0 014.954-4.954 4.96 4.96 0 014.954 4.954 4.96 4.96 0 01-4.954 4.954 4.96 4.96 0 01-4.954-4.954zM8.254 23.99h1.27a.635.635 0 100-1.27h-1.27v-1.27h4.445a.634.634 0 100-1.27H8.254v-1.27h8.254a.635.635 0 100-1.27H12.77a6.22 6.22 0 002.773-5.08h9.693a2.07 2.07 0 012.066 2.067v11.902H8.254v-2.54zm19.048 5.714h-9.066a3.496 3.496 0 00-.903-1.904h9.969v1.904zM8.262 27.8h3.928a3.495 3.495 0 00-.902 1.904H6.35A1.916 1.916 0 018.262 27.8zm6.5 4.62a2.243 2.243 0 01-2.24-2.24 2.243 2.243 0 012.24-2.24 2.243 2.243 0 012.24 2.24 2.243 2.243 0 01-2.24 2.24zm19.047 0a2.243 2.243 0 01-2.24-2.24 2.243 2.243 0 012.24-2.24 2.243 2.243 0 012.24 2.24 2.243 2.243 0 01-2.24 2.24zm4.921-2.715h-1.447a3.513 3.513 0 00-3.474-3.034 3.513 3.513 0 00-3.473 3.033H28.57V18.91h5.237c1.22 0 2.342.602 3.001 1.61l1.921 2.94v6.243z" fill="#fff"/><path d="M34.848 30.18a1.039 1.039 0 11-2.077 0 1.039 1.039 0 012.077 0zm-19.048 0a1.039 1.039 0 11-2.077 0 1.039 1.039 0 012.078 0zm-5.642-17.718V9.684a.634.634 0 10-1.27 0v2.571l-1.295 1.778a.634.634 0 101.026.748l1.418-1.945a.634.634 0 00.121-.374zm23.438 7.083H32.38a.635.635 0 00-.635.635v4.444c0 .351.284.635.635.635h4.273c.398 0 .755-.206.955-.55.2-.344.2-.756.003-1.1l-1.483-2.594a2.925 2.925 0 00-2.533-1.47zm-.58 4.444v-3.174h.58c.59 0 1.138.318 1.43.83l1.34 2.344h-3.35z" fill="#fff"/></svg>