<svg width="40" height="40" fill="none" xmlns="http://www.w3.org/2000/svg"><path d="M13 28.667h-1.333a.667.667 0 000 1.333H13a.667.667 0 000-1.333zm18.667 0h-16a.667.667 0 000 1.333h16a.667.667 0 000-1.333zm-18.667-4h-1.333a.667.667 0 000 1.333H13a.667.667 0 000-1.333zm18.667 0h-16a.667.667 0 000 1.333h16a.667.667 0 000-1.333zm-18.667-4h-1.333a.667.667 0 000 1.333H13a.667.667 0 000-1.333zm18.667 0h-16a.667.667 0 000 1.333h16a.667.667 0 000-1.333zm-18.667-4h-1.333a.667.667 0 000 1.333H13a.667.667 0 000-1.333zm18.667 0h-16a.667.667 0 000 1.333h16a.667.667 0 000-1.333zm-18.667-4h-1.333a.667.667 0 000 1.333H13a.667.667 0 000-1.333zm18.667 0h-16a.667.667 0 000 1.333h16a.667.667 0 000-1.333z" fill="#fff"/><path d="M36.325 9.958a.634.634 0 00-.034-.171c-.008-.022-.013-.042-.022-.063a.667.667 0 00-.134-.195L26.802.195a.667.667 0 00-.195-.133c-.021-.01-.042-.015-.062-.022a.665.665 0 00-.173-.035C26.361.007 26.348 0 26.333 0H7.667A.667.667 0 007 .667v2H3.667A.667.667 0 003 3.333v36c0 .369.299.667.667.667h28a.667.667 0 00.666-.667V36h3.334a.667.667 0 00.666-.667V10c0-.015-.007-.027-.008-.042zM27 2.276l7.057 7.057H27V2.276zm4 36.39H4.333V4H7v31.333c0 .369.298.667.667.667H31v2.667zm4-4H8.333V1.334h17.334V10c0 .368.298.667.666.667H35v24z" fill="#fff"/><path d="M15.667 6h-4a.667.667 0 00-.667.667v4c0 .368.299.666.667.666h4a.667.667 0 00.666-.666v-4A.667.667 0 0015.667 6zM15 10h-2.667V7.333H15V10z" fill="#fff"/></svg>