<svg width="50" height="50" fill="none" xmlns="http://www.w3.org/2000/svg"><path d="M48.42 22.656A20.18 20.18 0 0046.576 15a22.172 22.172 0 00-5.04-6.96C37.08 3.864 31.207 1.564 24.999 1.564A23.437 23.437 0 1041.402 41.74l-2.188-2.232A20.198 20.198 0 0125 45.312C13.8 45.313 4.687 36.2 4.687 25c0-11.2 9.112-20.313 20.312-20.313 11.01 0 20.313 8.587 20.313 18.75v3.516c0 2.8-2.454 5.078-5.47 5.078-3.015 0-5.468-2.278-5.468-5.078V15.625H31.25v2.612a9.764 9.764 0 101.226 12.934c1.504 2.386 4.244 3.985 7.368 3.985 4.738 0 8.594-3.68 8.594-8.203v-4.297h-.017zm-23.812 9.375a6.64 6.64 0 116.641-6.64 6.649 6.649 0 01-6.64 6.64z" fill="#fff"/></svg>