<svg width="200" height="200" fill="none" xmlns="http://www.w3.org/2000/svg"><g clip-path="url(#clip0)"><path d="M3.906 159.766h192.188v23.437H3.906v-23.437zm0-23.438h192.188v23.438H3.906v-23.438zm192.188-23.437c0-128.125-192.188-128.125-192.188 0v23.437h192.188v-23.437z" fill="#4EAAF5"/><path d="M171.484 113.034c0-95.313-142.968-95.313-142.968 0v23.294h142.968v-23.294z" fill="#fff"/><path d="M81.432 136.328s-6.73-11.126 3.237-21.094c9.967-9.967 7.497-18.359 7.497-18.359s13.119 18.077 13.119 25.233c5.963-3.749 7.996-14.744 7.996-14.744s7.509 6.985 7.509 28.964H81.432z" fill="#80B4FB"/><path d="M193.363 74.097c-4.14-11.077-10.172-21.004-17.922-29.5-7.308-8.023-16.054-14.715-25.996-19.886-9.496-4.946-19.859-8.395-30.8-10.254a3.892 3.892 0 00-4.504 3.2 3.91 3.91 0 003.195 4.502 99.575 99.575 0 018.639 1.87l-5.361 16.17c-6.596-1.682-13.519-2.556-20.614-2.556-6.853 0-13.547.814-19.94 2.385l-5.362-16.172a99.914 99.914 0 018.911-1.853 3.912 3.912 0 003.238-4.476 3.918 3.918 0 00-1.336-2.364 3.942 3.942 0 00-3.14-.875c-11.043 1.774-21.516 5.16-31.133 10.067-10.054 5.137-18.914 11.817-26.32 19.852-7.86 8.516-13.977 18.48-18.18 29.621C2.258 85.707-.008 98.848 0 112.891v70.312a3.906 3.906 0 003.906 3.906h192.188a3.906 3.906 0 003.906-3.906v-70.312c.008-13.934-2.223-26.989-6.637-38.794zM26.823 53.986l13.663 10.661c-6.146 7.612-10.561 16.478-13.152 26.36l-16.69-3.392c3.01-12.658 8.415-23.903 16.178-33.63zm-1.096 44.667c-.74 4.612-1.118 9.411-1.118 14.381v19.388H7.813v-19.531c.004-6.117.452-11.987 1.33-17.609l16.584 3.371zM7.813 140.234h40.234v15.625H7.813v-15.625zm75.357-11.406c-.355-4.004 1.079-7.648 4.262-10.831 3.692-3.693 5.9-7.265 7.191-10.426 3.779 6.125 6.756 12.061 6.756 14.537a3.907 3.907 0 005.985 3.307c3.093-1.944 5.284-5.174 6.797-8.33 1.2 3.494 2.32 8.486 2.635 15.337h-32.84a14.95 14.95 0 01-.786-3.594zm60.971 11.406v15.625H55.859v-15.625h88.282zm-71.485 23.438v15.625H32.422v-15.625h40.234zm7.813 0h40.234v15.625H80.469v-15.625zm48.047 0h40.234v15.625h-40.234v-15.625zm23.437-7.813v-15.625h40.235v15.625h-40.235zm21.503-101.52c7.641 9.683 12.964 20.858 15.932 33.418l-16.686 3.39c-2.546-9.788-6.878-18.582-12.907-26.151l13.661-10.658zm.839 44.457l16.584-3.37c.864 5.578 1.304 11.401 1.309 17.465v19.531h-16.797v-19.388c0-4.919-.371-9.67-1.096-14.238zm-40.848-72.478c13.488 4.731 25.505 12.305 34.882 22.112l-13.758 10.733a69.107 69.107 0 00-2.83-2.662c-6.85-6.09-14.878-10.808-23.658-14.003l5.364-16.18zm34.131 86.716v19.388h-42.963c-.823-20.019-7.83-27.134-8.673-27.918a3.906 3.906 0 00-6.502 2.149c-.261 1.411-1.087 4.529-2.464 7.34-3.473-7.934-9.975-17.106-11.649-19.412-1.135-1.565-3.268-2.14-4.983-1.252-1.705.883-2.538 2.796-1.937 4.614.137.618 1.254 6.774-6.5 14.529-6.697 6.696-7.304 14.33-6.084 19.949H32.422v-19.388c0-46.43 35.03-67.578 67.578-67.578s67.578 21.148 67.578 67.579zM67.208 26.091l5.364 16.177C63.537 45.464 55.279 50.26 48.259 56.5a69.273 69.273 0 00-2.506 2.347l-13.77-10.745c9.489-9.814 21.622-17.351 35.226-22.012zM7.814 163.672H24.61v15.625H7.813v-15.625zm184.375 15.625h-15.625v-15.625h15.625v15.625z" fill="#000"/><path d="M100.5 20.703a3.906 3.906 0 100-7.812 3.906 3.906 0 000 7.812z" fill="#000"/></g><defs><clipPath id="clip0"><path fill="#fff" d="M0 0h200v200H0z"/></clipPath></defs></svg>