<svg width="40" height="40" fill="none" xmlns="http://www.w3.org/2000/svg"><path d="M23.75 23.75H8.125a.625.625 0 00-.441.183l-7.5 7.5.883.884L8.384 25h14.679c-.13.742-.538 1.875-1.813 1.875h-6.874v1.25h6.874c2.472 0 3.125-2.453 3.125-3.75a.625.625 0 00-.625-.625z" fill="#fff"/><path d="M31.692 19.558a.625.625 0 00-.883 0l-5.625 5.625.883.883 5.134-5.133a2.664 2.664 0 01-.392 3.625l-7.317 7.317H10.625a.625.625 0 00-.441.183l-4.375 4.375.883.884 4.192-4.192H23.75a.625.625 0 00.442-.184l7.5-7.5c2.328-2.327 1.018-4.866 0-5.883z" fill="#fff"/><path d="M20 0C8.954 0 0 8.954 0 20h1.25C1.25 9.645 9.645 1.25 20 1.25S38.75 9.645 38.75 20 30.355 38.75 20 38.75V40c11.046 0 20-8.954 20-20S31.046 0 20 0z" fill="#fff"/><path d="M26.25 11.875h-4.375v1.25h2.866l-6.25 6.25h-2.866v1.25h3.125a.625.625 0 00.442-.183l6.433-6.433v2.241h1.25V12.5a.625.625 0 00-.625-.625zm-19.375 7.5a.625.625 0 00-.441.183l-1.875 1.875.883.884 1.692-1.692h4.742v-1.25h-5zm7.5 0h-1.25v1.25h1.25v-1.25zM5.06 14.254l1.193.375A13.692 13.692 0 0119.375 5V3.75A14.938 14.938 0 005.06 14.254z" fill="#fff"/></svg>