<svg width="40" height="40" fill="none" xmlns="http://www.w3.org/2000/svg"><g clip-path="url(#clip0)" fill="#fff"><path d="M33.983 21.928a8.593 8.593 0 00-.92-3.847l1.381-1.38a2.658 2.658 0 000-3.755 2.647 2.647 0 00-1.872-.776 2.637 2.637 0 00-.778-1.874 2.647 2.647 0 00-1.873-.776 2.65 2.65 0 00-2.649-2.651 2.638 2.638 0 00-.777-1.873 2.638 2.638 0 00-1.878-.777c-.709 0-1.376.276-1.877.777L20 7.735l-1.524-1.524a2.638 2.638 0 00-1.877-.778c-.71 0-1.376.277-1.877.778a2.636 2.636 0 00-.778 1.874 2.647 2.647 0 00-1.872.776c-.5.5-.777 1.165-.778 1.872a2.638 2.638 0 00-1.872.778 2.66 2.66 0 00-.446 3.161c-.384.125-.745.34-1.049.644a2.658 2.658 0 000 3.755l1.106 1.105-8.786 8.786a.781.781 0 001.105 1.105l5.956-5.956 5.579 5.58-8.936 8.935a.781.781 0 001.105 1.105l12.078-12.078a2.83 2.83 0 01.75-.538l1.89 1.245a5.996 5.996 0 004.244.907L34.523 39.77a.78.78 0 001.105 0 .781.781 0 000-1.105l-6.095-6.094.737-.737a.781.781 0 00-1.105-1.105l-.737.737-1.725-1.725 6.442-6.442 1.725 1.725-.735.735a.781.781 0 001.105 1.105l.735-.735 2.691 2.69a.78.78 0 001.105 0 .781.781 0 000-1.104l-5.788-5.788zM23.845 6.1a1.089 1.089 0 011.865.773c0 .291-.114.566-.32.772l-1.717 1.717a.781.781 0 001.105 1.105l1.717-1.717c.206-.206.48-.32.772-.32a1.094 1.094 0 01.773 1.865l-2.622 2.622a.781.781 0 001.105 1.105l2.622-2.622c.206-.206.48-.32.772-.32.292 0 .566.114.772.32.207.206.32.48.32.773 0 .291-.113.566-.32.772l-2.621 2.622a.781.781 0 001.105 1.104l2.621-2.621a1.094 1.094 0 011.545 1.545l-6.457 6.457a10.875 10.875 0 01-7.74 3.206c-.792 0-1.552.209-2.217.599l-4.522-4.522a2.654 2.654 0 001.715-2.481 2.647 2.647 0 002.65-2.648 2.637 2.637 0 001.873-.778 2.646 2.646 0 00.776-1.872 2.637 2.637 0 001.874-.778 2.638 2.638 0 00.777-1.877 2.64 2.64 0 00-.777-1.878l-.185-.184L23.845 6.1zm-8.017 1.215c.206-.206.48-.32.772-.32.292 0 .566.114.772.32l2.814 2.813a1.089 1.089 0 010 1.545c-.206.207-.48.32-.773.32-.291 0-.565-.113-.772-.32L15.828 8.86a1.085 1.085 0 01-.32-.773c0-.291.113-.566.32-.772zm-2.65 2.65a1.09 1.09 0 01.772-.32c.28 0 .56.107.773.32l2.813 2.813a1.094 1.094 0 01-1.545 1.546l-2.813-2.814a1.085 1.085 0 01-.32-.773c0-.292.113-.566.32-.772zm-2.65 2.65c.206-.207.48-.32.772-.32.292 0 .566.113.773.32l2.813 2.813a1.094 1.094 0 01-1.545 1.545l-2.813-2.813a1.094 1.094 0 010-1.545zM9.033 16.42a1.09 1.09 0 01.772-.32c.28 0 .56.107.772.319l1.66 1.659c.206.206.32.48.32.773 0 .291-.114.566-.32.772-.207.207-.482.32-.773.32a1.08 1.08 0 01-.772-.32l-1.66-1.658a1.094 1.094 0 010-1.545zm-.62 6.585l1.726-1.725 5.579 5.58-1.725 1.724-5.58-5.579zm16.415 4.86a.78.78 0 00-.735-.206 4.426 4.426 0 01-3.459-.605l-.423-.279a12.414 12.414 0 007.776-3.618l3.899-3.899c.335.81.516 1.677.533 2.558l-6.82 6.82-.77-.77z"/><path d="M31.649 28.246a.786.786 0 00-.23.552.787.787 0 00.781.781.785.785 0 00.782-.78.786.786 0 00-.78-.782.787.787 0 00-.553.229zM5.277 6.383a.779.779 0 001.105 0 .781.781 0 000-1.105L2.705 1.601A.781.781 0 001.6 2.706l3.677 3.677zm4.254-2.124a.78.78 0 00.781-.781V.78a.781.781 0 00-1.562 0v2.697c0 .431.35.781.781.781zm-8.75 6.053h2.697a.781.781 0 000-1.562H.78a.781.781 0 100 1.562zM34.17 6.611c.2 0 .4-.076.552-.228L38.4 2.705A.781.781 0 0037.295 1.6l-3.678 3.678a.781.781 0 00.553 1.333zm-3.701-2.352c.431 0 .781-.35.781-.781V.78a.781.781 0 00-1.563 0v2.697c0 .431.35.781.782.781zm5.271 5.272c0 .432.35.781.782.781h2.696a.781.781 0 000-1.562h-2.697a.781.781 0 00-.78.781z"/></g><defs><clipPath id="clip0"><path fill="#fff" d="M0 0h40v40H0z"/></clipPath></defs></svg>