<svg width="40" height="40" fill="none" xmlns="http://www.w3.org/2000/svg"><g clip-path="url(#clip0)" fill="#fff"><path d="M37.676 19.219l2.237-4.33a.781.781 0 00-.694-1.139h-1.347c.065-1.357.097-2.796.097-4.375a.781.781 0 00-.782-.781c-4.307 0-7.812-3.505-7.812-7.813a.781.781 0 00-.781-.78H11.406a.781.781 0 00-.781.78 7.772 7.772 0 01-.562 2.914.781.781 0 101.45.583 9.33 9.33 0 00.643-2.715h15.689c.377 4.546 4.012 8.183 8.559 8.56a86.122 86.122 0 01-.096 3.627h-4.55c-4.626-9.951-18.894-9.946-23.516 0h-4.55a86.217 86.217 0 01-.096-3.626 9.317 9.317 0 002.562-.583c.953-.409.424-1.791-.558-1.46-.89.34-1.828.513-2.787.513a.781.781 0 00-.782.781c0 1.582.032 3.021.096 4.375H.781a.781.781 0 00-.694 1.14l2.237 4.329-2.237 4.329a.781.781 0 00.694 1.14h3.036c2.448 8.058 7.68 13.061 15.98 15.285a.781.781 0 00.405 0c8.301-2.224 13.533-7.226 15.98-15.286h3.037a.781.781 0 00.694-1.14l-2.237-4.328zm-24.04-9.461l.375.65a.782.782 0 001.353-.781l-.377-.653A11.32 11.32 0 0119.22 7.84v.755c.041 1.036 1.521 1.036 1.562 0V7.84c1.51.103 2.94.5 4.232 1.135l-.377.653a.781.781 0 101.353.781l.375-.65a11.5 11.5 0 013.097 3.096l-.65.376a.781.781 0 10.781 1.353l.653-.377a11.321 11.321 0 011.135 4.232h-.755c-1.037.04-1.036 1.521 0 1.562h.755a11.32 11.32 0 01-1.135 4.232l-.653-.377c-.918-.483-1.658.8-.781 1.353l.65.375a11.5 11.5 0 01-3.096 3.097l-.376-.65a.781.781 0 10-1.353.781l.377.653a11.32 11.32 0 01-4.232 1.135v-.755c-.041-1.037-1.521-1.036-1.562 0v.755a11.32 11.32 0 01-4.232-1.135l.377-.653a.781.781 0 10-1.353-.781l-.375.65a11.497 11.497 0 01-3.097-3.096l.65-.376a.781.781 0 00-.781-1.353l-.653.377A11.32 11.32 0 018.62 20h.755c1.037-.041 1.036-1.521 0-1.562H8.62c.103-1.51.5-2.939 1.135-4.232l.653.377a.782.782 0 00.781-1.353l-.65-.376a11.494 11.494 0 013.097-3.096zm-9.739 9.82a.781.781 0 000-.718l-1.833-3.547h5.568c-.796 2.443-.796 5.368 0 7.812H2.064l1.833-3.548zM20 38.408c-7.46-2.056-12.229-6.551-14.546-13.722h2.787c4.627 9.952 18.895 9.946 23.518 0h2.786C32.228 31.858 27.46 36.353 20 38.41zm12.368-15.284c.796-2.444.796-5.369 0-7.813h5.568l-1.833 3.548a.781.781 0 000 .717l1.833 3.548h-5.568z"/><path d="M20 21.563A2.348 2.348 0 0022.21 20h3.727c1.037-.041 1.036-1.521 0-1.562H22.21a2.356 2.356 0 00-1.429-1.429v-5.29c-.041-1.037-1.521-1.036-1.562 0v5.29c-2.447.906-1.86 4.504.78 4.554zM20 20a.782.782 0 01-.781-.781c.043-1.037 1.52-1.036 1.562 0 0 .43-.35.781-.781.781zM8.837 7.691c1.037-.04 1.036-1.521 0-1.562C7.8 6.17 7.8 7.65 8.836 7.69z"/></g><defs><clipPath id="clip0"><path fill="#fff" d="M0 0h40v40H0z"/></clipPath></defs></svg>