<svg width="50" height="50" fill="none" xmlns="http://www.w3.org/2000/svg"><path d="M24.797 12.46a6.25 6.25 0 106.25 6.25 6.257 6.257 0 00-6.25-6.25zm0 9.375a3.125 3.125 0 110-6.25 3.125 3.125 0 010 6.25z" fill="#fff"/><path d="M36.807 6.69a16.984 16.984 0 00-26.24 21.281l11.807 18.127a2.892 2.892 0 004.847 0L39.03 27.97a16.984 16.984 0 00-2.222-21.28zm-.397 19.576L24.798 44.093 13.185 26.265c-3.555-5.456-2.793-12.76 1.812-17.364a13.86 13.86 0 0119.6 0c4.606 4.605 5.368 11.908 1.813 17.364z" fill="#fff"/></svg>