<svg width="349" height="326" fill="none" xmlns="http://www.w3.org/2000/svg"><path d="M314.097 131.316c8.826-7.114 17.848-14.423 26.937-21.666 11.768-9.528 22.063-10.6 35.053 4.742 28.156 33.12 24.093 80.273-1.696 109.62-11.817 13.53-25.748 23.639-41.393 31.641-16.824 8.523-34.378 15.271-52.995 18.865-7.341 1.412-11.198 4.742-12.477 12.346-1.728 10.293-4.505 20.45-6.758 30.74-3.602 16.78-9.768 32.302-20.074 46.167-9.067 12.229-20.246 21.563-34.856 26.159-20.573 6.472-41.691 8.088-63.158 4.912-1.509-.203-3.02-.537-4.596-.938-12.347-3.07-13.668-5.175-13.001-17.966.845-17.185 3.923-33.704 13.044-48.623 2.02-3.338 4.171-6.543 6.713-10.403-3.023-1.325-5.128-2.515-7.361-3.18-21.417-6.784-39.12-19.784-55.78-34.354-3.952-3.428-3.309-6.574-.504-10.433 14.935-20.733 31.519-39.426 56.608-48.175 1.179-.389 2.16-1.106 3.273-1.692.262-.13.326-.458 1.37-1.765-1.783-2.829-3.7-6.183-5.944-9.342-11.285-15.465-18.314-32.947-24.295-50.948-1.994-6.044-.756-7.942 6.053-11.324 26.252-13.075 53.465-16.042 81.846-6.998 3.219.998 6.372 2.061 10.117 3.324.712-2.294 1.558-3.93 1.813-5.635 2.41-19.54 9.418-37.617 17.608-55.296 3.966-8.446 6.193-9.355 15.259-6.43 27.395 8.843 48.135 26.186 63.524 50.198 1.189 1.842 2.312 3.618 3.566 5.395.198.329.986.463 2.104 1.059zm-71.838 122.966c-5.057-1.269-10.18-2.603-15.237-3.871-7.487-1.869-14.91-4.197-22.526-5.41-29.279-4.455-54.827 4.358-77.186 22.763-6.014 4.96-5.812 6.208-.408 11.873 6.853 7.115 13.903 14.165 20.952 21.083 5.666 5.536 6.848 5.803 12.074.446 17.048-17.575 37.993-28.901 60.193-38.319 7.335-3.118 14.802-5.973 22.203-8.893 30.475-7.283 59.889-17.327 85.925-34.929 10.663-7.236 20.005-16.447 26.319-28.032 9.96-18.13 8.346-42.739-4.317-58.408-7.463 3.774-15.057 7.546-22.651 11.45-8.641 4.424-8.706 4.49-7.287 14.271 3.443 22.518-2.703 42.763-13.906 61.872-1.433 2.356-2.402 5.96-7.719 5.216-.353-21.258 1.587-43.096-8.471-63.215-9.794-19.723-23.51-36.052-42.982-48.338-5.667 9.489-11.074 18.322-16.35 27.288-4.559 7.722-4.492 8.181 2.295 14.968 2.635 2.635 5.401 5.14 7.841 7.971 11.404 12.711 19.535 27.114 22.822 43.988.737 3.743 2.133 7.882-2.639 11.995l-6.391-6.391c-6.326-6.457-12.585-12.847-18.976-19.238-12.717-12.717-27.97-20.392-45.564-23.223-13.459-2.222-26.906-1.689-41.53-.243 2.166 15.492 5.506 29.415 9.831 43.67 3.149.013 5.84.222 8.595.102 28.14-1.126 50.954 10.453 70.522 29.89 2.702 2.701 5.534 5.272 4.568 9.664zm-90.135 109.11c13.776-.466 26.504-.28 38.759-3.443 7.602-1.935 15.527-4.854 21.807-9.288 10.073-7.042 18.168-16.455 23.959-27.649 6.897-13.354 14.32-26.443 21.48-39.665.521-.916.45-2.163.902-3.932-24.069 1.93-46.553 6.361-67.701 16.44-10.476 4.941-19.236 12.12-26.546 21.011-10.835 12.944-13.853 28.217-12.66 46.526z" fill="url(#paint0_linear)" fill-opacity=".15"/><path d="M345.96 296.2c11.814 2.718 14.202 7.315 9.365 16.903-1.575 2.972-3.28 6.075-5.554 8.349-11.296 11.575-22.801 22.94-34.376 34.236-1.559 1.559-4.022 2.345-6.839 2.647 2.28-9.545 10.015-15.324 14.082-23.862-1.894 1.614-3.853 3.294-5.677 4.978-11.08 10.102-22.095 20.138-33.174 30.24a13.05 13.05 0 01-2.159 1.739c-6.246 4.15-12.019 4.614-15.582 1.051-3.418-3.288-4.212-10.319-.647-15.98 3.95-6.186 8.31-12.222 13.373-17.425 16.423-16.842 33.261-33.401 49.894-50.034 4.548-4.548 9.166-9.026 13.435-13.854 2.264-2.543 3.625-5.86 5.84-9.752-7.175-1.069-11.452 1.671-15.469 4.152-12.636 8.025-25.053 16.529-37.62 24.624-1.578 1.02-3.512 1.556-6.493 1.044.756-1.454 1.097-3.192 2.131-4.366 13.24-13.659 27.323-26.345 43.876-35.911 4.087-2.411 9.147-3.978 13.977-4.476 11.207-1.007 19.131 7.696 15.881 18.351-2.163 7.193-6.987 13.414-11.062 19.865-1.715 2.833-4.408 4.687-7.202 7.481z" fill="url(#paint1_linear)" fill-opacity=".15"/><defs><linearGradient id="paint0_linear" x1="0" y1="262" x2="398.097" y2="344.624" gradientUnits="userSpaceOnUse"><stop stop-color="#74C0FC"/><stop offset="1" stop-color="#339AF0"/></linearGradient><linearGradient id="paint1_linear" x1="237.438" y1="343.875" x2="346.145" y2="387.946" gradientUnits="userSpaceOnUse"><stop stop-color="#74C0FC"/><stop offset="1" stop-color="#339AF0"/></linearGradient></defs></svg>