<svg width="38" height="36" fill="none" xmlns="http://www.w3.org/2000/svg"><path d="M35.155 9.424c1.293-1.039 2.614-2.106 3.946-3.163 1.723-1.39 3.24-1.536 5.174.741 4.19 4.917 3.648 11.865-.12 16.16-1.726 1.982-3.768 3.456-6.065 4.617-2.47 1.236-5.05 2.21-7.79 2.718-1.082.2-1.646.686-1.826 1.805-.242 1.516-.64 3.01-.96 4.525-.51 2.47-1.401 4.75-2.904 6.782-1.322 1.793-2.96 3.156-5.108 3.816-3.026.93-6.137 1.143-9.306.649a6.085 6.085 0 01-.68-.144c-1.823-.468-2.02-.78-1.938-2.664.104-2.533.539-4.965 1.866-7.154.293-.49.607-.96.977-1.526-.447-.199-.76-.377-1.09-.478-3.165-1.025-5.79-2.963-8.265-5.131-.586-.51-.495-.974-.086-1.54 2.177-3.038 4.6-5.774 8.289-7.035.173-.056.317-.16.48-.245.039-.019.048-.067.2-.259-.266-.419-.553-.916-.887-1.384-1.683-2.294-2.74-4.88-3.643-7.541-.302-.894-.121-1.172.879-1.663 3.855-1.896 7.863-2.3 12.059-.934.476.151.942.312 1.495.503.103-.338.225-.578.26-.829.333-2.878 1.345-5.535 2.531-8.132.575-1.24.902-1.372 2.242-.93 4.05 1.337 7.129 3.919 9.426 7.477.178.273.345.537.532.8.03.049.146.07.312.159zM24.71 27.468c-.747-.193-1.504-.396-2.251-.589-1.107-.284-2.204-.636-3.328-.824-4.322-.692-8.079.577-11.353 3.264-.881.724-.85.908-.046 1.75a160.453 160.453 0 003.114 3.133c.842.823 1.017.864 1.78.08 2.493-2.57 5.568-4.215 8.83-5.577 1.078-.451 2.175-.863 3.263-1.285 4.485-1.038 8.81-2.483 12.627-5.048 1.564-1.054 2.93-2.4 3.847-4.101 1.447-2.661 1.18-6.292-.706-8.617-1.096.547-2.211 1.095-3.326 1.661-1.269.642-1.278.652-1.057 2.096.534 3.324-.348 6.301-1.977 9.106-.208.345-.347.875-1.132.76-.077-3.136.183-6.353-1.324-9.331-1.468-2.92-3.51-5.344-6.395-7.179-.824 1.393-1.611 2.689-2.378 4.004-.663 1.133-.653 1.201.356 2.21.392.392.802.764 1.165 1.184 1.697 1.888 2.913 4.021 3.418 6.513.113.553.324 1.165-.375 1.766l-.95-.95c-.94-.96-1.87-1.91-2.82-2.86-1.89-1.89-4.149-3.04-6.746-3.478-1.987-.344-3.97-.28-6.124-.085.338 2.287.847 4.343 1.502 6.45.464.006.861.04 1.267.026 4.148-.133 7.525 1.602 10.434 4.49.401.402.822.785.685 1.431zm-13.16 15.98c2.031-.052 3.908-.01 5.71-.461 1.12-.277 2.285-.698 3.205-1.344 1.477-1.026 2.66-2.404 3.5-4.048 1-1.96 2.08-3.882 3.12-5.822.075-.135.063-.319.128-.58-3.547.257-6.857.883-9.963 2.344-1.538.716-2.821 1.764-3.889 3.066-1.582 1.896-2.008 4.144-1.81 6.845z" fill="url(#paint0_linear)" fill-opacity=".1"/><path d="M40.05 33.773c1.744.414 2.102 1.095 1.4 2.503-.228.436-.476.892-.809 1.224a285.594 285.594 0 01-5.027 5.007c-.228.228-.59.34-1.005.382.324-1.405 1.458-2.248 2.047-3.501-.277.235-.564.48-.83.727l-4.856 4.419c-.095.095-.2.18-.316.254-.916.604-1.767.666-2.296.136-.508-.489-.634-1.526-.115-2.357.575-.907 1.21-1.792 1.951-2.553 2.402-2.464 4.864-4.885 7.297-7.318.665-.665 1.34-1.32 1.964-2.026.331-.373.528-.86.85-1.431-1.06-.166-1.687.233-2.276.593-1.854 1.169-3.674 2.408-5.518 3.586-.231.149-.515.226-.956.147.11-.214.158-.47.31-.642 1.935-1.998 3.997-3.851 6.426-5.242.6-.35 1.344-.576 2.055-.643 1.651-.136 2.83 1.157 2.364 2.724-.31 1.058-1.015 1.97-1.608 2.916-.25.416-.644.686-1.053 1.095z" fill="url(#paint1_linear)" fill-opacity=".1"/><defs><linearGradient id="paint0_linear" x1="-11" y1="28.317" x2="47.97" y2="40.098" gradientUnits="userSpaceOnUse"><stop stop-color="#74C0FC"/><stop offset="1" stop-color="#339AF0"/></linearGradient><linearGradient id="paint1_linear" x1="24.105" y1="40.672" x2="40.261" y2="47.112" gradientUnits="userSpaceOnUse"><stop stop-color="#74C0FC"/><stop offset="1" stop-color="#339AF0"/></linearGradient></defs></svg>