<svg width="312" height="334" fill="none" xmlns="http://www.w3.org/2000/svg"><path d="M-2.41 202.372c-8.826 7.113-17.848 14.423-26.936 21.666-11.768 9.528-22.064 10.599-35.054-4.742-28.155-33.12-24.092-80.273 1.697-109.62 11.816-13.53 25.747-23.64 41.393-31.642 16.824-8.522 34.377-15.27 52.994-18.864 7.342-1.412 11.198-4.742 12.478-12.347 1.727-10.292 4.505-20.45 6.757-30.74 3.602-16.78 9.769-32.302 20.075-46.166 9.067-12.23 20.246-21.563 34.856-26.159 20.572-6.472 41.691-8.088 63.157-4.913 1.51.204 3.02.538 4.597.938 12.347 3.071 13.668 5.176 13.001 17.966-.845 17.185-3.924 33.705-13.045 48.624-2.019 3.337-4.171 6.543-6.713 10.403 3.024 1.325 5.128 2.515 7.362 3.18 21.416 6.784 39.12 19.783 55.78 34.353 3.951 3.429 3.309 6.575.504 10.434-14.935 20.733-31.519 39.425-56.609 48.175-1.179.389-2.16 1.106-3.273 1.692-.262.13-.326.458-1.37 1.765 1.784 2.829 3.701 6.183 5.945 9.342 11.284 15.465 18.313 32.946 24.295 50.948 1.994 6.044.755 7.941-6.053 11.324-26.252 13.074-53.466 16.041-81.846 6.998-3.219-.998-6.373-2.061-10.118-3.324-.712 2.293-1.557 3.93-1.813 5.635-2.409 19.54-9.417 37.617-17.608 55.295-3.966 8.447-6.193 9.356-15.259 6.43-27.395-8.842-48.135-26.185-63.524-50.197-1.188-1.842-2.311-3.618-3.565-5.395-.199-.329-.986-.464-2.104-1.059zM69.429 79.406c5.057 1.268 10.18 2.602 15.237 3.87 7.487 1.87 14.91 4.197 22.526 5.41 29.279 4.456 54.828-4.357 77.186-22.762 6.015-4.96 5.813-6.208.409-11.873-6.854-7.115-13.904-14.165-20.953-21.084-5.666-5.535-6.848-5.802-12.073-.445-17.048 17.575-37.994 28.901-60.194 38.319-7.334 3.118-14.801 5.972-22.202 8.893-30.476 7.283-59.89 17.326-85.925 34.929-10.663 7.236-20.005 16.447-26.32 28.032-9.96 18.13-8.346 42.739 4.318 58.407 7.463-3.773 15.057-7.546 22.65-11.449 8.641-4.425 8.707-4.49 7.287-14.271-3.442-22.518 2.704-42.764 13.906-61.873 1.434-2.355 2.402-5.959 7.72-5.215.353 21.258-1.588 43.096 8.47 63.214 9.795 19.724 23.51 36.053 42.982 48.339 5.667-9.489 11.075-18.323 16.35-27.288 4.56-7.722 4.492-8.182-2.294-14.968-2.636-2.635-5.402-5.14-7.841-7.972-11.404-12.71-19.535-27.113-22.822-43.987-.738-3.743-2.133-7.882 2.638-11.995l6.391 6.391c6.326 6.456 12.586 12.847 18.977 19.238 12.716 12.716 27.97 20.392 45.564 23.222 13.459 2.223 26.905 1.69 41.529.243-2.165-15.492-5.505-29.414-9.83-43.669-3.149-.014-5.84-.222-8.595-.103-28.14 1.127-50.955-10.452-70.523-29.89-2.701-2.7-5.533-5.271-4.568-9.663zm90.135-109.11c-13.775.466-26.503.28-38.758 3.442-7.602 1.936-15.528 4.854-21.807 9.289C88.925-9.931 80.83-.518 75.038 10.675c-6.896 13.355-14.32 26.444-21.48 39.666-.52.916-.45 2.163-.901 3.932 24.069-1.93 46.553-6.361 67.7-16.44 10.476-4.941 19.237-12.12 26.546-21.011 10.836-12.944 13.854-28.217 12.66-46.526z" fill="url(#paint0_linear)" fill-opacity=".15"/><path d="M-34.272 37.487c-11.814-2.717-14.203-7.315-9.366-16.902 1.575-2.973 3.28-6.075 5.555-8.35C-26.788.662-15.283-10.704-3.708-22c1.56-1.56 4.023-2.346 6.84-2.647C.851-15.102-6.885-9.323-10.95-.785-9.056-2.4-7.097-4.079-5.273-5.763 5.807-15.865 16.82-25.902 27.9-36.003a13.09 13.09 0 012.158-1.74c6.246-4.15 12.02-4.614 15.583-1.05 3.418 3.288 4.211 10.319.646 15.98-3.95 6.185-8.31 12.222-13.372 17.424C16.492 11.454-.345 28.012-16.98 44.645c-4.548 4.548-9.166 9.027-13.434 13.854-2.265 2.544-3.625 5.861-5.84 9.753 7.175 1.068 11.452-1.672 15.469-4.152 12.636-8.025 25.053-16.53 37.62-24.625 1.578-1.02 3.511-1.556 6.492-1.044-.755 1.454-1.096 3.193-2.13 4.367C7.957 56.457-6.127 69.143-22.679 78.709c-4.087 2.41-9.148 3.977-13.977 4.476-11.207 1.007-19.131-7.696-15.882-18.351 2.163-7.193 6.987-13.414 11.063-19.865 1.715-2.833 4.408-4.688 7.202-7.482z" fill="url(#paint1_linear)" fill-opacity=".15"/><defs><linearGradient id="paint0_linear" x1="311.688" y1="71.688" x2="-86.41" y2="-10.936" gradientUnits="userSpaceOnUse"><stop stop-color="#74C0FC"/><stop offset="1" stop-color="#339AF0"/></linearGradient><linearGradient id="paint1_linear" x1="74.25" y1="-10.187" x2="-34.458" y2="-54.258" gradientUnits="userSpaceOnUse"><stop stop-color="#74C0FC"/><stop offset="1" stop-color="#339AF0"/></linearGradient></defs></svg>