<svg width="40" height="40" fill="none" xmlns="http://www.w3.org/2000/svg"><path d="M39.333 32h-2.666v-5.333a.667.667 0 00-1.334 0V32H20.667V17.333h4.666V22c0 .368.299.667.667.667h4a.667.667 0 00.667-.667v-4.667h4.666V24a.667.667 0 001.334 0v-7.333A.667.667 0 0036 16h-7.333V.667A.667.667 0 0028 0H12a.667.667 0 00-.667.667v6a.667.667 0 001.334 0V1.333h4.666V6c0 .368.299.667.667.667h4A.667.667 0 0022.667 6V1.333h4.666V16H12.667V9.333a.667.667 0 00-1.334 0V16H8a.667.667 0 000 1.333h1.333V22c0 .368.299.667.667.667h4a.667.667 0 00.667-.667v-4.667h4.666V32H4.667V17.333h.666a.667.667 0 000-1.333H4a.667.667 0 00-.667.667V32H.667a.667.667 0 00-.667.667v6.666c0 .369.298.667.667.667h4a.667.667 0 00.666-.667V36h12v3.333c0 .369.299.667.667.667h4a.667.667 0 00.667-.667V36h4.666a.667.667 0 000-1.333h-26v-1.334h37.334v1.334h-5.334a.667.667 0 000 1.333h1.334v3.333c0 .369.298.667.666.667h4a.667.667 0 00.667-.667v-6.666a.667.667 0 00-.667-.667zm-18-26.667h-2.666v-4h2.666v4zm5.334 12h2.666v4h-2.666v-4zm-13.334 4h-2.666v-4h2.666v4zM18.667 36h2.666v2.667h-2.666V36zM4 36v2.667H1.333V36H4zm34.667 2.667H36V36h2.667v2.667z" fill="#fff"/><path d="M25.333 28.667a.667.667 0 00-.667.666V30a.667.667 0 001.333 0v-.667a.667.667 0 00-.666-.666zm-2.666 0a.667.667 0 00-.667.666V30a.667.667 0 001.333 0v-.667a.667.667 0 00-.666-.666zm-13.334 0a.667.667 0 00-.667.666V30a.667.667 0 001.333 0v-.667a.667.667 0 00-.666-.666zm-2.666 0a.667.667 0 00-.667.666V30a.667.667 0 001.333 0v-.667a.667.667 0 00-.666-.666zm10.666-16a.667.667 0 00-.667.666V14a.667.667 0 001.333 0v-.667a.667.667 0 00-.666-.666zm-2.666 0a.667.667 0 00-.667.666V14a.667.667 0 001.333 0v-.667a.667.667 0 00-.666-.666zm16 22h-.666A.667.667 0 0030 36h.666a.667.667 0 000-1.333z" fill="#fff"/></svg>