<svg width="47" height="47" fill="none" xmlns="http://www.w3.org/2000/svg"><g filter="url(#filter0_d)"><path d="M35.962 8.75l-.044-.028L30.337 6l-6.024 7.951 2.771 3.659a5.623 5.623 0 01-1.66 3.659 5.732 5.732 0 01-3.697 1.644l-3.695-2.744L10 26.133l2.727 5.479.023.046.027.044a1.612 1.612 0 001.38.756h1.44c2.774 0 5.522-.54 8.086-1.592a21.147 21.147 0 006.855-4.534 20.907 20.907 0 004.58-6.787 20.737 20.737 0 001.608-8.005v-1.426a1.588 1.588 0 00-.764-1.365zm-1.298 2.79c0 10.409-8.554 18.877-19.068 18.877h-1.165l-1.824-3.667 5.425-4.028 3.021 2.242h.344a7.809 7.809 0 005.484-2.252 7.652 7.652 0 002.276-5.43v-.34l-2.266-2.99 4.07-5.372 3.703 1.807v1.153z" fill="url(#paint0_linear)"/></g><defs><linearGradient id="paint0_linear" x1="10" y1="6" x2="36.457" y2="32.725" gradientUnits="userSpaceOnUse"><stop stop-color="#74C0FC"/><stop offset="1" stop-color="#339AF0"/></linearGradient><filter id="filter0_d" x="0" y="0" width="46.726" height="46.459" filterUnits="userSpaceOnUse" color-interpolation-filters="sRGB"><feFlood flood-opacity="0" result="BackgroundImageFix"/><feColorMatrix in="SourceAlpha" values="0 0 0 0 0 0 0 0 0 0 0 0 0 0 0 0 0 0 127 0"/><feMorphology radius="5" in="SourceAlpha" result="effect1_dropShadow"/><feOffset dy="4"/><feGaussianBlur stdDeviation="7.5"/><feColorMatrix values="0 0 0 0 0.301961 0 0 0 0 0.662745 0 0 0 0 0.960784 0 0 0 1 0"/><feBlend in2="BackgroundImageFix" result="effect1_dropShadow"/><feBlend in="SourceGraphic" in2="effect1_dropShadow" result="shape"/></filter></defs></svg>