<svg width="50" height="50" fill="none" xmlns="http://www.w3.org/2000/svg"><g clip-path="url(#clip0)"><path d="M46.337 7.208l-.067-.042L37.813 3l-9.127 12.17 4.2 5.599a8.646 8.646 0 01-8.117 8.117l-5.6-4.2L7 33.813l4.131 8.386.035.07.042.068a2.45 2.45 0 002.09 1.157h2.181A32.016 32.016 0 0047.495 11.48V9.297a2.449 2.449 0 00-1.158-2.09zm-1.968 4.271c0 15.93-12.96 28.89-28.89 28.89h-1.765l-2.765-5.611 8.221-6.166 4.577 3.433h.52a11.771 11.771 0 0011.759-11.758v-.52l-3.433-4.578 6.165-8.22 5.611 2.765v1.765z" fill="#fff"/></g><defs><clipPath id="clip0"><path fill="#fff" d="M0 0h50v50H0z"/></clipPath></defs></svg>