<svg width="40" height="40" fill="none" xmlns="http://www.w3.org/2000/svg"><path d="M28.125 4.375c-4.136 0-7.5 3.364-7.5 7.5s3.364 7.5 7.5 7.5 7.5-3.364 7.5-7.5-3.364-7.5-7.5-7.5zm0 13.75a6.257 6.257 0 01-6.25-6.25 6.257 6.257 0 016.25-6.25 6.257 6.257 0 016.25 6.25 6.257 6.257 0 01-6.25 6.25z" fill="#fff"/><path d="M28.198 6.25h-.146a1.804 1.804 0 00-1.783 2.056l.534 3.027a1.335 1.335 0 001.322 1.167c.67 0 1.24-.502 1.318-1.136l.543-3.087a1.804 1.804 0 00-1.788-2.027zm.01 4.928c-.011.083-.15.114-.17-.032l-.534-3.027a.552.552 0 01.547-.619h.147c.305 0 .552.247.552.552v.037l-.543 3.088zm-.083 2.572a1.877 1.877 0 00-1.875 1.875c0 1.034.841 1.875 1.875 1.875A1.877 1.877 0 0030 15.625a1.877 1.877 0 00-1.875-1.875zm0 2.5a.626.626 0 11.001-1.251.626.626 0 01-.001 1.251z" fill="#fff"/><path d="M39.375 14.245v-4.74l-1.647-.388a9.922 9.922 0 00-.863-2.082l.89-1.44-3.351-3.351-1.439.891a9.933 9.933 0 00-2.083-.863L30.495.625h-4.74l-.387 1.647a9.933 9.933 0 00-2.083.863l-1.439-.891-3.352 3.352.891 1.439a9.96 9.96 0 00-.863 2.082l-1.647.388v4.74l1.647.388c.024.085.06.165.087.249L10.99 22.5H6.875v-6.912a5.631 5.631 0 005-5.588A5.631 5.631 0 006.25 4.375 5.631 5.631 0 00.625 10a5.631 5.631 0 005 5.588v8.162h4.116l-5.808 5.808-.087.088-3.092 7.42a1.668 1.668 0 002.18 2.18l7.421-3.092 8.395-8.395v6.616h5.037a5.632 5.632 0 005.588 5A5.631 5.631 0 0035 33.75a5.584 5.584 0 00-.73-2.761l2.422-2.422-.884-.884-2.283 2.283a5.605 5.605 0 00-4.15-1.841 5.631 5.631 0 00-5.588 5H20v-6.616l5.117-5.118c.085.027.165.063.25.088l.388 1.646h4.74l.387-1.647a9.93 9.93 0 002.083-.863l1.439.891 3.352-3.352-.891-1.439a9.89 9.89 0 00.863-2.082l1.647-.388zM1.875 10A4.38 4.38 0 016.25 5.625 4.38 4.38 0 0110.625 10a4.38 4.38 0 01-4.375 4.375A4.38 4.38 0 011.875 10zm27.5 19.375c1.3 0 2.464.573 3.266 1.475l-3.891 3.891-1.433-1.433-.884.884 2.317 2.317 4.592-4.592c.26.558.408 1.178.408 1.833a4.38 4.38 0 01-4.375 4.375A4.38 4.38 0 0125 33.75a4.38 4.38 0 014.375-4.375zm-24.63 1.362l1.505.376v2.637h2.637l.376 1.505-3.529 1.47-2.459-2.459 1.47-3.53zm-2.292 7.356a.425.425 0 01-.578-.385c0-.055.01-.109.032-.16l.847-2.034 1.732 1.732-2.033.846zm7.886-3.69L9.863 32.5h-1.48l5.809-5.808-.884-.884L7.5 31.616v-1.48l-1.902-.474L19.11 16.148c.09.19.171.383.273.568l-.89 1.439 1.233 1.234-.794.795.883.883.795-.794 1.235 1.234 1.438-.891c.184.102.378.183.567.273L10.34 34.403zm26.366-20.814l-.091.372a8.67 8.67 0 01-1.012 2.44l-.199.327.768 1.241-1.952 1.952-1.24-.768-.328.199c-.76.46-1.58.8-2.44 1.01l-.372.092-.334 1.421h-2.76l-.334-1.42-.372-.092c-.86-.21-1.68-.55-2.44-1.01l-.328-.2-1.241.769-1.952-1.952.768-1.241-.198-.327a8.69 8.69 0 01-1.012-2.44l-.092-.372-1.419-.335v-2.76l1.42-.334.091-.372a8.672 8.672 0 011.012-2.44l.199-.327-.768-1.241 1.952-1.952 1.24.768.328-.199c.76-.46 1.58-.8 2.44-1.01l.372-.092.334-1.421h2.76l.334 1.42.372.092c.86.21 1.68.55 2.44 1.01l.328.2 1.241-.769 1.952 1.952-.768 1.241.198.327c.46.758.801 1.579 1.012 2.44l.092.372 1.419.335v2.76l-1.42.334z" fill="#fff"/><path d="M8.309 12.942l.883-.884L7.134 10l2.058-2.058-.883-.884L6.25 9.116 4.192 7.058l-.883.884L5.367 10l-2.058 2.058.883.884 2.058-2.058 2.059 2.058zm7.387 10.473l.884-.884.884.884-.884.884-.884-.884zm-1.767 1.767l.884-.884.883.884-.883.884-.884-.884zm3.536-3.536l.84-.839.883.884-.84.84-.883-.884z" fill="#fff"/></svg>