<svg width="40" height="40" fill="none" xmlns="http://www.w3.org/2000/svg"><path d="M3.906 36.875a.781.781 0 100-1.563.781.781 0 000 1.563zm17.115-16.791l9.375-9.375a.781.781 0 00-1.105-1.105l-9.375 9.375a.781.781 0 001.105 1.105zm1.01-6.021a2.346 2.346 0 002.344-2.344 2.346 2.346 0 00-2.344-2.344 2.346 2.346 0 00-2.343 2.344 2.346 2.346 0 002.343 2.344zm0-3.126a.782.782 0 010 1.563.782.782 0 010-1.563zm6.25 4.688a2.346 2.346 0 00-2.343 2.344 2.346 2.346 0 002.343 2.343 2.346 2.346 0 002.344-2.343 2.346 2.346 0 00-2.344-2.344zm0 3.125a.782.782 0 010-1.563.782.782 0 010 1.563z" fill="#fff"/><path d="M3.906 40c1.187 0 2.296-.53 3.038-1.45l9.563-11.644a14.893 14.893 0 008.65 2.782C33.348 29.688 40 23.047 40 14.844c0-2.667-.716-5.283-2.07-7.565a.781.781 0 10-1.343.798 13.27 13.27 0 011.85 6.767c0 3.285-1.185 6.388-3.354 8.822l-2.214-2.214a10.078 10.078 0 002.444-6.608c0-5.338-4.139-9.726-9.376-10.127v-3.13a13.25 13.25 0 015.986 1.826.781.781 0 00.798-1.343A14.828 14.828 0 0025.156 0c-8.185 0-14.843 6.659-14.843 14.844 0 3.1.983 6.141 2.781 8.65L1.456 33.052A3.89 3.89 0 000 36.094 3.91 3.91 0 003.906 40zM33.75 14.844a8.594 8.594 0 01-8.594 8.594c-4.738 0-8.593-3.856-8.593-8.594 0-4.739 3.855-8.594 8.593-8.594 4.739 0 8.594 3.855 8.594 8.594zM24.375 1.586v3.131c-4.979.38-8.965 4.367-9.345 9.346h-3.131c.39-6.703 5.774-12.086 12.476-12.477zM11.898 15.625h3.132C15.43 20.862 19.819 25 25.156 25c2.452 0 4.77-.863 6.608-2.443l2.215 2.214a13.186 13.186 0 01-8.823 3.354c-7.11 0-12.863-5.567-13.258-12.5zm2.172 9.089c.382.428.788.835 1.216 1.216l-6.398 7.79-2.608-2.608 7.79-6.398zm-11.628 9.55l2.624-2.155 2.825 2.825-2.16 2.63a2.336 2.336 0 01-1.825.873 2.346 2.346 0 01-2.344-2.343c0-.712.32-1.378.88-1.83z" fill="#fff"/><path d="M35.078 5.703a.781.781 0 100-1.562.781.781 0 000 1.562z" fill="#fff"/></svg>