<svg width="40" height="40" fill="none" xmlns="http://www.w3.org/2000/svg"><path d="M24.375 11.875v-.625a2.63 2.63 0 00-1.464-2.368l-.945-.473a2.49 2.49 0 00.534-1.534V5.731c0-1.39-1.04-2.533-2.366-2.602a2.477 2.477 0 00-1.855.682 2.51 2.51 0 00-.779 1.814v1.25c0 .557.191 1.097.534 1.534l-.946.473a2.633 2.633 0 00-1.463 2.368v.625h8.75zM17.648 10l1.727-.864v-1.15l-.207-.187a1.232 1.232 0 01-.418-.924v-1.25a1.251 1.251 0 011.317-1.248c.652.034 1.183.642 1.183 1.354v1.144c0 .353-.148.68-.418.924l-.207.186v1.151l1.727.864c.278.139.495.36.627.625h-5.958a1.39 1.39 0 01.627-.625z" fill="#fff"/><path d="M35.558 8.453l-.342-.46-8.391 5.182 5.183-8.39-.46-.343A19.22 19.22 0 0020 .625 19.22 19.22 0 008.453 4.442l-.46.342 5.182 8.391-8.39-5.183-.343.46A19.22 19.22 0 00.625 20a19.22 19.22 0 003.817 11.547l.342.46 8.391-5.182-5.183 8.39.46.343A19.22 19.22 0 0020 39.375a19.22 19.22 0 0011.547-3.817l.46-.342-5.182-8.391 8.39 5.183.343-.46A19.22 19.22 0 0039.375 20a19.22 19.22 0 00-3.817-11.547zM9.664 5.11A17.967 17.967 0 0120 1.875c3.733 0 7.294 1.117 10.336 3.236l-5.918 9.583-.671-.67-1.373.246-.798-1.145h-3.153l-.797 1.145-1.373-.246-.67.67-5.92-9.583zM24.63 23.324l-1.307 1.307-1.52-.273-.88 1.267h-1.847l-.881-1.267-1.52.273-1.307-1.306.274-1.52-1.268-.881v-1.847l1.267-.882-.273-1.52 1.306-1.305 1.52.273.881-1.268h1.847l.881 1.267 1.52-.273 1.307 1.306-.273 1.52 1.267.881v1.847l-1.267.881.273 1.52zM5.11 30.336A17.963 17.963 0 011.875 20c0-3.733 1.117-7.294 3.236-10.337l9.584 5.92-.67.67.246 1.374-1.146.797v3.153l1.145.797-.246 1.373.67.67-9.583 5.92zm13.014 7.682v-1.143h3.75v1.143c-.62.063-1.244.107-1.875.107s-1.255-.044-1.875-.107zm6.25-4.893h-8.75V30c0-.345.28-.625.625-.625h7.5c.345 0 .625.28.625.625v3.125zm-8.75 1.25h8.75V35c0 .345-.28.625-.625.625h-7.5a.625.625 0 01-.625-.625v-.625zm14.711.514a17.908 17.908 0 01-7.211 2.958v-.972h.625A1.877 1.877 0 0025.625 35v-5a1.877 1.877 0 00-1.875-1.875h-7.5A1.877 1.877 0 0014.375 30v5c0 1.034.841 1.875 1.875 1.875h.625v.973a17.926 17.926 0 01-7.211-2.959l5.918-9.583.671.67 1.373-.245.798 1.144h3.153l.797-1.145 1.373.246.67-.67 5.92 9.583zm4.553-4.553l-9.583-5.918.67-.671-.246-1.373 1.145-.798v-3.153l-1.145-.797.246-1.373-.67-.671 9.583-5.92A17.974 17.974 0 0138.125 20c0 3.733-1.117 7.294-3.236 10.336z" fill="#fff"/><path d="M20 16.875A3.129 3.129 0 0016.875 20 3.129 3.129 0 0020 23.125 3.129 3.129 0 0023.125 20 3.129 3.129 0 0020 16.875zm0 5A1.877 1.877 0 0118.125 20c0-1.034.841-1.875 1.875-1.875s1.875.841 1.875 1.875A1.877 1.877 0 0120 21.875zm12.5-8.125c-2.757 0-5 2.243-5 5 0 1.751.905 3.238 2.5 4.13v2.745h5V22.88c1.595-.893 2.5-2.379 2.5-4.13 0-2.757-2.243-5-5-5zm-1.25 10.625v-1.25h2.5v1.25h-2.5zm.625-5.625a.626.626 0 111.251.001.626.626 0 01-1.251-.001zm2.347 3.125h-1.097V20.51a1.872 1.872 0 001.25-1.76 1.877 1.877 0 00-1.875-1.875 1.877 1.877 0 00-1.875 1.875c0 .814.524 1.501 1.25 1.76v1.365h-1.097c-.807-.41-2.028-1.325-2.028-3.125A3.754 3.754 0 0132.5 15a3.754 3.754 0 013.75 3.75c0 1.8-1.22 2.714-2.028 3.125zM3.125 25h8.75v-8.75h-8.75V25zm5-1.25h-1.25V22.5h1.25v1.25zm-1.25-6.25h1.25v1.25h-1.25V17.5zm-2.5 0h1.25V20h3.75v-2.5h1.25v6.25h-1.25v-2.5h-3.75v2.5h-1.25V17.5z" fill="#fff"/></svg>