<svg width="40" height="40" fill="none" xmlns="http://www.w3.org/2000/svg"><g clip-path="url(#clip0)" fill="#fff"><path d="M39.245 6.08l.527-.527a.781.781 0 00-1.105-1.105l-.527.526-.526-.526a.781.781 0 00-.552-.229h-.86L32.212.23A.781.781 0 0031.66 0H2.815A2.817 2.817 0 000 2.814v14.64a2.817 2.817 0 002.814 2.814H9.62l-4.577 4.577a2.795 2.795 0 00-.824 1.99c0 .75.292 1.457.824 1.989l10.352 10.352a2.795 2.795 0 001.99.824 2.8 2.8 0 001.99-.824l7.753-7.754a.781.781 0 00-1.105-1.104L18.27 38.07c-.236.236-.55.367-.884.367-.334 0-.649-.13-.885-.367L6.15 27.72a1.243 1.243 0 01-.367-.885c0-.334.13-.648.367-.884L26.316 5.782h10.422l.298.297-1.807 1.807A2.346 2.346 0 0031.875 10a2.346 2.346 0 002.344 2.343 2.346 2.346 0 002.115-3.353l1.806-1.807.298.298v10.422l-7.442 7.442A.781.781 0 0032.1 26.45l7.672-7.671a.782.782 0 00.229-.553V7.158a.782.782 0 00-.23-.552l-.526-.527zM14.03 14.017a.782.782 0 11.002-1.564.782.782 0 01-.002 1.564zM25.993 4.22a.781.781 0 00-.553.23l-9.085 9.084a2.347 2.347 0 00-2.325-2.64 2.347 2.347 0 00-2.343 2.344 2.347 2.347 0 002.64 2.324l-3.144 3.144H2.815c-.69 0-1.252-.561-1.252-1.251V2.814c0-.69.562-1.252 1.252-1.252h28.521l2.657 2.657h-8zm8.226 6.563a.782.782 0 010-1.563c.179 0 .343.06.474.162a.78.78 0 00.146.145.782.782 0 01-.62 1.255z"/><path d="M25.984 23.112a.781.781 0 00.552-.229l1.768-1.768a.782.782 0 00-1.105-1.105l-1.215 1.216-3.867-3.867a.781.781 0 00-1.105 1.105l4.42 4.42a.782.782 0 00.552.228zm6.076-6.858a.782.782 0 00-1.104 0l-.995.994-1.104-1.105.994-.994a.781.781 0 00-1.105-1.105l-.994.995-1.105-1.105.994-.995a.781.781 0 00-1.105-1.104L24.99 13.38a.781.781 0 000 1.105l4.419 4.42a.779.779 0 001.105 0l1.547-1.547a.781.781 0 000-1.105zm-8.64 8.982a.781.781 0 10.71-1.392l-5.856-2.983a.781.781 0 00-1.051 1.05l2.983 5.856a.78.78 0 101.392-.709l-.24-.47 1.592-1.591.47.24zm-2.807-.112l-.907-1.78 1.78.907-.873.873zM15.93 31.28a.781.781 0 101.105 1.105l1.105-1.105c.914-.914.914-2.4 0-3.315a2.346 2.346 0 00-3.256-.057l-.058.057a.776.776 0 01-.553.23.782.782 0 01-.553-1.334l1.106-1.105a.781.781 0 00-1.105-1.105l-1.105 1.105a2.347 2.347 0 000 3.314 2.329 2.329 0 001.657.686c.625 0 1.213-.243 1.656-.684l.002-.002a.782.782 0 011.104 1.105l-1.104 1.105zM13.386 5.044a.781.781 0 00-1.064.296l-5.04 8.926a.781.781 0 101.361.768l5.04-8.926a.781.781 0 00-.297-1.064zM9.78 7.031a2.347 2.347 0 00-2.344-2.344 2.347 2.347 0 00-2.344 2.344 2.347 2.347 0 002.344 2.344A2.347 2.347 0 009.78 7.031zm-3.126 0a.782.782 0 111.565.002.782.782 0 01-1.565-.002zm22.407 20.572a.785.785 0 00-.78.781c0 .206.083.407.228.552a.786.786 0 00.552.23.787.787 0 00.553-.23.787.787 0 00.229-.552.787.787 0 00-.23-.552.787.787 0 00-.552-.23z"/></g><defs><clipPath id="clip0"><path fill="#fff" d="M0 0h40v40H0z"/></clipPath></defs></svg>