<svg width="60" height="80" fill="none" xmlns="http://www.w3.org/2000/svg"><path d="M6.72 29.688c0 12.923 10.514 23.437 23.438 23.437 12.923 0 23.437-10.514 23.437-23.437 0-12.924-10.514-23.438-23.437-23.438C17.234 6.25 6.72 16.764 6.72 29.688zM30.158 9.375c11.2 0 20.312 9.112 20.312 20.313C50.47 40.888 41.358 50 30.158 50c-11.2 0-20.313-9.112-20.313-20.312 0-11.201 9.112-20.313 20.313-20.313z" fill="#fff"/><path d="M15.689 26.902l6.056 5.968-1.393 8.387a1.562 1.562 0 002.261 1.643l7.546-3.919 7.545 3.919a1.562 1.562 0 002.262-1.643l-1.394-8.387 6.057-5.968a1.561 1.561 0 00-.864-2.658l-8.406-1.265-3.803-7.606a1.562 1.562 0 00-2.795 0l-3.803 7.606-8.405 1.265a1.562 1.562 0 00-.864 2.658zm10.537-.954a1.563 1.563 0 001.165-.846l2.768-5.536 2.768 5.536c.228.455.662.77 1.165.846l6.118.921-4.409 4.343a1.566 1.566 0 00-.445 1.37l1.015 6.104-5.492-2.852a1.558 1.558 0 00-1.44 0l-5.492 2.852 1.014-6.104a1.562 1.562 0 00-.445-1.37l-4.408-4.343 6.118-.92zM31.72 1.563a1.562 1.562 0 11-3.124 0 1.562 1.562 0 013.125 0z" fill="#fff"/><path d="M22.794.92C9.65 4.277.47 16.106.47 29.688a29.595 29.595 0 009.773 22.014L.83 68.29a1.563 1.563 0 001.676 2.3l10.69-2.219 3.758 10.588a1.562 1.562 0 002.83.25l10.374-18.238L40.53 79.21a1.562 1.562 0 002.83-.25l3.757-10.588 10.69 2.22a1.563 1.563 0 001.677-2.301L50.072 51.7a29.595 29.595 0 009.773-22.014c0-13.582-9.18-25.411-22.323-28.766a1.562 1.562 0 10-.774 3.028C48.508 6.95 56.72 17.535 56.72 29.687c0 14.791-12.012 26.563-26.562 26.563-14.56 0-26.563-11.782-26.563-26.563 0-12.152 8.212-22.737 19.972-25.738A1.563 1.563 0 0022.794.92zm-4.037 73.776l-3.07-8.653a1.563 1.563 0 00-1.79-1.008L5.251 66.83l7.45-13.13a29.75 29.75 0 0014.836 5.558l-8.781 15.438zm27.662-9.66a1.563 1.563 0 00-1.79 1.007l-3.07 8.653-8.782-15.438A29.752 29.752 0 0047.614 53.7l7.45 13.13-8.645-1.795z" fill="#fff"/></svg>