<svg width="40" height="40" fill="none" xmlns="http://www.w3.org/2000/svg"><path d="M39.691 35.548l-.57-.57a.586.586 0 10-.83.828l.489.488-2.486 2.486-4.226-4.227 2.486-2.485 1.971 1.971a.586.586 0 00.829-.828l-2.385-2.385-.001-.002-1.657-1.657-.002-.001-1.462-1.463a1.05 1.05 0 00-1.492.001l-.083.082-2.096-2.097a15.769 15.769 0 003.106-6.515h4.128a.586.586 0 100-1.172h-3.92c.051-.373.09-.75.115-1.13h6.598a.586.586 0 100-1.172H31.64a16.28 16.28 0 00-.047-1.13h3.818a.586.586 0 100-1.172h-3.952a15.63 15.63 0 00-3.227-7.39.586.586 0 00-.919.728 14.496 14.496 0 013.157 9.084c0 8.078-6.572 14.649-14.649 14.649-8.077 0-14.648-6.572-14.648-14.649 0-8.077 6.571-14.648 14.648-14.648 3.652 0 7.15 1.351 9.85 3.805a.586.586 0 10.788-.867A15.783 15.783 0 0015.82 0C7.097 0 0 7.097 0 15.82c0 7.702 5.532 14.135 12.832 15.536v3.953a.586.586 0 101.171 0v-3.773c.373.042.75.072 1.13.089v6.44a.586.586 0 101.172 0v-6.432c.38-.012.757-.036 1.13-.074v3.75a.586.586 0 101.172 0v-3.914a15.758 15.758 0 007.082-3.22l2.097 2.097-.083.083c-.199.2-.308.464-.308.746s.11.547.308.746l1.463 1.463h.001l1.658 1.658 4.723 4.723c.199.2.464.309.746.309s.546-.11.745-.309l2.652-2.652c.2-.199.309-.464.309-.745 0-.282-.11-.547-.309-.746zm-12.283-8.97l2.035 2.037-.828.828-2.036-2.035c.286-.266.563-.543.829-.83zm3.831 7.147l-.829-.829 2.486-2.486.829.83-2.486 2.485zm-.138-5.11l.967.967-2.486 2.486-.967-.967 2.486-2.486z" fill="#fff"/><path d="M7.66 26.546c2.347 1.764 5.166 2.715 8.16 2.75 7.431 0 13.477-6.045 13.477-13.476 0-7.43-6.046-13.476-13.477-13.476-3.586 0-6.96 1.403-9.497 3.952a13.615 13.615 0 00-3.98 9.518 13.172 13.172 0 003.391 8.97.586.586 0 00.871-.784 12.002 12.002 0 01-3.09-8.173 12.449 12.449 0 013.638-8.704 12.153 12.153 0 018.667-3.607c6.785 0 12.305 5.52 12.305 12.304 0 6.785-5.52 12.305-12.298 12.305-2.736-.032-5.316-.902-7.463-2.515a.586.586 0 10-.704.936z" fill="#fff"/><path d="M18.047 5.352h-4.063a.9.9 0 00-.898.898v2.07h-3.79a.9.9 0 00-.898.899v6.289h-.784a.586.586 0 100 1.172h16.803a.586.586 0 100-1.172h-.784v-3.32a.9.9 0 00-.899-.899h-3.789V6.25a.9.9 0 00-.898-.898zM9.57 9.492h3.516v6.016H9.57V9.492zm4.688-2.969h3.515v8.985h-3.515V6.523zm8.203 5.938v3.047h-3.516V12.46h3.516zm.118 9.184H19.82l-1.253-3.203a.587.587 0 00-1.095.01l-1.713 4.617-1.197-3.392a.586.586 0 00-1.064-.091l-1.15 2.059h-2.75a.586.586 0 100 1.172h3.095a.586.586 0 00.511-.3l.685-1.227 1.304 3.696a.586.586 0 00.548.391h.005a.586.586 0 00.549-.382l1.74-4.694.84 2.143a.586.586 0 00.545.373h3.159a.586.586 0 100-1.172z" fill="#fff"/></svg>