<svg width="50" height="50" fill="none" xmlns="http://www.w3.org/2000/svg"><path d="M13.137 41.406h1.851a2.34 2.34 0 002.2 1.563 2.347 2.347 0 002.344-2.344 2.347 2.347 0 00-2.344-2.344 2.34 2.34 0 00-2.2 1.563h-1.85a2.34 2.34 0 00-2.2-1.563 2.347 2.347 0 00-2.344 2.344 2.347 2.347 0 002.344 2.344 2.34 2.34 0 002.2-1.563zm4.05-1.562a.782.782 0 11-.001 1.564.782.782 0 01.002-1.564zm-7.03.781a.782.782 0 111.563.002.782.782 0 01-1.564-.002zm29.83-2.344a2.34 2.34 0 002.2 1.563 2.347 2.347 0 002.344-2.344 2.347 2.347 0 00-2.343-2.344 2.34 2.34 0 00-2.2 1.563h-4.832a.781.781 0 00-.781.781v4.05a2.34 2.34 0 00-1.563 2.2 2.347 2.347 0 002.344 2.344A2.347 2.347 0 0037.5 43.75a2.34 2.34 0 00-1.563-2.2v-3.269h4.05zm2.2-1.562a.782.782 0 11-.001 1.564.782.782 0 01.002-1.564zm-7.03 7.812a.782.782 0 110-1.564.782.782 0 010 1.564z" fill="#fff"/><path d="M25 1.563C12.077 1.563 1.562 12.076 1.562 25c0 .432.35.781.782.781H13.28v2.488a2.342 2.342 0 00-1.418 1.419H8.136L6.02 27.572a.78.78 0 00-.552-.23H2.344v1.563h2.801L7.26 31.02a.78.78 0 00.553.229h4.05a2.342 2.342 0 001.418 1.419v1.706H8.45a2.34 2.34 0 00-2.2-1.563 2.347 2.347 0 00-2.344 2.344A2.347 2.347 0 006.25 37.5a2.34 2.34 0 002.2-1.563h5.613a.78.78 0 00.78-.78v-2.488a2.34 2.34 0 001.563-2.2 2.34 2.34 0 00-1.562-2.2V25.78h3.125v8.594c0 .208.082.406.229.552l2.896 2.896v6.07a2.34 2.34 0 00-1.563 2.2 2.347 2.347 0 002.344 2.344 2.347 2.347 0 002.344-2.343 2.34 2.34 0 00-1.563-2.2v-6.07l1.334-1.334a.778.778 0 00.229-.553v-4.05a2.34 2.34 0 001.562-2.2 2.34 2.34 0 00-1.562-2.2V25.78h7.489l-1.792 1.792a.778.778 0 00-.229.552v1.706a2.34 2.34 0 00-1.562 2.2 2.34 2.34 0 001.563 2.2v2.164l-1.334 1.334a.778.778 0 00-.229.552v4.831a2.34 2.34 0 00-1.563 2.2 2.347 2.347 0 002.344 2.344 2.347 2.347 0 002.344-2.343 2.34 2.34 0 00-1.563-2.2v-4.508l1.334-1.334a.778.778 0 00.229-.552V34.23a2.342 2.342 0 001.419-1.419h4.05a.779.779 0 00.552-.228l2.115-2.115h3.726a2.34 2.34 0 002.2 1.562 2.347 2.347 0 002.344-2.343 2.34 2.34 0 00-1.562-2.2V25.78h1.562a.782.782 0 00.782-.781C48.438 12.077 37.922 1.562 25 1.562zM6.25 35.937a.782.782 0 11.002-1.564.782.782 0 01-.002 1.565zm7.813-4.687a.782.782 0 11.001-1.564.782.782 0 01-.002 1.564zm14.843 14.844a.782.782 0 11.002-1.564.782.782 0 01-.002 1.564zm15.037-32.022a36.28 36.28 0 01-3.991 1.3c-.674-2.128-1.563-4.086-2.629-5.819a27.81 27.81 0 002.391-.72 22.034 22.034 0 014.229 5.239zM32.026 24.219a78.85 78.85 0 00-.271-5.81 57.417 57.417 0 007.122-1.161 30.9 30.9 0 01.953 6.97h-7.804zm-3.36-14.963A59.284 59.284 0 0125 9.375c-1.244 0-2.468-.045-3.666-.119C22.427 5.31 23.83 3.125 25 3.125s2.573 2.185 3.666 6.131zm-.682-5.686c2.554.77 4.87 2.518 6.765 4.956a47.76 47.76 0 01-4.492.608c-.608-2.304-1.367-4.23-2.273-5.564zm1.072 7.23c.412 1.787.761 3.859 1.009 6.191a66.25 66.25 0 01-5.065.197c-1.71 0-3.405-.07-5.064-.197.248-2.332.597-4.403 1.009-6.192 1.323.09 2.68.139 4.055.139 1.376 0 2.732-.05 4.056-.139zm-9.313-1.667a47.763 47.763 0 01-4.492-.608c1.895-2.44 4.21-4.185 6.765-4.956-.906 1.334-1.665 3.261-2.273 5.564zm-.37 1.534c-.42 1.9-.746 3.997-.98 6.188a55.704 55.704 0 01-6.838-1.109c.686-2.16 1.607-4.125 2.71-5.83 1.587.328 3.303.58 5.108.751zm-1.129 7.742a78.905 78.905 0 00-.27 5.81h-7.805a30.91 30.91 0 01.952-6.971c2.23.517 4.629.907 7.123 1.16zm1.547.137c1.707.133 3.45.204 5.209.204a67.2 67.2 0 005.21-.204c.145 1.763.235 3.657.252 5.673H19.537a77.59 77.59 0 01.254-5.673zm11.816-1.691c-.233-2.19-.56-4.288-.979-6.188a47.897 47.897 0 005.107-.75c1.104 1.706 2.024 3.671 2.711 5.83a55.86 55.86 0 01-6.839 1.108zm6.705-9.195c-.603.186-1.24.357-1.908.515a18.707 18.707 0 00-3.182-3.443 21.813 21.813 0 015.09 2.928zm-24.717.514a29.672 29.672 0 01-1.908-.515 21.857 21.857 0 015.09-2.928 18.735 18.735 0 00-3.182 3.443zm-3.31.66c.744.262 1.54.504 2.392.72-1.066 1.733-1.955 3.69-2.629 5.818a36.33 36.33 0 01-3.991-1.3 22 22 0 014.229-5.238zM5.324 15.46c1.317.53 2.755 1 4.29 1.411a32.243 32.243 0 00-1.006 7.349h-5.47a21.73 21.73 0 012.185-8.76zm16.552 31.415a.782.782 0 11.002-1.564.782.782 0 01-.002 1.564zm1.563-16.406a.782.782 0 11.001-1.564.782.782 0 01-.002 1.564zm-.782-2.982a2.34 2.34 0 00-1.562 2.2 2.34 2.34 0 001.562 2.2v3.727l-.781.781-2.344-2.343v-8.27h3.125v1.706zm7.813 5.326a.782.782 0 11.001-1.565.782.782 0 01-.001 1.564zm14.843-2.344a.782.782 0 11.002-1.564.782.782 0 01-.002 1.564zm-.78-2.982a2.341 2.341 0 00-1.42 1.42h-4.05a.779.779 0 00-.552.228l-2.115 2.115H32.67a2.342 2.342 0 00-1.419-1.419v-1.383l2.667-2.667h10.614v1.707zm-3.14-3.268a32.242 32.242 0 00-1.005-7.349 37.262 37.262 0 004.289-1.41 21.71 21.71 0 012.185 8.759h-5.469z" fill="#fff"/></svg>