<svg width="50" height="50" fill="none" xmlns="http://www.w3.org/2000/svg"><path d="M44.913 6.494a2.728 2.728 0 00-2.784-.473L6.082 20.183a2.735 2.735 0 00.464 5.226l9.47 1.894v11.756a2.734 2.734 0 004.668 1.934l5.326-5.327 7.966 7.01a2.712 2.712 0 002.645.55 2.712 2.712 0 001.826-1.992l7.347-32.057a2.728 2.728 0 00-.881-2.683zM6.693 22.762a.362.362 0 01.246-.398l30.162-11.85-20.185 14.579-9.91-1.983a.362.362 0 01-.313-.348zm12.333 16.574a.39.39 0 01-.666-.277V28.934l5.887 5.181-5.22 5.22zm17.137 1.375a.391.391 0 01-.64.206L19.065 26.432l24.411-17.63-7.312 31.909z" fill="#fff"/></svg>