<svg width="495" height="279" fill="none" xmlns="http://www.w3.org/2000/svg"><path d="M36.553 4.231a2.118 2.118 0 002.121-2.116C38.674.947 37.724 0 36.553 0a2.118 2.118 0 00-2.121 2.115c0 1.169.95 2.116 2.121 2.116zm8.647 0a2.118 2.118 0 002.12-2.116A2.117 2.117 0 0045.2 0a2.118 2.118 0 00-2.122 2.115c0 1.169.95 2.116 2.121 2.116zm8.568 0a2.118 2.118 0 002.121-2.116A2.117 2.117 0 0053.768 0a2.118 2.118 0 00-2.121 2.115c0 1.169.95 2.116 2.12 2.116zm8.648 0a2.118 2.118 0 002.121-2.116c0-1.168-.95-2.115-2.12-2.115a2.118 2.118 0 00-2.122 2.115c0 1.169.95 2.116 2.121 2.116zm8.567 0a2.118 2.118 0 002.121-2.116C73.104.947 72.154 0 70.983 0a2.118 2.118 0 00-2.122 2.115c0 1.169.95 2.116 2.122 2.116zm8.648 0a2.118 2.118 0 002.121-2.116c0-1.168-.95-2.115-2.12-2.115a2.118 2.118 0 00-2.122 2.115c0 1.169.95 2.116 2.121 2.116zm8.567 0a2.118 2.118 0 002.12-2.116A2.116 2.116 0 0088.199 0a2.118 2.118 0 00-2.122 2.115c0 1.169.95 2.116 2.122 2.116zm8.648 0a2.118 2.118 0 002.121-2.116C98.967.947 98.017 0 96.846 0a2.118 2.118 0 00-2.121 2.115c0 1.169.95 2.116 2.12 2.116zm-60.293 8.625a2.118 2.118 0 002.121-2.116c0-1.168-.95-2.115-2.121-2.115a2.118 2.118 0 00-2.121 2.115 2.12 2.12 0 002.121 2.116zm8.647 0a2.118 2.118 0 002.12-2.116 2.117 2.117 0 00-2.12-2.115 2.118 2.118 0 00-2.122 2.115 2.12 2.12 0 002.121 2.116zm8.568 0a2.118 2.118 0 002.121-2.116c0-1.168-.95-2.115-2.121-2.115a2.118 2.118 0 00-2.121 2.115c0 1.168.95 2.116 2.12 2.116zm8.648 0a2.118 2.118 0 002.121-2.116c0-1.168-.95-2.115-2.12-2.115a2.118 2.118 0 00-2.122 2.115 2.12 2.12 0 002.121 2.116zm8.567 0a2.118 2.118 0 002.121-2.116c0-1.168-.95-2.115-2.121-2.115a2.118 2.118 0 00-2.122 2.115 2.12 2.12 0 002.122 2.116zm8.648 0a2.118 2.118 0 002.121-2.116c0-1.168-.95-2.115-2.12-2.115a2.118 2.118 0 00-2.122 2.115 2.12 2.12 0 002.121 2.116zm8.567 0a2.118 2.118 0 002.12-2.116 2.117 2.117 0 00-2.12-2.115 2.118 2.118 0 00-2.122 2.115 2.12 2.12 0 002.122 2.116zm8.648 0a2.118 2.118 0 002.121-2.116c0-1.168-.95-2.115-2.121-2.115a2.118 2.118 0 00-2.121 2.115c0 1.168.95 2.116 2.12 2.116zM2.121 21.399a2.118 2.118 0 002.122-2.116c0-1.168-.95-2.115-2.122-2.115A2.118 2.118 0 000 19.284c0 1.168.95 2.115 2.121 2.115zm8.649 0a2.118 2.118 0 002.121-2.116c0-1.168-.95-2.115-2.121-2.115a2.118 2.118 0 00-2.122 2.116c0 1.168.95 2.115 2.122 2.115zm8.566 0a2.118 2.118 0 002.122-2.116c0-1.168-.95-2.115-2.122-2.115a2.118 2.118 0 00-2.121 2.116c0 1.168.95 2.115 2.121 2.115zm8.649 0a2.118 2.118 0 002.12-2.116 2.117 2.117 0 00-2.12-2.115 2.118 2.118 0 00-2.122 2.116c0 1.168.95 2.115 2.122 2.115zm8.568 0a2.118 2.118 0 002.121-2.116c0-1.168-.95-2.115-2.121-2.115a2.118 2.118 0 00-2.121 2.116c0 1.168.95 2.115 2.121 2.115zm8.647 0a2.118 2.118 0 002.12-2.116 2.117 2.117 0 00-2.12-2.115 2.118 2.118 0 00-2.122 2.116c0 1.168.95 2.115 2.121 2.115zm8.568 0a2.118 2.118 0 002.121-2.116c0-1.168-.95-2.115-2.121-2.115a2.118 2.118 0 00-2.121 2.116c0 1.168.95 2.115 2.12 2.115zm8.648 0a2.118 2.118 0 002.121-2.116c0-1.168-.95-2.115-2.12-2.115a2.118 2.118 0 00-2.122 2.116c0 1.168.95 2.115 2.121 2.115zm8.567 0a2.118 2.118 0 002.121-2.116c0-1.168-.95-2.115-2.121-2.115a2.118 2.118 0 00-2.122 2.116c0 1.168.95 2.115 2.122 2.115zm8.648 0a2.118 2.118 0 002.121-2.116c0-1.168-.95-2.115-2.12-2.115a2.118 2.118 0 00-2.122 2.116c0 1.168.95 2.115 2.121 2.115zm8.567 0a2.118 2.118 0 002.12-2.116 2.117 2.117 0 00-2.12-2.115 2.118 2.118 0 00-2.122 2.116c0 1.168.95 2.115 2.122 2.115zm8.648 0a2.118 2.118 0 002.121-2.116c0-1.168-.95-2.115-2.121-2.115a2.118 2.118 0 00-2.121 2.116c0 1.168.95 2.115 2.12 2.115zm8.566 0a2.119 2.119 0 002.122-2.116c0-1.168-.95-2.115-2.122-2.115a2.118 2.118 0 00-2.121 2.116c0 1.168.95 2.115 2.121 2.115zm8.649 0a2.118 2.118 0 002.121-2.116c0-1.168-.95-2.115-2.121-2.115a2.119 2.119 0 00-2.122 2.116c0 1.168.95 2.115 2.122 2.115zM2.121 30.024a2.118 2.118 0 002.122-2.116c0-1.168-.95-2.115-2.122-2.115A2.118 2.118 0 000 27.908c0 1.169.95 2.116 2.121 2.116zm8.649 0a2.118 2.118 0 002.121-2.116c0-1.168-.95-2.115-2.121-2.115a2.118 2.118 0 00-2.122 2.115c0 1.169.95 2.116 2.122 2.116zm8.566 0a2.118 2.118 0 002.122-2.116c0-1.168-.95-2.115-2.122-2.115a2.119 2.119 0 00-2.121 2.115c0 1.169.95 2.116 2.121 2.116zm8.649 0a2.118 2.118 0 002.12-2.116 2.117 2.117 0 00-2.12-2.115 2.118 2.118 0 00-2.122 2.115c0 1.169.95 2.116 2.122 2.116zm8.568 0a2.118 2.118 0 002.121-2.116c0-1.168-.95-2.115-2.121-2.115a2.119 2.119 0 00-2.121 2.115c0 1.169.95 2.116 2.121 2.116zm8.647 0a2.118 2.118 0 002.12-2.116 2.117 2.117 0 00-2.12-2.115 2.118 2.118 0 00-2.122 2.115c0 1.169.95 2.116 2.121 2.116zm8.568 0a2.118 2.118 0 002.121-2.116c0-1.168-.95-2.115-2.121-2.115a2.118 2.118 0 00-2.121 2.115c0 1.169.95 2.116 2.12 2.116zm8.648 0a2.118 2.118 0 002.121-2.116c0-1.168-.95-2.115-2.12-2.115a2.118 2.118 0 00-2.122 2.115c0 1.169.95 2.116 2.121 2.116zm8.567 0a2.118 2.118 0 002.121-2.116c0-1.168-.95-2.115-2.121-2.115a2.118 2.118 0 00-2.122 2.115c0 1.169.95 2.116 2.122 2.116zm8.648 0a2.118 2.118 0 002.121-2.116c0-1.168-.95-2.115-2.12-2.115a2.118 2.118 0 00-2.122 2.115c0 1.169.95 2.116 2.121 2.116zm8.567 0a2.118 2.118 0 002.12-2.116 2.117 2.117 0 00-2.12-2.115 2.118 2.118 0 00-2.122 2.115c0 1.169.95 2.116 2.122 2.116zm8.648 0a2.118 2.118 0 002.121-2.116c0-1.168-.95-2.115-2.121-2.115a2.118 2.118 0 00-2.121 2.115c0 1.169.95 2.116 2.12 2.116zm8.566 0a2.119 2.119 0 002.122-2.116c0-1.168-.95-2.115-2.122-2.115a2.119 2.119 0 00-2.121 2.115c0 1.169.95 2.116 2.121 2.116zm8.649 0a2.118 2.118 0 002.121-2.116c0-1.168-.95-2.115-2.121-2.115a2.119 2.119 0 00-2.122 2.115c0 1.169.95 2.116 2.122 2.116zm8.568 0a2.118 2.118 0 002.121-2.116 2.118 2.118 0 00-2.121-2.115 2.119 2.119 0 00-2.121 2.115c0 1.169.95 2.116 2.121 2.116zm8.647 0a2.118 2.118 0 002.121-2.116c0-1.168-.95-2.115-2.121-2.115a2.119 2.119 0 00-2.122 2.115c0 1.169.95 2.116 2.122 2.116zM2.121 38.567a2.118 2.118 0 002.122-2.116c0-1.168-.95-2.115-2.122-2.115A2.118 2.118 0 000 36.45c0 1.169.95 2.116 2.121 2.116zm8.649 0a2.118 2.118 0 002.121-2.116c0-1.168-.95-2.115-2.121-2.115a2.118 2.118 0 00-2.122 2.115c0 1.169.95 2.116 2.122 2.116zm8.566 0a2.118 2.118 0 002.122-2.116c0-1.168-.95-2.115-2.122-2.115a2.119 2.119 0 00-2.121 2.115c0 1.169.95 2.116 2.121 2.116zm8.649 0a2.118 2.118 0 002.12-2.116 2.117 2.117 0 00-2.12-2.115 2.118 2.118 0 00-2.122 2.115c0 1.169.95 2.116 2.122 2.116zm8.568 0a2.118 2.118 0 002.121-2.116c0-1.168-.95-2.115-2.121-2.115a2.119 2.119 0 00-2.121 2.115c0 1.169.95 2.116 2.121 2.116zm8.647 0a2.118 2.118 0 002.12-2.116 2.117 2.117 0 00-2.12-2.115 2.118 2.118 0 00-2.122 2.115c0 1.169.95 2.116 2.121 2.116zm8.568 0a2.118 2.118 0 002.121-2.116c0-1.168-.95-2.115-2.121-2.115a2.118 2.118 0 00-2.121 2.115c0 1.169.95 2.116 2.12 2.116zm8.648 0a2.118 2.118 0 002.121-2.116c0-1.168-.95-2.115-2.12-2.115a2.118 2.118 0 00-2.122 2.115c0 1.169.95 2.116 2.121 2.116zm8.567 0a2.118 2.118 0 002.121-2.116c0-1.168-.95-2.115-2.121-2.115a2.118 2.118 0 00-2.122 2.115c0 1.169.95 2.116 2.122 2.116zm8.648 0a2.118 2.118 0 002.121-2.116c0-1.168-.95-2.115-2.12-2.115a2.118 2.118 0 00-2.122 2.115c0 1.169.95 2.116 2.121 2.116zm8.567 0a2.118 2.118 0 002.12-2.116 2.117 2.117 0 00-2.12-2.115 2.118 2.118 0 00-2.122 2.115c0 1.169.95 2.116 2.122 2.116zm8.648 0a2.118 2.118 0 002.121-2.116c0-1.168-.95-2.115-2.121-2.115a2.118 2.118 0 00-2.121 2.115c0 1.169.95 2.116 2.12 2.116zm8.566 0a2.119 2.119 0 002.122-2.116c0-1.168-.95-2.115-2.122-2.115a2.119 2.119 0 00-2.121 2.115c0 1.169.95 2.116 2.121 2.116zm8.649 0a2.118 2.118 0 002.121-2.116c0-1.168-.95-2.115-2.121-2.115a2.119 2.119 0 00-2.122 2.115c0 1.169.95 2.116 2.122 2.116zm8.568 0a2.118 2.118 0 002.121-2.116 2.118 2.118 0 00-2.121-2.115 2.119 2.119 0 00-2.121 2.115c0 1.169.95 2.116 2.121 2.116zm8.647 0a2.118 2.118 0 002.121-2.116c0-1.168-.95-2.115-2.121-2.115a2.119 2.119 0 00-2.122 2.115c0 1.169.95 2.116 2.122 2.116zm8.648 0a2.118 2.118 0 002.121-2.116 2.118 2.118 0 00-2.121-2.115 2.118 2.118 0 00-2.121 2.115c0 1.169.949 2.116 2.121 2.116zm8.568 0a2.119 2.119 0 002.122-2.116c0-1.168-.95-2.115-2.122-2.115a2.119 2.119 0 00-2.121 2.115c0 1.169.95 2.116 2.121 2.116zM2.121 47.191a2.118 2.118 0 002.122-2.115c0-1.168-.95-2.115-2.122-2.115A2.118 2.118 0 000 45.076c0 1.168.95 2.115 2.121 2.115zm8.649 0a2.118 2.118 0 002.121-2.115c0-1.168-.95-2.115-2.121-2.115a2.118 2.118 0 00-2.122 2.115c0 1.168.95 2.115 2.122 2.115zm8.566 0a2.118 2.118 0 002.122-2.115c0-1.168-.95-2.115-2.122-2.115a2.118 2.118 0 00-2.121 2.115c0 1.168.95 2.115 2.121 2.115zm8.649 0a2.118 2.118 0 002.12-2.115 2.117 2.117 0 00-2.12-2.115 2.118 2.118 0 00-2.122 2.115c0 1.168.95 2.115 2.122 2.115zm8.568 0a2.118 2.118 0 002.121-2.115c0-1.168-.95-2.115-2.121-2.115a2.118 2.118 0 00-2.121 2.115c0 1.168.95 2.115 2.121 2.115zm8.647 0a2.118 2.118 0 002.12-2.115 2.117 2.117 0 00-2.12-2.115 2.118 2.118 0 00-2.122 2.115c0 1.168.95 2.115 2.121 2.115zm8.568 0a2.118 2.118 0 002.121-2.115c0-1.168-.95-2.115-2.121-2.115a2.118 2.118 0 00-2.121 2.115c0 1.168.95 2.115 2.12 2.115zm8.648 0a2.118 2.118 0 002.121-2.115c0-1.168-.95-2.115-2.12-2.115a2.118 2.118 0 00-2.122 2.115c0 1.168.95 2.115 2.121 2.115zm8.567 0a2.118 2.118 0 002.121-2.115c0-1.168-.95-2.115-2.121-2.115a2.118 2.118 0 00-2.122 2.115c0 1.168.95 2.115 2.122 2.115zm8.648 0a2.118 2.118 0 002.121-2.115c0-1.168-.95-2.115-2.12-2.115a2.118 2.118 0 00-2.122 2.115c0 1.168.95 2.115 2.121 2.115zm8.567 0a2.118 2.118 0 002.12-2.115 2.117 2.117 0 00-2.12-2.115 2.118 2.118 0 00-2.122 2.115c0 1.168.95 2.115 2.122 2.115zm8.648 0a2.118 2.118 0 002.121-2.115c0-1.168-.95-2.115-2.121-2.115a2.118 2.118 0 00-2.121 2.115c0 1.168.95 2.115 2.12 2.115zm8.566 0a2.119 2.119 0 002.122-2.115c0-1.168-.95-2.115-2.122-2.115a2.118 2.118 0 00-2.121 2.115c0 1.168.95 2.115 2.121 2.115zm8.649 0a2.118 2.118 0 002.121-2.115c0-1.168-.95-2.115-2.121-2.115a2.119 2.119 0 00-2.122 2.115c0 1.168.95 2.115 2.122 2.115zm8.568 0a2.118 2.118 0 002.121-2.115 2.118 2.118 0 00-2.121-2.115 2.118 2.118 0 00-2.121 2.115c0 1.168.95 2.115 2.121 2.115zm8.647 0a2.118 2.118 0 002.121-2.115c0-1.168-.95-2.115-2.121-2.115a2.119 2.119 0 00-2.122 2.115c0 1.168.95 2.115 2.122 2.115zm8.648 0a2.118 2.118 0 002.121-2.115 2.118 2.118 0 00-2.121-2.115 2.118 2.118 0 00-2.121 2.115c0 1.168.949 2.115 2.121 2.115zm8.568 0a2.119 2.119 0 002.122-2.115c0-1.168-.95-2.115-2.122-2.115a2.118 2.118 0 00-2.121 2.115c0 1.168.95 2.115 2.121 2.115zm8.649 0a2.118 2.118 0 002.121-2.115c0-1.168-.95-2.115-2.121-2.115a2.118 2.118 0 00-2.121 2.115c0 1.168.949 2.115 2.121 2.115zm8.566 0a2.119 2.119 0 002.122-2.115c0-1.168-.95-2.115-2.122-2.115a2.118 2.118 0 00-2.121 2.115c0 1.168.95 2.115 2.121 2.115zM2.121 55.735a2.118 2.118 0 002.122-2.116c0-1.168-.95-2.115-2.122-2.115A2.118 2.118 0 000 53.619c0 1.169.95 2.116 2.121 2.116zm8.649 0a2.119 2.119 0 002.121-2.116c0-1.168-.95-2.115-2.121-2.115a2.118 2.118 0 00-2.122 2.115c0 1.169.95 2.116 2.122 2.116zm8.566 0a2.118 2.118 0 002.122-2.116c0-1.168-.95-2.115-2.122-2.115a2.118 2.118 0 00-2.121 2.115c0 1.169.95 2.116 2.121 2.116zm8.649 0a2.118 2.118 0 002.12-2.116 2.117 2.117 0 00-2.12-2.115 2.118 2.118 0 00-2.122 2.115c0 1.169.95 2.116 2.122 2.116zm8.568 0a2.118 2.118 0 002.121-2.116c0-1.168-.95-2.115-2.121-2.115a2.118 2.118 0 00-2.121 2.115c0 1.169.95 2.116 2.121 2.116zm8.647 0a2.118 2.118 0 002.12-2.116 2.117 2.117 0 00-2.12-2.115 2.118 2.118 0 00-2.122 2.115c0 1.169.95 2.116 2.121 2.116zm8.568 0a2.118 2.118 0 002.121-2.116c0-1.168-.95-2.115-2.121-2.115a2.118 2.118 0 00-2.121 2.115c0 1.169.95 2.116 2.12 2.116zm8.648 0a2.118 2.118 0 002.121-2.116c0-1.168-.95-2.115-2.12-2.115a2.118 2.118 0 00-2.122 2.115c0 1.169.95 2.116 2.121 2.116zm8.567 0a2.119 2.119 0 002.121-2.116c0-1.168-.95-2.115-2.121-2.115a2.118 2.118 0 00-2.122 2.115c0 1.169.95 2.116 2.122 2.116zm8.648 0a2.118 2.118 0 002.121-2.116c0-1.168-.95-2.115-2.12-2.115a2.118 2.118 0 00-2.122 2.115c0 1.169.95 2.116 2.121 2.116zm8.567 0a2.118 2.118 0 002.12-2.116 2.117 2.117 0 00-2.12-2.115 2.118 2.118 0 00-2.122 2.115c0 1.169.95 2.116 2.122 2.116zm8.648 0a2.118 2.118 0 002.121-2.116c0-1.168-.95-2.115-2.121-2.115a2.118 2.118 0 00-2.121 2.115c0 1.169.95 2.116 2.12 2.116zm8.566 0a2.119 2.119 0 002.122-2.116c0-1.168-.95-2.115-2.122-2.115a2.118 2.118 0 00-2.121 2.115c0 1.169.95 2.116 2.121 2.116zm8.649 0a2.119 2.119 0 002.121-2.116c0-1.168-.95-2.115-2.121-2.115a2.119 2.119 0 00-2.122 2.115c0 1.169.95 2.116 2.122 2.116zm8.568 0a2.118 2.118 0 002.121-2.116 2.118 2.118 0 00-2.121-2.115 2.118 2.118 0 00-2.121 2.115c0 1.169.95 2.116 2.121 2.116zm8.647 0a2.119 2.119 0 002.121-2.116c0-1.168-.95-2.115-2.121-2.115a2.119 2.119 0 00-2.122 2.115c0 1.169.95 2.116 2.122 2.116zm8.648 0a2.118 2.118 0 002.121-2.116 2.118 2.118 0 00-2.121-2.115 2.118 2.118 0 00-2.121 2.115c0 1.169.949 2.116 2.121 2.116zm8.568 0a2.119 2.119 0 002.122-2.116c0-1.168-.95-2.115-2.122-2.115a2.118 2.118 0 00-2.121 2.115c0 1.169.95 2.116 2.121 2.116zm8.649 0a2.119 2.119 0 002.121-2.116c0-1.168-.95-2.115-2.121-2.115a2.118 2.118 0 00-2.121 2.115c0 1.169.949 2.116 2.121 2.116zm8.566 0a2.119 2.119 0 002.122-2.116c0-1.168-.95-2.115-2.122-2.115a2.118 2.118 0 00-2.121 2.115c0 1.169.95 2.116 2.121 2.116zm8.649 0a2.119 2.119 0 002.121-2.116c0-1.168-.95-2.115-2.121-2.115a2.119 2.119 0 00-2.122 2.115c0 1.169.95 2.116 2.122 2.116zm8.566 0a2.118 2.118 0 002.121-2.116 2.118 2.118 0 00-2.121-2.115 2.118 2.118 0 00-2.121 2.115c0 1.169.95 2.116 2.121 2.116zm8.649 0a2.119 2.119 0 002.121-2.116c0-1.168-.95-2.115-2.121-2.115a2.119 2.119 0 00-2.122 2.115c0 1.169.95 2.116 2.122 2.116zm8.566 0a2.119 2.119 0 002.121-2.116c0-1.168-.95-2.115-2.121-2.115a2.118 2.118 0 00-2.121 2.115c0 1.169.949 2.116 2.121 2.116zm8.648 0a2.119 2.119 0 002.122-2.116c0-1.168-.95-2.115-2.122-2.115a2.118 2.118 0 00-2.121 2.115c0 1.169.95 2.116 2.121 2.116zm8.567 0a2.119 2.119 0 002.121-2.116c0-1.168-.95-2.115-2.121-2.115a2.119 2.119 0 00-2.122 2.115c0 1.169.95 2.116 2.122 2.116zm8.648 0a2.119 2.119 0 002.122-2.116c0-1.168-.95-2.115-2.122-2.115a2.118 2.118 0 00-2.121 2.115c0 1.169.95 2.116 2.121 2.116zm8.569 0a2.119 2.119 0 002.121-2.116c0-1.168-.95-2.115-2.121-2.115a2.119 2.119 0 00-2.122 2.115c0 1.169.95 2.116 2.122 2.116zm8.648 0a2.118 2.118 0 002.121-2.116 2.118 2.118 0 00-2.121-2.115 2.118 2.118 0 00-2.121 2.115c0 1.169.949 2.116 2.121 2.116zm8.566 0a2.119 2.119 0 002.122-2.116c0-1.168-.95-2.115-2.122-2.115a2.118 2.118 0 00-2.121 2.115c0 1.169.95 2.116 2.121 2.116zm8.649 0a2.119 2.119 0 002.121-2.116c0-1.168-.95-2.115-2.121-2.115a2.118 2.118 0 00-2.121 2.115c0 1.169.949 2.116 2.121 2.116zm8.566 0a2.119 2.119 0 002.122-2.116c0-1.168-.95-2.115-2.122-2.115a2.118 2.118 0 00-2.121 2.115c0 1.169.95 2.116 2.121 2.116zm8.649 0a2.119 2.119 0 002.121-2.116c0-1.168-.95-2.115-2.121-2.115a2.119 2.119 0 00-2.122 2.115c0 1.169.95 2.116 2.122 2.116zM2.121 64.36a2.118 2.118 0 002.122-2.116c0-1.168-.95-2.115-2.122-2.115A2.118 2.118 0 000 62.244c0 1.169.95 2.116 2.121 2.116zm8.649 0a2.118 2.118 0 002.121-2.116c0-1.168-.95-2.115-2.121-2.115a2.118 2.118 0 00-2.122 2.115c0 1.169.95 2.116 2.122 2.116zm8.566 0a2.118 2.118 0 002.122-2.116c0-1.168-.95-2.115-2.122-2.115a2.118 2.118 0 00-2.121 2.115c0 1.169.95 2.116 2.121 2.116zm8.649 0a2.118 2.118 0 002.12-2.116 2.117 2.117 0 00-2.12-2.115 2.118 2.118 0 00-2.122 2.115c0 1.169.95 2.116 2.122 2.116zm8.568 0a2.118 2.118 0 002.121-2.116c0-1.168-.95-2.115-2.121-2.115a2.118 2.118 0 00-2.121 2.115c0 1.169.95 2.116 2.121 2.116zm8.647 0a2.118 2.118 0 002.12-2.116 2.117 2.117 0 00-2.12-2.115 2.118 2.118 0 00-2.122 2.115c0 1.169.95 2.116 2.121 2.116zm8.568 0a2.118 2.118 0 002.121-2.116c0-1.168-.95-2.115-2.121-2.115a2.118 2.118 0 00-2.121 2.115c0 1.169.95 2.116 2.12 2.116zm8.648 0a2.118 2.118 0 002.121-2.116c0-1.168-.95-2.115-2.12-2.115a2.118 2.118 0 00-2.122 2.115c0 1.169.95 2.116 2.121 2.116zm8.567 0a2.118 2.118 0 002.121-2.116c0-1.168-.95-2.115-2.121-2.115a2.118 2.118 0 00-2.122 2.115c0 1.169.95 2.116 2.122 2.116zm8.648 0a2.118 2.118 0 002.121-2.116c0-1.168-.95-2.115-2.12-2.115a2.118 2.118 0 00-2.122 2.115c0 1.169.95 2.116 2.121 2.116zm8.567 0a2.118 2.118 0 002.12-2.116 2.117 2.117 0 00-2.12-2.115 2.118 2.118 0 00-2.122 2.115c0 1.169.95 2.116 2.122 2.116zm8.648 0a2.118 2.118 0 002.121-2.116c0-1.168-.95-2.115-2.121-2.115a2.118 2.118 0 00-2.121 2.115c0 1.169.95 2.116 2.12 2.116zm8.566 0a2.119 2.119 0 002.122-2.116c0-1.168-.95-2.115-2.122-2.115a2.118 2.118 0 00-2.121 2.115c0 1.169.95 2.116 2.121 2.116zm8.649 0a2.118 2.118 0 002.121-2.116c0-1.168-.95-2.115-2.121-2.115a2.119 2.119 0 00-2.122 2.115c0 1.169.95 2.116 2.122 2.116zm8.568 0a2.118 2.118 0 002.121-2.116 2.118 2.118 0 00-2.121-2.115 2.118 2.118 0 00-2.121 2.115c0 1.169.95 2.116 2.121 2.116zm8.647 0a2.118 2.118 0 002.121-2.116c0-1.168-.95-2.115-2.121-2.115a2.119 2.119 0 00-2.122 2.115c0 1.169.95 2.116 2.122 2.116zm8.648 0a2.118 2.118 0 002.121-2.116 2.118 2.118 0 00-2.121-2.115 2.118 2.118 0 00-2.121 2.115c0 1.169.949 2.116 2.121 2.116zm8.568 0a2.119 2.119 0 002.122-2.116c0-1.168-.95-2.115-2.122-2.115a2.118 2.118 0 00-2.121 2.115c0 1.169.95 2.116 2.121 2.116zm8.649 0a2.118 2.118 0 002.121-2.116c0-1.168-.95-2.115-2.121-2.115a2.118 2.118 0 00-2.121 2.115c0 1.169.949 2.116 2.121 2.116zm8.566 0a2.119 2.119 0 002.122-2.116c0-1.168-.95-2.115-2.122-2.115a2.118 2.118 0 00-2.121 2.115c0 1.169.95 2.116 2.121 2.116zm8.649 0a2.118 2.118 0 002.121-2.116c0-1.168-.95-2.115-2.121-2.115a2.119 2.119 0 00-2.122 2.115c0 1.169.95 2.116 2.122 2.116zm8.566 0a2.118 2.118 0 002.121-2.116 2.118 2.118 0 00-2.121-2.115 2.118 2.118 0 00-2.121 2.115c0 1.169.95 2.116 2.121 2.116zm8.649 0a2.118 2.118 0 002.121-2.116c0-1.168-.95-2.115-2.121-2.115a2.119 2.119 0 00-2.122 2.115c0 1.169.95 2.116 2.122 2.116zm8.566 0a2.118 2.118 0 002.121-2.116c0-1.168-.95-2.115-2.121-2.115a2.118 2.118 0 00-2.121 2.115c0 1.169.949 2.116 2.121 2.116zm8.648 0a2.119 2.119 0 002.122-2.116c0-1.168-.95-2.115-2.122-2.115a2.118 2.118 0 00-2.121 2.115c0 1.169.95 2.116 2.121 2.116zm8.567 0a2.118 2.118 0 002.121-2.116c0-1.168-.95-2.115-2.121-2.115a2.119 2.119 0 00-2.122 2.115c0 1.169.95 2.116 2.122 2.116zm8.648 0a2.119 2.119 0 002.122-2.116c0-1.168-.95-2.115-2.122-2.115a2.118 2.118 0 00-2.121 2.115c0 1.169.95 2.116 2.121 2.116zm8.569 0a2.118 2.118 0 002.121-2.116c0-1.168-.95-2.115-2.121-2.115a2.119 2.119 0 00-2.122 2.115c0 1.169.95 2.116 2.122 2.116zm8.648 0a2.118 2.118 0 002.121-2.116 2.118 2.118 0 00-2.121-2.115 2.118 2.118 0 00-2.121 2.115c0 1.169.949 2.116 2.121 2.116zm8.566 0a2.119 2.119 0 002.122-2.116c0-1.168-.95-2.115-2.122-2.115a2.118 2.118 0 00-2.121 2.115c0 1.169.95 2.116 2.121 2.116zm8.649 0a2.118 2.118 0 002.121-2.116c0-1.168-.95-2.115-2.121-2.115a2.118 2.118 0 00-2.121 2.115c0 1.169.949 2.116 2.121 2.116zm8.566 0a2.119 2.119 0 002.122-2.116c0-1.168-.95-2.115-2.122-2.115a2.118 2.118 0 00-2.121 2.115c0 1.169.95 2.116 2.121 2.116zm8.649 0a2.118 2.118 0 002.121-2.116c0-1.168-.95-2.115-2.121-2.115a2.119 2.119 0 00-2.122 2.115c0 1.169.95 2.116 2.122 2.116zm8.648 0a2.118 2.118 0 002.121-2.116 2.118 2.118 0 00-2.121-2.115 2.118 2.118 0 00-2.121 2.115c0 1.169.95 2.116 2.121 2.116zm8.567 0a2.118 2.118 0 002.121-2.116c0-1.168-.95-2.115-2.121-2.115a2.119 2.119 0 00-2.122 2.115c0 1.169.95 2.116 2.122 2.116zM19.336 72.903a2.118 2.118 0 002.122-2.116c0-1.168-.95-2.115-2.122-2.115a2.118 2.118 0 00-2.121 2.115c0 1.169.95 2.116 2.121 2.116zm8.649 0a2.118 2.118 0 002.12-2.116 2.117 2.117 0 00-2.12-2.115 2.118 2.118 0 00-2.122 2.115c0 1.169.95 2.116 2.122 2.116zm8.568 0a2.118 2.118 0 002.121-2.116c0-1.168-.95-2.115-2.121-2.115a2.118 2.118 0 00-2.121 2.115c0 1.169.95 2.116 2.121 2.116zm8.647 0a2.118 2.118 0 002.12-2.116 2.117 2.117 0 00-2.12-2.115 2.118 2.118 0 00-2.122 2.115c0 1.169.95 2.116 2.121 2.116zm8.568 0a2.118 2.118 0 002.121-2.116c0-1.168-.95-2.115-2.121-2.115a2.118 2.118 0 00-2.121 2.115c0 1.169.95 2.116 2.12 2.116zm8.648 0a2.118 2.118 0 002.121-2.116c0-1.168-.95-2.115-2.12-2.115a2.118 2.118 0 00-2.122 2.115c0 1.169.95 2.116 2.121 2.116zm8.567 0a2.118 2.118 0 002.121-2.116c0-1.168-.95-2.115-2.121-2.115a2.118 2.118 0 00-2.122 2.115c0 1.169.95 2.116 2.122 2.116zm8.648 0a2.118 2.118 0 002.121-2.116c0-1.168-.95-2.115-2.12-2.115a2.118 2.118 0 00-2.122 2.115c0 1.169.95 2.116 2.121 2.116zm8.567 0a2.118 2.118 0 002.12-2.116 2.117 2.117 0 00-2.12-2.115 2.118 2.118 0 00-2.122 2.115c0 1.169.95 2.116 2.122 2.116zm8.648 0a2.118 2.118 0 002.121-2.116c0-1.168-.95-2.115-2.121-2.115a2.118 2.118 0 00-2.121 2.115c0 1.169.95 2.116 2.12 2.116zm8.566 0a2.119 2.119 0 002.122-2.116c0-1.168-.95-2.115-2.122-2.115a2.118 2.118 0 00-2.121 2.115c0 1.169.95 2.116 2.121 2.116zm8.649 0a2.118 2.118 0 002.121-2.116c0-1.168-.95-2.115-2.121-2.115a2.119 2.119 0 00-2.122 2.115c0 1.169.95 2.116 2.122 2.116zm8.568 0a2.118 2.118 0 002.121-2.116 2.118 2.118 0 00-2.121-2.115 2.118 2.118 0 00-2.121 2.115c0 1.169.95 2.116 2.121 2.116zm8.647 0a2.118 2.118 0 002.121-2.116c0-1.168-.95-2.115-2.121-2.115a2.119 2.119 0 00-2.122 2.115c0 1.169.95 2.116 2.122 2.116zm8.648 0a2.118 2.118 0 002.121-2.116 2.118 2.118 0 00-2.121-2.115 2.118 2.118 0 00-2.121 2.115c0 1.169.949 2.116 2.121 2.116zm8.568 0a2.119 2.119 0 002.122-2.116c0-1.168-.95-2.115-2.122-2.115a2.118 2.118 0 00-2.121 2.115c0 1.169.95 2.116 2.121 2.116zm8.649 0a2.118 2.118 0 002.121-2.116c0-1.168-.95-2.115-2.121-2.115a2.118 2.118 0 00-2.121 2.115c0 1.169.949 2.116 2.121 2.116zm8.566 0a2.119 2.119 0 002.122-2.116c0-1.168-.95-2.115-2.122-2.115a2.118 2.118 0 00-2.121 2.115c0 1.169.95 2.116 2.121 2.116zm8.649 0a2.118 2.118 0 002.121-2.116c0-1.168-.95-2.115-2.121-2.115a2.119 2.119 0 00-2.122 2.115c0 1.169.95 2.116 2.122 2.116zm8.566 0a2.118 2.118 0 002.121-2.116 2.118 2.118 0 00-2.121-2.115 2.118 2.118 0 00-2.121 2.115c0 1.169.95 2.116 2.121 2.116zm8.649 0a2.118 2.118 0 002.121-2.116c0-1.168-.95-2.115-2.121-2.115a2.119 2.119 0 00-2.122 2.115c0 1.169.95 2.116 2.122 2.116zm8.566 0a2.118 2.118 0 002.121-2.116c0-1.168-.95-2.115-2.121-2.115a2.118 2.118 0 00-2.121 2.115c0 1.169.949 2.116 2.121 2.116zm8.648 0a2.119 2.119 0 002.122-2.116c0-1.168-.95-2.115-2.122-2.115a2.118 2.118 0 00-2.121 2.115c0 1.169.95 2.116 2.121 2.116zm8.567 0a2.118 2.118 0 002.121-2.116c0-1.168-.95-2.115-2.121-2.115a2.119 2.119 0 00-2.122 2.115c0 1.169.95 2.116 2.122 2.116zm8.648 0a2.119 2.119 0 002.122-2.116c0-1.168-.95-2.115-2.122-2.115a2.118 2.118 0 00-2.121 2.115c0 1.169.95 2.116 2.121 2.116zm8.569 0a2.118 2.118 0 002.121-2.116c0-1.168-.95-2.115-2.121-2.115a2.119 2.119 0 00-2.122 2.115c0 1.169.95 2.116 2.122 2.116zm8.648 0a2.118 2.118 0 002.121-2.116 2.118 2.118 0 00-2.121-2.115 2.118 2.118 0 00-2.121 2.115c0 1.169.949 2.116 2.121 2.116zm8.566 0a2.119 2.119 0 002.122-2.116c0-1.168-.95-2.115-2.122-2.115a2.118 2.118 0 00-2.121 2.115c0 1.169.95 2.116 2.121 2.116zm8.649 0a2.118 2.118 0 002.121-2.116c0-1.168-.95-2.115-2.121-2.115a2.118 2.118 0 00-2.121 2.115c0 1.169.949 2.116 2.121 2.116zm8.566 0a2.119 2.119 0 002.122-2.116c0-1.168-.95-2.115-2.122-2.115a2.118 2.118 0 00-2.121 2.115c0 1.169.95 2.116 2.121 2.116zm8.649 0a2.118 2.118 0 002.121-2.116c0-1.168-.95-2.115-2.121-2.115a2.119 2.119 0 00-2.122 2.115c0 1.169.95 2.116 2.122 2.116zm8.648 0a2.118 2.118 0 002.121-2.116 2.118 2.118 0 00-2.121-2.115 2.118 2.118 0 00-2.121 2.115c0 1.169.95 2.116 2.121 2.116zm8.567 0a2.118 2.118 0 002.121-2.116c0-1.168-.95-2.115-2.121-2.115a2.119 2.119 0 00-2.122 2.115c0 1.169.95 2.116 2.122 2.116zM19.336 81.528a2.118 2.118 0 002.122-2.116c0-1.168-.95-2.115-2.122-2.115a2.119 2.119 0 00-2.121 2.115 2.12 2.12 0 002.121 2.116zm8.649 0a2.118 2.118 0 002.12-2.116 2.117 2.117 0 00-2.12-2.115 2.118 2.118 0 00-2.122 2.115 2.12 2.12 0 002.122 2.116zm8.568 0a2.118 2.118 0 002.121-2.116c0-1.168-.95-2.115-2.121-2.115a2.119 2.119 0 00-2.121 2.115 2.12 2.12 0 002.121 2.116zm8.647 0a2.118 2.118 0 002.12-2.116 2.117 2.117 0 00-2.12-2.115 2.118 2.118 0 00-2.122 2.115 2.12 2.12 0 002.121 2.116zm8.568 0a2.118 2.118 0 002.121-2.116c0-1.168-.95-2.115-2.121-2.115a2.118 2.118 0 00-2.121 2.115c0 1.168.95 2.116 2.12 2.116zm8.648 0a2.118 2.118 0 002.121-2.116c0-1.168-.95-2.115-2.12-2.115a2.118 2.118 0 00-2.122 2.115 2.12 2.12 0 002.121 2.116zm8.567 0a2.118 2.118 0 002.121-2.116c0-1.168-.95-2.115-2.121-2.115a2.118 2.118 0 00-2.122 2.115 2.12 2.12 0 002.122 2.116zm8.648 0a2.118 2.118 0 002.121-2.116c0-1.168-.95-2.115-2.12-2.115a2.118 2.118 0 00-2.122 2.115 2.12 2.12 0 002.121 2.116zm8.567 0a2.118 2.118 0 002.12-2.116 2.117 2.117 0 00-2.12-2.115 2.118 2.118 0 00-2.122 2.115 2.12 2.12 0 002.122 2.116zm8.648 0a2.118 2.118 0 002.121-2.116c0-1.168-.95-2.115-2.121-2.115a2.118 2.118 0 00-2.121 2.115c0 1.168.95 2.116 2.12 2.116zm8.566 0a2.119 2.119 0 002.122-2.116c0-1.168-.95-2.115-2.122-2.115a2.119 2.119 0 00-2.121 2.115 2.12 2.12 0 002.121 2.116zm8.649 0a2.118 2.118 0 002.121-2.116c0-1.168-.95-2.115-2.121-2.115a2.119 2.119 0 00-2.122 2.115 2.12 2.12 0 002.122 2.116zm8.568 0a2.118 2.118 0 002.121-2.116 2.118 2.118 0 00-2.121-2.115 2.119 2.119 0 00-2.121 2.115 2.12 2.12 0 002.121 2.116zm8.647 0a2.118 2.118 0 002.121-2.116c0-1.168-.95-2.115-2.121-2.115a2.119 2.119 0 00-2.122 2.115 2.12 2.12 0 002.122 2.116zm8.648 0a2.118 2.118 0 002.121-2.116 2.118 2.118 0 00-2.121-2.115 2.118 2.118 0 00-2.121 2.115c0 1.168.949 2.116 2.121 2.116zm8.568 0a2.119 2.119 0 002.122-2.116c0-1.168-.95-2.115-2.122-2.115a2.119 2.119 0 00-2.121 2.115 2.12 2.12 0 002.121 2.116zm8.649 0a2.118 2.118 0 002.121-2.116c0-1.168-.95-2.115-2.121-2.115a2.118 2.118 0 00-2.121 2.115c0 1.168.949 2.116 2.121 2.116zm8.566 0a2.119 2.119 0 002.122-2.116c0-1.168-.95-2.115-2.122-2.115a2.119 2.119 0 00-2.121 2.115 2.12 2.12 0 002.121 2.116zm8.649 0a2.118 2.118 0 002.121-2.116c0-1.168-.95-2.115-2.121-2.115a2.119 2.119 0 00-2.122 2.115 2.12 2.12 0 002.122 2.116zm8.566 0a2.118 2.118 0 002.121-2.116 2.118 2.118 0 00-2.121-2.115 2.119 2.119 0 00-2.121 2.115 2.12 2.12 0 002.121 2.116zm8.649 0a2.118 2.118 0 002.121-2.116c0-1.168-.95-2.115-2.121-2.115a2.119 2.119 0 00-2.122 2.115 2.12 2.12 0 002.122 2.116zm8.566 0a2.118 2.118 0 002.121-2.116c0-1.168-.95-2.115-2.121-2.115a2.118 2.118 0 00-2.121 2.115c0 1.168.949 2.116 2.121 2.116zm8.648 0a2.119 2.119 0 002.122-2.116c0-1.168-.95-2.115-2.122-2.115a2.119 2.119 0 00-2.121 2.115 2.12 2.12 0 002.121 2.116zm8.567 0a2.118 2.118 0 002.121-2.116c0-1.168-.95-2.115-2.121-2.115a2.119 2.119 0 00-2.122 2.115 2.12 2.12 0 002.122 2.116zm8.648 0a2.119 2.119 0 002.122-2.116c0-1.168-.95-2.115-2.122-2.115a2.119 2.119 0 00-2.121 2.115A2.12 2.12 0 00226 81.528zm8.569 0a2.118 2.118 0 002.121-2.116c0-1.168-.95-2.115-2.121-2.115a2.119 2.119 0 00-2.122 2.115 2.12 2.12 0 002.122 2.116zm8.648 0a2.118 2.118 0 002.121-2.116 2.118 2.118 0 00-2.121-2.115 2.118 2.118 0 00-2.121 2.115c0 1.168.949 2.116 2.121 2.116zm8.566 0a2.119 2.119 0 002.122-2.116c0-1.168-.95-2.115-2.122-2.115a2.119 2.119 0 00-2.121 2.115 2.12 2.12 0 002.121 2.116zm8.649 0a2.118 2.118 0 002.121-2.116c0-1.168-.95-2.115-2.121-2.115a2.118 2.118 0 00-2.121 2.115c0 1.168.949 2.116 2.121 2.116zm8.566 0a2.119 2.119 0 002.122-2.116c0-1.168-.95-2.115-2.122-2.115a2.119 2.119 0 00-2.121 2.115 2.12 2.12 0 002.121 2.116zm8.649 0a2.118 2.118 0 002.121-2.116c0-1.168-.95-2.115-2.121-2.115a2.119 2.119 0 00-2.122 2.115 2.12 2.12 0 002.122 2.116zm8.648 0a2.118 2.118 0 002.121-2.116 2.118 2.118 0 00-2.121-2.115 2.119 2.119 0 00-2.121 2.115 2.12 2.12 0 002.121 2.116zm8.567 0a2.118 2.118 0 002.121-2.116c0-1.168-.95-2.115-2.121-2.115a2.119 2.119 0 00-2.122 2.115 2.12 2.12 0 002.122 2.116zm8.648 0a2.118 2.118 0 002.121-2.116 2.118 2.118 0 00-2.121-2.115 2.118 2.118 0 00-2.121 2.115c0 1.168.949 2.116 2.121 2.116zM19.336 90.07a2.118 2.118 0 002.122-2.115c0-1.168-.95-2.115-2.122-2.115a2.119 2.119 0 00-2.121 2.115c0 1.169.95 2.116 2.121 2.116zm8.649 0a2.118 2.118 0 002.12-2.115 2.117 2.117 0 00-2.12-2.115 2.118 2.118 0 00-2.122 2.115c0 1.169.95 2.116 2.122 2.116zm8.568 0a2.118 2.118 0 002.121-2.115c0-1.168-.95-2.115-2.121-2.115a2.119 2.119 0 00-2.121 2.115c0 1.169.95 2.116 2.121 2.116zm8.647 0a2.118 2.118 0 002.12-2.115 2.117 2.117 0 00-2.12-2.115 2.118 2.118 0 00-2.122 2.115c0 1.169.95 2.116 2.121 2.116zm8.568 0a2.118 2.118 0 002.121-2.115c0-1.168-.95-2.115-2.121-2.115a2.118 2.118 0 00-2.121 2.115c0 1.169.95 2.116 2.12 2.116zm8.648 0a2.118 2.118 0 002.121-2.115c0-1.168-.95-2.115-2.12-2.115a2.118 2.118 0 00-2.122 2.115c0 1.169.95 2.116 2.121 2.116zm8.567 0a2.118 2.118 0 002.121-2.115c0-1.168-.95-2.115-2.121-2.115a2.118 2.118 0 00-2.122 2.115c0 1.169.95 2.116 2.122 2.116zm8.648 0a2.118 2.118 0 002.121-2.115c0-1.168-.95-2.115-2.12-2.115a2.118 2.118 0 00-2.122 2.115c0 1.169.95 2.116 2.121 2.116zm8.567 0a2.118 2.118 0 002.12-2.115 2.117 2.117 0 00-2.12-2.115 2.118 2.118 0 00-2.122 2.115c0 1.169.95 2.116 2.122 2.116zm8.648 0a2.118 2.118 0 002.121-2.115c0-1.168-.95-2.115-2.121-2.115a2.118 2.118 0 00-2.121 2.115c0 1.169.95 2.116 2.12 2.116zm8.566 0a2.119 2.119 0 002.122-2.115c0-1.168-.95-2.115-2.122-2.115a2.119 2.119 0 00-2.121 2.115c0 1.169.95 2.116 2.121 2.116zm8.649 0a2.118 2.118 0 002.121-2.115c0-1.168-.95-2.115-2.121-2.115a2.119 2.119 0 00-2.122 2.115c0 1.169.95 2.116 2.122 2.116zm8.568 0a2.118 2.118 0 002.121-2.115 2.118 2.118 0 00-2.121-2.115 2.119 2.119 0 00-2.121 2.115c0 1.169.95 2.116 2.121 2.116zm8.647 0a2.118 2.118 0 002.121-2.115c0-1.168-.95-2.115-2.121-2.115a2.119 2.119 0 00-2.122 2.115c0 1.169.95 2.116 2.122 2.116zm8.648 0a2.118 2.118 0 002.121-2.115 2.118 2.118 0 00-2.121-2.115 2.118 2.118 0 00-2.121 2.115c0 1.169.949 2.116 2.121 2.116zm8.568 0a2.119 2.119 0 002.122-2.115c0-1.168-.95-2.115-2.122-2.115a2.119 2.119 0 00-2.121 2.115c0 1.169.95 2.116 2.121 2.116zm8.649 0a2.118 2.118 0 002.121-2.115c0-1.168-.95-2.115-2.121-2.115a2.118 2.118 0 00-2.121 2.115c0 1.169.949 2.116 2.121 2.116zm8.566 0a2.119 2.119 0 002.122-2.115c0-1.168-.95-2.115-2.122-2.115a2.119 2.119 0 00-2.121 2.115c0 1.169.95 2.116 2.121 2.116zm8.649 0a2.118 2.118 0 002.121-2.115c0-1.168-.95-2.115-2.121-2.115a2.119 2.119 0 00-2.122 2.115c0 1.169.95 2.116 2.122 2.116zm8.566 0a2.118 2.118 0 002.121-2.115 2.118 2.118 0 00-2.121-2.115 2.119 2.119 0 00-2.121 2.115c0 1.169.95 2.116 2.121 2.116zm8.649 0a2.118 2.118 0 002.121-2.115c0-1.168-.95-2.115-2.121-2.115a2.119 2.119 0 00-2.122 2.115c0 1.169.95 2.116 2.122 2.116zm8.566 0a2.118 2.118 0 002.121-2.115c0-1.168-.95-2.115-2.121-2.115a2.118 2.118 0 00-2.121 2.115c0 1.169.949 2.116 2.121 2.116zm8.648 0a2.119 2.119 0 002.122-2.115c0-1.168-.95-2.115-2.122-2.115a2.119 2.119 0 00-2.121 2.115c0 1.169.95 2.116 2.121 2.116zm8.567 0a2.118 2.118 0 002.121-2.115c0-1.168-.95-2.115-2.121-2.115a2.119 2.119 0 00-2.122 2.115c0 1.169.95 2.116 2.122 2.116zm8.648 0a2.119 2.119 0 002.122-2.115c0-1.168-.95-2.115-2.122-2.115a2.119 2.119 0 00-2.121 2.115c0 1.169.95 2.116 2.121 2.116zm8.569 0a2.118 2.118 0 002.121-2.115c0-1.168-.95-2.115-2.121-2.115a2.119 2.119 0 00-2.122 2.115c0 1.169.95 2.116 2.122 2.116zm8.648 0a2.118 2.118 0 002.121-2.115 2.118 2.118 0 00-2.121-2.115 2.118 2.118 0 00-2.121 2.115c0 1.169.949 2.116 2.121 2.116zm8.566 0a2.119 2.119 0 002.122-2.115c0-1.168-.95-2.115-2.122-2.115a2.119 2.119 0 00-2.121 2.115c0 1.169.95 2.116 2.121 2.116zm8.649 0a2.118 2.118 0 002.121-2.115c0-1.168-.95-2.115-2.121-2.115a2.118 2.118 0 00-2.121 2.115c0 1.169.949 2.116 2.121 2.116zm8.566 0a2.119 2.119 0 002.122-2.115c0-1.168-.95-2.115-2.122-2.115a2.119 2.119 0 00-2.121 2.115c0 1.169.95 2.116 2.121 2.116zm8.649 0a2.118 2.118 0 002.121-2.115c0-1.168-.95-2.115-2.121-2.115a2.119 2.119 0 00-2.122 2.115c0 1.169.95 2.116 2.122 2.116zm8.648 0a2.118 2.118 0 002.121-2.115 2.118 2.118 0 00-2.121-2.115 2.119 2.119 0 00-2.121 2.115c0 1.169.95 2.116 2.121 2.116zm8.567 0a2.118 2.118 0 002.121-2.115c0-1.168-.95-2.115-2.121-2.115a2.119 2.119 0 00-2.122 2.115c0 1.169.95 2.116 2.122 2.116zm8.648 0a2.118 2.118 0 002.121-2.115 2.118 2.118 0 00-2.121-2.115 2.118 2.118 0 00-2.121 2.115c0 1.169.949 2.116 2.121 2.116zm8.568 0a2.119 2.119 0 002.122-2.115c0-1.168-.95-2.115-2.122-2.115a2.119 2.119 0 00-2.121 2.115c0 1.169.95 2.116 2.121 2.116zM19.336 98.696a2.118 2.118 0 002.122-2.116c0-1.168-.95-2.115-2.122-2.115a2.118 2.118 0 00-2.121 2.115 2.12 2.12 0 002.121 2.116zm8.649 0a2.118 2.118 0 002.12-2.116 2.117 2.117 0 00-2.12-2.115 2.118 2.118 0 00-2.122 2.115 2.12 2.12 0 002.122 2.116zm8.568 0a2.118 2.118 0 002.121-2.116c0-1.168-.95-2.115-2.121-2.115a2.118 2.118 0 00-2.121 2.115 2.12 2.12 0 002.121 2.116zm8.647 0a2.118 2.118 0 002.12-2.116 2.117 2.117 0 00-2.12-2.115 2.118 2.118 0 00-2.122 2.115 2.12 2.12 0 002.121 2.116zm8.568 0a2.118 2.118 0 002.121-2.116c0-1.168-.95-2.115-2.121-2.115a2.118 2.118 0 00-2.121 2.115c0 1.168.95 2.116 2.12 2.116zm8.648 0a2.118 2.118 0 002.121-2.116c0-1.168-.95-2.115-2.12-2.115a2.118 2.118 0 00-2.122 2.115 2.12 2.12 0 002.121 2.116zm8.567 0a2.119 2.119 0 002.121-2.116c0-1.168-.95-2.115-2.121-2.115a2.118 2.118 0 00-2.122 2.115 2.12 2.12 0 002.122 2.116zm8.648 0a2.118 2.118 0 002.121-2.116c0-1.168-.95-2.115-2.12-2.115a2.118 2.118 0 00-2.122 2.115 2.12 2.12 0 002.121 2.116zm8.567 0a2.118 2.118 0 002.12-2.116 2.117 2.117 0 00-2.12-2.115 2.118 2.118 0 00-2.122 2.115 2.12 2.12 0 002.122 2.116zm8.648 0a2.118 2.118 0 002.121-2.116c0-1.168-.95-2.115-2.121-2.115a2.118 2.118 0 00-2.121 2.115c0 1.168.95 2.116 2.12 2.116zm8.566 0a2.119 2.119 0 002.122-2.116c0-1.168-.95-2.115-2.122-2.115a2.118 2.118 0 00-2.121 2.115 2.12 2.12 0 002.121 2.116zm8.649 0a2.119 2.119 0 002.121-2.116c0-1.168-.95-2.115-2.121-2.115a2.119 2.119 0 00-2.122 2.115 2.12 2.12 0 002.122 2.116zm8.568 0a2.118 2.118 0 002.121-2.116 2.118 2.118 0 00-2.121-2.115 2.118 2.118 0 00-2.121 2.115 2.12 2.12 0 002.121 2.116zm8.647 0a2.119 2.119 0 002.121-2.116c0-1.168-.95-2.115-2.121-2.115a2.119 2.119 0 00-2.122 2.115 2.12 2.12 0 002.122 2.116zm8.648 0a2.118 2.118 0 002.121-2.116 2.118 2.118 0 00-2.121-2.115 2.118 2.118 0 00-2.121 2.115c0 1.168.949 2.116 2.121 2.116zm8.568 0a2.119 2.119 0 002.122-2.116c0-1.168-.95-2.115-2.122-2.115a2.118 2.118 0 00-2.121 2.115 2.12 2.12 0 002.121 2.116zm8.649 0a2.119 2.119 0 002.121-2.116c0-1.168-.95-2.115-2.121-2.115a2.118 2.118 0 00-2.121 2.115c0 1.168.949 2.116 2.121 2.116zm8.566 0a2.119 2.119 0 002.122-2.116c0-1.168-.95-2.115-2.122-2.115a2.118 2.118 0 00-2.121 2.115 2.12 2.12 0 002.121 2.116zm8.649 0a2.119 2.119 0 002.121-2.116c0-1.168-.95-2.115-2.121-2.115a2.119 2.119 0 00-2.122 2.115 2.12 2.12 0 002.122 2.116zm8.566 0a2.118 2.118 0 002.121-2.116 2.118 2.118 0 00-2.121-2.115 2.118 2.118 0 00-2.121 2.115 2.12 2.12 0 002.121 2.116zm8.649 0a2.119 2.119 0 002.121-2.116c0-1.168-.95-2.115-2.121-2.115a2.119 2.119 0 00-2.122 2.115 2.12 2.12 0 002.122 2.116zm8.566 0a2.119 2.119 0 002.121-2.116c0-1.168-.95-2.115-2.121-2.115a2.118 2.118 0 00-2.121 2.115c0 1.168.949 2.116 2.121 2.116zm8.648 0a2.119 2.119 0 002.122-2.116c0-1.168-.95-2.115-2.122-2.115a2.118 2.118 0 00-2.121 2.115 2.12 2.12 0 002.121 2.116zm8.567 0a2.119 2.119 0 002.121-2.116c0-1.168-.95-2.115-2.121-2.115a2.119 2.119 0 00-2.122 2.115 2.12 2.12 0 002.122 2.116zm8.648 0a2.119 2.119 0 002.122-2.116c0-1.168-.95-2.115-2.122-2.115a2.118 2.118 0 00-2.121 2.115A2.12 2.12 0 00226 98.696zm8.569 0a2.119 2.119 0 002.121-2.116c0-1.168-.95-2.115-2.121-2.115a2.119 2.119 0 00-2.122 2.115 2.12 2.12 0 002.122 2.116zm8.648 0a2.118 2.118 0 002.121-2.116 2.118 2.118 0 00-2.121-2.115 2.118 2.118 0 00-2.121 2.115c0 1.168.949 2.116 2.121 2.116zm8.566 0a2.119 2.119 0 002.122-2.116c0-1.168-.95-2.115-2.122-2.115a2.118 2.118 0 00-2.121 2.115 2.12 2.12 0 002.121 2.116zm8.649 0a2.119 2.119 0 002.121-2.116c0-1.168-.95-2.115-2.121-2.115a2.118 2.118 0 00-2.121 2.115c0 1.168.949 2.116 2.121 2.116zm8.566 0a2.119 2.119 0 002.122-2.116c0-1.168-.95-2.115-2.122-2.115a2.118 2.118 0 00-2.121 2.115 2.12 2.12 0 002.121 2.116zm8.649 0a2.119 2.119 0 002.121-2.116c0-1.168-.95-2.115-2.121-2.115a2.119 2.119 0 00-2.122 2.115 2.12 2.12 0 002.122 2.116zm8.648 0a2.118 2.118 0 002.121-2.116 2.118 2.118 0 00-2.121-2.115 2.118 2.118 0 00-2.121 2.115 2.12 2.12 0 002.121 2.116zm8.567 0a2.119 2.119 0 002.121-2.116c0-1.168-.95-2.115-2.121-2.115a2.119 2.119 0 00-2.122 2.115 2.12 2.12 0 002.122 2.116zm8.648 0a2.118 2.118 0 002.121-2.116 2.118 2.118 0 00-2.121-2.115 2.118 2.118 0 00-2.121 2.115c0 1.168.949 2.116 2.121 2.116zm8.568 0a2.119 2.119 0 002.122-2.116c0-1.168-.95-2.115-2.122-2.115a2.118 2.118 0 00-2.121 2.115 2.12 2.12 0 002.121 2.116zm129.155 0a2.119 2.119 0 002.121-2.116c0-1.168-.95-2.115-2.121-2.115a2.119 2.119 0 00-2.122 2.115 2.12 2.12 0 002.122 2.116zm8.648 0a2.118 2.118 0 002.121-2.116 2.118 2.118 0 00-2.121-2.115 2.118 2.118 0 00-2.121 2.115 2.12 2.12 0 002.121 2.116zm-430.545 8.543a2.118 2.118 0 002.122-2.116c0-1.168-.95-2.115-2.122-2.115a2.118 2.118 0 00-2.121 2.115c0 1.169.95 2.116 2.121 2.116zm8.649 0a2.118 2.118 0 002.12-2.116 2.117 2.117 0 00-2.12-2.115 2.118 2.118 0 00-2.122 2.115c0 1.169.95 2.116 2.122 2.116zm8.568 0a2.118 2.118 0 002.121-2.116c0-1.168-.95-2.115-2.121-2.115a2.118 2.118 0 00-2.121 2.115c0 1.169.95 2.116 2.121 2.116zm8.647 0a2.118 2.118 0 002.12-2.116 2.117 2.117 0 00-2.12-2.115 2.118 2.118 0 00-2.122 2.115c0 1.169.95 2.116 2.121 2.116zm8.568 0a2.118 2.118 0 002.121-2.116c0-1.168-.95-2.115-2.121-2.115a2.118 2.118 0 00-2.121 2.115c0 1.169.95 2.116 2.12 2.116zm8.648 0a2.118 2.118 0 002.121-2.116c0-1.168-.95-2.115-2.12-2.115a2.118 2.118 0 00-2.122 2.115c0 1.169.95 2.116 2.121 2.116zm8.567 0a2.118 2.118 0 002.121-2.116c0-1.168-.95-2.115-2.121-2.115a2.118 2.118 0 00-2.122 2.115c0 1.169.95 2.116 2.122 2.116zm8.648 0a2.118 2.118 0 002.121-2.116c0-1.168-.95-2.115-2.12-2.115a2.118 2.118 0 00-2.122 2.115c0 1.169.95 2.116 2.121 2.116zm8.567 0a2.118 2.118 0 002.12-2.116 2.117 2.117 0 00-2.12-2.115 2.118 2.118 0 00-2.122 2.115c0 1.169.95 2.116 2.122 2.116zm8.648 0a2.118 2.118 0 002.121-2.116c0-1.168-.95-2.115-2.121-2.115a2.118 2.118 0 00-2.121 2.115c0 1.169.95 2.116 2.12 2.116zm8.566 0a2.119 2.119 0 002.122-2.116c0-1.168-.95-2.115-2.122-2.115a2.118 2.118 0 00-2.121 2.115c0 1.169.95 2.116 2.121 2.116zm8.649 0a2.119 2.119 0 002.121-2.116c0-1.168-.95-2.115-2.121-2.115a2.119 2.119 0 00-2.122 2.115c0 1.169.95 2.116 2.122 2.116zm8.568 0a2.118 2.118 0 002.121-2.116 2.118 2.118 0 00-2.121-2.115 2.118 2.118 0 00-2.121 2.115c0 1.169.95 2.116 2.121 2.116zm8.647 0a2.119 2.119 0 002.121-2.116c0-1.168-.95-2.115-2.121-2.115a2.119 2.119 0 00-2.122 2.115c0 1.169.95 2.116 2.122 2.116zm8.648 0a2.118 2.118 0 002.121-2.116 2.118 2.118 0 00-2.121-2.115 2.118 2.118 0 00-2.121 2.115c0 1.169.949 2.116 2.121 2.116zm8.568 0a2.119 2.119 0 002.122-2.116c0-1.168-.95-2.115-2.122-2.115a2.118 2.118 0 00-2.121 2.115c0 1.169.95 2.116 2.121 2.116zm8.649 0a2.119 2.119 0 002.121-2.116c0-1.168-.95-2.115-2.121-2.115a2.118 2.118 0 00-2.121 2.115c0 1.169.949 2.116 2.121 2.116zm8.566 0a2.119 2.119 0 002.122-2.116c0-1.168-.95-2.115-2.122-2.115a2.118 2.118 0 00-2.121 2.115c0 1.169.95 2.116 2.121 2.116zm8.649 0a2.119 2.119 0 002.121-2.116c0-1.168-.95-2.115-2.121-2.115a2.119 2.119 0 00-2.122 2.115c0 1.169.95 2.116 2.122 2.116zm8.566 0a2.118 2.118 0 002.121-2.116 2.118 2.118 0 00-2.121-2.115 2.118 2.118 0 00-2.121 2.115c0 1.169.95 2.116 2.121 2.116zm8.649 0a2.119 2.119 0 002.121-2.116c0-1.168-.95-2.115-2.121-2.115a2.119 2.119 0 00-2.122 2.115c0 1.169.95 2.116 2.122 2.116zm8.566 0a2.119 2.119 0 002.121-2.116c0-1.168-.95-2.115-2.121-2.115a2.118 2.118 0 00-2.121 2.115c0 1.169.949 2.116 2.121 2.116zm8.648 0a2.119 2.119 0 002.122-2.116c0-1.168-.95-2.115-2.122-2.115a2.118 2.118 0 00-2.121 2.115c0 1.169.95 2.116 2.121 2.116zm8.567 0a2.119 2.119 0 002.121-2.116c0-1.168-.95-2.115-2.121-2.115a2.119 2.119 0 00-2.122 2.115c0 1.169.95 2.116 2.122 2.116zm8.648 0a2.119 2.119 0 002.122-2.116c0-1.168-.95-2.115-2.122-2.115a2.118 2.118 0 00-2.121 2.115c0 1.169.95 2.116 2.121 2.116zm8.569 0a2.119 2.119 0 002.121-2.116c0-1.168-.95-2.115-2.121-2.115a2.119 2.119 0 00-2.122 2.115c0 1.169.95 2.116 2.122 2.116zm8.648 0a2.118 2.118 0 002.121-2.116 2.118 2.118 0 00-2.121-2.115 2.118 2.118 0 00-2.121 2.115c0 1.169.949 2.116 2.121 2.116zm8.566 0a2.119 2.119 0 002.122-2.116c0-1.168-.95-2.115-2.122-2.115a2.118 2.118 0 00-2.121 2.115c0 1.169.95 2.116 2.121 2.116zm8.649 0a2.119 2.119 0 002.121-2.116c0-1.168-.95-2.115-2.121-2.115a2.118 2.118 0 00-2.121 2.115c0 1.169.949 2.116 2.121 2.116zm8.566 0a2.119 2.119 0 002.122-2.116c0-1.168-.95-2.115-2.122-2.115a2.118 2.118 0 00-2.121 2.115c0 1.169.95 2.116 2.121 2.116zm8.649 0a2.119 2.119 0 002.121-2.116c0-1.168-.95-2.115-2.121-2.115a2.119 2.119 0 00-2.122 2.115c0 1.169.95 2.116 2.122 2.116zm8.648 0a2.118 2.118 0 002.121-2.116 2.118 2.118 0 00-2.121-2.115 2.118 2.118 0 00-2.121 2.115c0 1.169.95 2.116 2.121 2.116zm8.567 0a2.119 2.119 0 002.121-2.116c0-1.168-.95-2.115-2.121-2.115a2.119 2.119 0 00-2.122 2.115c0 1.169.95 2.116 2.122 2.116zm8.648 0a2.118 2.118 0 002.121-2.116 2.118 2.118 0 00-2.121-2.115 2.118 2.118 0 00-2.121 2.115c0 1.169.949 2.116 2.121 2.116zm8.568 0a2.119 2.119 0 002.122-2.116c0-1.168-.95-2.115-2.122-2.115a2.118 2.118 0 00-2.121 2.115c0 1.169.95 2.116 2.121 2.116zm120.506 0a2.119 2.119 0 002.122-2.116c0-1.168-.95-2.115-2.122-2.115a2.118 2.118 0 00-2.121 2.115c0 1.169.95 2.116 2.121 2.116zm8.649 0a2.119 2.119 0 002.121-2.116c0-1.168-.95-2.115-2.121-2.115a2.119 2.119 0 00-2.122 2.115c0 1.169.95 2.116 2.122 2.116zm8.648 0a2.118 2.118 0 002.121-2.116 2.118 2.118 0 00-2.121-2.115 2.118 2.118 0 00-2.121 2.115c0 1.169.95 2.116 2.121 2.116zm-430.545 8.625a2.12 2.12 0 002.122-2.116c0-1.168-.95-2.115-2.122-2.115a2.118 2.118 0 00-2.121 2.115 2.12 2.12 0 002.121 2.116zm8.649 0a2.119 2.119 0 002.12-2.116 2.117 2.117 0 00-2.12-2.115 2.118 2.118 0 00-2.122 2.115 2.12 2.12 0 002.122 2.116zm8.568 0a2.12 2.12 0 002.121-2.116c0-1.168-.95-2.115-2.121-2.115a2.118 2.118 0 00-2.121 2.115 2.12 2.12 0 002.121 2.116zm8.647 0a2.119 2.119 0 002.12-2.116 2.117 2.117 0 00-2.12-2.115 2.118 2.118 0 00-2.122 2.115 2.12 2.12 0 002.121 2.116zm8.568 0a2.119 2.119 0 002.121-2.116c0-1.168-.95-2.115-2.121-2.115a2.118 2.118 0 00-2.121 2.115c0 1.168.95 2.116 2.12 2.116zm8.648 0a2.119 2.119 0 002.121-2.116c0-1.168-.95-2.115-2.12-2.115a2.118 2.118 0 00-2.122 2.115 2.12 2.12 0 002.121 2.116zm8.567 0a2.12 2.12 0 002.121-2.116c0-1.168-.95-2.115-2.121-2.115a2.118 2.118 0 00-2.122 2.115 2.12 2.12 0 002.122 2.116zm8.648 0a2.12 2.12 0 002.121-2.116c0-1.168-.95-2.115-2.12-2.115a2.118 2.118 0 00-2.122 2.115 2.12 2.12 0 002.121 2.116zm8.567 0a2.119 2.119 0 002.12-2.116 2.117 2.117 0 00-2.12-2.115 2.118 2.118 0 00-2.122 2.115 2.12 2.12 0 002.122 2.116zm25.863 0a2.12 2.12 0 002.121-2.116c0-1.168-.95-2.115-2.121-2.115a2.119 2.119 0 00-2.122 2.115 2.12 2.12 0 002.122 2.116zm8.568 0a2.119 2.119 0 002.121-2.116 2.118 2.118 0 00-2.121-2.115 2.118 2.118 0 00-2.121 2.115 2.12 2.12 0 002.121 2.116zm8.647 0a2.12 2.12 0 002.121-2.116c0-1.168-.95-2.115-2.121-2.115a2.119 2.119 0 00-2.122 2.115 2.12 2.12 0 002.122 2.116zm8.648 0a2.119 2.119 0 002.121-2.116 2.118 2.118 0 00-2.121-2.115 2.118 2.118 0 00-2.121 2.115c0 1.168.949 2.116 2.121 2.116zm8.568 0a2.12 2.12 0 002.122-2.116c0-1.168-.95-2.115-2.122-2.115a2.118 2.118 0 00-2.121 2.115 2.12 2.12 0 002.121 2.116zm8.649 0a2.12 2.12 0 002.121-2.116c0-1.168-.95-2.115-2.121-2.115a2.118 2.118 0 00-2.121 2.115c0 1.168.949 2.116 2.121 2.116zm8.566 0a2.12 2.12 0 002.122-2.116c0-1.168-.95-2.115-2.122-2.115a2.118 2.118 0 00-2.121 2.115 2.12 2.12 0 002.121 2.116zm8.649 0a2.12 2.12 0 002.121-2.116c0-1.168-.95-2.115-2.121-2.115a2.119 2.119 0 00-2.122 2.115 2.12 2.12 0 002.122 2.116zm8.566 0a2.119 2.119 0 002.121-2.116 2.118 2.118 0 00-2.121-2.115 2.118 2.118 0 00-2.121 2.115 2.12 2.12 0 002.121 2.116zm8.649 0a2.12 2.12 0 002.121-2.116c0-1.168-.95-2.115-2.121-2.115a2.119 2.119 0 00-2.122 2.115 2.12 2.12 0 002.122 2.116zm8.566 0a2.12 2.12 0 002.121-2.116c0-1.168-.95-2.115-2.121-2.115a2.118 2.118 0 00-2.121 2.115c0 1.168.949 2.116 2.121 2.116zm8.648 0a2.12 2.12 0 002.122-2.116c0-1.168-.95-2.115-2.122-2.115a2.118 2.118 0 00-2.121 2.115 2.12 2.12 0 002.121 2.116zm8.567 0a2.12 2.12 0 002.121-2.116c0-1.168-.95-2.115-2.121-2.115a2.119 2.119 0 00-2.122 2.115 2.12 2.12 0 002.122 2.116zm8.648 0a2.12 2.12 0 002.122-2.116c0-1.168-.95-2.115-2.122-2.115a2.118 2.118 0 00-2.121 2.115 2.12 2.12 0 002.121 2.116zm8.569 0a2.12 2.12 0 002.121-2.116c0-1.168-.95-2.115-2.121-2.115a2.119 2.119 0 00-2.122 2.115 2.12 2.12 0 002.122 2.116zm8.648 0a2.119 2.119 0 002.121-2.116 2.118 2.118 0 00-2.121-2.115 2.118 2.118 0 00-2.121 2.115c0 1.168.949 2.116 2.121 2.116zm8.566 0a2.12 2.12 0 002.122-2.116c0-1.168-.95-2.115-2.122-2.115a2.118 2.118 0 00-2.121 2.115 2.12 2.12 0 002.121 2.116zm8.649 0a2.12 2.12 0 002.121-2.116c0-1.168-.95-2.115-2.121-2.115a2.118 2.118 0 00-2.121 2.115c0 1.168.949 2.116 2.121 2.116zm8.566 0a2.12 2.12 0 002.122-2.116c0-1.168-.95-2.115-2.122-2.115a2.118 2.118 0 00-2.121 2.115 2.12 2.12 0 002.121 2.116zm8.649 0a2.12 2.12 0 002.121-2.116c0-1.168-.95-2.115-2.121-2.115a2.119 2.119 0 00-2.122 2.115 2.12 2.12 0 002.122 2.116zm8.648 0a2.119 2.119 0 002.121-2.116 2.118 2.118 0 00-2.121-2.115 2.118 2.118 0 00-2.121 2.115 2.12 2.12 0 002.121 2.116zm8.567 0a2.12 2.12 0 002.121-2.116c0-1.168-.95-2.115-2.121-2.115a2.119 2.119 0 00-2.122 2.115 2.12 2.12 0 002.122 2.116zm8.648 0a2.119 2.119 0 002.121-2.116 2.118 2.118 0 00-2.121-2.115 2.118 2.118 0 00-2.121 2.115c0 1.168.949 2.116 2.121 2.116zm8.568 0a2.12 2.12 0 002.122-2.116c0-1.168-.95-2.115-2.122-2.115a2.118 2.118 0 00-2.121 2.115 2.12 2.12 0 002.121 2.116zm8.649 0a2.12 2.12 0 002.121-2.116c0-1.168-.95-2.115-2.121-2.115a2.119 2.119 0 00-2.122 2.115 2.12 2.12 0 002.122 2.116zm8.566 0a2.119 2.119 0 002.121-2.116 2.118 2.118 0 00-2.121-2.115 2.118 2.118 0 00-2.121 2.115 2.12 2.12 0 002.121 2.116zm94.725 0a2.12 2.12 0 002.121-2.116c0-1.168-.95-2.115-2.121-2.115a2.119 2.119 0 00-2.122 2.115 2.12 2.12 0 002.122 2.116zm8.566 0a2.12 2.12 0 002.122-2.116c0-1.168-.95-2.115-2.122-2.115a2.118 2.118 0 00-2.121 2.115 2.12 2.12 0 002.121 2.116zm8.649 0a2.12 2.12 0 002.121-2.116c0-1.168-.95-2.115-2.121-2.115a2.119 2.119 0 00-2.122 2.115 2.12 2.12 0 002.122 2.116zm8.648 0a2.119 2.119 0 002.121-2.116 2.118 2.118 0 00-2.121-2.115 2.118 2.118 0 00-2.121 2.115 2.12 2.12 0 002.121 2.116zm-421.896 8.543a2.118 2.118 0 002.12-2.116 2.117 2.117 0 00-2.12-2.115 2.118 2.118 0 00-2.122 2.115c0 1.169.95 2.116 2.122 2.116zm8.568 0a2.118 2.118 0 002.121-2.116c0-1.168-.95-2.115-2.121-2.115a2.118 2.118 0 00-2.121 2.115c0 1.169.95 2.116 2.121 2.116zm8.647 0a2.118 2.118 0 002.12-2.116 2.117 2.117 0 00-2.12-2.115 2.118 2.118 0 00-2.122 2.115c0 1.169.95 2.116 2.121 2.116zm8.568 0a2.118 2.118 0 002.121-2.116c0-1.168-.95-2.115-2.121-2.115a2.118 2.118 0 00-2.121 2.115c0 1.169.95 2.116 2.12 2.116zm8.648 0a2.118 2.118 0 002.121-2.116c0-1.168-.95-2.115-2.12-2.115a2.118 2.118 0 00-2.122 2.115c0 1.169.95 2.116 2.121 2.116zm68.86 0a2.119 2.119 0 002.121-2.116c0-1.168-.95-2.115-2.121-2.115a2.119 2.119 0 00-2.122 2.115c0 1.169.95 2.116 2.122 2.116zm8.648 0a2.118 2.118 0 002.121-2.116 2.118 2.118 0 00-2.121-2.115 2.118 2.118 0 00-2.121 2.115c0 1.169.949 2.116 2.121 2.116zm8.568 0a2.119 2.119 0 002.122-2.116c0-1.168-.95-2.115-2.122-2.115a2.118 2.118 0 00-2.121 2.115c0 1.169.95 2.116 2.121 2.116zm8.649 0a2.119 2.119 0 002.121-2.116c0-1.168-.95-2.115-2.121-2.115a2.118 2.118 0 00-2.121 2.115c0 1.169.949 2.116 2.121 2.116zm8.566 0a2.119 2.119 0 002.122-2.116c0-1.168-.95-2.115-2.122-2.115a2.118 2.118 0 00-2.121 2.115c0 1.169.95 2.116 2.121 2.116zm8.649 0a2.119 2.119 0 002.121-2.116c0-1.168-.95-2.115-2.121-2.115a2.119 2.119 0 00-2.122 2.115c0 1.169.95 2.116 2.122 2.116zm8.566 0a2.118 2.118 0 002.121-2.116 2.118 2.118 0 00-2.121-2.115 2.118 2.118 0 00-2.121 2.115c0 1.169.95 2.116 2.121 2.116zm8.649 0a2.119 2.119 0 002.121-2.116c0-1.168-.95-2.115-2.121-2.115a2.119 2.119 0 00-2.122 2.115c0 1.169.95 2.116 2.122 2.116zm8.566 0a2.119 2.119 0 002.121-2.116c0-1.168-.95-2.115-2.121-2.115a2.118 2.118 0 00-2.121 2.115c0 1.169.949 2.116 2.121 2.116zm8.648 0a2.119 2.119 0 002.122-2.116c0-1.168-.95-2.115-2.122-2.115a2.118 2.118 0 00-2.121 2.115c0 1.169.95 2.116 2.121 2.116zm8.567 0a2.119 2.119 0 002.121-2.116c0-1.168-.95-2.115-2.121-2.115a2.119 2.119 0 00-2.122 2.115c0 1.169.95 2.116 2.122 2.116zm8.648 0a2.119 2.119 0 002.122-2.116c0-1.168-.95-2.115-2.122-2.115a2.118 2.118 0 00-2.121 2.115c0 1.169.95 2.116 2.121 2.116zm8.569 0a2.119 2.119 0 002.121-2.116c0-1.168-.95-2.115-2.121-2.115a2.119 2.119 0 00-2.122 2.115c0 1.169.95 2.116 2.122 2.116zm8.648 0a2.118 2.118 0 002.121-2.116 2.118 2.118 0 00-2.121-2.115 2.118 2.118 0 00-2.121 2.115c0 1.169.949 2.116 2.121 2.116zm8.566 0a2.119 2.119 0 002.122-2.116c0-1.168-.95-2.115-2.122-2.115a2.118 2.118 0 00-2.121 2.115c0 1.169.95 2.116 2.121 2.116zm8.649 0a2.119 2.119 0 002.121-2.116c0-1.168-.95-2.115-2.121-2.115a2.118 2.118 0 00-2.121 2.115c0 1.169.949 2.116 2.121 2.116zm8.566 0a2.119 2.119 0 002.122-2.116c0-1.168-.95-2.115-2.122-2.115a2.118 2.118 0 00-2.121 2.115c0 1.169.95 2.116 2.121 2.116zm8.649 0a2.119 2.119 0 002.121-2.116c0-1.168-.95-2.115-2.121-2.115a2.119 2.119 0 00-2.122 2.115c0 1.169.95 2.116 2.122 2.116zm8.648 0a2.118 2.118 0 002.121-2.116 2.118 2.118 0 00-2.121-2.115 2.118 2.118 0 00-2.121 2.115c0 1.169.95 2.116 2.121 2.116zm8.567 0a2.119 2.119 0 002.121-2.116c0-1.168-.95-2.115-2.121-2.115a2.119 2.119 0 00-2.122 2.115c0 1.169.95 2.116 2.122 2.116zm8.648 0a2.118 2.118 0 002.121-2.116 2.118 2.118 0 00-2.121-2.115 2.118 2.118 0 00-2.121 2.115c0 1.169.949 2.116 2.121 2.116zm8.568 0a2.119 2.119 0 002.122-2.116c0-1.168-.95-2.115-2.122-2.115a2.118 2.118 0 00-2.121 2.115c0 1.169.95 2.116 2.121 2.116zm8.649 0a2.119 2.119 0 002.121-2.116c0-1.168-.95-2.115-2.121-2.115a2.119 2.119 0 00-2.122 2.115c0 1.169.95 2.116 2.122 2.116zm8.566 0a2.118 2.118 0 002.121-2.116 2.118 2.118 0 00-2.121-2.115 2.118 2.118 0 00-2.121 2.115c0 1.169.95 2.116 2.121 2.116zm94.725 0a2.119 2.119 0 002.121-2.116c0-1.168-.95-2.115-2.121-2.115a2.119 2.119 0 00-2.122 2.115c0 1.169.95 2.116 2.122 2.116zm8.566 0a2.119 2.119 0 002.122-2.116c0-1.168-.95-2.115-2.122-2.115a2.118 2.118 0 00-2.121 2.115c0 1.169.95 2.116 2.121 2.116zm8.649 0a2.119 2.119 0 002.121-2.116c0-1.168-.95-2.115-2.121-2.115a2.119 2.119 0 00-2.122 2.115c0 1.169.95 2.116 2.122 2.116zm34.431 0a2.119 2.119 0 002.122-2.116c0-1.168-.95-2.115-2.122-2.115a2.118 2.118 0 00-2.121 2.115c0 1.169.95 2.116 2.121 2.116zm8.649 0a2.119 2.119 0 002.121-2.116c0-1.168-.95-2.115-2.121-2.115a2.119 2.119 0 00-2.122 2.115c0 1.169.95 2.116 2.122 2.116zm-456.328 8.625a2.119 2.119 0 002.12-2.116 2.117 2.117 0 00-2.12-2.115 2.118 2.118 0 00-2.122 2.115 2.12 2.12 0 002.122 2.116zm8.568 0a2.12 2.12 0 002.121-2.116c0-1.168-.95-2.115-2.121-2.115a2.118 2.118 0 00-2.121 2.115 2.12 2.12 0 002.121 2.116zm8.647 0a2.119 2.119 0 002.12-2.116 2.117 2.117 0 00-2.12-2.115 2.118 2.118 0 00-2.122 2.115 2.12 2.12 0 002.121 2.116zm8.568 0a2.119 2.119 0 002.121-2.116c0-1.168-.95-2.115-2.121-2.115a2.118 2.118 0 00-2.121 2.115c0 1.168.95 2.116 2.12 2.116zm86.156 0a2.119 2.119 0 002.121-2.116 2.118 2.118 0 00-2.121-2.115 2.118 2.118 0 00-2.121 2.115c0 1.168.949 2.116 2.121 2.116zm8.568 0a2.12 2.12 0 002.122-2.116c0-1.168-.95-2.115-2.122-2.115a2.118 2.118 0 00-2.121 2.115 2.12 2.12 0 002.121 2.116zm8.649 0a2.12 2.12 0 002.121-2.116c0-1.168-.95-2.115-2.121-2.115a2.118 2.118 0 00-2.121 2.115c0 1.168.949 2.116 2.121 2.116zm8.566 0a2.12 2.12 0 002.122-2.116c0-1.168-.95-2.115-2.122-2.115a2.118 2.118 0 00-2.121 2.115 2.12 2.12 0 002.121 2.116zm8.649 0a2.12 2.12 0 002.121-2.116c0-1.168-.95-2.115-2.121-2.115a2.119 2.119 0 00-2.122 2.115 2.12 2.12 0 002.122 2.116zm8.566 0a2.119 2.119 0 002.121-2.116 2.118 2.118 0 00-2.121-2.115 2.118 2.118 0 00-2.121 2.115 2.12 2.12 0 002.121 2.116zm8.649 0a2.12 2.12 0 002.121-2.116c0-1.168-.95-2.115-2.121-2.115a2.119 2.119 0 00-2.122 2.115 2.12 2.12 0 002.122 2.116zm8.566 0a2.12 2.12 0 002.121-2.116c0-1.168-.95-2.115-2.121-2.115a2.118 2.118 0 00-2.121 2.115c0 1.168.949 2.116 2.121 2.116zm8.648 0a2.12 2.12 0 002.122-2.116c0-1.168-.95-2.115-2.122-2.115a2.118 2.118 0 00-2.121 2.115 2.12 2.12 0 002.121 2.116zm8.567 0a2.12 2.12 0 002.121-2.116c0-1.168-.95-2.115-2.121-2.115a2.119 2.119 0 00-2.122 2.115 2.12 2.12 0 002.122 2.116zm8.648 0a2.12 2.12 0 002.122-2.116c0-1.168-.95-2.115-2.122-2.115a2.118 2.118 0 00-2.121 2.115 2.12 2.12 0 002.121 2.116zm8.569 0a2.12 2.12 0 002.121-2.116c0-1.168-.95-2.115-2.121-2.115a2.119 2.119 0 00-2.122 2.115 2.12 2.12 0 002.122 2.116zm8.648 0a2.119 2.119 0 002.121-2.116 2.118 2.118 0 00-2.121-2.115 2.118 2.118 0 00-2.121 2.115c0 1.168.949 2.116 2.121 2.116zm8.566 0a2.12 2.12 0 002.122-2.116c0-1.168-.95-2.115-2.122-2.115a2.118 2.118 0 00-2.121 2.115 2.12 2.12 0 002.121 2.116zm8.649 0a2.12 2.12 0 002.121-2.116c0-1.168-.95-2.115-2.121-2.115a2.118 2.118 0 00-2.121 2.115c0 1.168.949 2.116 2.121 2.116zm8.566 0a2.12 2.12 0 002.122-2.116c0-1.168-.95-2.115-2.122-2.115a2.118 2.118 0 00-2.121 2.115 2.12 2.12 0 002.121 2.116zm8.649 0a2.12 2.12 0 002.121-2.116c0-1.168-.95-2.115-2.121-2.115a2.119 2.119 0 00-2.122 2.115 2.12 2.12 0 002.122 2.116zm8.648 0a2.119 2.119 0 002.121-2.116 2.118 2.118 0 00-2.121-2.115 2.118 2.118 0 00-2.121 2.115 2.12 2.12 0 002.121 2.116zm8.567 0a2.12 2.12 0 002.121-2.116c0-1.168-.95-2.115-2.121-2.115a2.119 2.119 0 00-2.122 2.115 2.12 2.12 0 002.122 2.116zm8.648 0a2.119 2.119 0 002.121-2.116 2.118 2.118 0 00-2.121-2.115 2.118 2.118 0 00-2.121 2.115c0 1.168.949 2.116 2.121 2.116zm8.568 0a2.12 2.12 0 002.122-2.116c0-1.168-.95-2.115-2.122-2.115a2.118 2.118 0 00-2.121 2.115 2.12 2.12 0 002.121 2.116zm8.649 0a2.12 2.12 0 002.121-2.116c0-1.168-.95-2.115-2.121-2.115a2.119 2.119 0 00-2.122 2.115 2.12 2.12 0 002.122 2.116zm8.566 0a2.119 2.119 0 002.121-2.116 2.118 2.118 0 00-2.121-2.115 2.118 2.118 0 00-2.121 2.115 2.12 2.12 0 002.121 2.116zm8.649 0a2.12 2.12 0 002.121-2.116c0-1.168-.95-2.115-2.121-2.115a2.119 2.119 0 00-2.122 2.115 2.12 2.12 0 002.122 2.116zm77.427 0a2.12 2.12 0 002.122-2.116c0-1.168-.95-2.115-2.122-2.115a2.118 2.118 0 00-2.121 2.115 2.12 2.12 0 002.121 2.116zm8.649 0a2.12 2.12 0 002.121-2.116c0-1.168-.95-2.115-2.121-2.115a2.119 2.119 0 00-2.122 2.115 2.12 2.12 0 002.122 2.116zm8.566 0a2.12 2.12 0 002.122-2.116c0-1.168-.95-2.115-2.122-2.115a2.118 2.118 0 00-2.121 2.115 2.12 2.12 0 002.121 2.116zm8.649 0a2.12 2.12 0 002.121-2.116c0-1.168-.95-2.115-2.121-2.115a2.119 2.119 0 00-2.122 2.115 2.12 2.12 0 002.122 2.116zm8.648 0a2.119 2.119 0 002.121-2.116 2.118 2.118 0 00-2.121-2.115 2.118 2.118 0 00-2.121 2.115 2.12 2.12 0 002.121 2.116zm8.567 0a2.12 2.12 0 002.121-2.116c0-1.168-.95-2.115-2.121-2.115a2.119 2.119 0 00-2.122 2.115 2.12 2.12 0 002.122 2.116zm8.648 0a2.12 2.12 0 002.121-2.116c0-1.168-.95-2.115-2.121-2.115a2.118 2.118 0 00-2.121 2.115c0 1.168.949 2.116 2.121 2.116zm8.568 0a2.12 2.12 0 002.122-2.116c0-1.168-.95-2.115-2.122-2.115a2.118 2.118 0 00-2.121 2.115 2.12 2.12 0 002.121 2.116zm8.649 0a2.12 2.12 0 002.121-2.116c0-1.168-.95-2.115-2.121-2.115a2.119 2.119 0 00-2.122 2.115 2.12 2.12 0 002.122 2.116zm8.566 0a2.119 2.119 0 002.121-2.116 2.118 2.118 0 00-2.121-2.115 2.118 2.118 0 00-2.121 2.115 2.12 2.12 0 002.121 2.116zm-464.894 8.624a2.118 2.118 0 002.12-2.115 2.118 2.118 0 00-2.12-2.116 2.118 2.118 0 00-2.122 2.116c0 1.168.95 2.115 2.122 2.115zm8.568 0a2.118 2.118 0 002.121-2.115c0-1.169-.95-2.116-2.121-2.116a2.118 2.118 0 00-2.121 2.116c0 1.168.95 2.115 2.121 2.115zm8.647 0a2.118 2.118 0 002.12-2.115 2.118 2.118 0 00-2.12-2.116 2.118 2.118 0 00-2.122 2.116c0 1.168.95 2.115 2.121 2.115zm8.568 0a2.118 2.118 0 002.121-2.115c0-1.169-.95-2.116-2.121-2.116a2.118 2.118 0 00-2.121 2.116c0 1.168.95 2.115 2.12 2.115zm8.648 0a2.118 2.118 0 002.121-2.115c0-1.169-.95-2.116-2.12-2.116a2.118 2.118 0 00-2.122 2.116c0 1.168.95 2.115 2.121 2.115zm94.725 0a2.118 2.118 0 002.121-2.115c0-1.169-.95-2.116-2.121-2.116a2.118 2.118 0 00-2.121 2.116c0 1.168.949 2.115 2.121 2.115zm8.566 0a2.119 2.119 0 002.122-2.115c0-1.169-.95-2.116-2.122-2.116a2.119 2.119 0 00-2.121 2.116c0 1.168.95 2.115 2.121 2.115zm8.649 0a2.118 2.118 0 002.121-2.115c0-1.169-.95-2.116-2.121-2.116a2.119 2.119 0 00-2.122 2.116c0 1.168.95 2.115 2.122 2.115zm8.566 0a2.118 2.118 0 002.121-2.115 2.118 2.118 0 00-2.121-2.116 2.119 2.119 0 00-2.121 2.116c0 1.168.95 2.115 2.121 2.115zm8.649 0a2.118 2.118 0 002.121-2.115c0-1.169-.95-2.116-2.121-2.116a2.119 2.119 0 00-2.122 2.116c0 1.168.95 2.115 2.122 2.115zm8.566 0a2.118 2.118 0 002.121-2.115c0-1.169-.95-2.116-2.121-2.116a2.118 2.118 0 00-2.121 2.116c0 1.168.949 2.115 2.121 2.115zm8.648 0a2.119 2.119 0 002.122-2.115c0-1.169-.95-2.116-2.122-2.116a2.119 2.119 0 00-2.121 2.116c0 1.168.95 2.115 2.121 2.115zm8.567 0a2.118 2.118 0 002.121-2.115c0-1.169-.95-2.116-2.121-2.116a2.119 2.119 0 00-2.122 2.116c0 1.168.95 2.115 2.122 2.115zm8.648 0a2.119 2.119 0 002.122-2.115c0-1.169-.95-2.116-2.122-2.116a2.119 2.119 0 00-2.121 2.116c0 1.168.95 2.115 2.121 2.115zm8.569 0a2.118 2.118 0 002.121-2.115c0-1.169-.95-2.116-2.121-2.116a2.119 2.119 0 00-2.122 2.116c0 1.168.95 2.115 2.122 2.115zm8.648 0a2.118 2.118 0 002.121-2.115 2.118 2.118 0 00-2.121-2.116 2.118 2.118 0 00-2.121 2.116c0 1.168.949 2.115 2.121 2.115zm8.566 0a2.119 2.119 0 002.122-2.115c0-1.169-.95-2.116-2.122-2.116a2.119 2.119 0 00-2.121 2.116c0 1.168.95 2.115 2.121 2.115zm8.649 0a2.118 2.118 0 002.121-2.115c0-1.169-.95-2.116-2.121-2.116a2.118 2.118 0 00-2.121 2.116c0 1.168.949 2.115 2.121 2.115zm8.566 0a2.119 2.119 0 002.122-2.115c0-1.169-.95-2.116-2.122-2.116a2.119 2.119 0 00-2.121 2.116c0 1.168.95 2.115 2.121 2.115zm8.649 0a2.118 2.118 0 002.121-2.115c0-1.169-.95-2.116-2.121-2.116a2.119 2.119 0 00-2.122 2.116c0 1.168.95 2.115 2.122 2.115zm8.648 0a2.118 2.118 0 002.121-2.115 2.118 2.118 0 00-2.121-2.116 2.119 2.119 0 00-2.121 2.116c0 1.168.95 2.115 2.121 2.115zm8.567 0a2.118 2.118 0 002.121-2.115c0-1.169-.95-2.116-2.121-2.116a2.119 2.119 0 00-2.122 2.116c0 1.168.95 2.115 2.122 2.115zm8.648 0a2.118 2.118 0 002.121-2.115 2.118 2.118 0 00-2.121-2.116 2.118 2.118 0 00-2.121 2.116c0 1.168.949 2.115 2.121 2.115zm8.568 0a2.119 2.119 0 002.122-2.115c0-1.169-.95-2.116-2.122-2.116a2.119 2.119 0 00-2.121 2.116c0 1.168.95 2.115 2.121 2.115zm8.649 0a2.118 2.118 0 002.121-2.115c0-1.169-.95-2.116-2.121-2.116a2.119 2.119 0 00-2.122 2.116c0 1.168.95 2.115 2.122 2.115zm8.566 0a2.118 2.118 0 002.121-2.115 2.118 2.118 0 00-2.121-2.116 2.119 2.119 0 00-2.121 2.116c0 1.168.95 2.115 2.121 2.115zm8.649 0a2.118 2.118 0 002.121-2.115c0-1.169-.95-2.116-2.121-2.116a2.119 2.119 0 00-2.122 2.116c0 1.168.95 2.115 2.122 2.115zm25.781 0a2.118 2.118 0 002.121-2.115c0-1.169-.95-2.116-2.121-2.116a2.118 2.118 0 00-2.121 2.116c0 1.168.949 2.115 2.121 2.115zm8.648 0a2.119 2.119 0 002.122-2.115c0-1.169-.95-2.116-2.122-2.116a2.119 2.119 0 00-2.121 2.116c0 1.168.95 2.115 2.121 2.115zm8.567 0a2.118 2.118 0 002.121-2.115c0-1.169-.95-2.116-2.121-2.116a2.119 2.119 0 00-2.122 2.116c0 1.168.95 2.115 2.122 2.115zm25.865 0a2.118 2.118 0 002.121-2.115 2.118 2.118 0 00-2.121-2.116 2.118 2.118 0 00-2.121 2.116c0 1.168.949 2.115 2.121 2.115zm8.566 0a2.119 2.119 0 002.122-2.115c0-1.169-.95-2.116-2.122-2.116a2.119 2.119 0 00-2.121 2.116c0 1.168.95 2.115 2.121 2.115zm8.649 0a2.118 2.118 0 002.121-2.115c0-1.169-.95-2.116-2.121-2.116a2.119 2.119 0 00-2.122 2.116c0 1.168.95 2.115 2.122 2.115zm8.566 0a2.119 2.119 0 002.122-2.115c0-1.169-.95-2.116-2.122-2.116a2.119 2.119 0 00-2.121 2.116c0 1.168.95 2.115 2.121 2.115zm8.649 0a2.118 2.118 0 002.121-2.115c0-1.169-.95-2.116-2.121-2.116a2.119 2.119 0 00-2.122 2.116c0 1.168.95 2.115 2.122 2.115zm8.648 0a2.118 2.118 0 002.121-2.115 2.118 2.118 0 00-2.121-2.116 2.119 2.119 0 00-2.121 2.116c0 1.168.95 2.115 2.121 2.115zm8.567 0a2.118 2.118 0 002.121-2.115c0-1.169-.95-2.116-2.121-2.116a2.119 2.119 0 00-2.122 2.116c0 1.168.95 2.115 2.122 2.115zm8.648 0a2.118 2.118 0 002.121-2.115c0-1.169-.95-2.116-2.121-2.116a2.118 2.118 0 00-2.121 2.116c0 1.168.949 2.115 2.121 2.115zm8.568 0a2.119 2.119 0 002.122-2.115c0-1.169-.95-2.116-2.122-2.116a2.119 2.119 0 00-2.121 2.116c0 1.168.95 2.115 2.121 2.115zm8.649 0a2.118 2.118 0 002.121-2.115c0-1.169-.95-2.116-2.121-2.116a2.119 2.119 0 00-2.122 2.116c0 1.168.95 2.115 2.122 2.115zm8.566 0a2.118 2.118 0 002.121-2.115 2.118 2.118 0 00-2.121-2.116 2.119 2.119 0 00-2.121 2.116c0 1.168.95 2.115 2.121 2.115zm-464.894 8.543a2.118 2.118 0 002.12-2.115 2.117 2.117 0 00-2.12-2.115 2.118 2.118 0 00-2.122 2.115c0 1.168.95 2.115 2.122 2.115zm8.568 0a2.118 2.118 0 002.121-2.115c0-1.168-.95-2.115-2.121-2.115a2.118 2.118 0 00-2.121 2.115c0 1.168.95 2.115 2.121 2.115zm8.647 0a2.118 2.118 0 002.12-2.115 2.117 2.117 0 00-2.12-2.115 2.118 2.118 0 00-2.122 2.115c0 1.168.95 2.115 2.121 2.115zm8.568 0a2.118 2.118 0 002.121-2.115c0-1.168-.95-2.115-2.121-2.115a2.118 2.118 0 00-2.121 2.115c0 1.168.95 2.115 2.12 2.115zm8.648 0a2.118 2.118 0 002.121-2.115c0-1.168-.95-2.115-2.12-2.115a2.118 2.118 0 00-2.122 2.115c0 1.168.95 2.115 2.121 2.115zm111.94 0a2.118 2.118 0 002.121-2.115c0-1.168-.95-2.115-2.121-2.115a2.119 2.119 0 00-2.122 2.115c0 1.168.95 2.115 2.122 2.115zm8.566 0a2.118 2.118 0 002.121-2.115 2.118 2.118 0 00-2.121-2.115 2.118 2.118 0 00-2.121 2.115c0 1.168.95 2.115 2.121 2.115zm8.649 0a2.118 2.118 0 002.121-2.115c0-1.168-.95-2.115-2.121-2.115a2.119 2.119 0 00-2.122 2.115c0 1.168.95 2.115 2.122 2.115zm8.566 0a2.118 2.118 0 002.121-2.115c0-1.168-.95-2.115-2.121-2.115a2.118 2.118 0 00-2.121 2.115c0 1.168.949 2.115 2.121 2.115zm8.648 0a2.119 2.119 0 002.122-2.115c0-1.168-.95-2.115-2.122-2.115a2.118 2.118 0 00-2.121 2.115c0 1.168.95 2.115 2.121 2.115zm8.567 0a2.118 2.118 0 002.121-2.115c0-1.168-.95-2.115-2.121-2.115a2.119 2.119 0 00-2.122 2.115c0 1.168.95 2.115 2.122 2.115zm8.648 0a2.119 2.119 0 002.122-2.115c0-1.168-.95-2.115-2.122-2.115a2.118 2.118 0 00-2.121 2.115c0 1.168.95 2.115 2.121 2.115zm8.569 0a2.118 2.118 0 002.121-2.115c0-1.168-.95-2.115-2.121-2.115a2.119 2.119 0 00-2.122 2.115c0 1.168.95 2.115 2.122 2.115zm8.648 0a2.118 2.118 0 002.121-2.115 2.118 2.118 0 00-2.121-2.115 2.118 2.118 0 00-2.121 2.115c0 1.168.949 2.115 2.121 2.115zm8.566 0a2.119 2.119 0 002.122-2.115c0-1.168-.95-2.115-2.122-2.115a2.118 2.118 0 00-2.121 2.115c0 1.168.95 2.115 2.121 2.115zm8.649 0a2.118 2.118 0 002.121-2.115c0-1.168-.95-2.115-2.121-2.115a2.118 2.118 0 00-2.121 2.115c0 1.168.949 2.115 2.121 2.115zm8.566 0a2.119 2.119 0 002.122-2.115c0-1.168-.95-2.115-2.122-2.115a2.118 2.118 0 00-2.121 2.115c0 1.168.95 2.115 2.121 2.115zm8.649 0a2.118 2.118 0 002.121-2.115c0-1.168-.95-2.115-2.121-2.115a2.119 2.119 0 00-2.122 2.115c0 1.168.95 2.115 2.122 2.115zm8.648 0a2.118 2.118 0 002.121-2.115 2.118 2.118 0 00-2.121-2.115 2.118 2.118 0 00-2.121 2.115c0 1.168.95 2.115 2.121 2.115zm8.567 0a2.118 2.118 0 002.121-2.115c0-1.168-.95-2.115-2.121-2.115a2.119 2.119 0 00-2.122 2.115c0 1.168.95 2.115 2.122 2.115zm8.648 0a2.118 2.118 0 002.121-2.115 2.118 2.118 0 00-2.121-2.115 2.118 2.118 0 00-2.121 2.115c0 1.168.949 2.115 2.121 2.115zm8.568 0a2.119 2.119 0 002.122-2.115c0-1.168-.95-2.115-2.122-2.115a2.118 2.118 0 00-2.121 2.115c0 1.168.95 2.115 2.121 2.115zm8.649 0a2.118 2.118 0 002.121-2.115c0-1.168-.95-2.115-2.121-2.115a2.119 2.119 0 00-2.122 2.115c0 1.168.95 2.115 2.122 2.115zm8.566 0a2.118 2.118 0 002.121-2.115 2.118 2.118 0 00-2.121-2.115 2.118 2.118 0 00-2.121 2.115c0 1.168.95 2.115 2.121 2.115zm8.649 0a2.118 2.118 0 002.121-2.115c0-1.168-.95-2.115-2.121-2.115a2.119 2.119 0 00-2.122 2.115c0 1.168.95 2.115 2.122 2.115zm8.566 0a2.118 2.118 0 002.121-2.115 2.118 2.118 0 00-2.121-2.115 2.118 2.118 0 00-2.121 2.115c0 1.168.949 2.115 2.121 2.115zm8.648 0a2.119 2.119 0 002.122-2.115c0-1.168-.95-2.115-2.122-2.115a2.118 2.118 0 00-2.121 2.115c0 1.168.95 2.115 2.121 2.115zm8.567 0a2.118 2.118 0 002.121-2.115c0-1.168-.95-2.115-2.121-2.115a2.118 2.118 0 00-2.121 2.115c0 1.168.949 2.115 2.121 2.115zm8.648 0a2.119 2.119 0 002.122-2.115c0-1.168-.95-2.115-2.122-2.115a2.118 2.118 0 00-2.121 2.115c0 1.168.95 2.115 2.121 2.115zm8.567 0a2.118 2.118 0 002.121-2.115c0-1.168-.95-2.115-2.121-2.115a2.119 2.119 0 00-2.122 2.115c0 1.168.95 2.115 2.122 2.115zm8.648 0a2.118 2.118 0 002.121-2.115 2.118 2.118 0 00-2.121-2.115 2.118 2.118 0 00-2.121 2.115c0 1.168.95 2.115 2.121 2.115zm8.569 0a2.118 2.118 0 002.121-2.115c0-1.168-.95-2.115-2.121-2.115a2.119 2.119 0 00-2.122 2.115c0 1.168.95 2.115 2.122 2.115zm8.648 0a2.118 2.118 0 002.121-2.115 2.118 2.118 0 00-2.121-2.115 2.118 2.118 0 00-2.121 2.115c0 1.168.949 2.115 2.121 2.115zm8.566 0a2.119 2.119 0 002.122-2.115c0-1.168-.95-2.115-2.122-2.115a2.118 2.118 0 00-2.121 2.115c0 1.168.95 2.115 2.121 2.115zm8.649 0a2.118 2.118 0 002.121-2.115c0-1.168-.95-2.115-2.121-2.115a2.119 2.119 0 00-2.122 2.115c0 1.168.95 2.115 2.122 2.115zm8.566 0a2.119 2.119 0 002.122-2.115c0-1.168-.95-2.115-2.122-2.115a2.118 2.118 0 00-2.121 2.115c0 1.168.95 2.115 2.121 2.115zm8.649 0a2.118 2.118 0 002.121-2.115c0-1.168-.95-2.115-2.121-2.115a2.119 2.119 0 00-2.122 2.115c0 1.168.95 2.115 2.122 2.115zm8.648 0a2.118 2.118 0 002.121-2.115 2.118 2.118 0 00-2.121-2.115 2.118 2.118 0 00-2.121 2.115c0 1.168.95 2.115 2.121 2.115zm8.567 0a2.118 2.118 0 002.121-2.115c0-1.168-.95-2.115-2.121-2.115a2.119 2.119 0 00-2.122 2.115c0 1.168.95 2.115 2.122 2.115zm8.648 0a2.118 2.118 0 002.121-2.115c0-1.168-.95-2.115-2.121-2.115a2.118 2.118 0 00-2.121 2.115c0 1.168.949 2.115 2.121 2.115zm8.568 0a2.119 2.119 0 002.122-2.115c0-1.168-.95-2.115-2.122-2.115a2.118 2.118 0 00-2.121 2.115c0 1.168.95 2.115 2.121 2.115zm8.649 0a2.118 2.118 0 002.121-2.115c0-1.168-.95-2.115-2.121-2.115a2.119 2.119 0 00-2.122 2.115c0 1.168.95 2.115 2.122 2.115zm8.566 0a2.118 2.118 0 002.121-2.115 2.118 2.118 0 00-2.121-2.115 2.118 2.118 0 00-2.121 2.115c0 1.168.95 2.115 2.121 2.115zm-292.742 8.625a2.118 2.118 0 002.121-2.115c0-1.169-.95-2.116-2.121-2.116a2.118 2.118 0 00-2.121 2.116c0 1.168.949 2.115 2.121 2.115zm8.648 0a2.119 2.119 0 002.122-2.115c0-1.169-.95-2.116-2.122-2.116a2.119 2.119 0 00-2.121 2.116c0 1.168.95 2.115 2.121 2.115zm8.567 0a2.118 2.118 0 002.121-2.115c0-1.169-.95-2.116-2.121-2.116a2.119 2.119 0 00-2.122 2.116c0 1.168.95 2.115 2.122 2.115zm8.648 0a2.119 2.119 0 002.122-2.115c0-1.169-.95-2.116-2.122-2.116a2.119 2.119 0 00-2.121 2.116c0 1.168.95 2.115 2.121 2.115zm8.569 0a2.118 2.118 0 002.121-2.115c0-1.169-.95-2.116-2.121-2.116a2.119 2.119 0 00-2.122 2.116c0 1.168.95 2.115 2.122 2.115zm8.648 0a2.118 2.118 0 002.121-2.115 2.118 2.118 0 00-2.121-2.116 2.118 2.118 0 00-2.121 2.116c0 1.168.949 2.115 2.121 2.115zm8.566 0a2.119 2.119 0 002.122-2.115c0-1.169-.95-2.116-2.122-2.116a2.119 2.119 0 00-2.121 2.116c0 1.168.95 2.115 2.121 2.115zm8.649 0a2.118 2.118 0 002.121-2.115c0-1.169-.95-2.116-2.121-2.116a2.118 2.118 0 00-2.121 2.116c0 1.168.949 2.115 2.121 2.115zm8.566 0a2.119 2.119 0 002.122-2.115c0-1.169-.95-2.116-2.122-2.116a2.119 2.119 0 00-2.121 2.116c0 1.168.95 2.115 2.121 2.115zm8.649 0a2.118 2.118 0 002.121-2.115c0-1.169-.95-2.116-2.121-2.116a2.119 2.119 0 00-2.122 2.116c0 1.168.95 2.115 2.122 2.115zm8.648 0a2.118 2.118 0 002.121-2.115 2.118 2.118 0 00-2.121-2.116 2.119 2.119 0 00-2.121 2.116c0 1.168.95 2.115 2.121 2.115zm8.567 0a2.118 2.118 0 002.121-2.115c0-1.169-.95-2.116-2.121-2.116a2.119 2.119 0 00-2.122 2.116c0 1.168.95 2.115 2.122 2.115zm8.648 0a2.118 2.118 0 002.121-2.115 2.118 2.118 0 00-2.121-2.116 2.118 2.118 0 00-2.121 2.116c0 1.168.949 2.115 2.121 2.115zm8.568 0a2.119 2.119 0 002.122-2.115c0-1.169-.95-2.116-2.122-2.116a2.119 2.119 0 00-2.121 2.116c0 1.168.95 2.115 2.121 2.115zm8.649 0a2.118 2.118 0 002.121-2.115c0-1.169-.95-2.116-2.121-2.116a2.119 2.119 0 00-2.122 2.116c0 1.168.95 2.115 2.122 2.115zm8.566 0a2.118 2.118 0 002.121-2.115 2.118 2.118 0 00-2.121-2.116 2.119 2.119 0 00-2.121 2.116c0 1.168.95 2.115 2.121 2.115zm8.649 0a2.118 2.118 0 002.121-2.115c0-1.169-.95-2.116-2.121-2.116a2.119 2.119 0 00-2.122 2.116c0 1.168.95 2.115 2.122 2.115zm8.566 0a2.118 2.118 0 002.121-2.115 2.118 2.118 0 00-2.121-2.116 2.118 2.118 0 00-2.121 2.116c0 1.168.949 2.115 2.121 2.115zm8.648 0a2.119 2.119 0 002.122-2.115c0-1.169-.95-2.116-2.122-2.116a2.119 2.119 0 00-2.121 2.116c0 1.168.95 2.115 2.121 2.115zm8.567 0a2.118 2.118 0 002.121-2.115c0-1.169-.95-2.116-2.121-2.116a2.118 2.118 0 00-2.121 2.116c0 1.168.949 2.115 2.121 2.115zm8.648 0a2.119 2.119 0 002.122-2.115c0-1.169-.95-2.116-2.122-2.116a2.119 2.119 0 00-2.121 2.116c0 1.168.95 2.115 2.121 2.115zm8.567 0a2.118 2.118 0 002.121-2.115c0-1.169-.95-2.116-2.121-2.116a2.119 2.119 0 00-2.122 2.116c0 1.168.95 2.115 2.122 2.115zm8.648 0a2.118 2.118 0 002.121-2.115 2.118 2.118 0 00-2.121-2.116 2.119 2.119 0 00-2.121 2.116c0 1.168.95 2.115 2.121 2.115zm8.569 0a2.118 2.118 0 002.121-2.115c0-1.169-.95-2.116-2.121-2.116a2.119 2.119 0 00-2.122 2.116c0 1.168.95 2.115 2.122 2.115zm8.648 0a2.118 2.118 0 002.121-2.115 2.118 2.118 0 00-2.121-2.116 2.118 2.118 0 00-2.121 2.116c0 1.168.949 2.115 2.121 2.115zm8.566 0a2.119 2.119 0 002.122-2.115c0-1.169-.95-2.116-2.122-2.116a2.119 2.119 0 00-2.121 2.116c0 1.168.95 2.115 2.121 2.115zm8.649 0a2.118 2.118 0 002.121-2.115c0-1.169-.95-2.116-2.121-2.116a2.119 2.119 0 00-2.122 2.116c0 1.168.95 2.115 2.122 2.115zm8.566 0a2.119 2.119 0 002.122-2.115c0-1.169-.95-2.116-2.122-2.116a2.119 2.119 0 00-2.121 2.116c0 1.168.95 2.115 2.121 2.115zm-223.799 8.543a2.119 2.119 0 002.122-2.115 2.12 2.12 0 00-2.122-2.116 2.12 2.12 0 00-2.121 2.116c0 1.168.95 2.115 2.121 2.115zm8.567 0a2.118 2.118 0 002.121-2.115 2.12 2.12 0 00-2.121-2.116 2.12 2.12 0 00-2.122 2.116c0 1.168.95 2.115 2.122 2.115zm8.648 0a2.119 2.119 0 002.122-2.115 2.12 2.12 0 00-2.122-2.116 2.12 2.12 0 00-2.121 2.116c0 1.168.95 2.115 2.121 2.115zm8.569 0a2.118 2.118 0 002.121-2.115 2.12 2.12 0 00-2.121-2.116 2.12 2.12 0 00-2.122 2.116c0 1.168.95 2.115 2.122 2.115zm8.648 0a2.118 2.118 0 002.121-2.115 2.119 2.119 0 00-2.121-2.116 2.119 2.119 0 00-2.121 2.116c0 1.168.949 2.115 2.121 2.115zm8.566 0a2.119 2.119 0 002.122-2.115 2.12 2.12 0 00-2.122-2.116 2.12 2.12 0 00-2.121 2.116c0 1.168.95 2.115 2.121 2.115zm8.649 0a2.118 2.118 0 002.121-2.115 2.12 2.12 0 00-2.121-2.116 2.119 2.119 0 00-2.121 2.116c0 1.168.949 2.115 2.121 2.115zm8.566 0a2.119 2.119 0 002.122-2.115 2.12 2.12 0 00-2.122-2.116 2.12 2.12 0 00-2.121 2.116c0 1.168.95 2.115 2.121 2.115zm8.649 0a2.118 2.118 0 002.121-2.115 2.12 2.12 0 00-2.121-2.116 2.12 2.12 0 00-2.122 2.116c0 1.168.95 2.115 2.122 2.115zm8.648 0a2.118 2.118 0 002.121-2.115 2.119 2.119 0 00-2.121-2.116 2.12 2.12 0 00-2.121 2.116c0 1.168.95 2.115 2.121 2.115zm8.567 0a2.118 2.118 0 002.121-2.115 2.12 2.12 0 00-2.121-2.116 2.12 2.12 0 00-2.122 2.116c0 1.168.95 2.115 2.122 2.115zm8.648 0a2.118 2.118 0 002.121-2.115 2.119 2.119 0 00-2.121-2.116 2.119 2.119 0 00-2.121 2.116c0 1.168.949 2.115 2.121 2.115zm8.568 0a2.119 2.119 0 002.122-2.115 2.12 2.12 0 00-2.122-2.116 2.12 2.12 0 00-2.121 2.116c0 1.168.95 2.115 2.121 2.115zm8.649 0a2.118 2.118 0 002.121-2.115 2.12 2.12 0 00-2.121-2.116 2.12 2.12 0 00-2.122 2.116c0 1.168.95 2.115 2.122 2.115zm8.566 0a2.118 2.118 0 002.121-2.115 2.119 2.119 0 00-2.121-2.116 2.12 2.12 0 00-2.121 2.116c0 1.168.95 2.115 2.121 2.115zm8.649 0a2.118 2.118 0 002.121-2.115 2.12 2.12 0 00-2.121-2.116 2.12 2.12 0 00-2.122 2.116c0 1.168.95 2.115 2.122 2.115zm8.566 0a2.118 2.118 0 002.121-2.115 2.119 2.119 0 00-2.121-2.116 2.119 2.119 0 00-2.121 2.116c0 1.168.949 2.115 2.121 2.115zm8.648 0a2.119 2.119 0 002.122-2.115 2.12 2.12 0 00-2.122-2.116 2.12 2.12 0 00-2.121 2.116c0 1.168.95 2.115 2.121 2.115zm8.567 0a2.118 2.118 0 002.121-2.115 2.12 2.12 0 00-2.121-2.116 2.119 2.119 0 00-2.121 2.116c0 1.168.949 2.115 2.121 2.115zm8.648 0a2.119 2.119 0 002.122-2.115 2.12 2.12 0 00-2.122-2.116 2.12 2.12 0 00-2.121 2.116c0 1.168.95 2.115 2.121 2.115zm8.567 0a2.118 2.118 0 002.121-2.115 2.12 2.12 0 00-2.121-2.116 2.12 2.12 0 00-2.122 2.116c0 1.168.95 2.115 2.122 2.115zm8.648 0a2.118 2.118 0 002.121-2.115 2.119 2.119 0 00-2.121-2.116 2.12 2.12 0 00-2.121 2.116c0 1.168.95 2.115 2.121 2.115zm8.569 0a2.118 2.118 0 002.121-2.115 2.12 2.12 0 00-2.121-2.116 2.12 2.12 0 00-2.122 2.116c0 1.168.95 2.115 2.122 2.115zm8.648 0a2.118 2.118 0 002.121-2.115 2.119 2.119 0 00-2.121-2.116 2.119 2.119 0 00-2.121 2.116c0 1.168.949 2.115 2.121 2.115zm8.566 0a2.119 2.119 0 002.122-2.115 2.12 2.12 0 00-2.122-2.116 2.12 2.12 0 00-2.121 2.116c0 1.168.95 2.115 2.121 2.115zm8.649 0a2.118 2.118 0 002.121-2.115 2.12 2.12 0 00-2.121-2.116 2.12 2.12 0 00-2.122 2.116c0 1.168.95 2.115 2.122 2.115zm8.566 0a2.119 2.119 0 002.122-2.115 2.12 2.12 0 00-2.122-2.116 2.12 2.12 0 00-2.121 2.116c0 1.168.95 2.115 2.121 2.115zm-223.799 8.625a2.119 2.119 0 002.122-2.115c0-1.169-.95-2.116-2.122-2.116a2.119 2.119 0 00-2.121 2.116c0 1.168.95 2.115 2.121 2.115zm8.567 0a2.118 2.118 0 002.121-2.115c0-1.169-.95-2.116-2.121-2.116a2.119 2.119 0 00-2.122 2.116c0 1.168.95 2.115 2.122 2.115zm8.648 0a2.119 2.119 0 002.122-2.115c0-1.169-.95-2.116-2.122-2.116a2.119 2.119 0 00-2.121 2.116c0 1.168.95 2.115 2.121 2.115zm8.569 0a2.118 2.118 0 002.121-2.115c0-1.169-.95-2.116-2.121-2.116a2.119 2.119 0 00-2.122 2.116c0 1.168.95 2.115 2.122 2.115zm8.648 0a2.118 2.118 0 002.121-2.115 2.118 2.118 0 00-2.121-2.116 2.118 2.118 0 00-2.121 2.116c0 1.168.949 2.115 2.121 2.115zm8.566 0a2.119 2.119 0 002.122-2.115c0-1.169-.95-2.116-2.122-2.116a2.119 2.119 0 00-2.121 2.116c0 1.168.95 2.115 2.121 2.115zm8.649 0a2.118 2.118 0 002.121-2.115c0-1.169-.95-2.116-2.121-2.116a2.118 2.118 0 00-2.121 2.116c0 1.168.949 2.115 2.121 2.115zm8.566 0a2.119 2.119 0 002.122-2.115c0-1.169-.95-2.116-2.122-2.116a2.119 2.119 0 00-2.121 2.116c0 1.168.95 2.115 2.121 2.115zm8.649 0a2.118 2.118 0 002.121-2.115c0-1.169-.95-2.116-2.121-2.116a2.119 2.119 0 00-2.122 2.116c0 1.168.95 2.115 2.122 2.115zm8.648 0a2.118 2.118 0 002.121-2.115 2.118 2.118 0 00-2.121-2.116 2.119 2.119 0 00-2.121 2.116c0 1.168.95 2.115 2.121 2.115zm8.567 0a2.118 2.118 0 002.121-2.115c0-1.169-.95-2.116-2.121-2.116a2.119 2.119 0 00-2.122 2.116c0 1.168.95 2.115 2.122 2.115zm8.648 0a2.118 2.118 0 002.121-2.115 2.118 2.118 0 00-2.121-2.116 2.118 2.118 0 00-2.121 2.116c0 1.168.949 2.115 2.121 2.115zm8.568 0a2.119 2.119 0 002.122-2.115c0-1.169-.95-2.116-2.122-2.116a2.119 2.119 0 00-2.121 2.116c0 1.168.95 2.115 2.121 2.115zm8.649 0a2.118 2.118 0 002.121-2.115c0-1.169-.95-2.116-2.121-2.116a2.119 2.119 0 00-2.122 2.116c0 1.168.95 2.115 2.122 2.115zm8.566 0a2.118 2.118 0 002.121-2.115 2.118 2.118 0 00-2.121-2.116 2.119 2.119 0 00-2.121 2.116c0 1.168.95 2.115 2.121 2.115zm8.649 0a2.118 2.118 0 002.121-2.115c0-1.169-.95-2.116-2.121-2.116a2.119 2.119 0 00-2.122 2.116c0 1.168.95 2.115 2.122 2.115zm8.566 0a2.118 2.118 0 002.121-2.115 2.118 2.118 0 00-2.121-2.116 2.118 2.118 0 00-2.121 2.116c0 1.168.949 2.115 2.121 2.115zm8.648 0a2.119 2.119 0 002.122-2.115c0-1.169-.95-2.116-2.122-2.116a2.119 2.119 0 00-2.121 2.116c0 1.168.95 2.115 2.121 2.115zm8.567 0a2.118 2.118 0 002.121-2.115c0-1.169-.95-2.116-2.121-2.116a2.118 2.118 0 00-2.121 2.116c0 1.168.949 2.115 2.121 2.115zm8.648 0a2.119 2.119 0 002.122-2.115c0-1.169-.95-2.116-2.122-2.116a2.119 2.119 0 00-2.121 2.116c0 1.168.95 2.115 2.121 2.115zm8.567 0a2.118 2.118 0 002.121-2.115c0-1.169-.95-2.116-2.121-2.116a2.119 2.119 0 00-2.122 2.116c0 1.168.95 2.115 2.122 2.115zm8.648 0a2.118 2.118 0 002.121-2.115 2.118 2.118 0 00-2.121-2.116 2.119 2.119 0 00-2.121 2.116c0 1.168.95 2.115 2.121 2.115zm8.569 0a2.118 2.118 0 002.121-2.115c0-1.169-.95-2.116-2.121-2.116a2.119 2.119 0 00-2.122 2.116c0 1.168.95 2.115 2.122 2.115zm8.648 0a2.118 2.118 0 002.121-2.115 2.118 2.118 0 00-2.121-2.116 2.118 2.118 0 00-2.121 2.116c0 1.168.949 2.115 2.121 2.115zm8.566 0a2.119 2.119 0 002.122-2.115c0-1.169-.95-2.116-2.122-2.116a2.119 2.119 0 00-2.121 2.116c0 1.168.95 2.115 2.121 2.115zm8.649 0a2.118 2.118 0 002.121-2.115c0-1.169-.95-2.116-2.121-2.116a2.119 2.119 0 00-2.122 2.116c0 1.168.95 2.115 2.122 2.115zm8.566 0a2.119 2.119 0 002.122-2.115c0-1.169-.95-2.116-2.122-2.116a2.119 2.119 0 00-2.121 2.116c0 1.168.95 2.115 2.121 2.115zm-215.232 8.543a2.118 2.118 0 002.121-2.115 2.12 2.12 0 00-2.121-2.116 2.12 2.12 0 00-2.122 2.116c0 1.168.95 2.115 2.122 2.115zm8.648 0a2.119 2.119 0 002.122-2.115 2.12 2.12 0 00-2.122-2.116 2.12 2.12 0 00-2.121 2.116c0 1.168.95 2.115 2.121 2.115zm8.569 0a2.118 2.118 0 002.121-2.115 2.12 2.12 0 00-2.121-2.116 2.12 2.12 0 00-2.122 2.116c0 1.168.95 2.115 2.122 2.115zm8.648 0a2.118 2.118 0 002.121-2.115 2.119 2.119 0 00-2.121-2.116 2.119 2.119 0 00-2.121 2.116c0 1.168.949 2.115 2.121 2.115zm8.566 0a2.119 2.119 0 002.122-2.115 2.12 2.12 0 00-2.122-2.116 2.12 2.12 0 00-2.121 2.116c0 1.168.95 2.115 2.121 2.115zm8.649 0a2.118 2.118 0 002.121-2.115 2.12 2.12 0 00-2.121-2.116 2.119 2.119 0 00-2.121 2.116c0 1.168.949 2.115 2.121 2.115zm8.566 0a2.119 2.119 0 002.122-2.115 2.12 2.12 0 00-2.122-2.116 2.12 2.12 0 00-2.121 2.116c0 1.168.95 2.115 2.121 2.115zm8.649 0a2.118 2.118 0 002.121-2.115 2.12 2.12 0 00-2.121-2.116 2.12 2.12 0 00-2.122 2.116c0 1.168.95 2.115 2.122 2.115zm8.648 0a2.118 2.118 0 002.121-2.115 2.119 2.119 0 00-2.121-2.116 2.12 2.12 0 00-2.121 2.116c0 1.168.95 2.115 2.121 2.115zm8.567 0a2.118 2.118 0 002.121-2.115 2.12 2.12 0 00-2.121-2.116 2.12 2.12 0 00-2.122 2.116c0 1.168.95 2.115 2.122 2.115zm8.648 0a2.118 2.118 0 002.121-2.115 2.119 2.119 0 00-2.121-2.116 2.119 2.119 0 00-2.121 2.116c0 1.168.949 2.115 2.121 2.115zm8.568 0a2.119 2.119 0 002.122-2.115 2.12 2.12 0 00-2.122-2.116 2.12 2.12 0 00-2.121 2.116c0 1.168.95 2.115 2.121 2.115zm8.649 0a2.118 2.118 0 002.121-2.115 2.12 2.12 0 00-2.121-2.116 2.12 2.12 0 00-2.122 2.116c0 1.168.95 2.115 2.122 2.115zm8.566 0a2.118 2.118 0 002.121-2.115 2.119 2.119 0 00-2.121-2.116 2.12 2.12 0 00-2.121 2.116c0 1.168.95 2.115 2.121 2.115zm8.649 0a2.118 2.118 0 002.121-2.115 2.12 2.12 0 00-2.121-2.116 2.12 2.12 0 00-2.122 2.116c0 1.168.95 2.115 2.122 2.115zm8.566 0a2.118 2.118 0 002.121-2.115 2.119 2.119 0 00-2.121-2.116 2.119 2.119 0 00-2.121 2.116c0 1.168.949 2.115 2.121 2.115zm8.648 0a2.119 2.119 0 002.122-2.115 2.12 2.12 0 00-2.122-2.116 2.12 2.12 0 00-2.121 2.116c0 1.168.95 2.115 2.121 2.115zm8.567 0a2.118 2.118 0 002.121-2.115 2.12 2.12 0 00-2.121-2.116 2.119 2.119 0 00-2.121 2.116c0 1.168.949 2.115 2.121 2.115zm8.648 0a2.119 2.119 0 002.122-2.115 2.12 2.12 0 00-2.122-2.116 2.12 2.12 0 00-2.121 2.116c0 1.168.95 2.115 2.121 2.115zm8.567 0a2.118 2.118 0 002.121-2.115 2.12 2.12 0 00-2.121-2.116 2.12 2.12 0 00-2.122 2.116c0 1.168.95 2.115 2.122 2.115zm8.648 0a2.118 2.118 0 002.121-2.115 2.119 2.119 0 00-2.121-2.116 2.12 2.12 0 00-2.121 2.116c0 1.168.95 2.115 2.121 2.115zm8.569 0a2.118 2.118 0 002.121-2.115 2.12 2.12 0 00-2.121-2.116 2.12 2.12 0 00-2.122 2.116c0 1.168.95 2.115 2.122 2.115zm8.648 0a2.118 2.118 0 002.121-2.115 2.119 2.119 0 00-2.121-2.116 2.119 2.119 0 00-2.121 2.116c0 1.168.949 2.115 2.121 2.115zm8.566 0a2.119 2.119 0 002.122-2.115 2.12 2.12 0 00-2.122-2.116 2.12 2.12 0 00-2.121 2.116c0 1.168.95 2.115 2.121 2.115zM226 193.16a2.119 2.119 0 002.122-2.115c0-1.169-.95-2.116-2.122-2.116a2.119 2.119 0 00-2.121 2.116c0 1.168.95 2.115 2.121 2.115zm8.569 0a2.118 2.118 0 002.121-2.115c0-1.169-.95-2.116-2.121-2.116a2.119 2.119 0 00-2.122 2.116c0 1.168.95 2.115 2.122 2.115zm8.648 0a2.118 2.118 0 002.121-2.115 2.118 2.118 0 00-2.121-2.116 2.118 2.118 0 00-2.121 2.116c0 1.168.949 2.115 2.121 2.115zm8.566 0a2.119 2.119 0 002.122-2.115c0-1.169-.95-2.116-2.122-2.116a2.119 2.119 0 00-2.121 2.116c0 1.168.95 2.115 2.121 2.115zm8.649 0a2.118 2.118 0 002.121-2.115c0-1.169-.95-2.116-2.121-2.116a2.118 2.118 0 00-2.121 2.116c0 1.168.949 2.115 2.121 2.115zm8.566 0a2.119 2.119 0 002.122-2.115c0-1.169-.95-2.116-2.122-2.116a2.119 2.119 0 00-2.121 2.116c0 1.168.95 2.115 2.121 2.115zm8.649 0a2.118 2.118 0 002.121-2.115c0-1.169-.95-2.116-2.121-2.116a2.119 2.119 0 00-2.122 2.116c0 1.168.95 2.115 2.122 2.115zm8.648 0a2.118 2.118 0 002.121-2.115 2.118 2.118 0 00-2.121-2.116 2.119 2.119 0 00-2.121 2.116c0 1.168.95 2.115 2.121 2.115zm8.567 0a2.118 2.118 0 002.121-2.115c0-1.169-.95-2.116-2.121-2.116a2.119 2.119 0 00-2.122 2.116c0 1.168.95 2.115 2.122 2.115zm8.648 0a2.118 2.118 0 002.121-2.115 2.118 2.118 0 00-2.121-2.116 2.118 2.118 0 00-2.121 2.116c0 1.168.949 2.115 2.121 2.115zm8.568 0a2.119 2.119 0 002.122-2.115c0-1.169-.95-2.116-2.122-2.116a2.119 2.119 0 00-2.121 2.116c0 1.168.95 2.115 2.121 2.115zm8.649 0a2.118 2.118 0 002.121-2.115c0-1.169-.95-2.116-2.121-2.116a2.119 2.119 0 00-2.122 2.116c0 1.168.95 2.115 2.122 2.115zm8.566 0a2.118 2.118 0 002.121-2.115 2.118 2.118 0 00-2.121-2.116 2.119 2.119 0 00-2.121 2.116c0 1.168.95 2.115 2.121 2.115zm8.649 0a2.118 2.118 0 002.121-2.115c0-1.169-.95-2.116-2.121-2.116a2.119 2.119 0 00-2.122 2.116c0 1.168.95 2.115 2.122 2.115zm8.566 0a2.118 2.118 0 002.121-2.115 2.118 2.118 0 00-2.121-2.116 2.118 2.118 0 00-2.121 2.116c0 1.168.949 2.115 2.121 2.115zm8.648 0a2.119 2.119 0 002.122-2.115c0-1.169-.95-2.116-2.122-2.116a2.119 2.119 0 00-2.121 2.116c0 1.168.95 2.115 2.121 2.115zm8.567 0a2.118 2.118 0 002.121-2.115c0-1.169-.95-2.116-2.121-2.116a2.118 2.118 0 00-2.121 2.116c0 1.168.949 2.115 2.121 2.115zm8.648 0a2.119 2.119 0 002.122-2.115c0-1.169-.95-2.116-2.122-2.116a2.119 2.119 0 00-2.121 2.116c0 1.168.95 2.115 2.121 2.115zm8.567 0a2.118 2.118 0 002.121-2.115c0-1.169-.95-2.116-2.121-2.116a2.119 2.119 0 00-2.122 2.116c0 1.168.95 2.115 2.122 2.115zm8.648 0a2.118 2.118 0 002.121-2.115 2.118 2.118 0 00-2.121-2.116 2.119 2.119 0 00-2.121 2.116c0 1.168.95 2.115 2.121 2.115zm8.569 0a2.118 2.118 0 002.121-2.115c0-1.169-.95-2.116-2.121-2.116a2.119 2.119 0 00-2.122 2.116c0 1.168.95 2.115 2.122 2.115zm8.648 0a2.118 2.118 0 002.121-2.115 2.118 2.118 0 00-2.121-2.116 2.118 2.118 0 00-2.121 2.116c0 1.168.949 2.115 2.121 2.115zm-172.234 8.543a2.118 2.118 0 002.121-2.115 2.12 2.12 0 00-2.121-2.116 2.12 2.12 0 00-2.122 2.116c0 1.168.95 2.115 2.122 2.115zm8.648 0a2.118 2.118 0 002.121-2.115 2.119 2.119 0 00-2.121-2.116 2.119 2.119 0 00-2.121 2.116c0 1.168.949 2.115 2.121 2.115zm8.566 0a2.119 2.119 0 002.122-2.115 2.12 2.12 0 00-2.122-2.116 2.12 2.12 0 00-2.121 2.116c0 1.168.95 2.115 2.121 2.115zm8.649 0a2.118 2.118 0 002.121-2.115 2.12 2.12 0 00-2.121-2.116 2.119 2.119 0 00-2.121 2.116c0 1.168.949 2.115 2.121 2.115zm8.566 0a2.119 2.119 0 002.122-2.115 2.12 2.12 0 00-2.122-2.116 2.12 2.12 0 00-2.121 2.116c0 1.168.95 2.115 2.121 2.115zm8.649 0a2.118 2.118 0 002.121-2.115 2.12 2.12 0 00-2.121-2.116 2.12 2.12 0 00-2.122 2.116c0 1.168.95 2.115 2.122 2.115zm8.648 0a2.118 2.118 0 002.121-2.115 2.119 2.119 0 00-2.121-2.116 2.12 2.12 0 00-2.121 2.116c0 1.168.95 2.115 2.121 2.115zm8.567 0a2.118 2.118 0 002.121-2.115 2.12 2.12 0 00-2.121-2.116 2.12 2.12 0 00-2.122 2.116c0 1.168.95 2.115 2.122 2.115zm8.648 0a2.118 2.118 0 002.121-2.115 2.119 2.119 0 00-2.121-2.116 2.119 2.119 0 00-2.121 2.116c0 1.168.949 2.115 2.121 2.115zm8.568 0a2.119 2.119 0 002.122-2.115 2.12 2.12 0 00-2.122-2.116 2.12 2.12 0 00-2.121 2.116c0 1.168.95 2.115 2.121 2.115zm8.649 0a2.118 2.118 0 002.121-2.115 2.12 2.12 0 00-2.121-2.116 2.12 2.12 0 00-2.122 2.116c0 1.168.95 2.115 2.122 2.115zm8.566 0a2.118 2.118 0 002.121-2.115 2.119 2.119 0 00-2.121-2.116 2.12 2.12 0 00-2.121 2.116c0 1.168.95 2.115 2.121 2.115zm8.649 0a2.118 2.118 0 002.121-2.115 2.12 2.12 0 00-2.121-2.116 2.12 2.12 0 00-2.122 2.116c0 1.168.95 2.115 2.122 2.115zm8.566 0a2.118 2.118 0 002.121-2.115 2.119 2.119 0 00-2.121-2.116 2.119 2.119 0 00-2.121 2.116c0 1.168.949 2.115 2.121 2.115zm8.648 0a2.119 2.119 0 002.122-2.115 2.12 2.12 0 00-2.122-2.116 2.12 2.12 0 00-2.121 2.116c0 1.168.95 2.115 2.121 2.115zm8.567 0a2.118 2.118 0 002.121-2.115 2.12 2.12 0 00-2.121-2.116 2.119 2.119 0 00-2.121 2.116c0 1.168.949 2.115 2.121 2.115zm8.648 0a2.119 2.119 0 002.122-2.115 2.12 2.12 0 00-2.122-2.116 2.12 2.12 0 00-2.121 2.116c0 1.168.95 2.115 2.121 2.115zm8.567 0a2.118 2.118 0 002.121-2.115 2.12 2.12 0 00-2.121-2.116 2.12 2.12 0 00-2.122 2.116c0 1.168.95 2.115 2.122 2.115zm8.648 0a2.118 2.118 0 002.121-2.115 2.119 2.119 0 00-2.121-2.116 2.12 2.12 0 00-2.121 2.116c0 1.168.95 2.115 2.121 2.115zm8.569 0a2.118 2.118 0 002.121-2.115 2.12 2.12 0 00-2.121-2.116 2.12 2.12 0 00-2.122 2.116c0 1.168.95 2.115 2.122 2.115zm-146.372 8.625a2.119 2.119 0 002.122-2.115c0-1.169-.95-2.116-2.122-2.116a2.119 2.119 0 00-2.121 2.116c0 1.168.95 2.115 2.121 2.115zm8.649 0a2.118 2.118 0 002.121-2.115c0-1.169-.95-2.116-2.121-2.116a2.118 2.118 0 00-2.121 2.116c0 1.168.949 2.115 2.121 2.115zm8.566 0a2.119 2.119 0 002.122-2.115c0-1.169-.95-2.116-2.122-2.116a2.119 2.119 0 00-2.121 2.116c0 1.168.95 2.115 2.121 2.115zm8.649 0a2.118 2.118 0 002.121-2.115c0-1.169-.95-2.116-2.121-2.116a2.119 2.119 0 00-2.122 2.116c0 1.168.95 2.115 2.122 2.115zm8.648 0a2.118 2.118 0 002.121-2.115 2.118 2.118 0 00-2.121-2.116 2.119 2.119 0 00-2.121 2.116c0 1.168.95 2.115 2.121 2.115zm8.567 0a2.118 2.118 0 002.121-2.115c0-1.169-.95-2.116-2.121-2.116a2.119 2.119 0 00-2.122 2.116c0 1.168.95 2.115 2.122 2.115zm8.648 0a2.118 2.118 0 002.121-2.115 2.118 2.118 0 00-2.121-2.116 2.118 2.118 0 00-2.121 2.116c0 1.168.949 2.115 2.121 2.115zm8.568 0a2.119 2.119 0 002.122-2.115c0-1.169-.95-2.116-2.122-2.116a2.119 2.119 0 00-2.121 2.116c0 1.168.95 2.115 2.121 2.115zm8.649 0a2.118 2.118 0 002.121-2.115c0-1.169-.95-2.116-2.121-2.116a2.119 2.119 0 00-2.122 2.116c0 1.168.95 2.115 2.122 2.115zm8.566 0a2.118 2.118 0 002.121-2.115 2.118 2.118 0 00-2.121-2.116 2.119 2.119 0 00-2.121 2.116c0 1.168.95 2.115 2.121 2.115zm8.649 0a2.118 2.118 0 002.121-2.115c0-1.169-.95-2.116-2.121-2.116a2.119 2.119 0 00-2.122 2.116c0 1.168.95 2.115 2.122 2.115zm8.566 0a2.118 2.118 0 002.121-2.115 2.118 2.118 0 00-2.121-2.116 2.118 2.118 0 00-2.121 2.116c0 1.168.949 2.115 2.121 2.115zm8.648 0a2.119 2.119 0 002.122-2.115c0-1.169-.95-2.116-2.122-2.116a2.119 2.119 0 00-2.121 2.116c0 1.168.95 2.115 2.121 2.115zm8.567 0a2.118 2.118 0 002.121-2.115c0-1.169-.95-2.116-2.121-2.116a2.118 2.118 0 00-2.121 2.116c0 1.168.949 2.115 2.121 2.115zm8.648 0a2.119 2.119 0 002.122-2.115c0-1.169-.95-2.116-2.122-2.116a2.119 2.119 0 00-2.121 2.116c0 1.168.95 2.115 2.121 2.115zm-111.939 8.543a2.118 2.118 0 002.121-2.115 2.12 2.12 0 00-2.121-2.116 2.119 2.119 0 00-2.121 2.116c0 1.168.949 2.115 2.121 2.115zm8.566 0a2.119 2.119 0 002.122-2.115 2.12 2.12 0 00-2.122-2.116 2.12 2.12 0 00-2.121 2.116c0 1.168.95 2.115 2.121 2.115zm8.649 0a2.118 2.118 0 002.121-2.115 2.12 2.12 0 00-2.121-2.116 2.12 2.12 0 00-2.122 2.116c0 1.168.95 2.115 2.122 2.115zm8.648 0a2.118 2.118 0 002.121-2.115 2.119 2.119 0 00-2.121-2.116 2.12 2.12 0 00-2.121 2.116c0 1.168.95 2.115 2.121 2.115zm8.567 0a2.118 2.118 0 002.121-2.115 2.12 2.12 0 00-2.121-2.116 2.12 2.12 0 00-2.122 2.116c0 1.168.95 2.115 2.122 2.115zm8.648 0a2.118 2.118 0 002.121-2.115 2.119 2.119 0 00-2.121-2.116 2.119 2.119 0 00-2.121 2.116c0 1.168.949 2.115 2.121 2.115zm8.568 0a2.119 2.119 0 002.122-2.115 2.12 2.12 0 00-2.122-2.116 2.12 2.12 0 00-2.121 2.116c0 1.168.95 2.115 2.121 2.115zm8.649 0a2.118 2.118 0 002.121-2.115 2.12 2.12 0 00-2.121-2.116 2.12 2.12 0 00-2.122 2.116c0 1.168.95 2.115 2.122 2.115zm8.566 0a2.118 2.118 0 002.121-2.115 2.119 2.119 0 00-2.121-2.116 2.12 2.12 0 00-2.121 2.116c0 1.168.95 2.115 2.121 2.115zm8.649 0a2.118 2.118 0 002.121-2.115 2.12 2.12 0 00-2.121-2.116 2.12 2.12 0 00-2.122 2.116c0 1.168.95 2.115 2.122 2.115zm8.566 0a2.118 2.118 0 002.121-2.115 2.119 2.119 0 00-2.121-2.116 2.119 2.119 0 00-2.121 2.116c0 1.168.949 2.115 2.121 2.115zm8.648 0a2.119 2.119 0 002.122-2.115 2.12 2.12 0 00-2.122-2.116 2.12 2.12 0 00-2.121 2.116c0 1.168.95 2.115 2.121 2.115zm8.567 0a2.118 2.118 0 002.121-2.115 2.12 2.12 0 00-2.121-2.116 2.119 2.119 0 00-2.121 2.116c0 1.168.949 2.115 2.121 2.115zm8.648 0a2.119 2.119 0 002.122-2.115 2.12 2.12 0 00-2.122-2.116 2.12 2.12 0 00-2.121 2.116c0 1.168.95 2.115 2.121 2.115zm8.567 0a2.118 2.118 0 002.121-2.115 2.12 2.12 0 00-2.121-2.116 2.12 2.12 0 00-2.122 2.116c0 1.168.95 2.115 2.122 2.115zm8.648 0a2.118 2.118 0 002.121-2.115 2.119 2.119 0 00-2.121-2.116 2.12 2.12 0 00-2.121 2.116c0 1.168.95 2.115 2.121 2.115zm8.569 0a2.118 2.118 0 002.121-2.115 2.12 2.12 0 00-2.121-2.116 2.12 2.12 0 00-2.122 2.116c0 1.168.95 2.115 2.122 2.115zm-120.508 8.625a2.118 2.118 0 002.121-2.115c0-1.169-.95-2.116-2.121-2.116a2.119 2.119 0 00-2.122 2.116c0 1.168.95 2.115 2.122 2.115zm8.648 0a2.118 2.118 0 002.121-2.115 2.118 2.118 0 00-2.121-2.116 2.119 2.119 0 00-2.121 2.116c0 1.168.95 2.115 2.121 2.115zm8.567 0a2.118 2.118 0 002.121-2.115c0-1.169-.95-2.116-2.121-2.116a2.119 2.119 0 00-2.122 2.116c0 1.168.95 2.115 2.122 2.115zm8.648 0a2.118 2.118 0 002.121-2.115 2.118 2.118 0 00-2.121-2.116 2.118 2.118 0 00-2.121 2.116c0 1.168.949 2.115 2.121 2.115zm8.568 0a2.119 2.119 0 002.122-2.115c0-1.169-.95-2.116-2.122-2.116a2.119 2.119 0 00-2.121 2.116c0 1.168.95 2.115 2.121 2.115zm8.649 0a2.118 2.118 0 002.121-2.115c0-1.169-.95-2.116-2.121-2.116a2.119 2.119 0 00-2.122 2.116c0 1.168.95 2.115 2.122 2.115zm8.566 0a2.118 2.118 0 002.121-2.115 2.118 2.118 0 00-2.121-2.116 2.119 2.119 0 00-2.121 2.116c0 1.168.95 2.115 2.121 2.115zm8.649 0a2.118 2.118 0 002.121-2.115c0-1.169-.95-2.116-2.121-2.116a2.119 2.119 0 00-2.122 2.116c0 1.168.95 2.115 2.122 2.115zm8.566 0a2.118 2.118 0 002.121-2.115 2.118 2.118 0 00-2.121-2.116 2.118 2.118 0 00-2.121 2.116c0 1.168.949 2.115 2.121 2.115zm8.648 0a2.119 2.119 0 002.122-2.115c0-1.169-.95-2.116-2.122-2.116a2.119 2.119 0 00-2.121 2.116c0 1.168.95 2.115 2.121 2.115zm8.567 0a2.118 2.118 0 002.121-2.115c0-1.169-.95-2.116-2.121-2.116a2.118 2.118 0 00-2.121 2.116c0 1.168.949 2.115 2.121 2.115zm8.648 0a2.119 2.119 0 002.122-2.115c0-1.169-.95-2.116-2.122-2.116a2.119 2.119 0 00-2.121 2.116c0 1.168.95 2.115 2.121 2.115zm8.567 0a2.118 2.118 0 002.121-2.115c0-1.169-.95-2.116-2.121-2.116a2.119 2.119 0 00-2.122 2.116c0 1.168.95 2.115 2.122 2.115zm8.648 0a2.118 2.118 0 002.121-2.115 2.118 2.118 0 00-2.121-2.116 2.119 2.119 0 00-2.121 2.116c0 1.168.95 2.115 2.121 2.115zm8.569 0a2.118 2.118 0 002.121-2.115c0-1.169-.95-2.116-2.121-2.116a2.119 2.119 0 00-2.122 2.116c0 1.168.95 2.115 2.122 2.115zm-103.293 8.543a2.118 2.118 0 002.121-2.115c0-1.169-.95-2.116-2.121-2.116a2.119 2.119 0 00-2.122 2.116c0 1.168.95 2.115 2.122 2.115zm8.648 0a2.118 2.118 0 002.121-2.115 2.118 2.118 0 00-2.121-2.116 2.118 2.118 0 00-2.121 2.116c0 1.168.949 2.115 2.121 2.115zm8.568 0a2.119 2.119 0 002.122-2.115c0-1.169-.95-2.116-2.122-2.116a2.119 2.119 0 00-2.121 2.116c0 1.168.95 2.115 2.121 2.115zm8.649 0a2.118 2.118 0 002.121-2.115c0-1.169-.95-2.116-2.121-2.116a2.119 2.119 0 00-2.122 2.116c0 1.168.95 2.115 2.122 2.115zm8.566 0a2.118 2.118 0 002.121-2.115 2.118 2.118 0 00-2.121-2.116 2.119 2.119 0 00-2.121 2.116c0 1.168.95 2.115 2.121 2.115zm8.649 0a2.118 2.118 0 002.121-2.115c0-1.169-.95-2.116-2.121-2.116a2.119 2.119 0 00-2.122 2.116c0 1.168.95 2.115 2.122 2.115zm8.566 0a2.118 2.118 0 002.121-2.115 2.118 2.118 0 00-2.121-2.116 2.118 2.118 0 00-2.121 2.116c0 1.168.949 2.115 2.121 2.115zm8.648 0a2.119 2.119 0 002.122-2.115c0-1.169-.95-2.116-2.122-2.116a2.119 2.119 0 00-2.121 2.116c0 1.168.95 2.115 2.121 2.115zm8.567 0a2.118 2.118 0 002.121-2.115c0-1.169-.95-2.116-2.121-2.116a2.118 2.118 0 00-2.121 2.116c0 1.168.949 2.115 2.121 2.115zm8.648 0a2.119 2.119 0 002.122-2.115c0-1.169-.95-2.116-2.122-2.116a2.119 2.119 0 00-2.121 2.116c0 1.168.95 2.115 2.121 2.115zm8.567 0a2.118 2.118 0 002.121-2.115c0-1.169-.95-2.116-2.121-2.116a2.119 2.119 0 00-2.122 2.116c0 1.168.95 2.115 2.122 2.115zm8.648 0a2.118 2.118 0 002.121-2.115 2.118 2.118 0 00-2.121-2.116 2.119 2.119 0 00-2.121 2.116c0 1.168.95 2.115 2.121 2.115zm8.569 0a2.118 2.118 0 002.121-2.115c0-1.169-.95-2.116-2.121-2.116a2.119 2.119 0 00-2.122 2.116c0 1.168.95 2.115 2.122 2.115zm-86.077 8.625a2.119 2.119 0 002.122-2.115c0-1.169-.95-2.116-2.122-2.116a2.119 2.119 0 00-2.121 2.116c0 1.168.95 2.115 2.121 2.115zm8.649 0a2.118 2.118 0 002.121-2.115c0-1.169-.95-2.116-2.121-2.116a2.119 2.119 0 00-2.122 2.116c0 1.168.95 2.115 2.122 2.115zm8.566 0a2.118 2.118 0 002.121-2.115 2.118 2.118 0 00-2.121-2.116 2.119 2.119 0 00-2.121 2.116c0 1.168.95 2.115 2.121 2.115zm8.649 0a2.118 2.118 0 002.121-2.115c0-1.169-.95-2.116-2.121-2.116a2.119 2.119 0 00-2.122 2.116c0 1.168.95 2.115 2.122 2.115zm8.566 0a2.118 2.118 0 002.121-2.115 2.118 2.118 0 00-2.121-2.116 2.118 2.118 0 00-2.121 2.116c0 1.168.949 2.115 2.121 2.115zm8.648 0a2.119 2.119 0 002.122-2.115c0-1.169-.95-2.116-2.122-2.116a2.119 2.119 0 00-2.121 2.116c0 1.168.95 2.115 2.121 2.115zm8.567 0a2.118 2.118 0 002.121-2.115c0-1.169-.95-2.116-2.121-2.116a2.118 2.118 0 00-2.121 2.116c0 1.168.949 2.115 2.121 2.115zm8.648 0a2.119 2.119 0 002.122-2.115c0-1.169-.95-2.116-2.122-2.116a2.119 2.119 0 00-2.121 2.116c0 1.168.95 2.115 2.121 2.115zm8.567 0a2.118 2.118 0 002.121-2.115c0-1.169-.95-2.116-2.121-2.116a2.119 2.119 0 00-2.122 2.116c0 1.168.95 2.115 2.122 2.115zm8.648 0a2.118 2.118 0 002.121-2.115 2.118 2.118 0 00-2.121-2.116 2.119 2.119 0 00-2.121 2.116c0 1.168.95 2.115 2.121 2.115zm8.569 0a2.118 2.118 0 002.121-2.115c0-1.169-.95-2.116-2.121-2.116a2.119 2.119 0 00-2.122 2.116c0 1.168.95 2.115 2.122 2.115zm8.648 0a2.118 2.118 0 002.121-2.115 2.118 2.118 0 00-2.121-2.116 2.118 2.118 0 00-2.121 2.116c0 1.168.949 2.115 2.121 2.115zm-68.861 8.543a2.118 2.118 0 002.121-2.115c0-1.169-.95-2.116-2.121-2.116a2.119 2.119 0 00-2.122 2.116c0 1.168.95 2.115 2.122 2.115zm8.566 0a2.118 2.118 0 002.121-2.115 2.118 2.118 0 00-2.121-2.116 2.118 2.118 0 00-2.121 2.116c0 1.168.949 2.115 2.121 2.115zm8.648 0a2.119 2.119 0 002.122-2.115c0-1.169-.95-2.116-2.122-2.116a2.119 2.119 0 00-2.121 2.116c0 1.168.95 2.115 2.121 2.115zm8.567 0a2.118 2.118 0 002.121-2.115c0-1.169-.95-2.116-2.121-2.116a2.118 2.118 0 00-2.121 2.116c0 1.168.949 2.115 2.121 2.115zm8.648 0a2.119 2.119 0 002.122-2.115c0-1.169-.95-2.116-2.122-2.116a2.119 2.119 0 00-2.121 2.116c0 1.168.95 2.115 2.121 2.115zm8.567 0a2.118 2.118 0 002.121-2.115c0-1.169-.95-2.116-2.121-2.116a2.119 2.119 0 00-2.122 2.116c0 1.168.95 2.115 2.122 2.115zm8.648 0a2.118 2.118 0 002.121-2.115 2.118 2.118 0 00-2.121-2.116 2.119 2.119 0 00-2.121 2.116c0 1.168.95 2.115 2.121 2.115zm8.569 0a2.118 2.118 0 002.121-2.115c0-1.169-.95-2.116-2.121-2.116a2.119 2.119 0 00-2.122 2.116c0 1.168.95 2.115 2.122 2.115zm8.648 0a2.118 2.118 0 002.121-2.115 2.118 2.118 0 00-2.121-2.116 2.118 2.118 0 00-2.121 2.116c0 1.168.949 2.115 2.121 2.115zm-51.647 8.625a2.119 2.119 0 002.122-2.115c0-1.169-.95-2.116-2.122-2.116a2.119 2.119 0 00-2.121 2.116c0 1.168.95 2.115 2.121 2.115zm8.567 0a2.118 2.118 0 002.121-2.115c0-1.169-.95-2.116-2.121-2.116a2.118 2.118 0 00-2.121 2.116c0 1.168.949 2.115 2.121 2.115zm8.648 0a2.119 2.119 0 002.122-2.115c0-1.169-.95-2.116-2.122-2.116a2.119 2.119 0 00-2.121 2.116c0 1.168.95 2.115 2.121 2.115zm8.567 0a2.118 2.118 0 002.121-2.115c0-1.169-.95-2.116-2.121-2.116a2.119 2.119 0 00-2.122 2.116c0 1.168.95 2.115 2.122 2.115zm8.648 0a2.118 2.118 0 002.121-2.115 2.118 2.118 0 00-2.121-2.116 2.119 2.119 0 00-2.121 2.116c0 1.168.95 2.115 2.121 2.115zm8.569 0a2.118 2.118 0 002.121-2.115c0-1.169-.95-2.116-2.121-2.116a2.119 2.119 0 00-2.122 2.116c0 1.168.95 2.115 2.122 2.115zm-42.999 8.543a2.119 2.119 0 002.122-2.115 2.12 2.12 0 00-2.122-2.116 2.12 2.12 0 00-2.121 2.116c0 1.168.95 2.115 2.121 2.115zm8.567 0a2.118 2.118 0 002.121-2.115 2.12 2.12 0 00-2.121-2.116 2.119 2.119 0 00-2.121 2.116c0 1.168.949 2.115 2.121 2.115zm8.648 0a2.119 2.119 0 002.122-2.115 2.12 2.12 0 00-2.122-2.116 2.12 2.12 0 00-2.121 2.116c0 1.168.95 2.115 2.121 2.115zm8.567 0a2.118 2.118 0 002.121-2.115 2.12 2.12 0 00-2.121-2.116 2.12 2.12 0 00-2.122 2.116c0 1.168.95 2.115 2.122 2.115zm8.648 0a2.118 2.118 0 002.121-2.115 2.119 2.119 0 00-2.121-2.116 2.12 2.12 0 00-2.121 2.116c0 1.168.95 2.115 2.121 2.115zm8.569 0a2.118 2.118 0 002.121-2.115 2.12 2.12 0 00-2.121-2.116 2.12 2.12 0 00-2.122 2.116c0 1.168.95 2.115 2.122 2.115zM355.156 279a2.119 2.119 0 002.122-2.116c0-1.168-.95-2.115-2.122-2.115a2.118 2.118 0 00-2.121 2.115c0 1.169.95 2.116 2.121 2.116zm8.567 0a2.119 2.119 0 002.121-2.116c0-1.168-.95-2.115-2.121-2.115a2.118 2.118 0 00-2.121 2.115c0 1.169.949 2.116 2.121 2.116zm8.648 0a2.119 2.119 0 002.122-2.116c0-1.168-.95-2.115-2.122-2.115a2.118 2.118 0 00-2.121 2.115c0 1.169.95 2.116 2.121 2.116zm8.567 0a2.119 2.119 0 002.121-2.116c0-1.168-.95-2.115-2.121-2.115a2.119 2.119 0 00-2.122 2.115c0 1.169.95 2.116 2.122 2.116zm8.648 0a2.118 2.118 0 002.121-2.116 2.118 2.118 0 00-2.121-2.115 2.118 2.118 0 00-2.121 2.115c0 1.169.95 2.116 2.121 2.116z" fill="#000"/></svg>