<svg width="80" height="80" fill="none" xmlns="http://www.w3.org/2000/svg"><path d="M80 46.169V29.836a2.1 2.1 0 00-2.094-2.1H62.825c-3.875-11.827-14.962-20.388-28-20.388-16.25 0-29.47 13.3-29.47 29.648 0 2.112.223 4.17.642 6.158H2.666a2.213 2.213 0 00-2.208 2.214c0 1.13.091 2.244.263 3.334-.353.395-.57.915-.57 1.486 0 1.203.1 2.388.291 3.546A2.226 2.226 0 000 55.065c0 8.767 5.207 16.591 13.265 19.933.271.112.558.17.852.17H31.01c.294 0 .581-.058.852-.17a21.428 21.428 0 0010.516-9.345c6.204-1.656 11.61-5.298 15.501-10.21v10.065c-1.63.47-2.933 1.896-3.41 3.739h-.968a1.955 1.955 0 00-1.953 1.953v2.213c0 1.077.876 1.954 1.953 1.954h23.5a1.955 1.955 0 001.952-1.954V71.2A1.955 1.955 0 0077 69.247h-.968c-.477-1.843-1.779-3.27-3.41-3.739V54.682C76.784 54.105 80 50.51 80 46.17zm-37.675-.672a18.956 18.956 0 01-.179 2.461H2.981a18.996 18.996 0 01-.178-2.46h39.522zM30.986 72.824H14.141a19.114 19.114 0 01-6.131-4.087h29.108a19.117 19.117 0 01-6.132 4.087zm8.142-6.43H6a19.263 19.263 0 01-3.656-11.222H29.53a1.172 1.172 0 100-2.344H2.677a19.273 19.273 0 01-.182-2.526h40.137a19.261 19.261 0 01-.182 2.526h-6.67a1.172 1.172 0 100 2.344h7.002a19.262 19.262 0 01-3.655 11.222zm4.585-3.601a21.725 21.725 0 001.414-7.728 2.22 2.22 0 00-.442-1.331 21.67 21.67 0 00.292-3.546c0-.571-.217-1.091-.57-1.486.171-1.09.262-2.204.262-3.334 0-.026-.003-.051-.004-.077a12.903 12.903 0 003.006-8.294c0-3.326-1.254-6.485-3.53-8.896a1.172 1.172 0 10-1.704 1.61 10.57 10.57 0 012.89 7.285 10.56 10.56 0 01-2.081 6.305 2.186 2.186 0 00-.785-.147H26.297a10.557 10.557 0 01-1.973-6.158c0-5.83 4.711-10.574 10.502-10.574.91 0 1.814.117 2.686.348a1.171 1.171 0 10.601-2.264 12.812 12.812 0 00-3.288-.428c-7.083 0-12.845 5.795-12.845 12.918 0 2.23.566 4.326 1.559 6.158H8.399a27.43 27.43 0 01-.7-6.158c0-15.055 12.168-27.304 27.127-27.304 11.73 0 21.743 7.533 25.52 18.044h-7.75a2.1 2.1 0 00-2.094 2.1v16.333a8.607 8.607 0 005.404 7.99 27.235 27.235 0 01-12.193 8.634zm15.338 4.893c.898 0 1.688.626 2.11 1.56h-4.22c.423-.934 1.213-1.56 2.11-1.56zm1.172-2.178V54.682a8.52 8.52 0 005.03-2.605 8.515 8.515 0 005.026 2.605v10.826c-1.631.47-2.934 1.896-3.41 3.739h-3.236c-.476-1.843-1.779-3.27-3.41-3.739zm3.988 7.515H53.892V71.59h10.319v1.433zm12.398-1.433v1.433H66.554V71.59H76.61zm-3.048-2.343h-4.22c.422-.935 1.212-1.56 2.11-1.56.897 0 1.687.625 2.11 1.56zM71.45 52.42a6.175 6.175 0 01-4.807-2.308 8.576 8.576 0 00.957-3.944v-3.982a1.172 1.172 0 10-2.344 0v3.982c0 3.447-2.784 6.252-6.206 6.252-3.422 0-6.206-2.805-6.206-6.252V30.08h12.412v5.857a1.172 1.172 0 102.344 0V30.08h10.055v16.09c0 3.447-2.784 6.252-6.206 6.252zM9.46 15.129c-1.501-.468-1.619-.586-2.086-2.09a1.537 1.537 0 00-1.475-1.086c-.68 0-1.273.437-1.475 1.086-.467 1.504-.584 1.621-2.086 2.09a1.538 1.538 0 00-1.086 1.474c0 .68.436 1.273 1.085 1.475 1.503.469 1.62.586 2.087 2.09.202.65.794 1.086 1.475 1.086.68 0 1.273-.437 1.474-1.086.468-1.504.586-1.621 2.088-2.09a1.538 1.538 0 001.085-1.475c0-.68-.436-1.272-1.085-1.474zM5.9 17.668a3.303 3.303 0 00-1.065-1.064A3.301 3.301 0 005.9 15.54c.282.445.618.782 1.064 1.064A3.301 3.301 0 005.9 17.668z" fill="#fff"/><path d="M76.008 19.447c-1.502-.469-1.619-.586-2.087-2.09a1.537 1.537 0 00-1.474-1.086c-.68 0-1.273.436-1.475 1.086-.468 1.504-.585 1.621-2.087 2.09A1.538 1.538 0 0067.8 20.92c0 .68.436 1.273 1.085 1.475 1.502.468 1.62.586 2.087 2.09.202.65.794 1.086 1.475 1.086.68 0 1.273-.437 1.474-1.086.468-1.505.585-1.622 2.087-2.09a1.538 1.538 0 001.085-1.475c0-.68-.436-1.272-1.085-1.474zm-3.561 2.538a3.304 3.304 0 00-1.064-1.064 3.304 3.304 0 001.064-1.064 3.3 3.3 0 001.064 1.064 3.305 3.305 0 00-1.064 1.064zm-7.803-13.53c-1.889-.589-2.09-.79-2.678-2.68a1.613 1.613 0 00-1.548-1.141c-.714 0-1.336.458-1.548 1.14-.588 1.892-.788 2.092-2.678 2.68a1.615 1.615 0 00-1.139 1.55c0 .713.458 1.335 1.139 1.548 1.89.589 2.09.79 2.678 2.681.212.682.834 1.14 1.548 1.14.714 0 1.336-.458 1.548-1.14.589-1.892.789-2.092 2.678-2.681a1.615 1.615 0 001.14-1.549c0-.713-.459-1.335-1.14-1.548zm-4.226 3.326c-.431-.814-.963-1.346-1.777-1.778.814-.431 1.346-.963 1.777-1.777.431.814.963 1.346 1.777 1.777-.814.432-1.346.963-1.777 1.778z" fill="#fff"/></svg>