<svg width="200" height="200" viewBox="0 0 200 200" fill="none" xmlns="http://www.w3.org/2000/svg">
<path d="M102.673 139.68H148.582V152.859H102.673V139.68Z" fill="#365E7D"/>
<path d="M127.343 152.859H148.582V139.68H128.461L127.343 152.859Z" fill="#2B4D66"/>
<path d="M102.673 197.07H9.66016V90.611L102.673 126.643V197.07Z" fill="#E7ECF6"/>
<path d="M9.66016 90.611V100.154L86.8371 130.05C91.2183 131.748 94.1058 135.963 94.1058 140.661V197.07H102.673V126.643L9.66016 90.611Z" fill="#D8E2F1"/>
<path d="M87.0469 135.049V155.428H25.2852V113.268L46.2187 120.65L66.1133 127.666L87.0469 135.049Z" fill="#80B4FB"/>
<path d="M66.1133 127.666L46.2187 120.65L25.2852 113.268V119.969L37.6832 124.342L57.5777 131.357L74.534 137.338C76.9172 138.178 78.5113 140.43 78.5113 142.958V155.428H87.0469V135.049L66.1133 127.666Z" fill="#61A2F9"/>
<path d="M170.387 168.461L163.945 176.274H140.687L134.246 168.461L138.543 117.828L140.687 92.5121L141.062 88.1035L145.275 80.6058C145.334 79.6492 145.92 78.9144 146.622 78.9144H158.011C158.714 78.9144 159.299 79.6496 159.359 80.6058L163.6 88.4383L166.094 117.828L168.239 143.145L170.387 168.461Z" fill="#C3D5EF"/>
<path d="M168.238 143.145L166.094 117.828L161.94 68.8871C161.859 67.9304 161.059 67.1957 160.099 67.1957H152.966C153.926 67.1957 154.726 67.9308 154.807 68.8871L158.961 117.828L161.105 143.145L163.254 176.274L170.387 168.461L168.238 143.145Z" fill="#B7C8EA"/>
<path d="M163.945 92.5121H140.688L142.693 68.8871C142.774 67.9304 143.574 67.1957 144.534 67.1957H160.1C161.059 67.1957 161.859 67.9308 161.941 68.8871L163.945 92.5121Z" fill="#80B4FB"/>
<path d="M154.808 68.8871L156.813 92.5121H163.946L161.941 68.8871C161.859 67.9304 161.059 67.1957 160.1 67.1957H152.967C153.927 67.1957 154.727 67.9304 154.808 68.8871Z" fill="#61A2F9"/>
<path d="M168.238 143.145H136.395L138.543 117.828H166.094L168.238 143.145Z" fill="#80B4FB"/>
<path d="M168.238 143.145L166.094 117.828H158.961L161.105 143.145H168.238Z" fill="#61A2F9"/>
<path d="M36.6597 177.277H75.6749V197.07H36.6597V177.277Z" fill="#80B4FB"/>
<path d="M67.4175 177.278H75.6745V197.071H67.4175V177.278Z" fill="#61A2F9"/>
<path d="M190.34 197.07H102.673V168.462H184.729C187.828 168.462 190.34 170.974 190.34 174.073V197.07Z" fill="#E7ECF6"/>
<path d="M184.729 168.462H176.185C179.283 168.462 181.795 170.974 181.795 174.073V197.07H190.34V174.073C190.34 170.974 187.828 168.462 184.729 168.462Z" fill="#D8E2F1"/>
<path d="M152.691 23.2223H162.837C167.108 23.2223 170.582 26.6969 170.582 30.9676V35.084C170.582 39.3551 167.108 42.8297 162.837 42.8297C157.144 42.8297 152.512 47.4613 152.512 53.1547V57.4363C152.512 59.0543 153.823 60.366 155.442 60.366C157.06 60.366 158.371 59.0543 158.371 57.4363V53.1547C158.371 50.6926 160.375 48.6891 162.837 48.6891C170.339 48.6891 176.442 42.5859 176.442 35.084V30.9676C176.442 23.466 170.339 17.3629 162.837 17.3629H152.691C150.167 17.3629 148.113 15.3094 148.113 12.7855V2.92969C148.113 1.31172 146.802 0 145.184 0C143.565 0 142.254 1.31172 142.254 2.92969V12.7852C142.254 18.5402 146.936 23.2223 152.691 23.2223Z" fill="black"/>
<path d="M137.682 46.2348C139.675 46.2348 141.296 47.8559 141.296 49.8484V54.6145C141.296 56.2324 142.607 57.5442 144.225 57.5442C145.844 57.5442 147.155 56.2324 147.155 54.6145V49.8484C147.155 44.625 142.906 40.3754 137.682 40.3754C135.69 40.3754 134.069 38.7543 134.069 36.7621V30.409C134.069 28.791 132.758 27.4793 131.139 27.4793C129.521 27.4793 128.209 28.791 128.209 30.409V36.7621C128.209 41.9852 132.459 46.2348 137.682 46.2348Z" fill="black"/>
<path d="M159.348 11.4562C160.967 11.4562 162.278 10.1445 162.278 8.52651V2.95581C162.278 1.33784 160.967 0.026123 159.348 0.026123C157.73 0.026123 156.418 1.33784 156.418 2.95581V8.52651C156.418 10.1445 157.73 11.4562 159.348 11.4562Z" fill="black"/>
<path d="M119.062 176.68C117.443 176.68 116.132 177.992 116.132 179.61V182.375C116.132 183.994 117.443 185.305 119.062 185.305C120.68 185.305 121.991 183.994 121.991 182.375V179.61C121.991 177.992 120.679 176.68 119.062 176.68Z" fill="black"/>
<path d="M137.358 176.68C135.74 176.68 134.429 177.992 134.429 179.61V182.375C134.429 183.994 135.74 185.305 137.358 185.305C138.977 185.305 140.288 183.994 140.288 182.375V179.61C140.288 177.992 138.976 176.68 137.358 176.68Z" fill="black"/>
<path d="M155.655 176.68C154.037 176.68 152.726 177.992 152.726 179.61V182.375C152.726 183.994 154.037 185.305 155.655 185.305C157.274 185.305 158.585 183.994 158.585 182.375V179.61C158.585 177.992 157.273 176.68 155.655 176.68Z" fill="black"/>
<path d="M173.952 176.68C172.333 176.68 171.022 177.992 171.022 179.61V182.375C171.022 183.994 172.333 185.305 173.952 185.305C175.57 185.305 176.881 183.994 176.881 182.375V179.61C176.881 177.992 175.57 176.68 173.952 176.68Z" fill="black"/>
<path d="M197.07 194.141H193.27V174.072C193.27 169.363 189.439 165.532 184.73 165.532H173.079C173.075 165.48 164.874 68.7996 164.86 68.6402C164.653 66.1875 162.562 64.266 160.1 64.266H144.534C142.032 64.266 139.985 66.1461 139.773 68.6394C130.241 181.064 139.963 66.4011 133.996 136.751H105.603V126.643C105.603 125.433 104.859 124.348 103.732 123.911L98.2219 121.777C96.7133 121.191 95.016 121.941 94.4316 123.45C93.8473 124.958 94.5965 126.655 96.1051 127.24L99.7434 128.65V194.141H78.6039V177.277C78.6039 175.659 77.2922 174.348 75.6742 174.348H36.6594C35.0414 174.348 33.7297 175.659 33.7297 177.277V194.141H12.5898V94.8879L84.3914 122.702C85.9004 123.288 87.5973 122.537 88.1816 121.029C88.766 119.52 88.0168 117.823 86.5078 117.239L31.5484 95.9484V74.9539C31.5484 73.3359 30.2367 72.0242 28.6187 72.0242C27.0008 72.0242 25.6891 73.3359 25.6891 74.9539V93.6785L10.7188 87.8793C9.81836 87.5301 8.80195 87.6476 8.00469 88.1941C7.20742 88.7402 6.73086 89.6445 6.73086 90.6113V194.141H2.92969C1.31172 194.141 0 195.452 0 197.07C0 198.689 1.31172 200 2.92969 200H197.07C198.689 200 200 198.689 200 197.07C200 195.452 198.689 194.141 197.07 194.141ZM105.603 165.532V155.789H132.381L131.554 165.532H105.603ZM167.198 165.532H137.435C137.871 160.392 138.807 149.35 139.085 146.074H146.459C148.078 146.074 149.389 144.763 149.389 143.145C149.389 141.526 148.078 140.215 146.459 140.215H139.582C139.732 138.445 141.081 122.546 141.232 120.758H163.4L165.05 140.215H158.173C156.555 140.215 155.243 141.526 155.243 143.145C155.243 144.763 156.555 146.074 158.173 146.074H165.547L167.198 165.532ZM162.903 114.899H141.73L143.38 95.4418H161.253L162.903 114.899ZM145.528 70.1254H159.105L160.756 89.5824H143.877L145.528 70.1254ZM133.5 142.61L132.879 149.929H105.603V142.61H133.5ZM39.5891 194.141V180.207H72.7449V194.141H39.5891ZM105.603 194.141V171.391H184.729C186.207 171.391 187.41 172.594 187.41 174.072V194.141H105.603Z" fill="black"/>
<path d="M26.2598 110.505C25.3633 110.188 24.3687 110.327 23.593 110.876C22.8168 111.425 22.3559 112.317 22.3559 113.268V130.041C22.3559 131.659 23.6676 132.97 25.2855 132.97C26.9035 132.97 28.2152 131.659 28.2152 130.041V117.407L43.2895 122.723V152.498H28.2148V141.754C28.2148 140.136 26.9031 138.825 25.2852 138.825C23.6672 138.825 22.3555 140.136 22.3555 141.754V155.427C22.3555 157.046 23.6672 158.357 25.2852 158.357H87.0469C88.6648 158.357 89.9766 157.046 89.9766 155.427V135.048C89.9766 133.806 89.193 132.698 88.0215 132.286L26.2598 110.505ZM49.1484 124.79L63.1836 129.739V152.498H49.1484V124.79ZM84.1172 152.498H69.043V131.806L84.1172 137.122V152.498Z" fill="black"/>
</svg>
