<svg width="178" height="200" viewBox="0 0 178 200" fill="none" xmlns="http://www.w3.org/2000/svg">
<path d="M94.9943 2.93169C73.5057 3.08989 54.0635 11.8668 39.9541 25.9762C25.7193 40.2153 16.9111 59.8809 16.9111 81.6083V97.459C16.9111 103.077 21.4654 107.632 27.0838 107.632C32.7021 107.632 37.2564 103.077 37.2564 97.459V91.8063C37.2564 86.1872 41.8115 81.6317 47.4311 81.6317C53.0502 81.6317 57.6057 86.1868 57.6057 91.8063V103.779C57.6057 109.398 62.1607 113.954 67.7803 113.954C73.3998 113.954 77.9549 109.399 77.9549 103.779V84.3868C77.9549 74.6208 85.9443 66.3758 95.71 66.443C100.53 66.4762 104.892 68.445 108.058 71.6063C111.247 74.7989 113.222 79.2086 113.222 84.0782V113.954H174.265V82.311C174.264 38.7126 138.592 2.6106 94.9943 2.93169Z" fill="#01D0FB"/>
<path d="M37.2745 81.6317C31.6554 81.6317 27.0999 86.1868 27.0999 91.8063V97.459C27.0999 101.227 25.0499 104.514 22.0054 106.272C23.5003 107.135 25.2331 107.631 27.0835 107.631C32.7015 107.631 37.2562 103.077 37.2562 97.4587V91.8059C37.2562 88.0368 39.3073 84.7489 42.3526 82.9907C40.8577 82.1278 39.1245 81.6317 37.2745 81.6317Z" fill="#01C0FA"/>
<path d="M85.5532 66.443C75.7876 66.3758 67.7981 74.6212 67.7981 84.3868V103.779C67.7981 107.548 65.747 110.836 62.7017 112.594C64.1966 113.457 65.9298 113.954 67.7798 113.954C73.3989 113.954 77.9544 109.399 77.9544 103.779V84.3868C77.9544 76.4106 83.2849 69.4512 90.5591 67.2044C88.9728 66.7227 87.2939 66.4551 85.5532 66.443Z" fill="#01C0FA"/>
<path d="M94.9945 2.93169C93.4754 2.94302 91.968 3.002 90.4707 3.0981C131.466 5.76528 164.109 40.6063 164.109 82.311V113.954H174.265V82.311C174.264 38.7126 138.592 2.6106 94.9945 2.93169Z" fill="#01C0FA"/>
<path d="M69.7501 197.07H17.8552C15.6864 197.07 13.9282 195.312 13.9282 193.143V139.575H73.6767V193.144C73.6767 195.312 71.9188 197.07 69.7501 197.07Z" fill="white"/>
<path d="M63.1296 139.575V193.144C63.1296 195.313 61.3714 197.071 59.2026 197.071H69.7495C71.9183 197.071 73.6765 195.313 73.6765 193.144V139.575H63.1296Z" fill="white"/>
<path d="M43.8022 166.493C47.8786 166.493 51.1831 163.189 51.1831 159.113C51.1831 155.036 47.8786 151.732 43.8022 151.732C39.7259 151.732 36.4214 155.036 36.4214 159.113C36.4214 163.189 39.7259 166.493 43.8022 166.493Z" fill="#DDEBFD"/>
<path d="M79.0263 126.882H8.57861C6.05674 126.882 4.01221 128.927 4.01221 131.448V135.008C4.01221 137.53 6.05674 139.574 8.57861 139.574H79.0263C81.5481 139.574 83.5927 137.53 83.5927 135.008V131.448C83.5927 128.927 81.5481 126.882 79.0263 126.882Z" fill="#5392F9"/>
<path d="M79.0264 126.882H68.4795C71.0014 126.882 73.0459 128.927 73.0459 131.449V135.008C73.0459 137.531 71.0014 139.575 68.4795 139.575H79.0264C81.5482 139.575 83.5928 137.53 83.5928 135.008V131.449C83.5928 128.927 81.5482 126.882 79.0264 126.882Z" fill="#4071F7"/>
<path d="M113.223 105.437V124.937H174.266V105.437C174.266 104.359 173.391 103.484 172.312 103.484H115.176C114.097 103.484 113.223 104.359 113.223 105.437Z" fill="#DDEBFD"/>
<path d="M172.312 103.484H162.156C163.235 103.484 164.109 104.359 164.109 105.437V124.937H174.266V105.437C174.266 104.359 173.391 103.484 172.312 103.484Z" fill="#BED9FD"/>
<path d="M113.223 124.937H174.266V139.353H113.223V124.937Z" fill="white"/>
<path d="M164.109 124.937H174.266V139.353H164.109V124.937Z" fill="white"/>
<path d="M113.223 139.353V151.847C113.223 157.149 123.477 162.428 132.586 165.314C134.647 165.967 136.051 167.872 136.051 170.034V191.131C136.051 194.411 138.711 197.07 141.991 197.07H145.498C148.778 197.07 151.437 194.411 151.437 191.131V170.034C151.437 167.872 152.841 165.966 154.903 165.314C164.011 162.428 174.266 157.149 174.266 151.847C174.266 140.79 174.266 139.353 174.266 139.353H113.223Z" fill="#5392F9"/>
<path d="M164.109 139.353V151.847C164.109 157.149 153.855 162.428 144.746 165.314C142.685 165.967 141.28 167.872 141.28 170.034V191.131C141.28 193.179 140.243 194.986 138.666 196.053C139.614 196.695 140.758 197.07 141.99 197.07H145.497C148.778 197.07 151.437 194.411 151.437 191.131V170.034C151.437 167.872 152.841 165.967 154.902 165.314C164.011 162.428 174.265 157.149 174.265 151.847C174.265 140.79 174.265 139.353 174.265 139.353H164.109Z" fill="#4071F7"/>
<path d="M95.571 21.4855C111.499 21.4855 126.557 27.8437 137.972 39.3898C149.41 50.9582 155.709 66.2015 155.709 82.3113C155.709 83.9297 157.021 85.241 158.639 85.241C160.257 85.241 161.568 83.9297 161.568 82.3113C161.568 64.6488 154.668 47.9426 142.139 35.2699C129.615 22.6023 113.077 15.6262 95.571 15.6262H95.1089C93.4909 15.6262 92.1792 16.9375 92.1792 18.5558C92.1792 20.1742 93.4909 21.4855 95.1089 21.4855H95.571Z" fill="black"/>
<path d="M79.0261 123.953H8.57842C4.44482 123.953 1.08232 127.315 1.08232 131.449V135.008C1.08232 139.141 4.44521 142.504 8.57842 142.504H10.9983V156.183H3.73584C2.11787 156.183 0.806152 157.494 0.806152 159.113C0.806152 160.731 2.11787 162.042 3.73584 162.042H10.9983V193.143C10.9983 196.924 14.0741 200 17.855 200H69.7499C73.5308 200 76.6065 196.924 76.6065 193.143V173.055C76.6065 171.437 75.2948 170.125 73.6769 170.125C72.0589 170.125 70.7472 171.437 70.7472 173.055V193.143C70.7472 193.693 70.2999 194.141 69.7499 194.141H17.855C17.305 194.141 16.8577 193.693 16.8577 193.143V162.042H33.9183C35.1839 166.304 39.1347 169.423 43.8022 169.423C49.4874 169.423 54.1128 164.798 54.1128 159.113C54.1128 153.428 49.4874 148.802 43.8022 148.802C39.1347 148.802 35.1839 151.921 33.9183 156.183H16.8577V142.504H70.7468V159.384C70.7468 161.002 72.0585 162.313 73.6765 162.313C75.2944 162.313 76.6061 161.002 76.6061 159.384V142.504H79.0257C83.1593 142.504 86.5218 139.142 86.5218 135.008V131.449C86.5222 127.315 83.1593 123.953 79.0261 123.953ZM43.8022 154.662C46.2565 154.662 48.2534 156.658 48.2534 159.113C48.2534 161.567 46.2565 163.564 43.8022 163.564C41.3479 163.564 39.3511 161.568 39.3511 159.113C39.3515 156.658 41.3479 154.662 43.8022 154.662ZM80.6628 135.008C80.6628 135.911 79.9284 136.645 79.0261 136.645H8.57842C7.67568 136.645 6.9417 135.91 6.9417 135.008V131.449C6.9417 130.546 7.67607 129.812 8.57842 129.812H79.0257C79.9284 129.812 80.6624 130.547 80.6624 131.449V135.008H80.6628Z" fill="black"/>
<path d="M177.193 82.3109C177.193 71.1703 174.977 60.3309 170.607 50.0938C166.385 40.2059 160.36 31.3359 152.699 23.7309C137.124 8.26993 116.619 -0.172651 94.9725 0.00273985C73.4119 0.161724 53.1373 8.6504 37.8818 23.9051C35.76 26.0281 33.7346 28.2898 31.8619 30.6281C30.8506 31.891 31.0545 33.7348 32.3174 34.7465C33.5807 35.7574 35.424 35.5535 36.4353 34.291C38.1744 32.1195 40.0553 30.0188 42.0256 28.0484C56.185 13.8887 75.0041 6.00938 95.0158 5.86211C95.2033 5.86055 95.3877 5.85977 95.5748 5.85977C115.445 5.85977 134.248 13.6707 148.572 27.8891C163.251 42.4602 171.335 61.7875 171.335 82.3109V100.554H131.776V84.0777C131.776 74.4176 128.015 65.332 121.186 58.4945C120.042 57.3492 118.187 57.3488 117.042 58.4918C115.897 59.6356 115.896 61.4902 117.04 62.6348C122.764 68.366 125.917 75.9813 125.917 84.0774V100.554H116.151V84.0774C116.151 78.5871 114.013 73.4231 110.128 69.5332C106.278 65.6883 101.165 63.5504 95.7299 63.5129C90.3209 63.4719 85.1803 65.5996 81.26 69.4934C77.2975 73.4285 75.0252 78.8574 75.0252 84.3867V103.779C75.0252 107.774 71.7752 111.023 67.7803 111.023C63.7854 111.023 60.5357 107.774 60.5357 103.779V91.8059C60.5357 84.5801 54.6572 78.7016 47.4314 78.7016C40.2057 78.7016 34.3275 84.5801 34.3275 91.8059V97.459C34.3275 101.453 31.0783 104.702 27.0846 104.702C23.0908 104.702 19.842 101.453 19.842 97.459V81.6082C19.842 68.6531 23.1686 55.8688 29.4623 44.6367C30.2533 43.2254 29.7502 41.4398 28.3389 40.6488C26.9268 39.8582 25.1416 40.3609 24.351 41.7727C17.5666 53.8777 13.9814 67.6524 13.9814 81.6086V97.4594C13.9814 104.684 19.8592 110.561 27.0834 110.561C34.308 110.561 40.1857 104.684 40.1857 97.4594V91.8063C40.1857 87.8113 43.4357 84.5613 47.4303 84.5613C51.4252 84.5613 54.6752 87.8113 54.6752 91.8063V103.779C54.6752 111.005 60.5537 116.883 67.7791 116.883C75.0049 116.883 80.8834 111.005 80.8834 103.779V84.3871C80.8834 80.4078 82.5252 76.4945 85.3881 73.6516C88.1928 70.8664 91.8607 69.3496 95.6889 69.3731C99.5756 69.3996 103.233 70.9293 105.984 73.6774C108.762 76.4582 110.291 80.152 110.291 84.0785C110.292 98.5941 110.293 136.048 110.292 151.847C110.292 155.355 112.859 158.759 117.921 161.962C121.55 164.259 126.444 166.442 131.7 168.107C132.549 168.376 133.12 169.15 133.12 170.034V191.131C133.12 196.022 137.099 200 141.99 200H145.497C150.388 200 154.366 196.021 154.366 191.131V170.034C154.366 169.15 154.937 168.376 155.787 168.107C161.043 166.441 165.937 164.259 169.566 161.962C174.628 158.759 177.194 155.355 177.194 151.847C177.194 151.886 177.195 136.623 177.193 82.3109ZM116.152 127.866H171.335V136.423H116.152V127.866ZM171.334 106.414C171.334 106.458 171.335 121.95 171.335 122.007H116.152V106.414H171.334ZM171.335 151.847C171.335 152.843 170.047 154.723 166.432 157.011C163.216 159.047 158.807 161.004 154.017 162.521C150.721 163.565 148.507 166.584 148.507 170.034V191.131C148.507 192.791 147.156 194.141 145.497 194.141H141.99C140.33 194.141 138.98 192.791 138.98 191.131V170.034C138.98 166.584 136.765 163.565 133.47 162.521C128.68 161.003 124.271 159.046 121.054 157.011C117.44 154.723 116.152 152.843 116.152 151.847V142.283H171.335V151.847Z" fill="black"/>
</svg>
