<svg width="200" height="199" viewBox="0 0 200 199" fill="none" xmlns="http://www.w3.org/2000/svg">
<path d="M65.6223 146.029C65.6223 133.359 75.8938 123.087 88.5641 123.087C88.5895 123.087 88.6141 123.089 88.6395 123.089V69.4195L84.018 74.041C83.2188 74.8402 81.9434 74.9304 81.0535 74.2336C78.5152 72.2468 76.2254 69.957 74.2387 67.4187C73.5418 66.5285 73.632 65.2535 74.4313 64.4543L80.1254 58.7601C80.827 58.0586 80.975 56.9859 80.5137 56.1074C79.7293 54.6144 79.0762 53.0422 78.5676 51.4058C78.273 50.459 77.4098 49.8058 76.4184 49.8058H68.3617C67.2316 49.8058 66.2664 48.9687 66.1297 47.8472C65.9375 46.2672 65.8375 44.659 65.8375 43.0269C65.8375 42.9527 65.8406 42.8793 65.841 42.8051H21.9441C20.9082 42.8051 19.9145 43.2168 19.182 43.9492L4.07383 59.0574C3.34141 59.7898 2.92969 60.7836 2.92969 61.8195V146.248C2.92969 148.405 4.67852 150.154 6.83594 150.154H65.9996C65.7562 148.815 65.6223 147.438 65.6223 146.029Z" fill="white"/>
<path d="M19.1406 146.248V61.8195C19.1406 60.7836 19.5523 59.7898 20.2848 59.0574L35.393 43.9492C36.1254 43.2168 37.1191 42.8051 38.1551 42.8051H21.9441C20.9082 42.8051 19.9145 43.2168 19.182 43.9492L4.07383 59.0574C3.34141 59.7898 2.92969 60.7836 2.92969 61.8195V146.248C2.92969 148.405 4.67852 150.154 6.83594 150.154H23.0469C20.8895 150.154 19.1406 148.405 19.1406 146.248Z" fill="white"/>
<path d="M88.5639 168.971C101.234 168.971 111.506 158.699 111.506 146.029C111.506 133.358 101.234 123.087 88.5639 123.087C75.8935 123.087 65.6221 133.358 65.6221 146.029C65.6221 158.699 75.8935 168.971 88.5639 168.971Z" fill="#01D0FB"/>
<path d="M78.726 146.029C78.726 135.636 85.6389 126.862 95.1158 124.042C93.0393 123.424 90.8412 123.087 88.5639 123.087C75.8936 123.087 65.6221 133.359 65.6221 146.029C65.6221 158.699 75.8936 168.971 88.5639 168.971C90.8412 168.971 93.0393 168.634 95.1158 168.016C85.6389 165.196 78.726 156.422 78.726 146.029Z" fill="#01C0FA"/>
<path d="M130.765 27.2933L136.459 21.5992C137.258 20.7999 137.349 19.5246 136.652 18.6347C134.665 16.0964 132.375 13.8066 129.837 11.8199C128.947 11.1234 127.672 11.2132 126.873 12.0124L121.178 17.7066C120.477 18.4081 119.404 18.5562 118.526 18.0949C117.033 17.3105 115.46 16.6574 113.824 16.1488C112.877 15.8542 112.224 14.991 112.224 13.9996V5.94252C112.224 4.81245 111.387 3.84721 110.266 3.71049C108.685 3.5183 107.077 3.4183 105.445 3.4183C103.813 3.4183 102.205 3.51791 100.625 3.71049C99.503 3.84721 98.6663 4.81245 98.6663 5.94252V13.9992C98.6663 14.9906 98.0132 15.8542 97.0663 16.1484C95.43 16.6574 93.8577 17.3105 92.3647 18.0945C91.4862 18.5558 90.4136 18.4078 89.712 17.7062L84.0179 12.0121C83.2186 11.2128 81.9433 11.1226 81.0534 11.8195C78.5151 13.8062 76.2253 16.096 74.2386 18.6343C73.5421 19.5246 73.6319 20.7996 74.4312 21.5988L80.1253 27.2929C80.8269 27.9945 80.9749 29.0671 80.5136 29.9457C79.7292 31.4386 79.0761 33.0109 78.5675 34.6472C78.2729 35.5941 77.4097 36.2472 76.4183 36.2472H68.3616C67.2315 36.2472 66.2663 37.0843 66.1296 38.2058C65.9374 39.7859 65.8374 41.3941 65.8374 43.0261C65.8374 44.6581 65.937 46.2663 66.1296 47.8464C66.2663 48.9683 67.2315 49.805 68.3616 49.805H76.4183C77.4097 49.805 78.2733 50.4581 78.5675 51.405C79.0765 53.0414 79.7296 54.6136 80.5136 56.1066C80.9749 56.9851 80.8269 58.0578 80.1253 58.7593L74.4312 64.4535C73.6319 65.2527 73.5417 66.5281 74.2386 67.4179C76.2253 69.9562 78.5151 72.246 81.0534 74.2327C81.9436 74.9296 83.2186 74.8394 84.0179 74.0402L89.712 68.346C90.4136 67.6445 91.4862 67.4964 92.3647 67.9578C93.8577 68.7421 95.43 69.3953 97.0663 69.9038C98.0132 70.1984 98.6663 71.0617 98.6663 72.0531V80.1097C98.6663 81.2398 99.5034 82.205 100.625 82.3417C102.205 82.5339 103.813 82.6339 105.445 82.6339C107.077 82.6339 108.685 82.5343 110.266 82.3417C111.387 82.205 112.224 81.2398 112.224 80.1097V72.0531C112.224 71.0617 112.877 70.198 113.824 69.9038C115.46 69.3949 117.033 68.7417 118.526 67.9578C119.404 67.4964 120.477 67.6445 121.178 68.346L126.873 74.0402C127.672 74.8394 128.947 74.9296 129.837 74.2327C132.375 72.246 134.665 69.9562 136.652 67.4179C137.349 66.5277 137.258 65.2527 136.459 64.4535L130.765 58.7593C130.064 58.0578 129.916 56.9851 130.377 56.1066C131.161 54.6136 131.814 53.0414 132.323 51.405C132.617 50.4581 133.481 49.805 134.472 49.805H142.529C143.659 49.805 144.624 48.9679 144.761 47.8464C144.953 46.2663 145.053 44.6581 145.053 43.0261C145.053 41.3941 144.953 39.7859 144.761 38.2058C144.624 37.0839 143.659 36.2472 142.529 36.2472H134.473C133.481 36.2472 132.617 35.5941 132.323 34.6472C131.814 33.0109 131.161 31.4386 130.377 29.9457C129.916 29.0679 130.064 27.9949 130.765 27.2933Z" fill="#4EAAF5"/>
<path d="M99.1397 62.7296C90.8062 60.0566 84.7562 52.2363 84.7562 43.0265C84.7562 33.8167 90.8065 25.9964 99.1401 23.3234C102.618 19.3066 107.138 16.2164 112.283 14.4777C112.248 14.3222 112.224 14.1632 112.224 13.9988V5.94252C112.224 4.81245 111.387 3.84721 110.266 3.71049C108.685 3.5183 107.077 3.4183 105.445 3.4183C103.813 3.4183 102.205 3.51791 100.625 3.71049C99.503 3.84721 98.6663 4.81245 98.6663 5.94252V13.9992C98.6663 14.9906 98.0132 15.8542 97.0663 16.1484C95.43 16.6574 93.8577 17.3105 92.3647 18.0945C91.4862 18.5558 90.4136 18.4078 89.712 17.7062L84.0179 12.0121C83.2187 11.2128 81.9433 11.1226 81.0534 11.8195C78.5151 13.8062 76.2253 16.096 74.2386 18.6343C73.5417 19.5246 73.6319 20.7996 74.4312 21.5988L80.1253 27.2929C80.8269 27.9945 80.9749 29.0671 80.5136 29.9457C79.7292 31.4386 79.0761 33.0109 78.5675 34.6472C78.2729 35.5941 77.4097 36.2472 76.4183 36.2472H68.3616C67.2315 36.2472 66.2663 37.0843 66.1296 38.2058C65.9374 39.7859 65.8374 41.3941 65.8374 43.0261C65.8374 44.6581 65.937 46.2663 66.1296 47.8464C66.2663 48.9683 67.2315 49.805 68.3616 49.805H76.4183C77.4097 49.805 78.2733 50.4581 78.5675 51.405C79.0765 53.0414 79.7296 54.6136 80.5136 56.1066C80.9749 56.9851 80.8269 58.0578 80.1253 58.7593L74.4312 64.4535C73.6319 65.2527 73.5417 66.5281 74.2386 67.4179C76.2253 69.9562 78.5151 72.246 81.0534 74.2327C81.9436 74.9296 83.2187 74.8394 84.0179 74.0402L89.712 68.346C90.4136 67.6445 91.4862 67.4964 92.3647 67.9578C93.8577 68.7421 95.43 69.3953 97.0663 69.9038C98.0132 70.1984 98.6663 71.0617 98.6663 72.0531V80.1097C98.6663 81.2398 99.5034 82.205 100.625 82.3417C102.205 82.5339 103.813 82.6339 105.445 82.6339C107.077 82.6339 108.685 82.5343 110.266 82.3417C111.387 82.205 112.224 81.2398 112.224 80.1097V72.0531C112.224 71.8886 112.248 71.7296 112.283 71.5742C107.138 69.8367 102.618 66.7464 99.1397 62.7296Z" fill="#1092FD"/>
<path d="M105.445 60.7855C115.253 60.7855 123.204 52.8345 123.204 43.0265C123.204 33.2185 115.253 25.2675 105.445 25.2675C95.637 25.2675 87.686 33.2185 87.686 43.0265C87.686 52.8345 95.637 60.7855 105.445 60.7855Z" fill="#80B4FB"/>
<path d="M97.6559 43.0265C97.6559 34.9499 103.05 28.137 110.43 25.982C108.848 25.5198 107.176 25.2675 105.445 25.2675C95.6363 25.2675 87.6855 33.2187 87.6855 43.0265C87.6855 52.8343 95.6367 60.7855 105.445 60.7855C107.176 60.7855 108.848 60.5331 110.43 60.071C103.05 57.9159 97.6559 51.1034 97.6559 43.0265Z" fill="#539CFF"/>
<path d="M105.445 49.1922C108.851 49.1922 111.611 46.4317 111.611 43.0265C111.611 39.6213 108.851 36.8609 105.445 36.8609C102.04 36.8609 99.2798 39.6213 99.2798 43.0265C99.2798 46.4317 102.04 49.1922 105.445 49.1922Z" fill="white"/>
<path d="M195.117 122.565H128.258C127.179 122.565 126.305 121.69 126.305 120.612V99.2444C126.305 98.1659 127.179 97.2913 128.258 97.2913H195.117C196.196 97.2913 197.07 98.1659 197.07 99.2444V120.612C197.07 121.691 196.196 122.565 195.117 122.565Z" fill="#01D0FB"/>
<path d="M139.453 120.612V99.2444C139.453 98.1659 140.328 97.2913 141.406 97.2913H128.258C127.179 97.2913 126.305 98.1659 126.305 99.2444V120.612C126.305 121.69 127.179 122.565 128.258 122.565H141.406C140.328 122.565 139.453 121.691 139.453 120.612Z" fill="#01C0FA"/>
<path d="M195.117 159.573H128.258C127.179 159.573 126.305 158.698 126.305 157.619V136.252C126.305 135.174 127.179 134.299 128.258 134.299H195.117C196.196 134.299 197.07 135.174 197.07 136.252V157.619C197.07 158.698 196.196 159.573 195.117 159.573Z" fill="#80B4FB"/>
<path d="M139.453 157.619V136.252C139.453 135.174 140.328 134.299 141.406 134.299H128.258C127.179 134.299 126.305 135.174 126.305 136.252V157.619C126.305 158.698 127.179 159.573 128.258 159.573H141.406C140.328 159.573 139.453 158.698 139.453 157.619Z" fill="#539CFF"/>
<path d="M195.117 196.58H128.258C127.179 196.58 126.305 195.705 126.305 194.627V173.26C126.305 172.181 127.179 171.307 128.258 171.307H195.117C196.196 171.307 197.07 172.181 197.07 173.26V194.627C197.07 195.706 196.196 196.58 195.117 196.58Z" fill="#4EAAF5"/>
<path d="M139.453 194.627V173.26C139.453 172.181 140.328 171.307 141.406 171.307H128.258C127.179 171.307 126.305 172.181 126.305 173.26V194.627C126.305 195.705 127.179 196.58 128.258 196.58H141.406C140.328 196.58 139.453 195.706 139.453 194.627Z" fill="#1092FD"/>
<path d="M158.758 48.664V49.2535C158.758 50.8714 160.069 52.1832 161.688 52.1832C163.306 52.1832 164.617 50.8714 164.617 49.2535V48.664C164.617 46.5964 163.885 44.5874 162.555 43.007C161.513 41.7695 159.665 41.6097 158.427 42.6515C157.189 43.6933 157.03 45.5413 158.072 46.7796C158.384 47.1519 158.758 47.7808 158.758 48.664Z" fill="black"/>
<path d="M161.688 70.5425C160.069 70.5425 158.758 71.8543 158.758 73.4722V78.1597C158.758 79.7777 160.069 81.0894 161.688 81.0894C163.306 81.0894 164.617 79.7777 164.617 78.1597V73.4722C164.617 71.8543 163.306 70.5425 161.688 70.5425Z" fill="black"/>
<path d="M164.617 59.0191C164.617 57.4011 163.306 56.0894 161.688 56.0894C160.069 56.0894 158.758 57.4011 158.758 59.0191V63.7066C158.758 65.3246 160.069 66.6363 161.688 66.6363C163.306 66.6363 164.617 65.3246 164.617 63.7066V59.0191Z" fill="black"/>
<path d="M114.062 181.014H109.375C107.757 181.014 106.445 182.325 106.445 183.943C106.445 185.561 107.757 186.873 109.375 186.873H114.062C115.681 186.873 116.992 185.561 116.992 183.943C116.992 182.325 115.681 181.014 114.062 181.014Z" fill="black"/>
<path d="M99.6094 181.014H94.9219C93.3039 181.014 91.9922 182.325 91.9922 183.943C91.9922 185.561 93.3039 186.873 94.9219 186.873H99.6094C101.228 186.873 102.539 185.561 102.539 183.943C102.539 182.325 101.228 181.014 99.6094 181.014Z" fill="black"/>
<path d="M85.1562 181.014H80.4688C78.8508 181.014 77.5391 182.325 77.5391 183.943C77.5391 185.561 78.8508 186.873 80.4688 186.873H85.1562C86.7742 186.873 88.0859 185.561 88.0859 183.943C88.0859 182.325 86.7742 181.014 85.1562 181.014Z" fill="black"/>
<path d="M70.7031 181.014H66.0156C64.3977 181.014 63.0859 182.325 63.0859 183.943C63.0859 185.561 64.3977 186.873 66.0156 186.873H70.7031C72.3211 186.873 73.6328 185.561 73.6328 183.943C73.6328 182.325 72.3211 181.014 70.7031 181.014Z" fill="black"/>
<path d="M57.4626 180.782C56.7376 180.473 56.1587 179.874 55.8751 179.139C55.2911 177.63 53.5946 176.88 52.086 177.463C50.577 178.047 49.8262 179.743 50.4098 181.252C51.2606 183.453 52.9938 185.246 55.1649 186.171C55.5395 186.331 55.9294 186.407 56.3126 186.407C57.4513 186.407 58.5345 185.739 59.0091 184.625C59.6434 183.137 58.9513 181.416 57.4626 180.782Z" fill="black"/>
<path d="M52.75 173.409C54.368 173.409 55.6797 172.097 55.6797 170.479V165.792C55.6797 164.174 54.368 162.862 52.75 162.862C51.132 162.862 49.8203 164.174 49.8203 165.792V170.479C49.8203 172.098 51.132 173.409 52.75 173.409Z" fill="black"/>
<path d="M66.1003 67.2828H25.4683C23.8503 67.2828 22.5386 68.5945 22.5386 70.2125C22.5386 71.8304 23.8503 73.1422 25.4683 73.1422H66.1003C67.7183 73.1422 69.03 71.8304 69.03 70.2125C69.03 68.5945 67.7183 67.2828 66.1003 67.2828Z" fill="black"/>
<path d="M66.1003 81.4773H25.4683C23.8503 81.4773 22.5386 82.789 22.5386 84.407C22.5386 86.025 23.8503 87.3367 25.4683 87.3367H66.1003C67.7183 87.3367 69.03 86.025 69.03 84.407C69.03 82.789 67.7183 81.4773 66.1003 81.4773Z" fill="black"/>
<path d="M66.1003 95.6078H25.4683C23.8503 95.6078 22.5386 96.9195 22.5386 98.5375C22.5386 100.155 23.8503 101.467 25.4683 101.467H66.1003C67.7183 101.467 69.03 100.155 69.03 98.5375C69.03 96.9195 67.7183 95.6078 66.1003 95.6078Z" fill="black"/>
<path d="M69.03 112.795C69.03 111.177 67.7183 109.866 66.1003 109.866H25.4683C23.8503 109.866 22.5386 111.177 22.5386 112.795C22.5386 114.413 23.8503 115.725 25.4683 115.725H66.1003C67.7183 115.725 69.03 114.413 69.03 112.795Z" fill="black"/>
<path d="M25.4683 124.06C23.8503 124.06 22.5386 125.371 22.5386 126.989C22.5386 128.607 23.8503 129.919 25.4683 129.919H43.6827C45.3007 129.919 46.6124 128.607 46.6124 126.989C46.6124 125.371 45.3007 124.06 43.6827 124.06H25.4683Z" fill="black"/>
<path d="M85.0346 154.587C85.6064 155.159 86.3564 155.446 87.1061 155.446C87.8557 155.446 88.6057 155.16 89.1775 154.587L101.004 142.761C102.148 141.617 102.148 139.762 101.004 138.618C99.8592 137.474 98.0045 137.474 96.8607 138.618L87.1061 148.373L80.2662 141.533C79.1221 140.389 77.267 140.389 76.1232 141.533C74.9791 142.677 74.9791 144.532 76.1232 145.676L85.0346 154.587Z" fill="black"/>
<path d="M131.643 76.5406C134.366 74.4093 136.827 71.948 138.959 69.2242C140.564 67.173 140.38 64.2316 138.531 62.3824L133.191 57.0425C133.891 55.6566 134.489 54.2121 134.973 52.7355H142.529C145.145 52.7355 147.355 50.7863 147.669 48.2011C147.768 47.3843 147.843 46.5601 147.895 45.7347H151.172C152.79 45.7347 154.102 44.423 154.102 42.805C154.102 41.1871 152.79 39.8753 151.172 39.8753H147.862C147.812 39.1984 147.751 38.523 147.67 37.8527C147.355 35.2675 145.145 33.3183 142.53 33.3183H134.974C134.49 31.8425 133.892 30.398 133.191 29.0113L138.532 23.671C140.381 21.8214 140.565 18.88 138.96 16.8292C136.828 14.1062 134.366 11.6449 131.644 9.51323C129.593 7.90737 126.651 8.09058 124.802 9.94097L119.461 15.2808C118.076 14.5808 116.632 13.9828 115.155 13.498V5.94253C115.155 3.3269 113.205 1.11675 110.621 0.802295C107.204 0.385889 103.689 0.385889 100.272 0.802295C97.6867 1.11714 95.7375 3.32651 95.7375 5.94253V13.4976C94.2609 13.9824 92.816 14.5804 91.4305 15.2808L86.0906 9.94097C84.241 8.09097 81.2992 7.90698 79.2488 9.51245C76.5254 11.6441 74.0641 14.1054 71.9328 16.8285C70.327 18.8796 70.5109 21.821 72.3605 23.6707L77.7004 29.0105C77.0004 30.396 76.402 31.8414 75.9172 33.3175H68.3621C65.7465 33.3175 63.5367 35.2667 63.2219 37.8515C63.1402 38.5218 63.0789 39.1972 63.0293 39.8746H21.9441C20.1184 39.8746 18.4016 40.5855 17.1102 41.8769L2.00195 56.9859C0.710938 58.2769 0 59.9933 0 61.8195V146.248C0 150.017 3.0668 153.084 6.83594 153.084H49.8203V156.027C49.8203 157.644 51.132 158.956 52.75 158.956C54.368 158.956 55.6797 157.644 55.6797 156.027V153.084H63.6785C66.7582 163.93 76.7445 171.9 88.5641 171.9C102.83 171.9 114.435 160.294 114.435 146.029C114.435 132.781 104.423 121.833 91.5687 120.338V107.031C91.5687 105.413 90.257 104.102 88.6391 104.102C87.0211 104.102 85.7094 105.413 85.7094 107.031V120.319C72.7824 121.745 62.6926 132.729 62.6926 146.029C62.6926 146.43 62.7047 146.828 62.723 147.225H6.83594C6.29766 147.225 5.85938 146.787 5.85938 146.248V61.8195C5.85938 61.5625 5.96367 61.3109 6.14531 61.1289L21.2535 46.0207C21.4383 45.8363 21.6832 45.7347 21.9441 45.7347H62.9945C63.0469 46.5605 63.1215 47.3847 63.2207 48.2011C63.5355 50.7863 65.7449 52.7355 68.3609 52.7355H75.916C76.4008 54.2121 76.9988 55.657 77.6992 57.0425L72.3594 62.3824C70.5098 64.2316 70.3254 67.1734 71.9313 69.2246C74.0633 71.948 76.5246 74.4093 79.2473 76.5406C81.1629 78.0398 83.8555 77.9773 85.709 76.4554V93.3589C85.709 94.9769 87.0207 96.2886 88.6387 96.2886C90.2566 96.2886 91.5684 94.9769 91.5684 93.3589V70.8398C92.9121 71.5105 94.309 72.0871 95.7359 72.5554V80.1105C95.7359 82.7261 97.6852 84.9363 100.27 85.2511C101.979 85.4589 103.721 85.5644 105.445 85.5644C107.169 85.5644 108.91 85.4589 110.619 85.2507C113.204 84.9363 115.153 82.7261 115.153 80.1105V72.5554C116.63 72.0707 118.075 71.4726 119.46 70.7726L124.8 76.1125C126.651 77.9617 129.591 78.1457 131.643 76.5406ZM88.5641 126.017C99.5988 126.017 108.576 134.994 108.576 146.028C108.576 157.063 99.5984 166.04 88.5641 166.04C77.5297 166.04 68.5523 157.063 68.5523 146.028C68.5523 134.994 77.5293 126.017 88.5641 126.017ZM117.163 65.3648C115.82 66.0699 114.404 66.6562 112.954 67.107C110.765 67.7878 109.295 69.7757 109.295 72.0539V79.5039C106.743 79.7707 104.148 79.7707 101.596 79.5039V72.0539C101.596 69.7757 100.125 67.7878 97.9359 67.1066C96.4859 66.6558 95.0695 66.0699 93.727 65.3644C91.6973 64.2984 89.2512 64.664 87.6402 66.2746L82.3746 71.5402C80.377 69.9214 78.55 68.0945 76.9309 66.0964L82.1961 60.8308C83.807 59.2199 84.1727 56.7742 83.1066 54.7445C82.4016 53.4019 81.8152 51.9859 81.3641 50.5351C80.6832 48.346 78.6949 46.8753 76.4172 46.8753H68.9672C68.834 45.5999 68.7664 44.3078 68.7664 43.0261C68.7664 41.7445 68.834 40.4527 68.9672 39.1769H76.4172C78.6953 39.1769 80.6832 37.7062 81.3641 35.5171C81.8152 34.0667 82.4016 32.6503 83.1062 31.3082C84.1727 29.2781 83.8066 26.8324 82.1961 25.2214L76.9309 19.9558C78.5496 17.9582 80.3766 16.1308 82.3746 14.5121L87.6402 19.7773C89.2508 21.3878 91.6965 21.7539 93.727 20.6878C95.0695 19.9828 96.4859 19.3964 97.9359 18.9453C100.125 18.2648 101.596 16.2765 101.596 13.9984V6.54878C104.146 6.28198 106.743 6.28198 109.295 6.54878V13.9988C109.295 16.2773 110.766 18.2652 112.954 18.9457C114.405 19.3968 115.821 19.9832 117.163 20.6882C119.193 21.7542 121.64 21.3882 123.25 19.7777L128.516 14.5128C130.513 16.1316 132.341 17.9585 133.959 19.9566L128.694 25.2222C128.694 25.2222 128.694 25.2222 128.694 25.2222C127.083 26.8332 126.717 29.2792 127.784 31.3085C128.489 32.6523 129.076 34.0687 129.526 35.5175C130.206 37.707 132.195 39.1781 134.473 39.1781H141.923C142.057 40.4546 142.124 41.7468 142.124 43.0273C142.124 44.3078 142.057 45.5999 141.923 46.8765H134.473C132.194 46.8765 130.206 48.3476 129.526 50.5363C129.075 51.9863 128.489 53.4027 127.784 54.7453C126.717 56.7749 127.083 59.221 128.693 60.8324L133.959 66.098C132.34 68.096 130.513 69.923 128.515 71.5417L123.25 66.2761C121.639 64.6644 119.194 64.2988 117.163 65.3648Z" fill="black"/>
<path d="M120.494 33.157C119.015 33.8133 118.349 35.5441 119.005 37.023C119.848 38.9226 120.275 40.9425 120.275 43.0265C120.275 51.2035 113.623 57.8558 105.446 57.8558C97.2686 57.8558 90.6162 51.2035 90.6162 43.0265C90.6162 34.8496 97.2686 28.1972 105.446 28.1972C107.255 28.1972 109.028 28.5226 110.715 29.1644C112.227 29.7383 113.92 28.98 114.495 27.4675C115.07 25.955 114.311 24.2629 112.798 23.6879C110.443 22.7922 107.969 22.3379 105.446 22.3379C94.0377 22.3379 84.7568 31.6187 84.7568 43.0265C84.7568 54.4343 94.0377 63.7152 105.446 63.7152C116.853 63.7152 126.135 54.4343 126.135 43.0265C126.135 40.1187 125.538 37.2992 124.361 34.6465C123.704 33.1675 121.973 32.5011 120.494 33.157Z" fill="black"/>
<path d="M105.445 33.9312C100.43 33.9312 96.3496 38.0113 96.3496 43.0265C96.3496 48.0417 100.43 52.1218 105.445 52.1218C110.46 52.1218 114.54 48.0417 114.54 43.0265C114.54 38.0113 110.46 33.9312 105.445 33.9312ZM105.445 46.2624C103.661 46.2624 102.209 44.8109 102.209 43.0265C102.209 41.2421 103.661 39.7906 105.445 39.7906C107.229 39.7906 108.681 41.2421 108.681 43.0265C108.681 44.8109 107.23 46.2624 105.445 46.2624Z" fill="black"/>
<path d="M195.117 125.494C197.81 125.494 200 123.304 200 120.612V99.2445C200 96.5519 197.81 94.3617 195.117 94.3617H164.034C164.399 93.8734 164.617 93.2691 164.617 92.6129V87.9254C164.617 86.3074 163.306 84.9957 161.688 84.9957C160.069 84.9957 158.758 86.3074 158.758 87.9254V92.6129C158.758 93.2691 158.976 93.8734 159.341 94.3617H128.258C125.565 94.3617 123.375 96.5519 123.375 99.2445V120.612C123.375 123.304 125.565 125.494 128.258 125.494H158.758V131.369H128.258C125.565 131.369 123.375 133.559 123.375 136.252V157.619C123.375 160.312 125.565 162.502 128.258 162.502H158.758V168.377H128.258C125.565 168.377 123.375 170.567 123.375 173.26V181.052C121.973 181.271 120.898 182.48 120.898 183.943C120.898 185.407 121.973 186.616 123.375 186.834V194.627C123.375 197.319 125.565 199.51 128.258 199.51H195.117C197.81 199.51 200 197.319 200 194.627V173.26C200 170.567 197.81 168.377 195.117 168.377H164.617V162.502H172.266C173.884 162.502 175.195 161.19 175.195 159.572C175.195 157.954 173.884 156.643 172.266 156.643H129.234V137.228H194.141V156.643H185.938C184.319 156.643 183.008 157.954 183.008 159.572C183.008 161.19 184.319 162.502 185.938 162.502H195.117C197.81 162.502 200 160.312 200 157.619V136.252C200 133.559 197.81 131.369 195.117 131.369H164.617V125.494H195.117ZM194.141 174.236V193.65H129.234V174.236H194.141ZM129.234 119.635V100.221H194.141V119.635H129.234Z" fill="black"/>
<path d="M183.17 106.998H140.205C138.587 106.998 137.275 108.31 137.275 109.928C137.275 111.546 138.587 112.858 140.205 112.858H183.17C184.788 112.858 186.1 111.546 186.1 109.928C186.1 108.31 184.788 106.998 183.17 106.998Z" fill="black"/>
<path d="M186.1 146.936C186.1 145.318 184.788 144.006 183.17 144.006H140.205C138.587 144.006 137.275 145.318 137.275 146.936C137.275 148.554 138.587 149.866 140.205 149.866H183.17C184.788 149.866 186.1 148.554 186.1 146.936Z" fill="black"/>
<path d="M140.205 186.873H183.17C184.788 186.873 186.1 185.561 186.1 183.943C186.1 182.325 184.788 181.014 183.17 181.014H140.205C138.587 181.014 137.275 182.325 137.275 183.943C137.275 185.561 138.587 186.873 140.205 186.873Z" fill="black"/>
</svg>
