<svg width="200" height="200" viewBox="0 0 200 200" fill="none" xmlns="http://www.w3.org/2000/svg">
<path d="M34.3857 158.929H164.172V178.632H34.3857V158.929Z" fill="white"/>
<path d="M48.6384 4.01678V20.3707C48.6384 24.4535 50.0138 28.4176 52.5427 31.623L61.0958 42.4641C62.9017 44.7531 62.7497 48.0234 60.736 50.1324C53.795 57.4019 48.4442 65.3273 44.7798 74.7207H59.4817C64.1341 74.7207 67.9056 78.4922 67.9056 83.1445V83.3277C67.9056 87.9785 64.1325 91.7515 59.4817 91.7515H64.4837C69.2419 91.7515 73.0747 95.6941 72.9021 100.487C72.7376 105.05 68.8481 108.599 64.2821 108.599H60.8239C65.2681 108.599 68.8731 112.2 68.8731 116.648C68.8724 121.061 65.2681 124.772 60.8239 124.772H56.5165C61.0587 124.772 64.7204 128.538 64.5567 133.116C64.4009 137.475 60.686 140.867 56.3243 140.867H50.3169C52.7243 145.089 55.5259 149.037 58.6938 152.63L64.2462 158.928H135.746L141.294 152.63C144.462 149.037 147.263 145.088 149.671 140.867H147.388C143.026 140.867 139.5 137.475 139.345 133.116C139.181 128.537 142.847 124.772 147.389 124.772H139.175C134.732 124.772 131.13 121.17 131.13 116.727V116.648C131.13 112.2 134.731 108.599 139.175 108.599H135.516C133.19 108.599 131.083 107.655 129.562 106.133C128.007 104.578 127.056 102.419 127.093 100.04C127.166 95.4086 131.076 91.7512 135.708 91.7512H140.518C135.867 91.7512 132.094 87.9781 132.094 83.3273V83.1441C132.094 78.4918 135.866 74.7203 140.518 74.7203H155.224C151.681 65.3144 146.152 57.3629 139.255 50.1336C137.242 48.0238 137.088 44.7547 138.894 42.4652L147.447 31.6223C149.975 28.4172 151.35 24.4539 151.35 20.3719V4.01678H48.6384Z" fill="#4EAAF5"/>
<path d="M86.3086 178.632H112.248V195.983H86.3086V178.632Z" fill="#838EB1"/>
<path d="M44.7777 74.7207H59.4813C64.1336 74.7207 67.9055 78.4922 67.9055 83.1449V83.3277C67.9055 87.9801 64.134 91.752 59.4813 91.752H64.4852C69.1375 91.752 72.9094 95.5234 72.9094 100.176C72.8418 104.762 69.123 108.6 64.4852 108.6H60.8238C65.2684 108.6 68.8711 112.204 68.8711 116.648C68.8727 121.061 65.2691 124.775 60.8238 124.775H56.5141C60.9586 124.775 64.5613 128.378 64.5613 132.822C64.5164 137.202 60.9281 140.869 56.5141 140.869H48.668C44.173 140.869 39.8273 139.256 36.4211 136.324L21.3605 123.359H3.90625V77.5992H21.3609L30.9711 57.2316C33.2367 52.4297 38.9629 50.3695 43.7687 52.627C48.3559 54.7816 50.4859 60.1242 48.6402 64.8441L44.7777 74.7207Z" fill="#FEFEFE"/>
<path d="M155.222 74.7207H140.518C135.866 74.7207 132.094 78.4922 132.094 83.1449V83.3277C132.094 87.9801 135.866 91.752 140.518 91.752H135.515C130.862 91.752 127.09 95.5234 127.09 100.176C127.158 104.762 130.877 108.6 135.515 108.6H139.176C134.731 108.6 131.129 112.204 131.129 116.648V116.727C131.129 121.172 134.732 124.774 139.176 124.774H145.363H147.387C142.943 124.774 139.34 128.377 139.34 132.821C139.385 137.201 142.973 140.869 147.387 140.869H151.331C155.826 140.869 160.172 139.256 163.578 136.323L178.639 123.359H196.094V77.5992H178.639L169.029 57.2316C166.763 52.4297 161.037 50.3695 156.231 52.627C151.644 54.7816 149.514 60.1242 151.36 64.8441L155.222 74.7207Z" fill="#FEFEFE"/>
<path d="M196.094 73.693H181.115L172.562 55.5644C169.384 48.8289 161.314 45.9234 154.571 49.0918C151.932 50.3312 149.871 52.3348 148.536 54.723C146.545 52.1461 144.324 49.7894 142.08 47.4371C141.414 46.7394 141.363 45.6418 141.96 44.8848L145.558 40.323H154.684C156.841 40.323 158.59 38.5738 158.59 36.4168C158.59 34.2598 156.841 32.5105 154.684 32.5105H151.615C153.972 28.9234 155.254 24.6797 155.254 20.3723V4.01678C155.254 1.85975 153.505 0.110535 151.348 0.110535H116.871C114.714 0.110535 112.965 1.85975 112.965 4.01678C112.965 6.17382 114.714 7.92304 116.871 7.92304H147.442V20.3719C147.442 23.5621 146.354 26.698 144.378 29.2027L141.77 32.5101H111.263C109.106 32.5101 107.357 34.2594 107.357 36.4164C107.357 38.5734 109.106 40.3226 111.263 40.3226H135.627C132.857 44.1027 133.172 49.418 136.427 52.8297C141.598 58.2504 146.05 64.0238 149.31 70.814H140.517C133.718 70.814 128.187 76.3453 128.187 83.1441C128.159 85.2605 128.686 87.3898 129.705 89.2453C129.693 89.2223 127.823 90.3476 126.727 91.5367C124.541 93.9094 123.12 97.0863 123.19 100.325C123.227 103.563 124.499 106.595 126.799 108.896C127.44 109.536 128.139 110.098 128.884 110.575C127.786 112.427 127.21 114.574 127.223 116.727C127.223 122.327 131.094 127.039 136.3 128.33C135.639 129.961 135.351 131.75 135.459 133.504C135.731 138.34 138.812 142.357 143.097 143.989C141.623 146.12 140.041 148.146 138.363 150.049L133.981 155.022H66.009L61.623 150.048C60.143 148.369 58.7371 146.594 57.4148 144.737C63.3801 144.283 68.2461 139.236 68.4594 133.256C68.5383 131.086 68.0176 128.88 66.9535 126.986C70.5715 124.815 72.7699 120.854 72.7789 116.649C72.7789 114.42 72.1656 112.331 71.0992 110.543C74.4227 108.435 76.6547 104.817 76.8047 100.627C76.9734 95.9629 74.3977 91.4812 70.2762 89.2816C71.3152 87.4055 71.8262 85.2851 71.8113 83.1441C71.8113 76.3453 66.2801 70.814 59.4813 70.814H50.7687C53.9324 64.4207 58.1504 58.4961 63.5605 52.8297C66.8973 49.3355 67.1559 43.8391 64.1621 40.0441L55.609 29.2039C54.4988 27.7961 53.6688 26.1891 53.1547 24.4851H79.4043C81.5613 24.4851 83.3105 22.7359 83.3105 20.5789C83.3105 18.4219 81.5613 16.6726 79.4043 16.6726H52.5445V7.92304H82.5391C84.6961 7.92304 86.4453 6.17382 86.4453 4.01678C86.4453 1.85975 84.6961 0.110535 82.5391 0.110535H48.6383C46.4813 0.110535 44.732 1.85975 44.732 4.01678V16.6723H38.9234C36.7664 16.6723 35.0172 18.4215 35.0172 20.5785C35.0172 22.7355 36.7664 24.4848 38.9234 24.4848H45.1277C45.7898 27.9547 47.275 31.2519 49.4762 34.0426L58.0293 44.8828C58.6273 45.6406 58.5762 46.7375 57.9109 47.4344C55.5941 49.8609 53.4762 52.3348 51.5434 54.8683C50.2109 52.4164 48.1215 50.3559 45.4297 49.0914C38.6867 45.9223 30.6172 48.8285 27.4387 55.5641L18.8852 73.6926H3.90625C1.74922 73.6926 0 75.4418 0 77.5988V123.359C0 125.516 1.74922 127.265 3.90625 127.265H19.9113L33.873 139.284C37.8383 142.697 42.8645 144.627 48.0832 144.762C50.3203 148.429 52.841 151.872 55.5988 155.023H34.3855C32.2285 155.023 30.4793 156.772 30.4793 158.929V178.631C30.4793 180.788 32.2285 182.538 34.3855 182.538H82.4023V195.983C82.4023 198.14 84.1516 199.889 86.3086 199.889H112.248C114.405 199.889 116.154 198.14 116.154 195.983V182.538H164.171C166.329 182.538 168.078 180.788 168.078 178.631V158.929C168.078 156.772 166.329 155.023 164.171 155.023H144.388C147.145 151.873 149.666 148.43 151.903 144.762C157.127 144.63 162.158 142.7 166.127 139.284L180.089 127.265H196.094C198.251 127.265 200 125.516 200 123.359V77.5992C200 75.4422 198.251 73.693 196.094 73.693ZM108.342 192.077H90.2148V182.538H108.342V192.077ZM160.265 174.725H38.2918V162.836H160.265V174.725ZM23.9094 120.398C23.2004 119.788 22.2961 119.453 21.3609 119.453H7.8125V81.5055H21.3609C22.8727 81.5055 24.2488 80.6336 24.8938 79.2664L34.5039 58.8984C35.8469 56.0516 39.2578 54.8238 42.1074 56.1625C44.8234 57.4387 46.0949 60.6273 45.002 63.4219L41.1398 73.298C40.157 75.8121 42.0773 78.6269 44.7777 78.6269H59.4813C61.9723 78.6269 63.9988 80.6535 63.9988 83.1445C64.0395 85.6687 62.0582 87.8453 59.4813 87.8453H51.1211C48.9641 87.8453 47.2148 89.5945 47.2148 91.7516C47.2148 93.9086 48.9641 95.6578 51.1211 95.6578H64.4832C66.9887 95.6578 69.0281 97.7664 68.9965 100.238C68.8957 102.739 66.7789 104.693 64.2816 104.693L50.3219 104.693C48.1648 104.693 46.4156 106.443 46.4156 108.6C46.4156 110.757 48.1648 112.506 50.3219 112.506H60.8238C63.1074 112.506 64.9652 114.364 64.9652 116.647C64.9684 118.925 63.1348 120.866 60.8234 120.866L54.6363 120.868C52.4793 120.868 50.7301 122.617 50.7301 124.774C50.7301 126.931 52.4793 128.68 54.6363 128.68H56.5145C58.8129 128.68 60.6781 130.613 60.6508 132.874C60.5746 135.175 58.5977 136.961 56.3238 136.961L48.6684 136.962C45.1105 136.962 41.666 135.684 38.9699 133.363L23.9094 120.398ZM192.188 119.453H178.639C177.704 119.453 176.8 119.788 176.091 120.398L161.03 133.363C158.334 135.684 154.889 136.962 151.332 136.962L147.387 136.961C145.197 136.961 143.306 135.014 143.249 132.846C143.234 130.604 145.089 128.68 147.387 128.68C149.49 128.68 151.294 126.886 151.294 124.772C151.294 122.615 149.545 120.866 147.388 120.866H139.175C136.893 120.866 135.036 119.009 135.036 116.727C135.036 114.452 136.866 112.506 139.176 112.506H149.678C151.835 112.506 153.584 110.757 153.584 108.6C153.584 106.443 151.835 104.693 149.678 104.693L135.515 104.693C135.475 104.693 135.435 104.688 135.395 104.687C133.025 104.622 131.085 102.649 131.002 100.21C130.985 97.6687 133.213 95.6578 135.707 95.6578H148.879C151.036 95.6578 152.785 93.9086 152.785 91.7516C152.785 89.5945 151.036 87.8453 148.879 87.8453H140.519C138.028 87.8453 136.001 85.8187 136.001 83.3273V83.1445C136.001 80.6535 138.028 78.6269 140.519 78.6269H155.222C157.902 78.6269 159.824 75.8547 158.879 73.3437C158.662 72.7683 154.998 63.4223 154.998 63.4223C153.905 60.6277 155.177 57.439 157.893 56.1629C160.742 54.8242 164.153 56.0519 165.496 58.8988L175.107 79.2668C175.752 80.634 177.128 81.5059 178.639 81.5059H192.188V119.453Z" fill="black"/>
<path d="M96.285 5.51135C97.1026 7.47502 99.4178 8.44142 101.387 7.62463C103.353 6.809 104.312 4.48869 103.5 2.52306C102.688 0.556268 100.362 -0.403498 98.3979 0.409783C96.4257 1.22697 95.4768 3.54103 96.285 5.51135Z" fill="black"/>
</svg>
