<svg width="200" height="202" viewBox="0 0 200 202" fill="none" xmlns="http://www.w3.org/2000/svg">
<path fill-rule="evenodd" clip-rule="evenodd" d="M80.3877 73.2972C92.8432 75.9364 100.884 77.6405 113.339 80.2797C119.376 81.5586 122.127 81.7975 128.007 79.8902C134.375 77.8249 135.835 77.3514 142.202 75.286C142.569 75.1668 142.93 75.0526 143.285 74.944C150.091 72.8523 154.758 72.6397 161.482 75.7015C173.853 81.335 183.722 85.8289 196.094 91.4624C196.094 73.3384 196.094 55.2144 196.094 37.0903C180.922 29.2483 165.751 21.4063 150.579 13.5646C142.706 9.49515 142.797 9.61519 133.977 8.82122C120.997 7.65262 108.016 6.48363 95.0362 5.31543C86.276 4.52695 87.8205 3.67963 80.3092 8.12492C69.9682 14.2452 61.0002 19.3174 50.6639 25.2902C45.6732 28.1739 44.8268 28.3523 41.8982 33.3084C36.9729 41.6443 33.3162 47.8317 28.3908 56.1676C24.0291 63.5491 28.0951 65.1139 31.5424 65.5305C32.5193 65.6486 33.4057 65.7231 34.2178 65.7517C40.1647 65.96 42.1705 63.7087 47.1334 58.1937C51.7553 53.0576 53.6131 50.9934 58.235 45.8573C62.8471 40.7318 62.7662 40.3027 69.1947 37.8588C74.5037 35.8405 78.8619 34.1836 84.1709 32.1653C90.6553 29.7002 91.1303 29.7853 97.3737 32.7631C104.041 35.9433 106.131 36.9405 112.798 40.1207C119.235 43.191 120.18 47.0291 117.516 50.5306C116.01 52.5104 116.828 51.4351 115.323 53.4146C111.24 58.7809 108.022 58.2965 101.081 57.5225C93.3639 56.6615 92.0565 56.5155 84.3393 55.6545C73.0584 54.6099 71.3139 70.9871 80.3877 73.2972Z" fill="white"/>
<path fill-rule="evenodd" clip-rule="evenodd" d="M113.34 80.2797C100.884 77.6405 92.8435 75.9364 80.388 73.2972C71.3142 70.987 73.0587 54.6098 84.3396 55.6537C92.0568 56.5147 93.3642 56.6607 101.081 57.5217C108.022 58.2961 111.241 58.7801 115.323 53.4138C116.829 51.434 116.011 52.5096 117.517 50.5298C120.18 47.0283 119.235 43.1902 112.798 40.1199C106.131 36.9397 104.041 35.9429 97.3739 32.7623C91.1306 29.7846 90.656 29.6994 84.1712 32.1645C78.8622 34.1832 74.504 35.8398 69.1951 37.858C62.7665 40.3019 62.8474 40.7311 58.2353 45.8566C53.6134 50.9923 51.7556 53.0568 47.1337 58.1929C42.1709 63.7079 40.165 65.9592 34.2181 65.7509C29.0802 77.662 34.2673 88.8392 43.138 93.4147C39.1513 108.356 44.5892 123.526 57.7982 127.08C64.1658 125.015 65.6255 124.541 71.9931 122.476C77.8732 120.569 80.6247 120.807 86.6611 122.086C99.1161 124.725 107.158 126.429 119.613 129.068C128.686 131.379 126.942 147.756 115.661 146.712C107.944 145.851 106.636 145.705 98.9193 144.844C91.9786 144.07 88.7599 143.585 84.6779 148.952C83.172 150.932 83.99 149.856 82.4841 151.836C79.8208 155.337 80.7658 159.175 87.2029 162.246C93.87 165.426 95.9599 166.423 102.627 169.603C108.87 172.581 109.345 172.666 115.829 170.201C121.138 168.182 125.497 166.526 130.806 164.508C137.234 162.064 137.153 161.635 141.765 156.509C146.387 151.373 148.245 149.308 152.867 144.172C158.508 137.904 160.329 135.852 168.458 136.836C173.596 124.924 168.409 113.747 159.538 109.172C163.525 94.2303 156.495 78.4976 143.286 74.9432C142.931 75.0522 142.57 75.1664 142.203 75.2852C135.835 77.3506 134.375 77.824 128.008 79.8894C122.127 81.7974 119.376 81.5585 113.34 80.2797Z" fill="#4EAAF5"/>
<path fill-rule="evenodd" clip-rule="evenodd" d="M86.6609 122.086C80.6246 120.807 77.873 120.569 71.993 122.476C65.6254 124.541 64.1656 125.015 57.798 127.08C50.3902 129.483 45.593 129.887 38.518 126.665C26.1465 121.031 16.2777 116.537 3.90625 110.904V165.276C19.0777 173.118 34.2492 180.96 49.4207 188.802C57.2937 192.871 57.2031 192.751 66.023 193.545C79.0031 194.714 91.9836 195.883 104.964 197.051C113.724 197.839 112.179 198.687 119.691 194.241C130.032 188.121 139 183.049 149.336 177.076C154.327 174.192 155.173 174.014 158.102 169.058C163.027 160.722 166.684 154.535 171.609 146.199C175.971 138.817 171.905 137.253 168.457 136.836C160.328 135.852 158.507 137.904 152.866 144.173C148.244 149.309 146.386 151.373 141.764 156.509C137.152 161.634 137.233 162.064 130.805 164.508C125.496 166.526 121.137 168.183 115.828 170.201C109.344 172.666 108.869 172.581 102.626 169.604C95.9586 166.423 93.8687 165.426 87.2019 162.246C80.7644 159.175 79.8195 155.338 82.4832 151.836C83.989 149.856 83.1711 150.932 84.6769 148.952C88.759 143.586 91.9777 144.07 98.9183 144.844C106.636 145.705 107.943 145.851 115.66 146.712C126.941 147.756 128.686 131.379 119.612 129.069C107.157 126.429 99.116 124.725 86.6609 122.086Z" fill="white"/>
<path d="M197.881 33.6028L152.367 10.0775C144.378 5.948 143.734 5.75774 135.148 4.98849L95.3851 1.40896C94.0113 1.28539 92.9148 1.16182 91.9468 1.05277C85.9445 0.377266 85.0343 0.775428 78.5726 4.59974L78.3261 4.74567C71.1715 8.9803 64.7285 12.681 57.9078 16.5995C54.9199 18.3157 51.8816 20.061 48.716 21.8901C48.2961 22.133 47.9055 22.3566 47.5406 22.5653C43.0422 25.1386 41.6086 26.1118 38.5391 31.3072L25.0316 54.1659C24.0945 55.7519 21.2422 60.5789 23.3379 64.8516C24.359 66.9334 26.2648 68.3389 29.0172 69.0458C28.0098 73.2769 28.0293 77.5457 29.1019 81.5951C30.4418 86.6532 33.432 91.2142 37.5219 94.4379C37.9086 94.7427 38.3035 95.0287 38.7019 95.306C36.3812 107.207 39.4531 118.217 46.384 124.955C44.448 124.739 42.4492 124.149 40.1312 123.093L5.51953 107.332C4.31055 106.782 2.90586 106.885 1.78984 107.608C0.674218 108.33 0 109.572 0 110.905V165.277C0 166.746 0.817578 168.092 2.11875 168.765L47.6336 192.29C55.6222 196.42 56.266 196.61 64.8523 197.379L104.616 200.959C105.989 201.082 107.086 201.206 108.053 201.315C109.539 201.482 110.713 201.584 111.736 201.584C114.846 201.584 116.566 200.646 121.428 197.768L121.675 197.622C128.828 193.389 135.269 189.689 142.088 185.771C145.078 184.054 148.118 182.308 151.285 180.477C151.705 180.234 152.096 180.011 152.461 179.803C156.959 177.229 158.392 176.256 161.462 171.061L174.969 148.202C175.907 146.616 178.759 141.789 176.663 137.516C175.986 136.135 174.916 135.055 173.472 134.276C174.659 129.823 174.709 125.312 173.587 121.043C172.257 115.976 169.27 111.404 165.18 108.171C164.779 107.854 164.37 107.558 163.957 107.271C166.03 95.9101 162.589 84.784 155.561 77.7528C156.905 78.0701 158.316 78.5679 159.87 79.2756L194.481 95.0365C194.996 95.2711 195.546 95.3868 196.094 95.3868C196.834 95.3868 197.57 95.1762 198.211 94.7611C199.327 94.039 200.001 92.797 200.001 91.4641V37.0909C200 35.6214 199.182 34.2755 197.881 33.6028ZM156.575 103.851C149.478 101.983 141.635 103.55 134.882 108.538C133.143 109.821 132.771 112.277 134.048 114.022C135.327 115.768 137.773 116.142 139.509 114.858C147.705 108.807 155.647 110.62 160.346 114.335C164.566 117.67 168.253 124.337 165.802 132.702C158.121 132.489 155.22 135.708 150.018 141.489L138.867 153.88C138.409 154.389 137.996 154.852 137.619 155.276C134.389 158.906 134.327 158.975 129.423 160.84L114.447 166.533C111.635 167.602 110.234 168.072 109.332 168.026C108.366 167.978 106.792 167.248 104.303 166.061L88.8789 158.704C86.2781 157.463 85.1734 156.268 85.0172 155.622C84.9129 155.19 85.3304 154.558 85.5879 154.219L87.7816 151.335C90.4382 147.843 91.6004 147.974 98.0582 148.696L115.23 150.612C115.254 150.615 115.278 150.617 115.303 150.619C122.244 151.258 127.919 146.833 129.114 139.851C130.124 133.942 127.515 127.035 120.573 125.267C120.522 125.254 120.471 125.243 120.419 125.232L118.307 124.784C116.194 124.336 114.123 125.693 113.678 127.812C113.232 129.932 114.582 132.013 116.693 132.461L118.716 132.889C121.28 133.589 121.737 136.632 121.414 138.523C121.172 139.935 120.173 143.17 116.052 142.81L98.923 140.899C91.95 140.119 86.9117 139.554 81.573 146.572L79.3797 149.456C76.9398 152.664 76.9695 155.584 77.4238 157.469C78.2297 160.811 80.9558 163.611 85.5265 165.791L100.951 173.148C108.253 176.632 109.773 176.699 117.212 173.872L132.188 168.178C138.654 165.72 139.677 164.738 143.444 160.505C143.812 160.091 144.216 159.638 144.663 159.141L155.813 146.75C161.201 140.764 161.892 139.994 167.991 140.733C168.847 140.836 169.33 140.983 169.581 141.086C169.52 141.511 169.266 142.478 168.25 144.199L154.743 167.058C152.591 170.699 152.289 170.872 148.593 172.986C148.219 173.2 147.819 173.429 147.388 173.678C144.226 175.505 141.192 177.248 138.208 178.962C131.366 182.892 124.903 186.604 117.707 190.864L117.461 191.01C114.911 192.519 113.371 193.43 112.502 193.671C111.888 193.841 111.103 193.764 108.923 193.519C107.966 193.411 106.773 193.277 105.313 193.145L65.5465 189.566C58.1488 188.903 58.1488 188.903 51.2086 185.315L7.8125 162.884V116.991L36.9047 130.239C45.2519 134.039 51.109 133.373 58.9984 130.814L73.1937 126.21C77.432 124.835 79.4828 124.812 82.4785 125.281C84.6066 125.613 86.6074 124.151 86.9394 122.01C87.2719 119.869 85.8125 117.863 83.6808 117.53C79.0707 116.809 75.8176 117.115 70.7929 118.745L57.7625 122.971C49.1394 120.01 44.4957 110.141 46.0508 98.7259C47.9949 99.2417 49.9949 99.5034 52.0144 99.5034C56.1117 99.5034 60.2855 98.4383 64.2195 96.3197C65.239 97.724 66.4844 99.0154 67.9402 100.137C71.2137 102.66 75.0387 103.937 78.9082 103.937C82.0433 103.937 85.2082 103.098 88.1297 101.404C89.998 100.321 90.6383 97.9217 89.5593 96.0455C88.4804 94.1692 86.0914 93.5266 84.2234 94.6097C80.4277 96.8104 76.1183 96.5503 72.6957 93.9134C69.6613 91.5751 68.2281 88.0869 69.0445 85.0268C69.6031 82.934 68.3664 80.7831 66.2824 80.2222C64.1984 79.6608 62.057 80.9035 61.4984 82.996C60.968 84.9848 60.8773 87.0352 61.1828 89.0449C53.7164 93.4654 46.6637 91.6716 42.3461 88.2682C38.0683 84.8961 34.3269 78.1023 36.9668 69.5789C42.6715 68.9999 45.4566 65.9099 49.9824 60.8809L61.1332 48.4897C61.5914 47.9805 62.0039 47.5172 62.3808 47.0932C65.6117 43.463 65.6738 43.3936 70.5777 41.5291L85.5539 35.8356C88.3644 34.767 89.7656 34.2979 90.6687 34.3426C91.6343 34.3908 93.209 35.1209 95.6976 36.3079L111.122 43.6655C113.723 44.9058 114.827 46.1007 114.983 46.7468C115.087 47.1787 114.67 47.8114 114.412 48.1504L112.219 51.0344C109.563 54.526 108.4 54.3958 101.943 53.6732L84.7711 51.757C84.7465 51.7542 84.7222 51.7519 84.698 51.7495C77.764 51.1077 72.0812 55.5354 70.8871 62.5183C69.8765 68.4272 72.4859 75.334 79.4281 77.1016C79.4789 77.1145 79.5301 77.1263 79.5816 77.1373L112.533 84.1198C118.904 85.4697 122.406 85.8306 129.208 83.6248L143.312 79.0504C152.385 82.1271 157.841 92.5946 156.575 103.851ZM192.187 85.3771L163.096 72.1295C158.952 70.2426 155.421 69.4569 151.952 69.4569C148.432 69.4569 144.975 70.2658 141.002 71.554L126.807 76.1582C121.818 77.7763 119.832 77.6477 114.146 76.4426L81.2851 69.4793C78.7199 68.779 78.2636 65.7362 78.5871 63.8458C78.8289 62.4336 79.8355 59.1973 83.9484 59.5582L101.078 61.4697C108.052 62.25 113.089 62.8141 118.428 55.7966L120.621 52.9126C123.061 49.7053 123.031 46.7852 122.577 44.9003C121.771 41.5581 119.045 38.7585 114.474 36.5782L99.05 29.2206C91.7468 25.7376 90.2269 25.6697 82.7883 28.4977L67.8125 34.1912C61.3472 36.6492 60.3242 37.6311 56.5566 41.8645C56.1879 42.2788 55.7847 42.7311 55.3371 43.2289L44.2363 55.5648L44.1863 55.6201C38.8 61.6059 38.1094 62.3755 32.0101 61.6372C31.1531 61.5337 30.6711 61.387 30.4199 61.2842C30.4805 60.859 30.734 59.8916 31.7508 58.1703L45.2582 35.3111C47.4098 31.6704 47.7117 31.4974 51.4086 29.3826C51.782 29.1688 52.182 28.9401 52.6129 28.6911C55.773 26.865 58.8051 25.1233 61.7875 23.4102C68.6312 19.4792 75.0945 15.7659 82.2929 11.5054L82.5402 11.3591C85.0902 9.84959 86.6297 8.93872 87.4988 8.69825C88.1121 8.52918 88.8976 8.60489 91.0773 8.85006C92.0351 8.95755 93.2277 9.0921 94.6879 9.22351L134.454 12.8034C141.852 13.466 141.852 13.466 148.792 17.0538L192.187 39.4838V85.3771Z" fill="black"/>
<path d="M100.299 121.053H100.296C98.1388 121.053 96.3911 122.81 96.3911 124.976C96.3911 127.143 98.1411 128.899 100.299 128.899C102.456 128.899 104.205 127.143 104.205 124.976C104.205 122.81 102.456 121.053 100.299 121.053Z" fill="black"/>
</svg>
