<svg width="200" height="200" viewBox="0 0 200 200" fill="none" xmlns="http://www.w3.org/2000/svg">
<path d="M9.375 153.125H21.875V178.125H9.375V153.125Z" fill="white"/>
<path d="M21.875 146.875H34.375V184.375H21.875V146.875Z" fill="#50B4F8"/>
<path d="M34.375 153.125H59.375V178.125H34.375V153.125Z" fill="#2D75BB"/>
<path d="M190.625 178.125H178.125V153.125H190.625V178.125Z" fill="white"/>
<path d="M178.125 184.375H165.625V146.875H178.125V184.375Z" fill="#50B4F8"/>
<path d="M165.625 178.125H140.625V153.125H165.625V178.125Z" fill="#2D75BB"/>
<path d="M159.375 75C159.387 63.6546 156.149 52.5431 150.043 42.9809C143.937 33.4187 135.219 25.806 124.922 21.0439C114.624 16.2818 103.178 14.5698 91.9375 16.1103C80.6972 17.6509 70.1336 22.3797 61.497 29.7368C52.8604 37.094 46.5125 46.7716 43.2047 57.6241C39.8968 68.4765 39.7675 80.0495 42.832 90.9732C45.8965 101.897 52.0266 111.714 60.4966 119.262C68.9666 126.811 79.4219 131.774 90.625 133.566V146.875H109.375V133.566C123.312 131.344 136.001 124.228 145.165 113.495C154.328 102.761 159.367 89.113 159.375 75Z" fill="#80B4FB"/>
<path d="M115.625 156.25V146.875H84.375V156.25H59.375V175H84.375V184.375H115.625V175H140.625V156.25H115.625Z" fill="#50B4F8"/>
<path d="M100 121.875C125.888 121.875 146.875 100.888 146.875 75C146.875 49.1117 125.888 28.125 100 28.125C74.1117 28.125 53.125 49.1117 53.125 75C53.125 100.888 74.1117 121.875 100 121.875Z" fill="#F4F4E6"/>
<path d="M100 81.25C103.452 81.25 106.25 78.4518 106.25 75C106.25 71.5482 103.452 68.75 100 68.75C96.5482 68.75 93.75 71.5482 93.75 75C93.75 78.4518 96.5482 81.25 100 81.25Z" fill="#E97424"/>
<path d="M43.75 162.5H50V168.75H43.75V162.5Z" fill="#F4F4E6"/>
<path d="M90.625 162.5H96.875V168.75H90.625V162.5Z" fill="#F4F4E6"/>
<path d="M103.125 162.5H109.375V168.75H103.125V162.5Z" fill="#F4F4E6"/>
<path d="M150 162.5H156.25V168.75H150V162.5Z" fill="#F4F4E6"/>
<path d="M190.625 150H181.25V146.875C181.25 146.046 180.921 145.251 180.335 144.665C179.749 144.079 178.954 143.75 178.125 143.75H165.625C164.796 143.75 164.001 144.079 163.415 144.665C162.829 145.251 162.5 146.046 162.5 146.875V150H140.625C139.796 150 139.001 150.329 138.415 150.915C137.829 151.501 137.5 152.296 137.5 153.125H118.75V146.875C118.75 146.046 118.421 145.251 117.835 144.665C117.249 144.079 116.454 143.75 115.625 143.75H112.5V136.175C127.676 133.077 141.16 124.455 150.34 111.98C159.52 99.5051 163.74 84.066 162.184 68.6559C160.627 53.2459 153.404 38.9628 141.914 28.5758C130.425 18.1887 115.488 12.4377 100 12.4377C84.5115 12.4377 69.5748 18.1887 58.0856 28.5758C46.5964 38.9628 39.3732 53.2459 37.8165 68.6559C36.2598 84.066 40.4804 99.5051 49.66 111.98C58.8397 124.455 72.3245 133.077 87.5 136.175V143.75H84.375C83.5462 143.75 82.7513 144.079 82.1653 144.665C81.5792 145.251 81.25 146.046 81.25 146.875V153.125H62.5C62.5 152.296 62.1708 151.501 61.5847 150.915C60.9987 150.329 60.2038 150 59.375 150H37.5V146.875C37.5 146.046 37.1708 145.251 36.5847 144.665C35.9987 144.079 35.2038 143.75 34.375 143.75H21.875C21.0462 143.75 20.2513 144.079 19.6653 144.665C19.0792 145.251 18.75 146.046 18.75 146.875V150H9.375C8.5462 150 7.75134 150.329 7.16529 150.915C6.57924 151.501 6.25 152.296 6.25 153.125V178.125C6.25 178.954 6.57924 179.749 7.16529 180.335C7.75134 180.921 8.5462 181.25 9.375 181.25H18.75V184.375C18.75 185.204 19.0792 185.999 19.6653 186.585C20.2513 187.171 21.0462 187.5 21.875 187.5H34.375C35.2038 187.5 35.9987 187.171 36.5847 186.585C37.1708 185.999 37.5 185.204 37.5 184.375V181.25H59.375C60.2038 181.25 60.9987 180.921 61.5847 180.335C62.1708 179.749 62.5 178.954 62.5 178.125H81.25V184.375C81.25 185.204 81.5792 185.999 82.1653 186.585C82.7513 187.171 83.5462 187.5 84.375 187.5H115.625C116.454 187.5 117.249 187.171 117.835 186.585C118.421 185.999 118.75 185.204 118.75 184.375V178.125H137.5C137.5 178.954 137.829 179.749 138.415 180.335C139.001 180.921 139.796 181.25 140.625 181.25H162.5V184.375C162.5 185.204 162.829 185.999 163.415 186.585C164.001 187.171 164.796 187.5 165.625 187.5H178.125C178.954 187.5 179.749 187.171 180.335 186.585C180.921 185.999 181.25 185.204 181.25 184.375V181.25H190.625C191.454 181.25 192.249 180.921 192.835 180.335C193.421 179.749 193.75 178.954 193.75 178.125V153.125C193.75 152.296 193.421 151.501 192.835 150.915C192.249 150.329 191.454 150 190.625 150ZM18.75 175H12.5V156.25H18.75V175ZM31.25 181.25H25V150H31.25V181.25ZM56.25 175H37.5V156.25H56.25V175ZM43.75 75C43.7374 64.2516 46.8046 53.7247 52.5884 44.6652C58.3723 35.6057 66.6306 28.393 76.386 23.8808C86.1414 19.3686 96.9853 17.7459 107.634 19.2046C118.283 20.6634 128.291 25.1426 136.474 32.1121C144.656 39.0815 150.671 48.2494 153.805 58.5306C156.939 68.8118 157.063 79.7757 154.16 90.1247C151.257 100.474 145.45 109.774 137.427 116.926C129.403 124.078 119.498 128.78 108.884 130.478C108.15 130.595 107.482 130.969 106.999 131.535C106.516 132.1 106.25 132.819 106.25 133.562V143.75H93.75V133.562C93.7496 132.819 93.4841 132.1 93.0012 131.535C92.5184 130.969 91.8498 130.595 91.1156 130.478C77.889 128.427 65.8363 121.701 57.1454 111.522C48.4546 101.343 43.7018 88.3846 43.75 75ZM137.5 171.875H115.625C114.796 171.875 114.001 172.204 113.415 172.79C112.829 173.376 112.5 174.171 112.5 175V181.25H87.5V175C87.5 174.171 87.1708 173.376 86.5847 172.79C85.9987 172.204 85.2038 171.875 84.375 171.875H62.5V159.375H84.375C85.2038 159.375 85.9987 159.046 86.5847 158.46C87.1708 157.874 87.5 157.079 87.5 156.25V150H112.5V156.25C112.5 157.079 112.829 157.874 113.415 158.46C114.001 159.046 114.796 159.375 115.625 159.375H137.5V171.875ZM162.5 175H143.75V156.25H162.5V175ZM175 181.25H168.75V150H175V181.25ZM187.5 175H181.25V156.25H187.5V175Z" fill="black"/>
<path d="M150 75C150 65.1109 147.068 55.4439 141.573 47.2214C136.079 38.999 128.271 32.5904 119.134 28.806C109.998 25.0216 99.9446 24.0314 90.2455 25.9607C80.5465 27.89 71.6373 32.652 64.6447 39.6446C57.6521 46.6372 52.89 55.5464 50.9608 65.2454C49.0315 74.9445 50.0217 84.9978 53.806 94.1341C57.5904 103.27 63.9991 111.079 72.2215 116.573C80.444 122.068 90.111 125 100 125C113.256 124.984 125.965 119.711 135.338 110.338C144.711 100.965 149.984 88.256 150 75ZM72.7906 97.7906L66.975 103.606C65.0684 101.413 63.3841 99.0354 61.9469 96.5093L70.625 90L66.875 85L59.225 90.7375C57.6623 86.6975 56.7142 82.4461 56.4125 78.125H65.625V71.875H56.4094C56.669 68.1491 57.4105 64.4726 58.6156 60.9375L67.3656 65.3125L70.1594 59.7187L61.0688 55.175C62.6828 52.031 64.6701 49.0931 66.9875 46.425L72.8031 52.2406L77.2219 47.8218L71.4063 42.0062C73.7452 39.9608 76.2961 38.1715 79.0156 36.6687L84.9125 45.5156L90.1125 42.0468L84.8 34.0687C88.6767 32.608 92.7433 31.7124 96.875 31.4093V40.625H103.125V31.4093C107.261 31.7005 111.335 32.5857 115.219 34.0375L109.906 42.0156L115.106 45.4843L121.003 36.6375C123.723 38.1402 126.274 39.9296 128.613 41.975L122.797 47.7906L127.216 52.2093L133.031 46.3937C135.35 49.0667 137.337 52.0099 138.95 55.1593L129.859 59.7031L132.653 65.2968L141.403 60.9218C142.608 64.457 143.35 68.1335 143.609 71.8593H134.375V78.1093H143.591C143.247 83.0819 142.051 87.9583 140.053 92.525L130 85L126.25 90L137.075 98.125C135.478 100.683 133.622 103.071 131.538 105.25L124.084 97.7968L119.666 102.216L126.894 109.444C118.927 115.711 109.022 119 98.8892 118.742C88.7561 118.484 79.0312 114.696 71.3938 108.031L77.2094 102.216L72.7906 97.7906Z" fill="black"/>
<path d="M43.75 162.5H50V168.75H43.75V162.5Z" fill="black"/>
<path d="M90.625 162.5H96.875V168.75H90.625V162.5Z" fill="black"/>
<path d="M103.125 162.5H109.375V168.75H103.125V162.5Z" fill="black"/>
<path d="M150 162.5H156.25V168.75H150V162.5Z" fill="black"/>
<path d="M90.625 96.875H96.875V103.125H90.625V96.875Z" fill="black"/>
<path d="M103.125 96.875H109.375V103.125H103.125V96.875Z" fill="black"/>
<path d="M81.2502 96.875C82.0789 96.8748 82.8737 96.5455 83.4596 95.9594L95.9596 83.4594L95.9783 83.4312C97.2306 84.0453 98.6055 84.368 100 84.375C102.487 84.375 104.871 83.3873 106.629 81.6291C108.387 79.871 109.375 77.4864 109.375 75C109.37 73.6058 109.05 72.2309 108.438 70.9781L108.466 70.9594L120.966 58.4594C121.535 57.87 121.85 57.0806 121.843 56.2612C121.836 55.4419 121.507 54.6581 120.928 54.0787C120.348 53.4993 119.565 53.1706 118.745 53.1635C117.926 53.1564 117.136 53.4714 116.547 54.0406L104.047 66.5406L104.028 66.5687C102.774 65.9538 101.397 65.6311 100 65.625C97.5138 65.625 95.1292 66.6127 93.3711 68.3709C91.6129 70.129 90.6252 72.5136 90.6252 75C90.6303 76.3942 90.9508 77.7691 91.5627 79.0219L91.5346 79.0406L79.0346 91.5406C78.5973 91.978 78.2997 92.5354 78.1793 93.1421C78.059 93.7487 78.1214 94.3775 78.3587 94.9487C78.5959 95.5199 78.9973 96.0078 79.5121 96.3507C80.0268 96.6936 80.6317 96.8761 81.2502 96.875ZM100 71.875C100.618 71.875 101.222 72.0583 101.736 72.4016C102.25 72.745 102.651 73.2331 102.887 73.8041C103.124 74.3751 103.186 75.0035 103.065 75.6097C102.945 76.2158 102.647 76.7727 102.21 77.2097C101.773 77.6467 101.216 77.9444 100.61 78.065C100.004 78.1855 99.3753 78.1236 98.8043 77.8871C98.2333 77.6506 97.7452 77.2501 97.4019 76.7362C97.0585 76.2222 96.8752 75.6181 96.8752 75C96.8752 74.1712 97.2045 73.3763 97.7905 72.7903C98.3766 72.2042 99.1714 71.875 100 71.875Z" fill="black"/>
</svg>
