<svg width="40" height="40" viewBox="0 0 40 40" fill="none" xmlns="http://www.w3.org/2000/svg">
<path d="M3.125 21.6365V38.75H4.375V25.625H16.875V38.75H18.125V21.6945C18.7039 21.288 19.1765 20.7481 19.5029 20.1205C19.8292 19.4928 19.9997 18.7959 20 18.0885V13.125C19.9991 12.2965 19.6695 11.5022 19.0837 10.9163C18.4978 10.3305 17.7035 10.0009 16.875 10H13.75C13.75 9.83423 13.6841 9.67525 13.5669 9.55803L13.2309 9.22203C13.57 8.71177 13.7506 8.11264 13.75 7.5V4.76128L14.014 4.62929C14.3734 4.44957 14.6616 4.15377 14.8319 3.7898C15.0022 3.42584 15.0446 3.01503 14.9523 2.62395C14.8599 2.23286 14.6383 1.88441 14.3232 1.63504C14.0081 1.38567 13.618 1.25 13.2162 1.25H10.625C9.79649 1.25094 9.00218 1.58048 8.41633 2.16633C7.83048 2.75218 7.50094 3.54649 7.5 4.375V10H4.375C3.54649 10.0009 2.75218 10.3305 2.16633 10.9163C1.58048 11.5022 1.25094 12.2965 1.25 13.125V17.9688C1.2502 18.6848 1.42026 19.3906 1.74621 20.0282C2.07215 20.6658 2.54468 21.217 3.125 21.6365ZM16.875 24.375H4.375V22.2755C5.38768 22.6068 6.48478 22.5704 7.47328 22.1727C8.46178 21.775 9.27837 21.0415 9.7794 20.1011L10.0654 19.5648L13.0243 21.6782C13.5748 22.0716 14.2085 22.3329 14.8762 22.4422C15.5439 22.5514 16.2278 22.5055 16.875 22.3081V24.375ZM18.75 18.0885C18.75 18.6693 18.59 19.239 18.2874 19.7349C17.9849 20.2308 17.5516 20.6338 17.0351 20.8996C16.5186 21.1654 15.9388 21.2838 15.3595 21.2417C14.7801 21.1996 14.2235 20.9987 13.7508 20.6611L10.6587 18.4524L11.7009 16.4983L15.3788 18.0745C15.4739 18.1152 15.5776 18.1317 15.6806 18.1225C15.7836 18.1133 15.8827 18.0787 15.9691 18.0218C16.0554 17.9648 16.1263 17.8874 16.1753 17.7963C16.2243 17.7052 16.25 17.6034 16.25 17.5V16.25H18.75V18.0885ZM16.875 11.25C17.3721 11.2506 17.8487 11.4483 18.2002 11.7998C18.5517 12.1513 18.7494 12.6279 18.75 13.125V15H16.25V13.75H15V16.5522L12.2913 15.3913L13.6765 12.7941C13.7248 12.7036 13.75 12.6026 13.75 12.5V11.25H16.875ZM10.625 2.5H13.2162C13.3364 2.5 13.4532 2.5406 13.5475 2.61522C13.6417 2.68985 13.7081 2.79413 13.7357 2.91116C13.7633 3.02819 13.7507 3.15113 13.6997 3.26005C13.6487 3.36897 13.5625 3.45749 13.4549 3.51128L12.9775 3.75H10C9.83425 3.75 9.67528 3.81583 9.55807 3.93303L8.75 4.74109V4.375C8.75056 3.87789 8.94829 3.4013 9.2998 3.0498C9.6513 2.69829 10.1279 2.50056 10.625 2.5ZM8.75 6.50887L10.2589 5H12.5V7.5C12.5 7.99728 12.3025 8.47419 11.9508 8.82583C11.5992 9.17746 11.1223 9.375 10.625 9.375C10.1277 9.375 9.65081 9.17746 9.29917 8.82583C8.94754 8.47419 8.75 7.99728 8.75 7.5V6.50887ZM9.375 11.7059C9.1852 11.5963 9.02755 11.4388 8.91785 11.2491C8.80815 11.0594 8.75027 10.8441 8.75 10.625V9.99828C8.9435 10.1437 9.15324 10.2662 9.375 10.3633V11.7059ZM4.375 11.25H7.57911C7.66834 11.5921 7.82883 11.9115 8.05008 12.1873C8.27133 12.4631 8.54834 12.689 8.86298 12.8503L6.25 15.8366V13.75H5V15.625H2.5V13.125C2.50057 12.6279 2.6983 12.1513 3.0498 11.7998C3.40131 11.4483 3.87789 11.2506 4.375 11.25ZM2.5 16.875H5V17.5C4.99999 17.6272 5.03878 17.7513 5.11117 17.8558C5.18357 17.9604 5.28613 18.0403 5.40517 18.0851C5.52421 18.1298 5.65405 18.1371 5.77737 18.1061C5.9007 18.0751 6.01163 18.0072 6.09535 17.9115L10.4704 12.9115C10.5701 12.7976 10.625 12.6514 10.625 12.5V10.625C11.2376 10.6256 11.8368 10.445 12.3471 10.1059L12.5 10.2589V12.3438L8.67649 19.5129C8.33213 20.1585 7.78181 20.6706 7.11303 20.9676C6.44424 21.2646 5.69536 21.3295 4.98544 21.152C4.27552 20.9746 3.6453 20.5649 3.19496 19.9881C2.74462 19.4113 2.5 18.7005 2.5 17.9688V16.875Z" fill="white"/>
<path d="M11.2569 38.845L12.4923 38.6549L11.2423 30.5299C11.2202 30.3863 11.1488 30.2549 11.0403 30.1582C10.9317 30.0616 10.793 30.0058 10.6478 30.0004C10.5026 29.995 10.36 30.0404 10.2446 30.1288C10.1293 30.2171 10.0483 30.3429 10.0156 30.4844L8.14062 38.6094L9.35858 38.8905L10.5018 33.9368L11.2569 38.845Z" fill="white"/>
<path d="M35.9717 5.10494L32.2217 2.60494C32.119 2.53651 31.9984 2.5 31.875 2.5C31.7516 2.5 31.631 2.53651 31.5283 2.60494L27.7783 5.10494C27.6927 5.16201 27.6225 5.23934 27.574 5.33005C27.5254 5.42077 27.5 5.52207 27.5 5.62496V9.99996C27.5 10.1029 27.5254 10.2042 27.574 10.2949C27.6225 10.3856 27.6927 10.4629 27.7783 10.52L31.5283 13.02C31.631 13.0884 31.7516 13.125 31.875 13.125C31.9984 13.125 32.119 13.0884 32.2217 13.02L35.9717 10.52C36.0573 10.4629 36.1275 10.3856 36.176 10.2949C36.2246 10.2042 36.25 10.1029 36.25 9.99996V5.62496C36.25 5.52207 36.2246 5.42077 36.176 5.33005C36.1275 5.23934 36.0573 5.16201 35.9717 5.10494ZM31.875 3.87615L34.4983 5.62496L31.875 7.37377L29.2517 5.62496L31.875 3.87615ZM28.75 6.79277L31.25 8.45943V11.3321L28.75 9.66549V6.79277ZM32.5 11.3321V8.45943L35 6.79277V9.66549L32.5 11.3321Z" fill="white"/>
<path d="M28.125 14.375H26.25V15.625H28.125V14.375Z" fill="white"/>
<path d="M37.5 14.375H29.375V15.625H37.5V14.375Z" fill="white"/>
<path d="M31.25 16.875H24.375V18.125H31.25V16.875Z" fill="white"/>
<path d="M38.75 16.875H32.5V18.125H38.75V16.875Z" fill="white"/>
<path d="M23.125 4.37495V3.12495H21.25C21.0842 3.12496 20.9253 3.1908 20.8081 3.30801C20.6909 3.42522 20.625 3.58419 20.625 3.74995V7.49995C20.625 7.66571 20.6909 7.82468 20.8081 7.94189C20.9253 8.0591 21.0842 8.12495 21.25 8.12495H25C25.1658 8.12495 25.3247 8.0591 25.4419 7.94189C25.5591 7.82468 25.625 7.66571 25.625 7.49995V4.00886L26.6919 2.94193L25.8081 2.05798L22.0581 5.80798L22.9419 6.69193L24.375 5.25886V6.87495H21.875V4.37495H23.125Z" fill="white"/>
<path d="M28.125 31.25H26.25V32.5H28.125V31.25Z" fill="white"/>
<path d="M37.5 31.25H35.625V32.5H37.5V31.25Z" fill="white"/>
<path d="M34.375 31.25H29.375V32.5H34.375V31.25Z" fill="white"/>
<path d="M31.25 33.75H26.875V35H31.25V33.75Z" fill="white"/>
<path d="M25.625 33.75H24.375V35H25.625V33.75Z" fill="white"/>
<path d="M38.75 33.75H32.5V35H38.75V33.75Z" fill="white"/>
<path d="M20.625 24.3751C20.625 24.5408 20.6909 24.6998 20.8081 24.817C20.9253 24.9342 21.0842 25.0001 21.25 25.0001H25C25.1658 25.0001 25.3247 24.9342 25.4419 24.817C25.5591 24.6998 25.625 24.5408 25.625 24.3751V20.884L26.6919 19.817L25.8081 18.9331L22.0581 22.6831L22.9419 23.567L24.375 22.134V23.7501H21.875V21.2501H23.125V20.0001H21.25C21.0842 20.0001 20.9253 20.0659 20.8081 20.1831C20.6909 20.3003 20.625 20.4593 20.625 20.6251V24.3751Z" fill="white"/>
<path d="M36.25 20.625H27.5C27.3342 20.625 27.1753 20.6909 27.0581 20.8081C26.9409 20.9253 26.875 21.0842 26.875 21.25V28.125C26.875 28.2908 26.9409 28.4497 27.0581 28.5669C27.1753 28.6841 27.3342 28.75 27.5 28.75H36.25C36.4158 28.75 36.5747 28.6841 36.6919 28.5669C36.8091 28.4497 36.875 28.2908 36.875 28.125V21.25C36.875 21.0842 36.8091 20.9253 36.6919 20.8081C36.5747 20.6909 36.4158 20.625 36.25 20.625ZM35.625 21.875V22.8246L34.0409 24.0919C33.7753 24.3045 33.4465 24.4227 33.1063 24.428C32.7661 24.4333 32.4338 24.3254 32.1616 24.1212C31.7194 23.7878 31.1876 23.5944 30.6345 23.5658C30.0814 23.5373 29.5325 23.675 29.0583 23.9611L28.125 24.5211V21.875H35.625ZM28.125 27.5V25.9789L29.7014 25.033C29.9627 24.8753 30.2653 24.7995 30.5701 24.8152C30.8749 24.8309 31.168 24.9375 31.4117 25.1212C31.9055 25.4917 32.5085 25.6876 33.1258 25.6779C33.7431 25.6683 34.3397 25.4537 34.8218 25.068L35.625 24.4254V27.5H28.125Z" fill="white"/>
</svg>
