<svg width="80" height="80" viewBox="0 0 80 80" fill="none" xmlns="http://www.w3.org/2000/svg">
<path d="M58.6662 26.6661C58.1612 26.666 57.6608 26.7622 57.1918 26.9494C57.0476 26.4184 56.7953 25.9228 56.4507 25.4938C56.1062 25.0648 55.6767 24.7115 55.1893 24.4561C54.7019 24.2007 54.167 24.0487 53.6181 24.0096C53.0692 23.9705 52.5182 24.0451 51.9995 24.2288V23.9994C51.9988 23.0308 51.6467 22.0953 51.0085 21.3666C50.3703 20.6379 49.4893 20.1656 48.5292 20.0373C47.5691 19.909 46.595 20.1335 45.7879 20.6691C44.9808 21.2047 44.3954 22.0149 44.1405 22.9494C43.5339 22.7083 42.8776 22.6193 42.2287 22.6903C41.5799 22.7614 40.9583 22.9902 40.4183 23.3568C39.8782 23.7235 39.4362 24.2168 39.1308 24.7936C38.8254 25.3705 38.6658 26.0134 38.6662 26.6661V37.8421L37.2662 38.5421C36.1515 39.0993 35.2029 39.9395 34.515 40.9787C33.8272 42.0178 33.4245 43.2194 33.347 44.4631C33.2696 45.7068 33.5202 46.9491 34.0737 48.0655C34.6273 49.182 35.4645 50.1334 36.5013 50.8246L40.1458 53.2542C40.5114 53.4975 40.8111 53.8275 41.0182 54.2147C41.2253 54.6019 41.3334 55.0343 41.3328 55.4734V79.9994H43.9995V55.4734C44.0005 54.5952 43.7841 53.7304 43.3697 52.9562C42.9553 52.1819 42.3557 51.5222 41.6245 51.0359L37.98 48.6062C37.3318 48.1741 36.8085 47.5793 36.4624 46.8813C36.1163 46.1833 35.9596 45.4067 36.0081 44.6292C36.0565 43.8516 36.3083 43.1004 36.7383 42.4508C37.1683 41.8011 37.7613 41.2758 38.4582 40.9274L38.6662 40.8234V43.9994H41.3328V26.6661C41.3328 26.3125 41.4733 25.9733 41.7234 25.7233C41.9734 25.4732 42.3125 25.3327 42.6662 25.3327C43.0198 25.3327 43.3589 25.4732 43.609 25.7233C43.859 25.9733 43.9995 26.3125 43.9995 26.6661V38.6661H46.6662V23.9994C46.6662 23.6458 46.8066 23.3067 47.0567 23.0566C47.3067 22.8066 47.6459 22.6661 47.9995 22.6661C48.3531 22.6661 48.6923 22.8066 48.9423 23.0566C49.1924 23.3067 49.3328 23.6458 49.3328 23.9994V38.6661H51.9995V27.9994C51.9995 27.6458 52.14 27.3067 52.39 27.0566C52.6401 26.8066 52.9792 26.6661 53.3328 26.6661C53.6864 26.6661 54.0256 26.8066 54.2756 27.0566C54.5257 27.3067 54.6662 27.6458 54.6662 27.9994V39.9994H57.3328V30.6661C57.3328 30.3125 57.4733 29.9733 57.7233 29.7233C57.9734 29.4732 58.3125 29.3327 58.6662 29.3327C59.0198 29.3327 59.3589 29.4732 59.609 29.7233C59.859 29.9733 59.9995 30.3125 59.9995 30.6661V42.0366C59.9952 45.7504 59.1306 49.4128 57.4737 52.7366C57.381 52.9217 57.3328 53.1258 57.3328 53.3327V79.9994H59.9995V53.6431C61.7498 50.024 62.6613 46.0567 62.6662 42.0366V30.6661C62.6649 29.6056 62.2431 28.5889 61.4932 27.839C60.7433 27.0891 59.7266 26.6673 58.6662 26.6661Z" fill="white"/>
<path d="M25.3333 48.3233C25.3352 47.6227 25.1981 46.9286 24.93 46.2813C24.6619 45.634 24.268 45.0463 23.7713 44.5522L21.3028 42.0833C20.8885 41.6713 20.5601 41.1812 20.3364 40.6414C20.1128 40.1016 19.9984 39.5228 19.9999 38.9385V32C19.9999 31.6464 20.1404 31.3072 20.3905 31.0572C20.6405 30.8071 20.9797 30.6667 21.3333 30.6667C21.6869 30.6667 22.026 30.8071 22.2761 31.0572C22.5261 31.3072 22.6666 31.6464 22.6666 32V36C22.6666 36.2799 22.7547 36.5527 22.9184 36.7797C23.0821 37.0068 23.3131 37.1766 23.5786 37.265L23.7833 37.3333C24.6233 37.6125 25.3539 38.1492 25.8715 38.8672C26.3891 39.5853 26.6673 40.4482 26.6666 41.3333H29.3333C29.3344 40.018 28.9581 38.7301 28.2491 37.6222C27.54 36.5144 26.5281 35.6333 25.3333 35.0833V21.3333C25.3333 20.9797 25.4738 20.6406 25.7238 20.3905C25.9738 20.1405 26.313 20 26.6666 20C27.0202 20 27.3594 20.1405 27.6094 20.3905C27.8595 20.6406 27.9999 20.9797 27.9999 21.3333V32H30.6666V16C30.6666 15.6464 30.8071 15.3072 31.0571 15.0572C31.3072 14.8071 31.6463 14.6667 31.9999 14.6667C32.3536 14.6667 32.6927 14.8071 32.9427 15.0572C33.1928 15.3072 33.3333 15.6464 33.3333 16V32H35.9999V20C35.9999 19.6464 36.1404 19.3072 36.3905 19.0572C36.6405 18.8071 36.9796 18.6667 37.3333 18.6667C37.6869 18.6667 38.026 18.8071 38.2761 19.0572C38.5261 19.3072 38.6666 19.6464 38.6666 20V21.3333H41.3333V20C41.3335 19.36 41.1801 18.7293 40.886 18.161C40.5918 17.5926 40.1656 17.1031 39.643 16.7336C39.1204 16.3642 38.5168 16.1255 37.8829 16.0378C37.249 15.95 36.6032 16.0157 35.9999 16.2293V16C35.9999 14.9391 35.5785 13.9217 34.8284 13.1716C34.0782 12.4214 33.0608 12 31.9999 12C30.9391 12 29.9217 12.4214 29.1715 13.1716C28.4214 13.9217 27.9999 14.9391 27.9999 16V17.5627C27.3967 17.3491 26.7509 17.2834 26.117 17.3711C25.4831 17.4589 24.8794 17.6975 24.3569 18.067C23.8343 18.4364 23.4081 18.9259 23.1139 19.4943C22.8198 20.0627 22.6664 20.6934 22.6666 21.3333V28.2293C22.0633 28.0157 21.4176 27.95 20.7837 28.0378C20.1497 28.1255 19.5461 28.3642 19.0235 28.7336C18.501 29.1031 18.0747 29.5926 17.7806 30.161C17.4865 30.7293 17.3331 31.36 17.3333 32V38.9385C17.3307 39.8732 17.5135 40.7991 17.8711 41.6626C18.2287 42.5262 18.754 43.3103 19.4166 43.9695L21.8851 46.438C22.1336 46.6849 22.3306 46.9787 22.4648 47.3024C22.5989 47.626 22.6675 47.973 22.6666 48.3233V50.6667H21.3333C20.9797 50.6667 20.6405 50.8071 20.3905 51.0572C20.1404 51.3072 19.9999 51.6464 19.9999 52V80H22.6666V53.3333H33.3333V50.6667H25.3333V48.3233Z" fill="white"/>
<path d="M25.3333 56H27.9999V58.6667H25.3333V56Z" fill="white"/>
<path d="M38.6667 0H41.3334V12H38.6667V0Z" fill="white"/>
<path d="M18.8459 6.0271L21.1551 4.69385L25.7591 12.668L23.4499 14.0012L18.8459 6.0271Z" fill="white"/>
<path d="M4.69165 21.1542L6.0249 18.845L16.4169 24.845L15.0836 27.1542L4.69165 21.1542Z" fill="white"/>
<path d="M0 38.6667H12V41.3334H0V38.6667Z" fill="white"/>
<path d="M4.69165 58.8458L15.0837 52.8458L16.4169 55.155L6.0249 61.155L4.69165 58.8458Z" fill="white"/>
<path d="M63.5791 55.1562L64.9124 52.8471L75.3043 58.8471L73.9711 61.1562L63.5791 55.1562Z" fill="white"/>
<path d="M68 38.6667H80V41.3334H68V38.6667Z" fill="white"/>
<path d="M63.5833 24.8438L73.9752 18.8438L75.3085 21.1529L64.9165 27.1529L63.5833 24.8438Z" fill="white"/>
<path d="M52.8416 15.0854L58.8416 4.69339L61.1507 6.02664L55.1507 16.4186L52.8416 15.0854Z" fill="white"/>
<path d="M29.0542 4.27917L31.6302 3.58851L33.0115 8.74051L30.4355 9.43117L29.0542 4.27917Z" fill="white"/>
<path d="M12.6541 14.5438L14.5395 12.6583L18.3101 16.4289L16.4246 18.3143L12.6541 14.5438Z" fill="white"/>
<path d="M3.59595 31.6312L4.28661 29.0552L9.43861 30.4366L8.74795 33.0126L3.59595 31.6312Z" fill="white"/>
<path d="M3.60425 48.3771L8.75625 46.9957L9.44692 49.5717L4.29491 50.9531L3.60425 48.3771Z" fill="white"/>
<path d="M47.0083 8.74377L48.3896 3.59177L50.9656 4.28244L49.5843 9.43444L47.0083 8.74377Z" fill="white"/>
<path d="M61.675 16.4354L65.4456 12.6649L67.331 14.5503L63.5605 18.3209L61.675 16.4354Z" fill="white"/>
<path d="M70.5791 30.4188L75.7311 29.0374L76.4218 31.6134L71.2698 32.9948L70.5791 30.4188Z" fill="white"/>
<path d="M70.5833 49.5729L71.2739 46.9969L76.4259 48.3783L75.7353 50.9543L70.5833 49.5729Z" fill="white"/>
</svg>
