<svg width="80" height="80" viewBox="0 0 80 80" fill="none" xmlns="http://www.w3.org/2000/svg">
<path d="M71.4642 15.3026H73.936C74.7983 15.3026 75.4975 14.6034 75.4975 13.7411C75.4975 12.8789 74.7983 12.1797 73.936 12.1797H68.0024C67.1402 12.1797 66.4409 12.8789 66.4409 13.7411V19.6747C66.4409 20.537 67.1402 21.2362 68.0024 21.2362C68.8647 21.2362 69.5639 20.537 69.5639 19.6747V17.9567C74.3017 24.2995 76.877 31.9956 76.877 40C76.877 60.3342 60.3342 76.877 40 76.877C19.6658 76.877 3.12295 60.3342 3.12295 40C3.12295 19.6658 19.6658 3.12295 40 3.12295C41.5039 3.12295 43.0174 3.2143 44.4989 3.39434C45.3538 3.4977 46.1335 2.88889 46.2375 2.03273C46.3416 1.17673 45.732 0.398176 44.8759 0.294182C43.2697 0.0989975 41.6294 0 40 0C29.3156 0 19.2706 4.16071 11.7157 11.7157C4.16071 19.2706 0 29.3156 0 40C0 50.6844 4.16071 60.7294 11.7157 68.2842C19.2706 75.8393 29.3156 80 40 80C50.6844 80 60.7294 75.8393 68.2842 68.2842C75.8393 60.7294 80 50.6844 80 40C80 30.9839 76.9879 22.3283 71.4642 15.3026Z" fill="white"/>
<path d="M16.9369 23.5804C16.2082 23.1191 15.2437 23.3362 14.7822 24.0645C11.2176 29.6945 9.63953 36.4654 10.3389 43.1299C11.0486 49.8933 14.0927 56.2713 18.9105 61.0892C24.7246 66.9034 32.362 69.8105 39.9994 69.8105C47.6369 69.8105 55.2741 66.9035 61.0884 61.0892C72.7169 49.4608 72.7169 30.5397 61.0884 18.9114C56.278 14.1012 49.9104 11.0582 43.1583 10.343C36.5061 9.63799 29.7426 11.2037 24.1149 14.7509C23.3852 15.2107 23.1667 16.175 23.6264 16.9045C24.0863 17.6342 25.0505 17.8526 25.78 17.3929C36.3884 10.7067 49.9993 12.2389 58.88 21.1197C69.2909 31.5305 69.2909 48.47 58.88 58.8808C48.4694 69.2918 31.5295 69.2918 21.1189 58.8808C12.3609 50.1228 10.8056 36.1831 17.421 25.7352C17.8821 25.0065 17.6655 24.0418 16.9369 23.5804Z" fill="white"/>
<path d="M60.2998 41.5872H62.2254C63.0876 41.5872 63.7868 40.8879 63.7868 40.0257C63.7868 39.1635 63.0876 38.4642 62.2254 38.4642H60.2998C59.4375 38.4642 58.7383 39.1635 58.7383 40.0257C58.7383 40.8879 59.4374 41.5872 60.2998 41.5872Z" fill="white"/>
<path d="M16.2146 39.9755C16.2146 40.8377 16.9138 41.5369 17.7761 41.5369H19.7017C20.5639 41.5369 21.2632 40.8377 21.2632 39.9755C21.2632 39.1132 20.5639 38.414 19.7017 38.414H17.7761C16.9138 38.414 16.2146 39.1131 16.2146 39.9755Z" fill="white"/>
<path d="M41.5873 19.7001V17.7745C41.5873 16.9122 40.8881 16.213 40.0258 16.213C39.1636 16.213 38.4644 16.9122 38.4644 17.7745V19.7001C38.4644 20.5623 39.1636 21.2616 40.0258 21.2616C40.8881 21.2616 41.5873 20.5623 41.5873 19.7001Z" fill="white"/>
<path d="M38.4141 60.2997V62.2253C38.4141 63.0876 39.1133 63.7868 39.9755 63.7868C40.8378 63.7868 41.537 63.0876 41.537 62.2253V60.2997C41.537 59.4374 40.8378 58.7382 39.9755 58.7382C39.1133 58.7382 38.4141 59.4373 38.4141 60.2997Z" fill="white"/>
<path d="M32.1738 29.9655C31.5639 29.3559 30.5754 29.3559 29.9654 29.9655C29.3556 30.5753 29.3556 31.564 29.9654 32.1739L35.2574 37.4659C34.8519 38.2217 34.6212 39.0847 34.6212 40.0007C34.6212 42.9669 37.0343 45.38 40.0005 45.38C42.9667 45.38 45.3798 42.9669 45.3798 40.0007C45.3798 39.0847 45.149 38.2217 44.7436 37.4659L55.4215 26.7881C56.0312 26.1783 56.0312 25.1896 55.4215 24.5797C54.8116 23.9701 53.8232 23.9701 53.2131 24.5797L42.5352 35.2575C41.7795 34.852 40.9165 34.6214 40.0005 34.6214C39.0845 34.6214 38.2215 34.8522 37.4658 35.2575L32.1738 29.9655ZM42.2568 40.0007C42.2568 41.2449 41.2447 42.257 40.0005 42.257C38.7563 42.257 37.7442 41.2449 37.7442 40.0007C37.7442 38.7565 38.7563 37.7443 40.0005 37.7443C41.2447 37.7443 42.2568 38.7565 42.2568 40.0007Z" fill="white"/>
<path d="M21.1178 21.1194C21.4098 20.829 21.5767 20.4261 21.5767 20.0155C21.5767 19.6048 21.4098 19.2035 21.1178 18.9115C20.8274 18.6212 20.4259 18.454 20.0139 18.454C19.6032 18.454 19.2003 18.6211 18.9099 18.9115C18.6196 19.2019 18.4524 19.6048 18.4524 20.0155C18.4524 20.4277 18.6195 20.829 18.9099 21.1194C19.2003 21.4097 19.6032 21.5769 20.0139 21.5769C20.4259 21.5769 20.8274 21.4097 21.1178 21.1194Z" fill="white"/>
<path d="M50.8168 4.66574C51.2292 4.66574 51.6321 4.50006 51.9224 4.20822C52.2128 3.91779 52.38 3.51633 52.38 3.10426C52.38 2.69359 52.213 2.29073 51.9224 2.0003C51.6321 1.71002 51.2292 1.54279 50.8168 1.54279C50.4062 1.54279 50.0033 1.70986 49.713 2.0003C49.4226 2.29073 49.2554 2.69359 49.2554 3.10426C49.2554 3.51649 49.4224 3.91779 49.713 4.20822C50.0033 4.50006 50.4062 4.66574 50.8168 4.66574Z" fill="white"/>
</svg>
