<svg width="40" height="40" viewBox="0 0 40 40" fill="none" xmlns="http://www.w3.org/2000/svg">
<path d="M39.8966 22.9242L37.8719 19.8263C36.9779 18.4574 35.4589 17.6399 33.8077 17.6399H28.5714V14.6267C28.5714 12.7869 27.0753 11.2908 25.2355 11.2908H15.4332C14.8831 8.41817 12.3545 6.23871 9.32385 6.23871C5.89207 6.23871 3.10044 9.0307 3.10044 12.4621C3.10044 14.6198 4.20525 16.5231 5.8779 17.6399H0.635056C0.284104 17.6399 0 17.924 0 18.275C0 18.6259 0.284104 18.91 0.635056 18.91H6.98417V20.1798H4.4443C4.09371 20.1798 3.80961 20.4639 3.80961 20.8148C3.80961 21.1658 4.09371 21.4495 4.4443 21.4495H6.98417V22.7193H0.635056C0.284104 22.7193 0 23.0034 0 23.3543C0 23.7053 0.284104 23.9894 0.635056 23.9894H6.98417V26.8014C5.86482 27.2951 5.07936 28.4119 5.07936 29.7118V30.3385C5.07936 30.6895 5.36383 30.9736 5.71442 30.9736H11.3456C11.7068 32.5271 13.0997 33.6896 14.7618 33.6896C16.4243 33.6896 17.8168 32.5271 18.1779 30.9736H30.3933C30.7548 32.5271 32.1477 33.6896 33.8095 33.6896C35.4712 33.6896 36.8645 32.5271 37.2256 30.9736H39.3651C39.7161 30.9736 39.9998 30.6895 39.9998 30.3385V23.2715C39.9998 23.148 39.9639 23.027 39.8966 22.9242ZM4.37019 12.4621C4.37019 9.73079 6.59252 7.50846 9.32385 7.50846C12.0555 7.50846 14.2775 9.73079 14.2775 12.4621C14.2775 15.1934 12.0555 17.4158 9.32385 17.4158C6.59252 17.4158 4.37019 15.1934 4.37019 12.4621ZM8.25391 23.9894H9.52366C9.87462 23.9894 10.1587 23.7053 10.1587 23.3543C10.1587 23.0034 9.87462 22.7193 9.52366 22.7193H8.25391V21.4495H12.6986C13.0492 21.4495 13.3333 21.1658 13.3333 20.8148C13.3333 20.4639 13.0492 20.1798 12.6986 20.1798H8.25391V18.91H16.5078C16.8584 18.91 17.1429 18.6259 17.1429 18.275C17.1429 17.924 16.8584 17.6399 16.5078 17.6399H12.7698C14.4166 16.5402 15.5091 14.6772 15.5425 12.5606H25.2359C26.3748 12.5606 27.3016 13.4877 27.3016 14.6267V26.5289H8.26191C8.25936 26.5289 8.25682 26.5296 8.25391 26.5296V23.9894ZM27.3016 29.7035H18.2357C18.1358 28.9732 17.8117 28.3149 17.3333 27.7986H27.3016V29.7035ZM8.26191 27.7986H12.1903C11.7122 28.3149 11.3878 28.9732 11.2882 29.7035H6.34911C6.35347 28.6528 7.21014 27.7986 8.26191 27.7986ZM14.7618 32.4199C13.5269 32.4199 12.5217 31.415 12.5217 30.1797C12.5217 28.9449 13.5269 27.9396 14.7618 27.9396C15.997 27.9396 17.0019 28.9449 17.0019 30.1797C17.0019 31.415 15.997 32.4199 14.7618 32.4199ZM33.8095 32.4199C32.5746 32.4199 31.5693 31.415 31.5693 30.1797C31.5693 28.9449 32.5746 27.9396 33.8095 27.9396C35.0447 27.9396 36.0496 28.9449 36.0496 30.1797C36.0496 31.415 35.0447 32.4199 33.8095 32.4199ZM38.7301 29.7035H37.2834C37.0498 27.9934 35.5828 26.6699 33.8095 26.6699C32.0362 26.6699 30.5695 27.9934 30.3356 29.7035H28.5714V18.91H33.8077C35.028 18.91 36.1502 19.512 36.8093 20.5206L38.7301 23.4604V29.7035Z" fill="white"/>
<path d="M34.8479 30.1798C34.8479 30.7535 34.3829 31.2185 33.8092 31.2185C33.2355 31.2185 32.7705 30.7535 32.7705 30.1798C32.7705 29.6061 33.2355 29.1411 33.8092 29.1411C34.3829 29.1411 34.8479 29.6061 34.8479 30.1798Z" fill="white"/>
<path d="M15.8006 30.1798C15.8006 30.7535 15.3356 31.2185 14.762 31.2185C14.1887 31.2185 13.7236 30.7535 13.7236 30.1798C13.7236 29.6061 14.1887 29.1411 14.762 29.1411C15.3356 29.1411 15.8006 29.6061 15.8006 30.1798Z" fill="white"/>
<path d="M10.1584 12.4622V9.68438C10.1584 9.33342 9.87432 9.04968 9.52337 9.04968C9.17278 9.04968 8.88867 9.33342 8.88867 9.68438V12.2551L7.59277 14.0328C7.38605 14.3162 7.44817 14.7129 7.73155 14.9192C7.8449 15.0021 7.97569 15.0417 8.10539 15.0417C8.30121 15.0417 8.49449 14.9512 8.61874 14.7805L10.0367 12.836C10.1156 12.7278 10.1584 12.597 10.1584 12.4622Z" fill="white"/>
<path d="M33.5957 19.5447H32.3812C32.0302 19.5447 31.7461 19.8288 31.7461 20.1798V24.6241C31.7461 24.9751 32.0302 25.2592 32.3812 25.2592H36.6543C37.0525 25.2592 37.4089 25.0532 37.6087 24.7091C37.8086 24.3651 37.8089 23.9531 37.612 23.6098L36.1294 21.0147C35.6117 20.1086 34.6405 19.5447 33.5957 19.5447ZM33.0162 23.9894V20.8149H33.5957C34.186 20.8149 34.7343 21.1327 35.0267 21.645L36.3662 23.9894H33.0162Z" fill="white"/>
</svg>
