<svg width="40" height="40" viewBox="0 0 40 40" fill="none" xmlns="http://www.w3.org/2000/svg">
<path d="M13 28.6666H11.6667C11.2985 28.6666 11 28.9651 11 29.3333C11 29.7015 11.2985 30 11.6667 30H13C13.3682 30 13.6667 29.7015 13.6667 29.3333C13.6667 28.9651 13.3682 28.6666 13 28.6666Z" fill="white"/>
<path d="M31.6667 28.6666H15.6667C15.2985 28.6666 15 28.9651 15 29.3333C15 29.7015 15.2985 30 15.6667 30H31.6667C32.0348 30 32.3333 29.7015 32.3333 29.3333C32.3333 28.9651 32.0348 28.6666 31.6667 28.6666Z" fill="white"/>
<path d="M13 24.6666H11.6667C11.2985 24.6666 11 24.9651 11 25.3333C11 25.7015 11.2985 26 11.6667 26H13C13.3682 26 13.6667 25.7015 13.6667 25.3333C13.6667 24.9651 13.3682 24.6666 13 24.6666Z" fill="white"/>
<path d="M31.6667 24.6666H15.6667C15.2985 24.6666 15 24.9651 15 25.3333C15 25.7015 15.2985 26 15.6667 26H31.6667C32.0348 26 32.3333 25.7015 32.3333 25.3333C32.3333 24.9651 32.0348 24.6666 31.6667 24.6666Z" fill="white"/>
<path d="M13 20.6666H11.6667C11.2985 20.6666 11 20.9651 11 21.3333C11 21.7015 11.2985 22 11.6667 22H13C13.3682 22 13.6667 21.7015 13.6667 21.3333C13.6667 20.9651 13.3682 20.6666 13 20.6666Z" fill="white"/>
<path d="M31.6667 20.6666H15.6667C15.2985 20.6666 15 20.9651 15 21.3333C15 21.7015 15.2985 22 15.6667 22H31.6667C32.0348 22 32.3333 21.7015 32.3333 21.3333C32.3333 20.9651 32.0348 20.6666 31.6667 20.6666Z" fill="white"/>
<path d="M13 16.6666H11.6667C11.2985 16.6666 11 16.9651 11 17.3333C11 17.7015 11.2985 18 11.6667 18H13C13.3682 18 13.6667 17.7015 13.6667 17.3333C13.6667 16.9651 13.3682 16.6666 13 16.6666Z" fill="white"/>
<path d="M31.6667 16.6666H15.6667C15.2985 16.6666 15 16.9651 15 17.3333C15 17.7015 15.2985 18 15.6667 18H31.6667C32.0348 18 32.3333 17.7015 32.3333 17.3333C32.3333 16.9651 32.0348 16.6666 31.6667 16.6666Z" fill="white"/>
<path d="M13 12.6666H11.6667C11.2985 12.6666 11 12.9651 11 13.3333C11 13.7015 11.2985 14 11.6667 14H13C13.3682 14 13.6667 13.7015 13.6667 13.3333C13.6667 12.9651 13.3682 12.6666 13 12.6666Z" fill="white"/>
<path d="M31.6667 12.6666H15.6667C15.2985 12.6666 15 12.9651 15 13.3333C15 13.7015 15.2985 14 15.6667 14H31.6667C32.0348 14 32.3333 13.7015 32.3333 13.3333C32.3333 12.9651 32.0348 12.6666 31.6667 12.6666Z" fill="white"/>
<path d="M36.3247 9.958C36.3213 9.89958 36.3099 9.84192 36.2907 9.78667C36.2833 9.76533 36.278 9.74467 36.2687 9.724C36.2362 9.6515 36.1911 9.58533 36.1353 9.52867L26.802 0.195333C26.7453 0.139583 26.6792 0.0944167 26.6067 0.062C26.586 0.0526667 26.5653 0.0473333 26.5447 0.04C26.4889 0.0208333 26.4308 0.00916667 26.372 0.00533333C26.3607 0.00733333 26.348 0 26.3333 0H7.66667C7.2985 0 7 0.2985 7 0.666667V2.66667H3.66667C3.2985 2.66667 3 2.96517 3 3.33333V39.3333C3 39.7015 3.2985 40 3.66667 40H31.6667C32.0348 40 32.3333 39.7015 32.3333 39.3333V36H35.6667C36.0348 36 36.3333 35.7015 36.3333 35.3333V10C36.3333 9.98533 36.326 9.97267 36.3247 9.958ZM27 2.276L34.0573 9.33333H27V2.276ZM31 38.6667H4.33333V4H7V35.3333C7 35.7015 7.2985 36 7.66667 36H31V38.6667ZM35 34.6667H8.33333V1.33333H25.6667V10C25.6667 10.3682 25.9652 10.6667 26.3333 10.6667H35V34.6667Z" fill="white"/>
<path d="M15.6667 6H11.6667C11.2985 6 11 6.2985 11 6.66667V10.6667C11 11.0348 11.2985 11.3333 11.6667 11.3333H15.6667C16.0348 11.3333 16.3333 11.0348 16.3333 10.6667V6.66667C16.3333 6.2985 16.0348 6 15.6667 6ZM15 10H12.3333V7.33333H15V10Z" fill="white"/>
</svg>
