<svg width="18" height="18" viewBox="0 0 18 18" fill="none" xmlns="http://www.w3.org/2000/svg">
<path fill-rule="evenodd" clip-rule="evenodd" d="M2.75 14.25H13.25C13.4489 14.25 13.6397 14.329 13.7803 14.4697C13.921 14.6103 14 14.8011 14 15C14 15.1989 13.921 15.3897 13.7803 15.5303C13.6397 15.671 13.4489 15.75 13.25 15.75H2.75C2.55109 15.75 2.36032 15.671 2.21967 15.5303C2.07902 15.3897 2 15.1989 2 15C2 14.8011 2.07902 14.6103 2.21967 14.4697C2.36032 14.329 2.55109 14.25 2.75 14.25ZM8.75 9.88125L11.1823 7.44975L12.2428 8.51025L8 12.753L3.75725 8.51025L4.81775 7.44975L7.25 9.88125V1.5H8.75V9.88125Z" fill="white"/>
</svg>
