<svg width="50" height="50" viewBox="0 0 50 50" fill="none" xmlns="http://www.w3.org/2000/svg">
<path d="M48.4196 22.6562C48.3139 20.0074 47.6873 17.4054 46.5757 14.9988C45.3655 12.3727 43.6534 10.0086 41.5356 8.03975C37.08 3.86279 31.2072 1.5625 24.9991 1.5625C20.3636 1.56249 15.8322 2.93706 11.9779 5.51241C8.1236 8.08775 5.11955 11.7482 3.34561 16.0308C1.57168 20.3135 1.10754 25.026 2.01188 29.5724C2.91623 34.1189 5.14845 38.2951 8.42626 41.5728C12.7924 45.9389 18.705 48.4057 24.8795 48.4372C31.054 48.4687 36.9915 46.0623 41.4019 41.741L39.2144 39.509C35.4247 43.2394 30.3168 45.3247 24.9991 45.3125C13.7988 45.3125 4.68661 36.2003 4.68661 25C4.68661 13.7997 13.7988 4.6875 24.9991 4.6875C36.0097 4.6875 45.3116 13.2739 45.3116 23.4375V26.9531C45.3116 29.7532 42.8583 32.0312 39.8429 32.0312C36.8274 32.0312 34.3741 29.7532 34.3741 26.9531V15.625H31.2491V18.2374C29.799 16.8905 27.9738 16.016 26.0154 15.7299C24.0571 15.4438 22.058 15.7596 20.2832 16.6354C18.5083 17.5111 17.0415 18.9056 16.0771 20.6339C15.1127 22.3621 14.6963 24.3427 14.883 26.313C15.0697 28.2833 15.8508 30.1504 17.1226 31.6668C18.3945 33.1831 20.0971 34.2772 22.0049 34.804C23.9126 35.3308 25.9354 35.2655 27.8052 34.6166C29.6749 33.9678 31.3034 32.766 32.4747 31.1707C33.9792 33.5566 36.7188 35.1562 39.8429 35.1562C44.5814 35.1562 48.4366 31.4764 48.4366 26.9531V22.6562H48.4196ZM24.6085 32.0312C23.2951 32.0312 22.0112 31.6418 20.9192 30.9121C19.8271 30.1824 18.976 29.1453 18.4733 27.9319C17.9707 26.7185 17.8392 25.3833 18.0955 24.0951C18.3517 22.8069 18.9841 21.6237 19.9129 20.695C20.8416 19.7663 22.0248 19.1338 23.313 18.8776C24.6011 18.6214 25.9363 18.7529 27.1497 19.2555C28.3632 19.7581 29.4003 20.6092 30.13 21.7013C30.8596 22.7933 31.2491 24.0772 31.2491 25.3906C31.2471 27.1512 30.5468 28.8391 29.3019 30.0841C28.057 31.329 26.3691 32.0293 24.6085 32.0312Z" fill="white"/>
</svg>
