<svg width="200" height="200" viewBox="0 0 200 200" fill="none" xmlns="http://www.w3.org/2000/svg">
<g clip-path="url(#clip0)">
<path d="M3.90625 159.766H196.094V183.203H3.90625V159.766Z" fill="#4EAAF5"/>
<path d="M3.90625 136.328H196.094V159.766H3.90625V136.328Z" fill="#4EAAF5"/>
<path d="M196.094 112.891C196.094 -15.2344 3.90625 -15.2344 3.90625 112.891V136.328H196.094C196.094 128.516 196.094 120.703 196.094 112.891Z" fill="#4EAAF5"/>
<path d="M171.484 113.034C171.484 17.7211 28.5156 17.7211 28.5156 113.034V136.328H171.484C171.484 130.516 171.484 118.845 171.484 113.034Z" fill="white"/>
<path d="M81.4321 136.328C81.4321 136.328 74.702 125.202 84.6692 115.234C94.6364 105.267 92.1661 96.875 92.1661 96.875C92.1661 96.875 105.285 114.952 105.285 122.108C111.248 118.359 113.281 107.364 113.281 107.364C113.281 107.364 120.79 114.349 120.79 136.328H81.4321Z" fill="#80B4FB"/>
<path d="M193.363 74.0973C189.223 63.0195 183.191 53.0934 175.441 44.5973C168.133 36.5738 159.387 29.8824 149.445 24.7106C139.949 19.7652 129.586 16.316 118.645 14.4567C118.43 14.4215 118.207 14.402 117.988 14.402C116.078 14.402 114.461 15.7692 114.141 17.6559C113.781 19.777 115.215 21.8 117.336 22.1594C120.261 22.6567 123.143 23.2848 125.975 24.0297L120.614 40.1992C114.018 38.5168 107.095 37.6426 100 37.6426C93.1469 37.6426 86.4531 38.4567 80.0602 40.0277L74.6981 23.8559C77.6184 23.1094 80.591 22.4875 83.609 22.0031C85.734 21.6633 87.1871 19.6551 86.8473 17.5266C86.6988 16.6047 86.2223 15.7645 85.5113 15.1629C84.6442 14.4328 83.4918 14.1125 82.3707 14.2883C71.3278 16.0617 60.8551 19.4484 51.2379 24.3547C41.1836 29.4922 32.3242 36.1719 24.918 44.207C17.0586 52.7227 10.9414 62.6875 6.7383 73.8281C2.25783 85.707 -0.00779236 98.8477 2.01356e-05 112.891V183.203C2.01356e-05 185.36 1.74885 187.109 3.90627 187.109H196.094C198.251 187.109 200 185.36 200 183.203V112.891C200.008 98.957 197.777 85.9024 193.363 74.0973ZM26.8223 53.9856L40.4856 64.6473C34.3399 72.259 29.9246 81.125 27.3344 91.0078L10.6442 87.6152C13.6543 74.9574 19.0594 63.7121 26.8223 53.9856ZM25.7266 98.6535C24.9867 103.265 24.6094 108.064 24.6094 113.034V132.422H7.81252V112.891C7.81721 106.774 8.26486 100.904 9.14221 95.2824L25.7266 98.6535ZM7.81252 140.234H48.0469V155.859H7.81252V140.234ZM83.1699 128.828C82.8149 124.824 84.2485 121.18 87.4317 117.997C91.1242 114.304 93.3313 110.732 94.6231 107.571C98.402 113.696 101.379 119.632 101.379 122.108C101.379 123.53 102.152 124.839 103.396 125.527C104.641 126.214 106.16 126.171 107.364 125.415C110.457 123.471 112.648 120.241 114.161 117.085C115.361 120.579 116.481 125.571 116.796 132.422H83.9559C83.6258 131.479 83.2949 130.241 83.1699 128.828ZM144.141 140.234V155.859H55.8594V140.234H144.141ZM72.6563 163.672V179.297H32.4219V163.672H72.6563ZM80.4688 163.672H120.703V179.297H80.4688V163.672ZM128.516 163.672H168.75V179.297H128.516V163.672ZM151.953 155.859V140.234H192.188V155.859H151.953ZM173.456 54.3383C181.097 64.0219 186.42 75.1965 189.388 87.757L172.702 91.1477C170.156 81.3594 165.824 72.5649 159.795 64.9957L173.456 54.3383ZM174.295 98.7965L190.879 95.4266C191.743 101.004 192.183 106.827 192.188 112.891V132.422H175.391V113.034C175.391 108.115 175.02 103.364 174.295 98.7965ZM133.447 26.3184C146.935 31.0492 158.952 38.6227 168.329 48.4297L154.571 59.1625C153.657 58.2527 152.713 57.3656 151.741 56.5012C144.891 50.4117 136.863 45.693 128.083 42.4981L133.447 26.3184ZM167.578 113.034V132.422H124.615C123.792 112.403 116.785 105.288 115.942 104.504C114.898 103.533 113.408 103.207 112.055 103.655C110.701 104.102 109.699 105.252 109.44 106.653C109.179 108.064 108.353 111.182 106.976 113.993C103.503 106.059 97.0012 96.8871 95.327 94.5805C94.1922 93.0164 92.0594 92.4402 90.3438 93.3285C88.6391 94.2121 87.8059 96.1246 88.4067 97.9434C88.5438 98.561 89.6613 104.717 81.9067 112.472C75.2102 119.168 74.6028 126.802 75.8227 132.421H32.4219V113.033C32.4219 66.6027 67.4524 45.4551 100 45.4551C132.548 45.4551 167.578 66.6031 167.578 113.034ZM67.2086 26.0914L72.5719 42.2676C63.5371 45.4637 55.2789 50.261 48.259 56.5008C47.4 57.2645 46.5668 58.0488 45.7528 58.8481L31.9828 48.1031C41.4719 38.2895 53.6055 30.7516 67.2086 26.0914ZM7.81252 163.672H24.6094V179.297H7.81252V163.672ZM192.188 179.297H176.563V163.672H192.188V179.297Z" fill="black"/>
<path d="M100.5 20.7031C102.657 20.7031 104.406 18.9542 104.406 16.7969C104.406 14.6395 102.657 12.8906 100.5 12.8906C98.3426 12.8906 96.5938 14.6395 96.5938 16.7969C96.5938 18.9542 98.3426 20.7031 100.5 20.7031Z" fill="black"/>
</g>
<defs>
<clipPath id="clip0">
<rect width="200" height="200" fill="white"/>
</clipPath>
</defs>
</svg>
