<svg width="40" height="40" viewBox="0 0 40 40" fill="none" xmlns="http://www.w3.org/2000/svg">
<path d="M23.7505 23.75H8.12547C7.95969 23.75 7.80078 23.8159 7.68359 23.9331L0.183594 31.4331L1.06734 32.3169L8.38422 25H23.063C22.933 25.7419 22.5248 26.875 21.2505 26.875H14.3755V28.125H21.2505C23.7223 28.125 24.3755 25.6719 24.3755 24.375C24.3755 24.0298 24.0956 23.75 23.7505 23.75Z" fill="white"/>
<path d="M31.6923 19.5575C31.4483 19.3135 31.0527 19.3135 30.8086 19.5575L25.1836 25.1825L26.0673 26.0663L31.2011 20.9331C32.0473 22.0557 31.8755 23.6427 30.8086 24.5581L23.4917 31.875H10.6255C10.4597 31.875 10.3008 31.9409 10.1836 32.0581L5.80859 36.4331L6.69234 37.3169L10.8842 33.125H23.7505C23.9163 33.1248 24.0752 33.0587 24.1923 32.9413L31.6923 25.4413C34.0198 23.1144 32.7098 20.575 31.6923 19.5575Z" fill="white"/>
<path d="M20 0C8.9543 0 0 8.9543 0 20H1.25C1.25 9.64469 9.64469 1.25 20 1.25C30.3553 1.25 38.75 9.64469 38.75 20C38.75 30.3553 30.3553 38.75 20 38.75V40C31.0457 40 40 31.0457 40 20C40 8.9543 31.0457 0 20 0Z" fill="white"/>
<path d="M26.25 11.875H21.875V13.125H24.7412L18.4913 19.375H15.625V20.625H18.75C18.9158 20.625 19.0747 20.5591 19.1919 20.4419L25.625 14.0087V16.25H26.875V12.5C26.875 12.1548 26.5952 11.875 26.25 11.875Z" fill="white"/>
<path d="M6.87547 19.375C6.70969 19.375 6.55078 19.4409 6.43359 19.5581L4.55859 21.4331L5.44234 22.3169L7.13422 20.625H11.8755V19.375H6.87547Z" fill="white"/>
<path d="M14.375 19.375H13.125V20.625H14.375V19.375Z" fill="white"/>
<path d="M5.06055 14.2543L6.25305 14.6293C8.03742 8.88598 13.3608 4.97949 19.3749 4.99996V3.74996C12.8145 3.72809 7.0075 7.98934 5.06055 14.2543Z" fill="white"/>
</svg>
