<svg width="40" height="40" viewBox="0 0 40 40" fill="none" xmlns="http://www.w3.org/2000/svg">
<g clip-path="url(#clip0)">
<path d="M33.9833 21.9279C33.98 20.5899 33.6647 19.275 33.0636 18.0814L34.4443 16.7006C35.4794 15.6655 35.4794 13.9811 34.4443 12.9459C33.928 12.4296 33.2502 12.1709 32.5719 12.1696C32.571 11.4618 32.295 10.7966 31.7944 10.296C31.2778 9.77945 30.5995 9.52071 29.9208 9.51977C29.9199 8.84111 29.6611 8.16277 29.1445 7.64614C28.6442 7.14591 27.9794 6.8699 27.2721 6.86865C27.2708 6.1614 26.9948 5.49657 26.4946 4.99627C25.9931 4.49479 25.3264 4.21863 24.6172 4.21863C23.9081 4.21863 23.2413 4.49479 22.7399 4.99627L20.0012 7.73496L18.4774 6.21101C17.9759 5.70953 17.3092 5.43337 16.6 5.43337C15.8908 5.43337 15.2241 5.70953 14.7227 6.21101C14.222 6.71162 13.9461 7.37684 13.9451 8.08464C13.2669 8.08589 12.589 8.34456 12.0727 8.86088C11.5724 9.36118 11.2965 10.0259 11.2952 10.7333C10.5879 10.7346 9.92307 11.0105 9.42277 11.5108C8.56794 12.3656 8.41982 13.6629 8.97676 14.672C8.59317 14.7974 8.23248 15.0115 7.92811 15.3159C6.89297 16.3511 6.89297 18.0355 7.92811 19.0707L9.03395 20.1765L0.248335 28.9621C-0.0567368 29.2672 -0.0567368 29.7619 0.248335 30.067C0.40091 30.2195 0.600828 30.2958 0.800746 30.2958C1.00066 30.2958 1.20066 30.2195 1.35316 30.067L7.30882 24.1113L12.8879 29.6904L3.95178 38.6264C3.64671 38.9315 3.64671 39.4262 3.95178 39.7313C4.10435 39.8838 4.30427 39.9602 4.50419 39.9602C4.70411 39.9602 4.9041 39.8838 5.0566 39.7313L17.1348 27.6531C17.3573 27.4307 17.6106 27.2503 17.8846 27.1147L19.7749 28.3598C21.0251 29.1832 22.5494 29.5049 24.019 29.2669L34.5232 39.7712C34.6758 39.9237 34.8757 40 35.0756 40C35.2755 40 35.4755 39.9237 35.628 39.7712C35.9331 39.4661 35.9331 38.9714 35.628 38.6663L29.5333 32.5716L30.2701 31.8348C30.5752 31.5297 30.5752 31.035 30.2701 30.7299C29.965 30.4249 29.4703 30.4249 29.1652 30.7299L28.4284 31.4667L26.7034 29.7416L33.1453 23.2996L34.8704 25.0248L34.1353 25.7599C33.8302 26.0651 33.8302 26.5597 34.1353 26.8648C34.2878 27.0173 34.4877 27.0936 34.6877 27.0936C34.8876 27.0936 35.0876 27.0173 35.2401 26.8648L35.9752 26.1297L38.6662 28.8206C38.8188 28.9731 39.0187 29.0494 39.2186 29.0494C39.4185 29.0494 39.6185 28.9731 39.771 28.8206C40.0761 28.5156 40.0761 28.0209 39.771 27.7157L33.9833 21.9279ZM23.8447 6.10109C24.0511 5.89477 24.3254 5.7811 24.6172 5.7811C24.909 5.7811 25.1834 5.89477 25.3897 6.10109C25.5961 6.30741 25.7097 6.58178 25.7097 6.87357C25.7097 7.16544 25.596 7.43981 25.3897 7.64614L23.673 9.3629C23.3679 9.66797 23.3679 10.1626 23.673 10.4678C23.978 10.7729 24.4727 10.7729 24.7779 10.4678L26.4946 8.75104C26.7009 8.54463 26.9753 8.43104 27.2672 8.43104C27.559 8.43104 27.8333 8.54471 28.0397 8.75104C28.4657 9.17704 28.4657 9.87008 28.0397 10.2961L25.4182 12.9176C25.1131 13.2227 25.1131 13.7173 25.4182 14.0225C25.5707 14.1751 25.7706 14.2513 25.9706 14.2513C26.1705 14.2513 26.3705 14.1751 26.523 14.0225L29.1445 11.401C29.3508 11.1946 29.6252 11.081 29.917 11.081C30.2088 11.081 30.4832 11.1947 30.6895 11.401C30.8959 11.6073 31.0095 11.8817 31.0095 12.1735C31.0095 12.4653 30.8959 12.7396 30.6895 12.946L28.068 15.5675C27.763 15.8725 27.763 16.3672 28.068 16.6724C28.2206 16.8249 28.4205 16.9012 28.6204 16.9012C28.8204 16.9012 29.0204 16.8249 29.1728 16.6724L31.7943 14.0508C32.2202 13.6248 32.9134 13.6249 33.3393 14.0508C33.7653 14.4769 33.7653 15.17 33.3393 15.5959L26.882 22.0533C24.8145 24.1208 22.0656 25.2594 19.1416 25.2594C18.3499 25.2594 17.5903 25.468 16.9246 25.8576L12.4027 21.3357C12.7507 21.2043 13.07 20.9998 13.341 20.7289C13.8416 20.2283 14.1175 19.5631 14.1185 18.8553C14.7967 18.854 15.4746 18.5953 15.9909 18.079C16.5072 17.5627 16.7659 16.8849 16.7672 16.2066C17.475 16.2056 18.1403 15.9296 18.6408 15.429C19.1571 14.9127 19.4158 14.2349 19.417 13.5566C20.1248 13.5557 20.79 13.2797 21.2906 12.7792C21.7921 12.2777 22.0682 11.611 22.0682 10.9018C22.0682 10.1926 21.7921 9.52586 21.2906 9.02439L21.1058 8.83963L23.8447 6.10109ZM15.8275 7.31583C16.0338 7.10951 16.3082 6.99584 16.6 6.99584C16.8918 6.99584 17.1661 7.10951 17.3725 7.31583L20.186 10.1293C20.3923 10.3356 20.506 10.61 20.506 10.9018C20.506 11.1936 20.3923 11.4679 20.186 11.6743C19.9797 11.8807 19.7053 11.9943 19.4135 11.9943C19.1218 11.9943 18.8476 11.8807 18.6413 11.6746C18.6412 11.6745 18.6411 11.6744 18.641 11.6743L15.8275 8.8608C15.6212 8.65447 15.5075 8.38011 15.5075 8.08831C15.5075 7.79652 15.6211 7.52223 15.8275 7.31583ZM13.1775 9.9657C13.3906 9.75266 13.6703 9.64625 13.9501 9.64625C14.2299 9.64625 14.5097 9.75273 14.7226 9.9657L17.536 12.7792C17.9621 13.2052 17.962 13.8983 17.536 14.3243C17.3297 14.5306 17.0553 14.6443 16.7636 14.6443C16.4718 14.6443 16.1976 14.5307 15.9913 14.3245C15.9912 14.3244 15.9912 14.3244 15.9911 14.3242L13.1776 11.5107C12.9712 11.3044 12.8576 11.0301 12.8576 10.7382C12.8575 10.4464 12.9712 10.1721 13.1775 9.9657ZM10.5277 12.6156C10.734 12.4092 11.0084 12.2957 11.3001 12.2957C11.592 12.2957 11.8664 12.4093 12.0727 12.6156L14.8862 15.4291C15.3122 15.8551 15.3122 16.5482 14.8862 16.9741C14.4602 17.4001 13.7671 17.4002 13.341 16.9741L10.5276 14.1607C10.1017 13.7348 10.1017 13.0416 10.5277 12.6156ZM9.03293 16.4207C9.24597 16.2077 9.52573 16.1013 9.80549 16.1013C10.0849 16.1013 10.3644 16.2076 10.5772 16.42L12.2362 18.079C12.4425 18.2854 12.5562 18.5597 12.5562 18.8515C12.5562 19.1433 12.4425 19.4177 12.2362 19.6241C12.0299 19.8305 11.7555 19.9441 11.4637 19.9441C11.1721 19.9441 10.8979 19.8306 10.6916 19.6245L10.6912 19.6241L9.03293 17.9658C8.607 17.5398 8.607 16.8467 9.03293 16.4207ZM8.41372 23.0064L10.1388 21.2813L15.718 26.8604L13.9928 28.5855L8.41372 23.0064ZM24.8284 27.8666C24.636 27.6742 24.3574 27.5954 24.093 27.6596C22.9106 27.9442 21.65 27.7239 20.6344 27.0549L20.2113 26.7761C23.1491 26.529 25.8783 25.2668 27.9869 23.1581L31.8858 19.2593C32.2211 20.0699 32.4021 20.9362 32.4187 21.8168L25.5987 28.6369L24.8284 27.8666Z" fill="white"/>
<path d="M31.6488 28.246C31.5035 28.3913 31.4199 28.5921 31.4199 28.7983C31.4199 29.0038 31.5035 29.2054 31.6488 29.3506C31.7941 29.4959 31.9957 29.5796 32.2012 29.5796C32.4074 29.5796 32.6082 29.496 32.7535 29.3506C32.8988 29.2054 32.9824 29.0038 32.9824 28.7983C32.9824 28.592 32.8988 28.3913 32.7535 28.246C32.6082 28.1007 32.4066 28.0171 32.2012 28.0171C31.9957 28.0171 31.7941 28.1007 31.6488 28.246Z" fill="white"/>
<path d="M5.27736 6.38288C5.42993 6.53546 5.62985 6.6117 5.82977 6.6117C6.02968 6.6117 6.22968 6.53546 6.38218 6.38288C6.68725 6.07781 6.68725 5.58313 6.38218 5.27798L2.70483 1.60063C2.39976 1.29556 1.90508 1.29556 1.59993 1.60063C1.29478 1.9057 1.29486 2.40038 1.59993 2.70553L5.27736 6.38288Z" fill="white"/>
<path d="M9.53123 4.25898C9.96271 4.25898 10.3125 3.90922 10.3125 3.47774V0.781235C10.3125 0.349759 9.96271 0 9.53123 0C9.09976 0 8.75 0.349759 8.75 0.781235V3.47774C8.75 3.90922 9.09976 4.25898 9.53123 4.25898Z" fill="white"/>
<path d="M0.781235 10.3124H3.47774C3.90922 10.3124 4.25898 9.96259 4.25898 9.53112C4.25898 9.09964 3.90922 8.74988 3.47774 8.74988H0.781235C0.349759 8.74988 0 9.09964 0 9.53112C0 9.96259 0.349759 10.3124 0.781235 10.3124Z" fill="white"/>
<path d="M34.17 6.61137C34.3699 6.61137 34.5699 6.53512 34.7224 6.38254L38.3997 2.70519C38.7048 2.40012 38.7048 1.90544 38.3997 1.60029C38.0947 1.29514 37.6 1.29522 37.2948 1.60029L33.6175 5.27764C33.3124 5.58272 33.3124 6.07739 33.6175 6.38254C33.7701 6.53512 33.9701 6.61137 34.17 6.61137Z" fill="white"/>
<path d="M30.4687 4.25898C30.9002 4.25898 31.25 3.90922 31.25 3.47774V0.781235C31.25 0.349759 30.9002 0 30.4687 0C30.0373 0 29.6875 0.349759 29.6875 0.781235V3.47774C29.6875 3.90922 30.0373 4.25898 30.4687 4.25898Z" fill="white"/>
<path d="M35.7402 9.53112C35.7402 9.96259 36.09 10.3124 36.5215 10.3124H39.218C39.6495 10.3124 39.9992 9.96259 39.9992 9.53112C39.9992 9.09964 39.6495 8.74988 39.218 8.74988H36.5215C36.09 8.74988 35.7402 9.09964 35.7402 9.53112Z" fill="white"/>
</g>
<defs>
<clipPath id="clip0">
<rect width="40" height="40" fill="white"/>
</clipPath>
</defs>
</svg>
