<svg width="40" height="40" viewBox="0 0 40 40" fill="none" xmlns="http://www.w3.org/2000/svg">
<g clip-path="url(#clip0)">
<path d="M37.6763 19.2188L39.9128 14.8899C40.038 14.6477 40.0278 14.3578 39.886 14.125C39.7442 13.8922 39.4913 13.7501 39.2188 13.7501H37.872C37.9369 12.3932 37.9686 10.9543 37.9686 9.37507C37.9686 8.94359 37.6188 8.59382 37.1874 8.59382C32.8796 8.59382 29.3749 5.08923 29.3749 0.78143C29.3749 0.349947 29.0251 0.000183105 28.5936 0.000183105H11.4063C10.9748 0.000183105 10.625 0.349947 10.625 0.78143C10.625 1.78791 10.4361 2.76806 10.0635 3.69454C9.90246 4.09485 10.0965 4.54985 10.4968 4.71087C10.8972 4.87196 11.3521 4.67782 11.5132 4.27751C11.8635 3.40634 12.0786 2.49611 12.1555 1.56268H27.8447C28.2216 6.10946 31.8571 9.74601 36.4036 10.1238C36.3949 11.4162 36.3632 12.6129 36.3077 13.7501H31.7585C27.1319 3.79853 12.8639 3.80431 8.24153 13.7501H3.69178C3.63655 12.6154 3.60499 11.4187 3.59639 10.124C4.47451 10.0512 5.33303 9.85608 6.15763 9.54101C7.11122 9.13249 6.58201 7.74984 5.5999 8.0814C4.71022 8.4214 3.77249 8.59374 2.81265 8.59374C2.38116 8.59374 2.0314 8.94351 2.0314 9.37499C2.0314 10.9574 2.06288 12.3963 2.12749 13.75H0.781248C0.508671 13.75 0.255781 13.8921 0.113985 14.1249C-0.0278115 14.3577 -0.0379677 14.6476 0.0871881 14.8898L2.32366 19.2187L0.0871881 23.5476C-0.0379677 23.7899 -0.0278115 24.0797 0.113985 24.3126C0.255781 24.5453 0.508671 24.6874 0.781248 24.6874H3.81678C6.26466 32.7465 11.4967 37.749 19.7978 39.9733C19.9302 40.0088 20.0697 40.0088 20.2022 39.9733C28.5031 37.7491 33.7349 32.7466 36.1829 24.6874H39.2188C39.4913 24.6874 39.7442 24.5453 39.886 24.3125C40.0278 24.0797 40.038 23.7898 39.9128 23.5475L37.6763 19.2188ZM13.6355 9.75757L14.011 10.4079C14.2279 10.785 14.7111 10.9076 15.0781 10.6938C15.4518 10.4781 15.5799 10.0003 15.3641 9.62663L14.9874 8.97413C16.28 8.33906 17.7095 7.94164 19.2188 7.83906V8.59382C19.26 9.63038 20.7404 9.6296 20.7812 8.59382V7.83906C22.2905 7.94164 23.7201 8.33906 25.0126 8.97413L24.6359 9.62671C24.4201 10.0004 24.5482 10.4782 24.9219 10.6939C25.2889 10.9076 25.7721 10.7851 25.989 10.408L26.3645 9.75765C27.5847 10.5811 28.6377 11.6342 29.4612 12.8544L28.8109 13.2298C28.4372 13.4455 28.3092 13.9233 28.525 14.297C28.7419 14.6742 29.2251 14.7968 29.5921 14.5829L30.2446 14.2062C30.8797 15.4989 31.2771 16.9284 31.3797 18.4376H30.625C29.5884 18.4789 29.5892 19.9592 30.625 20.0001H31.3797C31.2771 21.5093 30.8797 22.9389 30.2446 24.2315L29.5921 23.8548C28.6739 23.3723 27.9343 24.6546 28.8109 25.2079L29.4612 25.5834C28.6378 26.8035 27.5847 27.8566 26.3645 28.6801L25.989 28.0298C25.7733 27.656 25.2954 27.528 24.9219 27.7438C24.5482 27.9595 24.4201 28.4373 24.6359 28.811L25.0126 29.4636C23.72 30.0987 22.2905 30.4961 20.7812 30.5987V29.8439C20.74 28.8073 19.2596 28.8081 19.2188 29.8439V30.5987C17.7095 30.4961 16.28 30.0987 14.9874 29.4636L15.3641 28.8111C15.5799 28.4374 15.4518 27.9596 15.0781 27.7439C14.7045 27.5282 14.2267 27.6562 14.011 28.0298L13.6355 28.6801C12.4153 27.8567 11.3623 26.8037 10.5389 25.5835L11.1892 25.2081C11.5628 24.9923 11.6909 24.5145 11.4751 24.1409C11.2593 23.7671 10.7815 23.6392 10.4079 23.8549L9.75543 24.2316C9.12036 22.939 8.72294 21.5095 8.62036 20.0003H9.37512C10.4117 19.959 10.4109 18.4786 9.37512 18.4378H8.62036C8.72294 16.9286 9.12036 15.499 9.75543 14.2064L10.408 14.5831C10.775 14.7969 11.2582 14.6743 11.4752 14.2972C11.691 13.9235 11.5629 13.4457 11.1893 13.23L10.5389 12.8545C11.3623 11.634 12.4153 10.581 13.6355 9.75757ZM3.89709 19.5774C4.01334 19.3525 4.01334 19.0851 3.89709 18.8602L2.06429 15.3125H7.63239C6.83576 17.7564 6.83576 20.6812 7.63239 23.125H2.06421L3.89709 19.5774ZM20 38.4091C12.5394 36.353 7.77138 31.8579 5.4542 24.6874H8.24145C12.8681 34.639 27.1361 34.6332 31.7585 24.6874H34.5454C32.2283 31.8581 27.4604 36.3531 20 38.4091ZM32.3677 23.1249C33.1643 20.6811 33.1643 17.7563 32.3677 15.3125H37.9357L36.1029 18.8601C35.9867 19.085 35.9867 19.3524 36.1029 19.5773L37.9358 23.1249H32.3677Z" fill="white"/>
<path d="M19.9999 21.5626C21.0184 21.5626 21.8874 20.9095 22.2098 20.0001H25.9373C26.9738 19.9589 26.9731 18.4785 25.9373 18.4376H22.2098C21.974 17.7727 21.4461 17.2447 20.7812 17.009V11.719C20.7399 10.6825 19.2595 10.6832 19.2187 11.719V17.0091C16.7716 17.9149 17.3588 21.5129 19.9999 21.5626ZM19.9999 20.0001C19.5692 20.0001 19.2187 19.6497 19.2187 19.2189C19.2616 18.1825 20.7384 18.1827 20.7812 19.2189C20.7812 19.6497 20.4307 20.0001 19.9999 20.0001Z" fill="white"/>
<path d="M8.83694 7.69141C9.87351 7.65016 9.87273 6.16977 8.83694 6.12891H8.8364C7.79983 6.17031 7.80124 7.65062 8.83694 7.69141Z" fill="white"/>
</g>
<defs>
<clipPath id="clip0">
<rect width="40" height="40" fill="white"/>
</clipPath>
</defs>
</svg>
