<svg width="50" height="50" viewBox="0 0 50 50" fill="none" xmlns="http://www.w3.org/2000/svg">
<path d="M24.7974 12.4602C23.5612 12.4602 22.3529 12.8268 21.3251 13.5135C20.2972 14.2003 19.4962 15.1764 19.0231 16.3184C18.5501 17.4605 18.4263 18.7171 18.6675 19.9295C18.9086 21.1419 19.5039 22.2555 20.3779 23.1296C21.252 24.0037 22.3657 24.599 23.5781 24.8401C24.7904 25.0813 26.0471 24.9575 27.1891 24.4845C28.3312 24.0114 29.3073 23.2103 29.9941 22.1825C30.6808 21.1547 31.0474 19.9463 31.0474 18.7102C31.0455 17.0532 30.3864 15.4646 29.2147 14.2929C28.043 13.1212 26.4544 12.4621 24.7974 12.4602ZM24.7974 21.8352C24.1793 21.8352 23.5751 21.6519 23.0612 21.3085C22.5473 20.9652 22.1468 20.4771 21.9102 19.9061C21.6737 19.3351 21.6118 18.7067 21.7324 18.1005C21.853 17.4944 22.1506 16.9375 22.5877 16.5005C23.0247 16.0635 23.5815 15.7658 24.1877 15.6452C24.7939 15.5247 25.4222 15.5866 25.9933 15.8231C26.5643 16.0596 27.0523 16.4601 27.3957 16.974C27.7391 17.488 27.9224 18.0921 27.9224 18.7102C27.9214 19.5387 27.5919 20.333 27.006 20.9189C26.4202 21.5047 25.6259 21.8342 24.7974 21.8352Z" fill="white"/>
<path d="M36.8074 6.69093C33.838 3.72222 29.8741 1.95869 25.6809 1.74069C21.4876 1.5227 17.3622 2.8657 14.1009 5.51049C10.8396 8.15528 8.67363 11.9144 8.02095 16.0623C7.36826 20.2101 8.27517 24.4528 10.5666 27.9713L22.374 46.0976C22.6367 46.5009 22.996 46.8323 23.4192 47.0617C23.8424 47.2911 24.3162 47.4112 24.7975 47.4112C25.2789 47.4112 25.7527 47.2911 26.1759 47.0617C26.5991 46.8323 26.9584 46.5009 27.2211 46.0976L39.0288 27.9713C41.1551 24.7073 42.0947 20.8117 41.6903 16.9374C41.2858 13.063 39.5619 9.44541 36.8074 6.69093ZM36.4105 26.2655L24.7976 44.0927L13.1846 26.2655C9.62991 20.8086 10.3923 13.5059 14.9974 8.9006C16.2844 7.61359 17.8122 6.59269 19.4937 5.89616C21.1753 5.19964 22.9775 4.84114 24.7976 4.84114C26.6177 4.84114 28.4199 5.19964 30.1014 5.89616C31.783 6.59269 33.3108 7.61359 34.5978 8.9006C39.2029 13.5059 39.9652 20.8086 36.4105 26.2655Z" fill="white"/>
</svg>
