<svg width="349" height="326" viewBox="0 0 349 326" fill="none" xmlns="http://www.w3.org/2000/svg">
<path d="M314.097 131.316C322.923 124.202 331.945 116.893 341.034 109.65C352.802 100.122 363.097 99.0503 376.087 114.392C404.243 147.512 400.18 194.665 374.391 224.012C362.574 237.542 348.643 247.651 332.998 255.653C316.174 264.176 298.62 270.924 280.003 274.518C272.662 275.93 268.805 279.26 267.526 286.864C265.798 297.157 263.021 307.314 260.768 317.604C257.166 334.384 251 349.906 240.694 363.771C231.627 376 220.448 385.334 205.838 389.93C185.265 396.402 164.147 398.018 142.68 394.842C141.171 394.639 139.66 394.305 138.084 393.904C125.737 390.834 124.416 388.729 125.083 375.938C125.928 358.753 129.006 342.234 138.127 327.315C140.147 323.977 142.298 320.772 144.84 316.912C141.817 315.587 139.712 314.397 137.479 313.732C116.062 306.948 98.3589 293.948 81.6984 279.378C77.7474 275.95 78.39 272.804 81.1945 268.945C96.1296 248.212 112.714 229.519 137.803 220.77C138.982 220.381 139.963 219.664 141.076 219.078C141.338 218.948 141.402 218.62 142.446 217.313C140.663 214.484 138.746 211.13 136.502 207.971C125.217 192.506 118.188 175.024 112.207 157.023C110.213 150.979 111.451 149.081 118.26 145.699C144.512 132.624 171.725 129.657 200.106 138.701C203.325 139.699 206.478 140.762 210.223 142.025C210.935 139.731 211.781 138.095 212.036 136.39C214.446 116.85 221.454 98.7728 229.644 81.0943C233.61 72.6481 235.837 71.7392 244.903 74.6646C272.298 83.5072 293.038 100.85 308.427 124.862C309.616 126.704 310.739 128.48 311.993 130.257C312.191 130.586 312.979 130.72 314.097 131.316ZM242.259 254.282C237.202 253.013 232.079 251.679 227.022 250.411C219.535 248.542 212.112 246.214 204.496 245.001C175.217 240.546 149.669 249.359 127.31 267.764C121.296 272.724 121.498 273.972 126.902 279.637C133.755 286.752 140.805 293.802 147.854 300.72C153.52 306.256 154.702 306.523 159.928 301.166C176.976 283.591 197.921 272.265 220.121 262.847C227.456 259.729 234.923 256.874 242.324 253.954C272.799 246.671 302.213 236.627 328.249 219.025C338.912 211.789 348.254 202.578 354.568 190.993C364.528 172.863 362.914 148.254 350.251 132.585C342.788 136.359 335.194 140.131 327.6 144.035C318.959 148.459 318.894 148.525 320.313 158.306C323.756 180.824 317.61 201.069 306.407 220.178C304.974 222.534 304.005 226.138 298.688 225.394C298.335 204.136 300.275 182.298 290.217 162.179C280.423 142.456 266.707 126.127 247.235 113.841C241.568 123.33 236.161 132.163 230.885 141.129C226.326 148.851 226.393 149.31 233.18 156.097C235.815 158.732 238.581 161.237 241.021 164.068C252.425 176.779 260.556 191.182 263.843 208.056C264.58 211.799 265.976 215.938 261.204 220.051C259.03 217.876 256.922 215.768 254.813 213.66C248.487 207.203 242.228 200.813 235.837 194.422C223.12 181.705 207.867 174.03 190.273 171.199C176.814 168.977 163.367 169.51 148.743 170.956C150.909 186.448 154.249 200.371 158.574 214.626C161.723 214.639 164.414 214.848 167.169 214.728C195.309 213.602 218.123 225.181 237.691 244.618C240.393 247.319 243.225 249.89 242.259 254.282ZM152.124 363.392C165.9 362.926 178.628 363.112 190.883 359.949C198.485 358.014 206.41 355.095 212.69 350.661C222.763 343.619 230.858 334.206 236.649 323.012C243.546 309.658 250.969 296.569 258.129 283.347C258.65 282.431 258.579 281.184 259.031 279.415C234.962 281.345 212.478 285.776 191.33 295.855C180.854 300.796 172.094 307.975 164.784 316.866C153.949 329.81 150.931 345.083 152.124 363.392Z" fill="url(#paint0_linear)" fill-opacity="0.15"/>
<path d="M345.96 296.2C357.774 298.918 360.162 303.515 355.325 313.103C353.75 316.075 352.045 319.178 349.771 321.452C338.475 333.027 326.97 344.392 315.395 355.688C313.836 357.247 311.373 358.033 308.556 358.335C310.836 348.79 318.571 343.011 322.638 334.473C320.744 336.087 318.785 337.767 316.961 339.451C305.881 349.553 294.866 359.589 283.787 369.691C283.137 370.341 282.418 370.92 281.628 371.43C275.382 375.58 269.609 376.044 266.046 372.481C262.628 369.193 261.834 362.162 265.399 356.501C269.349 350.315 273.709 344.279 278.772 339.076C295.195 322.234 312.033 305.675 328.666 289.042C333.214 284.494 337.832 280.016 342.101 275.188C344.365 272.645 345.726 269.328 347.941 265.436C340.766 264.367 336.489 267.107 332.472 269.588C319.836 277.613 307.419 286.117 294.852 294.212C293.274 295.232 291.34 295.768 288.359 295.256C289.115 293.802 289.456 292.064 290.49 290.89C303.73 277.231 317.813 264.545 334.366 254.979C338.453 252.568 343.513 251.001 348.343 250.503C359.55 249.496 367.474 258.199 364.224 268.854C362.061 276.047 357.237 282.268 353.162 288.719C351.447 291.552 348.754 293.406 345.96 296.2Z" fill="url(#paint1_linear)" fill-opacity="0.15"/>
<defs>
<linearGradient id="paint0_linear" x1="0" y1="262" x2="398.097" y2="344.624" gradientUnits="userSpaceOnUse">
<stop stop-color="#74C0FC"/>
<stop offset="1" stop-color="#339AF0"/>
</linearGradient>
<linearGradient id="paint1_linear" x1="237.438" y1="343.875" x2="346.145" y2="387.946" gradientUnits="userSpaceOnUse">
<stop stop-color="#74C0FC"/>
<stop offset="1" stop-color="#339AF0"/>
</linearGradient>
</defs>
</svg>
