<svg width="46" height="36" viewBox="0 0 46 36" fill="none" xmlns="http://www.w3.org/2000/svg">
<path d="M39.0457 16.1011C40.4449 16.2515 41.8786 16.4018 43.3123 16.5638C45.1818 16.7604 46.1797 17.5702 45.9732 20.0573C45.5374 25.4364 41.0414 29.2192 36.2012 29.5315C33.9761 29.6819 31.8657 29.3464 29.7898 28.6755C27.5647 27.9467 25.4313 26.9981 23.4815 25.6794C22.7131 25.1588 22.0822 25.1125 21.3023 25.6678C20.2471 26.4197 19.1116 27.0675 18.0106 27.7732C16.2213 28.93 14.3174 29.7513 12.1955 30.0636C10.326 30.3413 8.52527 30.1793 6.83925 29.3001C4.46506 28.0624 2.46937 26.3503 0.863634 24.1871C0.748939 24.0367 0.645713 23.8748 0.542488 23.7012C-0.271848 22.3478 -0.203031 22.047 0.978329 20.9828C2.56112 19.5483 4.28155 18.3684 6.39194 17.8594C6.86219 17.7437 7.33244 17.6512 7.89445 17.5355C7.74534 17.1538 7.66506 16.8646 7.52742 16.6101C6.24284 14.1345 5.82993 11.4392 5.64642 8.69756C5.60054 8.04975 5.93316 7.82996 6.51811 7.73742C9.64928 7.22843 12.7461 7.04334 15.7167 8.47777C15.8543 8.54718 16.0034 8.57031 16.1525 8.61658C16.1869 8.62815 16.2213 8.60502 16.4278 8.58188C16.5195 8.177 16.6457 7.71428 16.726 7.23999C17.093 4.89169 18.0106 2.74005 19.0658 0.634671C19.4213 -0.0709762 19.6966 -0.128816 20.5912 0.171952C24.0435 1.32875 26.693 3.45726 28.3905 6.74257C28.5855 7.11275 28.769 7.48292 28.9869 7.9225C29.2507 7.78369 29.4686 7.71428 29.6406 7.58703C31.5675 6.08319 33.7697 5.11148 36.0406 4.27859C37.1302 3.88528 37.4055 4.00096 37.9446 5.05364C39.5733 8.23484 39.8715 11.578 39.1145 15.0368C39.0571 15.3029 38.9998 15.5574 38.9539 15.8234C38.9424 15.8697 38.9998 15.9507 39.0457 16.1011ZM21.9446 20.5895C21.612 20.0342 21.2794 19.4674 20.9468 18.9121C20.4536 18.0908 20.0063 17.2347 19.4443 16.4597C17.265 13.4983 14.2486 12.0291 10.6701 11.6821C9.70663 11.5896 9.61488 11.7168 9.59194 12.6885C9.569 13.9147 9.569 15.1525 9.58047 16.3787C9.59194 17.362 9.67222 17.4892 10.6013 17.4777C13.6407 17.4314 16.4736 18.2759 19.2493 19.398C20.1668 19.7681 21.0729 20.173 21.979 20.5663C25.2937 22.6023 28.7575 24.3028 32.5883 25.0431C34.1596 25.3439 35.7883 25.3555 37.3596 24.8927C39.8256 24.1755 41.8442 21.8735 42.108 19.3864C41.1216 19.0625 40.1238 18.727 39.1145 18.4031C37.9675 18.0329 37.9561 18.0329 37.222 19.0162C35.5475 21.2951 33.2306 22.5329 30.5697 23.227C30.2371 23.3079 29.8356 23.5393 29.4342 23.0072C31.2693 21.11 33.3568 19.3632 34.2399 16.7142C35.1116 14.1229 35.341 11.4854 34.7102 8.69756C33.3797 9.03303 32.1295 9.3338 30.8794 9.6577C29.8012 9.93534 29.7668 9.98161 29.7668 11.1731C29.7668 11.6358 29.7898 12.0985 29.7553 12.5613C29.6406 14.6782 29.0901 16.6563 27.8973 18.4262C27.6335 18.8195 27.3926 19.3054 26.6127 19.2476C26.6127 18.8658 26.6127 18.4956 26.6127 18.1255C26.6242 17.0034 26.6356 15.8928 26.6356 14.7708C26.6356 12.5381 25.9704 10.5253 24.6744 8.73226C23.688 7.35567 22.4607 6.22201 21.05 5.06521C19.8801 6.61532 18.9511 8.13073 18.0794 9.76182C18.3546 10.0394 18.5726 10.2939 18.8249 10.5253C21.3941 12.8967 22.3804 15.916 22.3919 19.3401C22.3919 19.8144 22.4149 20.2887 21.9446 20.5895ZM4.45359 22.2552C5.70377 23.4236 6.80484 24.5573 8.15825 25.3555C8.99552 25.8529 9.94749 26.2925 10.888 26.4544C12.3905 26.7205 13.9274 26.6048 15.4185 26.1305C17.1962 25.5637 18.9969 25.0663 20.7862 24.5341C20.9123 24.4994 21.0156 24.3838 21.2106 24.2681C18.9281 22.3247 16.5654 20.7398 13.8242 19.7681C12.4708 19.2823 11.0715 19.1435 9.64928 19.2823C7.56183 19.4674 5.9561 20.5432 4.45359 22.2552Z" fill="url(#paint0_linear)"/>
<path d="M27.3682 33.3728C28.1667 34.6485 27.9728 35.2618 26.7066 35.6788C26.3073 35.8015 25.8852 35.9241 25.486 35.9241C23.4783 35.9487 21.4705 35.9364 19.4628 35.9119C19.189 35.9119 18.9039 35.7647 18.6301 35.5439C19.6682 34.9061 20.8545 35.0778 21.9611 34.6853C21.6531 34.6607 21.3336 34.6362 21.0256 34.624C19.1662 34.5381 17.3182 34.4522 15.4588 34.3664C15.3447 34.3664 15.2307 34.3541 15.1166 34.3296C14.204 34.1456 13.6564 33.6795 13.6564 33.0539C13.645 32.4652 14.1926 31.7783 15.0025 31.5943C15.8923 31.398 16.8049 31.2508 17.7061 31.2386C20.6264 31.2018 23.5581 31.2263 26.4784 31.2263C27.2769 31.2263 28.0755 31.2386 28.874 31.1895C29.2961 31.165 29.7067 30.9933 30.2429 30.8461C29.7067 30.1224 29.0907 29.9875 28.5203 29.8525C26.7066 29.4478 24.87 29.1043 23.0562 28.7118C22.828 28.6627 22.6113 28.5401 22.3945 28.2334C22.5885 28.1721 22.771 28.0495 22.9649 28.0372C25.3263 28.0004 27.6762 28.123 29.9691 28.7363C30.5395 28.8835 31.1213 29.1902 31.589 29.5704C32.6613 30.4658 32.5928 31.9255 31.3722 32.5756C30.5509 33.0171 29.5812 33.1398 28.6572 33.3483C28.258 33.4464 27.8587 33.3728 27.3682 33.3728Z" fill="url(#paint1_linear)"/>
<defs>
<linearGradient id="paint0_linear" x1="0" y1="0" x2="27.6942" y2="42.2007" gradientUnits="userSpaceOnUse">
<stop stop-color="#74C0FC"/>
<stop offset="1" stop-color="#339AF0"/>
</linearGradient>
<linearGradient id="paint1_linear" x1="13.6562" y1="28.0312" x2="19.3305" y2="41.4431" gradientUnits="userSpaceOnUse">
<stop stop-color="#74C0FC"/>
<stop offset="1" stop-color="#339AF0"/>
</linearGradient>
</defs>
</svg>
