<svg width="312" height="334" viewBox="0 0 312 334" fill="none" xmlns="http://www.w3.org/2000/svg">
<path d="M-2.40922 202.372C-11.2356 209.485 -20.2579 216.795 -29.3461 224.038C-41.1144 233.566 -51.4099 234.637 -64.3998 219.296C-92.555 186.176 -88.4922 139.023 -62.7034 109.676C-50.8866 96.1462 -36.9558 86.0369 -21.3103 78.0343C-4.48607 69.5119 13.0674 62.7639 31.684 59.1696C39.0258 57.7576 42.8823 54.4282 44.1619 46.8234C45.8893 36.5307 48.6669 26.3737 50.9191 16.0833C54.5213 -0.696388 60.6875 -16.2186 70.9939 -30.0829C80.0609 -42.3124 91.2395 -51.6462 105.85 -56.2418C126.422 -62.7144 147.541 -64.3299 169.007 -61.1547C170.517 -60.9514 172.027 -60.6169 173.604 -60.2165C185.951 -57.1459 187.272 -55.0409 186.605 -42.2506C185.76 -25.0656 182.681 -8.54609 173.56 6.37301C171.541 9.71027 169.389 12.9157 166.847 16.7756C169.871 18.1006 171.975 19.2905 174.209 19.9561C195.625 26.7395 213.329 39.7394 229.989 54.3095C233.94 57.7379 233.298 60.8842 230.493 64.743C215.558 85.4761 198.974 104.168 173.884 112.918C172.705 113.307 171.724 114.024 170.611 114.61C170.349 114.74 170.285 115.068 169.241 116.375C171.025 119.204 172.942 122.558 175.186 125.717C186.47 141.182 193.499 158.663 199.481 176.665C201.475 182.709 200.236 184.606 193.428 187.989C167.176 201.063 139.962 204.03 111.582 194.987C108.363 193.989 105.209 192.926 101.464 191.663C100.752 193.956 99.9066 195.593 99.6515 197.298C97.242 216.838 90.2338 234.915 82.0431 252.593C78.0773 261.04 75.8505 261.949 66.7845 259.023C39.3891 250.181 18.6492 232.838 3.26044 208.826C2.07168 206.984 0.948791 205.208 -0.305316 203.431C-0.503543 203.102 -1.29138 202.967 -2.40922 202.372ZM69.4282 79.4062C74.4852 80.6743 79.6082 82.0083 84.6652 83.2765C92.1523 85.1454 99.5757 87.4734 107.191 88.6868C136.47 93.1419 162.019 84.3288 184.377 65.9236C190.392 60.9632 190.19 59.7159 184.786 54.0507C177.932 46.936 170.882 39.886 163.833 32.9673C158.167 27.4322 156.985 27.1648 151.76 32.5221C134.712 50.0971 113.766 61.423 91.5663 70.8409C84.2318 73.9586 76.7649 76.8134 69.364 79.734C38.8885 87.0171 9.47448 97.0603 -16.5613 114.663C-27.2241 121.899 -36.5664 131.11 -42.8806 142.695C-52.8407 160.825 -51.2266 185.434 -38.5634 201.102C-31.1004 197.329 -23.5063 193.556 -15.9127 189.653C-7.27171 185.228 -7.20639 185.163 -8.62591 175.382C-12.068 152.864 -5.92205 132.618 5.28043 113.509C6.71369 111.154 7.68237 107.55 12.9996 108.294C13.3529 129.552 11.4125 151.39 21.4705 171.508C31.2645 191.232 44.9802 207.561 64.452 219.847C70.1191 210.358 75.5267 201.524 80.8024 192.559C85.3618 184.837 85.2942 184.377 78.5078 177.591C75.8723 174.956 73.1062 172.451 70.6667 169.619C59.2626 156.909 51.1315 142.506 47.8447 125.632C47.107 121.889 45.7116 117.75 50.4833 113.637C52.6575 115.811 54.7659 117.92 56.8743 120.028C63.2001 126.484 69.4599 132.875 75.851 139.266C88.5672 151.982 103.821 159.658 121.415 162.488C134.874 164.711 148.32 164.178 162.944 162.731C160.779 147.239 157.439 133.317 153.114 119.062C149.965 119.048 147.274 118.84 144.519 118.959C116.379 120.086 93.5642 108.507 73.9963 89.0698C71.2949 86.3684 68.4629 83.7977 69.4282 79.4062ZM159.563 -29.7043C145.788 -29.2384 133.06 -29.424 120.805 -26.2617C113.203 -24.326 105.277 -21.4076 98.998 -16.9733C88.9248 -9.93094 80.83 -0.518322 75.0389 10.6755C68.1418 24.0296 60.7187 37.119 53.5586 50.3407C53.0377 51.2569 53.1086 52.5038 52.6569 54.2732C76.7259 52.3423 99.2097 47.9116 120.357 37.8331C130.833 32.8919 139.594 25.7127 146.903 16.8216C157.739 3.87797 160.757 -11.3952 159.563 -29.7043Z" fill="url(#paint0_linear)" fill-opacity="0.15"/>
<path d="M-34.2723 37.4875C-46.0861 34.7699 -48.4746 30.1723 -43.6379 20.585C-42.0625 17.6123 -40.3571 14.5097 -38.0831 12.2356C-26.7876 0.660647 -15.2825 -10.7048 -3.7075 -22.0003C-2.14814 -23.5596 0.314516 -24.3456 3.13138 -24.6474C0.851671 -15.1021 -6.88359 -9.32294 -10.9504 -0.784981C-9.05638 -2.39953 -7.09742 -4.07905 -5.27329 -5.76345C5.80634 -15.865 16.821 -25.9016 27.9006 -36.0032C28.5504 -36.6529 29.27 -37.2327 30.0594 -37.7428C36.3052 -41.8927 42.0787 -42.3566 45.6416 -38.7936C49.06 -35.5052 49.8535 -28.4743 46.2884 -22.8132C42.3383 -16.6276 37.9788 -10.5914 32.9158 -5.38866C16.4923 11.454 -0.345475 28.0123 -16.9786 44.6454C-21.5267 49.1935 -26.1446 53.6718 -30.4133 58.4993C-32.6776 61.043 -34.0385 64.3602 -36.2539 68.2522C-29.0783 69.3204 -24.8013 66.5803 -20.7842 64.1002C-8.14801 56.0749 4.26877 47.5704 16.8351 39.4753C18.414 38.4552 20.3471 37.9194 23.3281 38.4314C22.5729 39.8853 22.2319 41.6235 21.1973 42.7979C7.95743 56.4569 -6.12561 69.1427 -22.6783 78.7092C-26.7653 81.1195 -31.8255 82.6865 -36.6551 83.1847C-47.8625 84.1922 -55.7862 75.4888 -52.5368 64.834C-50.3738 57.6409 -45.5497 51.4196 -41.4745 44.9691C-39.7594 42.1362 -37.0662 40.2813 -34.2723 37.4875Z" fill="url(#paint1_linear)" fill-opacity="0.15"/>
<defs>
<linearGradient id="paint0_linear" x1="311.688" y1="71.6877" x2="-86.4096" y2="-10.9362" gradientUnits="userSpaceOnUse">
<stop stop-color="#74C0FC"/>
<stop offset="1" stop-color="#339AF0"/>
</linearGradient>
<linearGradient id="paint1_linear" x1="74.25" y1="-10.1873" x2="-34.4579" y2="-54.258" gradientUnits="userSpaceOnUse">
<stop stop-color="#74C0FC"/>
<stop offset="1" stop-color="#339AF0"/>
</linearGradient>
</defs>
</svg>
