<svg width="40" height="40" viewBox="0 0 40 40" fill="none" xmlns="http://www.w3.org/2000/svg">
<path d="M39.3333 32H36.6667V26.6667C36.6667 26.2985 36.3682 26 36 26C35.6318 26 35.3333 26.2985 35.3333 26.6667V32H20.6667V17.3333H25.3333V22C25.3333 22.3682 25.6318 22.6667 26 22.6667H30C30.3682 22.6667 30.6667 22.3682 30.6667 22V17.3333H35.3333V24C35.3333 24.3682 35.6318 24.6667 36 24.6667C36.3682 24.6667 36.6667 24.3682 36.6667 24V16.6667C36.6667 16.2985 36.3682 16 36 16H28.6667V0.666667C28.6667 0.2985 28.3682 0 28 0H12C11.6318 0 11.3333 0.2985 11.3333 0.666667V6.66667C11.3333 7.03483 11.6318 7.33333 12 7.33333C12.3682 7.33333 12.6667 7.03483 12.6667 6.66667V1.33333H17.3333V6C17.3333 6.36817 17.6318 6.66667 18 6.66667H22C22.3682 6.66667 22.6667 6.36817 22.6667 6V1.33333H27.3333V16H12.6667V9.33333C12.6667 8.96517 12.3682 8.66667 12 8.66667C11.6318 8.66667 11.3333 8.96517 11.3333 9.33333V16H8C7.63183 16 7.33333 16.2985 7.33333 16.6667C7.33333 17.0348 7.63183 17.3333 8 17.3333H9.33333V22C9.33333 22.3682 9.63183 22.6667 10 22.6667H14C14.3682 22.6667 14.6667 22.3682 14.6667 22V17.3333H19.3333V32H4.66667V17.3333H5.33333C5.7015 17.3333 6 17.0348 6 16.6667C6 16.2985 5.7015 16 5.33333 16H4C3.63183 16 3.33333 16.2985 3.33333 16.6667V32H0.666667C0.2985 32 0 32.2985 0 32.6667V39.3333C0 39.7015 0.2985 40 0.666667 40H4.66667C5.03483 40 5.33333 39.7015 5.33333 39.3333V36H17.3333V39.3333C17.3333 39.7015 17.6318 40 18 40H22C22.3682 40 22.6667 39.7015 22.6667 39.3333V36H27.3333C27.7015 36 28 35.7015 28 35.3333C28 34.9652 27.7015 34.6667 27.3333 34.6667H1.33333V33.3333H38.6667V34.6667H33.3333C32.9652 34.6667 32.6667 34.9652 32.6667 35.3333C32.6667 35.7015 32.9652 36 33.3333 36H34.6667V39.3333C34.6667 39.7015 34.9652 40 35.3333 40H39.3333C39.7015 40 40 39.7015 40 39.3333V32.6667C40 32.2985 39.7015 32 39.3333 32ZM21.3333 5.33333H18.6667V1.33333H21.3333V5.33333ZM26.6667 17.3333H28H29.3333V21.3333H26.6667V17.3333ZM13.3333 21.3333H10.6667V17.3333H13.3333V21.3333ZM18.6667 36H21.3333V38.6667H18.6667V36ZM4 36V38.6667H1.33333V36H4ZM38.6667 38.6667H36V36H38.6667V38.6667Z" fill="white"/>
<path d="M25.3327 28.6666C24.9645 28.6666 24.666 28.9651 24.666 29.3333V30C24.666 30.3681 24.9645 30.6666 25.3327 30.6666C25.7008 30.6666 25.9993 30.3681 25.9993 30V29.3333C25.9993 28.9651 25.7008 28.6666 25.3327 28.6666Z" fill="white"/>
<path d="M22.6667 28.6666C22.2985 28.6666 22 28.9651 22 29.3333V30C22 30.3681 22.2985 30.6666 22.6667 30.6666C23.0348 30.6666 23.3333 30.3681 23.3333 30V29.3333C23.3333 28.9651 23.0348 28.6666 22.6667 28.6666Z" fill="white"/>
<path d="M9.33268 28.6666C8.96452 28.6666 8.66602 28.9651 8.66602 29.3333V30C8.66602 30.3681 8.96452 30.6666 9.33268 30.6666C9.70085 30.6666 9.99935 30.3681 9.99935 30V29.3333C9.99935 28.9651 9.70085 28.6666 9.33268 28.6666Z" fill="white"/>
<path d="M6.66667 28.6666C6.2985 28.6666 6 28.9651 6 29.3333V30C6 30.3681 6.2985 30.6666 6.66667 30.6666C7.03483 30.6666 7.33333 30.3681 7.33333 30V29.3333C7.33333 28.9651 7.03483 28.6666 6.66667 28.6666Z" fill="white"/>
<path d="M17.3327 12.6666C16.9645 12.6666 16.666 12.9651 16.666 13.3333V14C16.666 14.3681 16.9645 14.6666 17.3327 14.6666C17.7008 14.6666 17.9993 14.3681 17.9993 14V13.3333C17.9993 12.9651 17.7008 12.6666 17.3327 12.6666Z" fill="white"/>
<path d="M14.6667 12.6666C14.2985 12.6666 14 12.9651 14 13.3333V14C14 14.3681 14.2985 14.6666 14.6667 14.6666C15.0348 14.6666 15.3333 14.3681 15.3333 14V13.3333C15.3333 12.9651 15.0348 12.6666 14.6667 12.6666Z" fill="white"/>
<path d="M30.6673 34.6666H30.0007C29.6325 34.6666 29.334 34.9651 29.334 35.3333C29.334 35.7015 29.6325 36 30.0007 36H30.6673C31.0355 36 31.334 35.7015 31.334 35.3333C31.334 34.9651 31.0355 34.6666 30.6673 34.6666Z" fill="white"/>
</svg>
