<svg width="47" height="47" viewBox="0 0 47 47" fill="none" xmlns="http://www.w3.org/2000/svg">
<g filter="url(#filter0_d)">
<path d="M35.9622 8.74938L35.9181 8.72207L30.3369 6L24.3129 13.9514L27.0844 17.6099C27.0015 18.9897 26.4104 20.2914 25.4232 21.2687C24.436 22.246 23.1211 22.8311 21.7274 22.9132L18.0319 20.1695L10 26.133L12.7268 31.612L12.7497 31.6583L12.7773 31.7019C12.9229 31.934 13.126 32.1254 13.3673 32.2579C13.6087 32.3903 13.8802 32.4594 14.1562 32.4585H15.5963C18.3712 32.4585 21.1189 31.9174 23.6825 30.8662C26.2461 29.8149 28.5755 28.2741 30.5376 26.3317C32.4997 24.3892 34.0561 22.0832 35.118 19.5453C36.1799 17.0073 36.7264 14.2872 36.7264 11.5402V10.1144C36.7273 9.84123 36.6575 9.57238 36.5238 9.33344C36.39 9.09451 36.1967 8.89344 35.9622 8.74938ZM34.6639 11.5402C34.6639 21.9487 26.1102 30.4167 15.5963 30.4167H14.431L12.6066 26.7501L18.0323 22.7217L21.053 24.9644H21.3967C23.4541 24.9621 25.4266 24.152 26.8814 22.7118C28.3363 21.2716 29.1546 19.3188 29.1569 17.282V16.9418L26.8914 13.9514L30.9602 8.58042L34.6639 10.3869V11.5402Z" fill="url(#paint0_linear)"/>
</g>
<defs>
<filter id="filter0_d" x="0" y="0" width="46.7264" height="46.4585" filterUnits="userSpaceOnUse" color-interpolation-filters="sRGB">
<feFlood flood-opacity="0" result="BackgroundImageFix"/>
<feColorMatrix in="SourceAlpha" type="matrix" values="0 0 0 0 0 0 0 0 0 0 0 0 0 0 0 0 0 0 127 0"/>
<feMorphology radius="5" operator="erode" in="SourceAlpha" result="effect1_dropShadow"/>
<feOffset dy="4"/>
<feGaussianBlur stdDeviation="7.5"/>
<feColorMatrix type="matrix" values="0 0 0 0 0.301961 0 0 0 0 0.662745 0 0 0 0 0.960784 0 0 0 1 0"/>
<feBlend mode="normal" in2="BackgroundImageFix" result="effect1_dropShadow"/>
<feBlend mode="normal" in="SourceGraphic" in2="effect1_dropShadow" result="shape"/>
</filter>
<linearGradient id="paint0_linear" x1="10" y1="6" x2="36.4572" y2="32.725" gradientUnits="userSpaceOnUse">
<stop stop-color="#74C0FC"/>
<stop offset="1" stop-color="#339AF0"/>
</linearGradient>
</defs>
</svg>
