<svg width="50" height="50" viewBox="0 0 50 50" fill="none" xmlns="http://www.w3.org/2000/svg">
<g clip-path="url(#clip0)">
<path d="M46.3367 7.20791L46.2698 7.16611L37.8135 3L28.6862 15.1696L32.8855 20.7689C32.7598 22.8806 31.8643 24.8729 30.3685 26.3687C28.8727 27.8645 26.8804 28.7599 24.7688 28.8856L19.1695 24.6863L7 33.8134L11.1314 42.199L11.1662 42.2698L11.2081 42.3366C11.4286 42.6919 11.7363 42.9848 12.102 43.1875C12.4677 43.3901 12.8792 43.4959 13.2973 43.4945H15.4793C19.6836 43.4945 23.8467 42.6664 27.731 41.0575C31.6153 39.4486 35.1446 37.0904 38.1175 34.1175C41.0904 31.1446 43.4486 27.6152 45.0575 23.7309C46.6665 19.8467 47.4945 15.6835 47.4945 11.4792V9.29707C47.4959 8.87898 47.3902 8.4675 47.1875 8.10181C46.9848 7.73612 46.692 7.42839 46.3367 7.20791ZM44.3695 11.4792C44.3695 27.4094 31.4094 40.3695 15.4793 40.3695H13.7137L10.9494 34.7579L19.1701 28.5924L23.747 32.0249H24.2678C27.3851 32.0214 30.3737 30.7815 32.578 28.5773C34.7822 26.373 36.0221 23.3844 36.0256 20.2671V19.7463L32.5931 15.1695L38.7579 6.94932L44.3695 9.71406V11.4792Z" fill="white"/>
</g>
<defs>
<clipPath id="clip0">
<rect width="50" height="50" fill="white"/>
</clipPath>
</defs>
</svg>
