<svg width="40" height="40" viewBox="0 0 40 40" fill="none" xmlns="http://www.w3.org/2000/svg">
<path d="M28.125 4.375C23.9894 4.375 20.625 7.73937 20.625 11.875C20.625 16.0106 23.9894 19.375 28.125 19.375C32.2606 19.375 35.625 16.0106 35.625 11.875C35.625 7.73937 32.2606 4.375 28.125 4.375ZM28.125 18.125C24.6788 18.125 21.875 15.3212 21.875 11.875C21.875 8.42875 24.6788 5.625 28.125 5.625C31.5712 5.625 34.375 8.42875 34.375 11.875C34.375 15.3212 31.5712 18.125 28.125 18.125Z" fill="white"/>
<path d="M28.1981 6.25H28.0519C27.0581 6.25 26.25 7.05813 26.25 8.05188C26.25 8.12688 26.2544 8.20187 26.2687 8.30625L26.8025 11.3325C26.8856 11.9981 27.4544 12.5 28.125 12.5C28.7956 12.5 29.3644 11.9981 29.4431 11.3637L29.9863 8.27688C29.9956 8.20187 30 8.12688 30 8.05188C30 7.05813 29.1919 6.25 28.1981 6.25ZM28.2075 11.1775C28.1969 11.2606 28.0575 11.2919 28.0381 11.1462L27.5044 8.11875C27.5013 8.09687 27.5 8.07438 27.5 8.05188C27.5 7.7475 27.7475 7.5 28.0519 7.5H28.1981C28.5025 7.5 28.75 7.7475 28.75 8.05188C28.75 8.08125 28.7494 8.09187 28.75 8.08937L28.2075 11.1775Z" fill="white"/>
<path d="M28.125 13.75C27.0912 13.75 26.25 14.5912 26.25 15.625C26.25 16.6588 27.0912 17.5 28.125 17.5C29.1588 17.5 30 16.6588 30 15.625C30 14.5912 29.1588 13.75 28.125 13.75ZM28.125 16.25C27.7806 16.25 27.5 15.97 27.5 15.625C27.5 15.28 27.7806 15 28.125 15C28.4694 15 28.75 15.28 28.75 15.625C28.75 15.97 28.4694 16.25 28.125 16.25Z" fill="white"/>
<path d="M39.375 14.245V9.505L37.7281 9.1175C37.52 8.3925 37.2313 7.69437 36.865 7.035L37.7556 5.59562L34.4038 2.24375L32.965 3.135C32.3044 2.76875 31.6069 2.47938 30.8825 2.27188L30.495 0.625H25.755L25.3675 2.27188C24.6431 2.47938 23.9456 2.76875 23.285 3.135L21.8462 2.24375L18.4944 5.59562L19.385 7.035C19.0194 7.69437 18.73 8.3925 18.5219 9.1175L16.875 9.505V14.245L18.5219 14.6325C18.5462 14.7175 18.5825 14.7981 18.6087 14.8819L10.9913 22.5H6.875V15.5881C9.68312 15.2762 11.875 12.8906 11.875 10C11.875 6.89813 9.35125 4.375 6.25 4.375C3.14875 4.375 0.625 6.89813 0.625 10C0.625 12.8906 2.81687 15.2762 5.625 15.5881V23.75H9.74125L3.93313 29.5581L3.84562 29.6456L0.75375 37.0669C0.668125 37.2706 0.625 37.4869 0.625 37.7081C0.625 38.6275 1.3725 39.375 2.29188 39.375C2.51188 39.375 2.72687 39.3325 2.93313 39.2469L10.355 36.1544L18.75 27.7588V34.375H23.7869C24.0994 37.1831 26.485 39.375 29.375 39.375C32.4762 39.375 35 36.8519 35 33.75C35 32.7463 34.7325 31.805 34.27 30.9888L36.6919 28.5669L35.8081 27.6831L33.525 29.9662C32.4956 28.8381 31.0187 28.125 29.375 28.125C26.485 28.125 24.0987 30.3169 23.7869 33.125H20V26.5088L25.1175 21.3913C25.2019 21.4181 25.2825 21.4544 25.3675 21.4788L25.755 23.125H30.495L30.8825 21.4781C31.6069 21.2706 32.3044 20.9813 32.965 20.615L34.4038 21.5063L37.7556 18.1544L36.865 16.715C37.2313 16.055 37.5206 15.3575 37.7281 14.6325L39.375 14.245ZM1.875 10C1.875 7.58813 3.8375 5.625 6.25 5.625C8.6625 5.625 10.625 7.58813 10.625 10C10.625 12.4119 8.6625 14.375 6.25 14.375C3.8375 14.375 1.875 12.4119 1.875 10ZM29.375 29.375C30.6744 29.375 31.8394 29.9475 32.6413 30.85L28.75 34.7412L27.3169 33.3081L26.4331 34.1919L28.75 36.5088L33.3419 31.9169C33.6012 32.475 33.75 33.095 33.75 33.75C33.75 36.1619 31.7875 38.125 29.375 38.125C26.9625 38.125 25 36.1619 25 33.75C25 31.3381 26.9625 29.375 29.375 29.375ZM4.745 30.7369L6.25 31.1131V33.75H8.88688L9.26313 35.255L5.73438 36.7256L3.275 34.2663L4.745 30.7369ZM2.45312 38.0925C2.18437 38.2038 1.875 37.9938 1.875 37.7081C1.875 37.6531 1.88563 37.5994 1.90688 37.5481L2.75437 35.5137L4.48625 37.2456L2.45312 38.0925ZM10.3387 34.4025L9.86312 32.5H8.38375L14.1919 26.6919L13.3081 25.8081L7.5 31.6162V30.1369L5.5975 29.6619L19.1106 16.1481C19.2006 16.3381 19.2825 16.5313 19.3844 16.7156L18.4937 18.155L19.7275 19.3888L18.9325 20.1838L19.8162 21.0675L20.6112 20.2725L21.8456 21.5069L23.2844 20.6156C23.4681 20.7175 23.6619 20.7994 23.8512 20.8894L10.3387 34.4025ZM36.705 13.5894L36.6138 13.9612C36.4031 14.8219 36.0625 15.6425 35.6019 16.4013L35.4031 16.7281L36.1712 17.9694L34.2194 19.9212L32.9781 19.1531L32.6506 19.3519C31.8913 19.8119 31.0706 20.1525 30.2106 20.3625L29.8388 20.4538L29.505 21.875H26.745L26.4106 20.4544L26.0387 20.3631C25.1794 20.1531 24.3581 19.8125 23.5987 19.3525L23.2713 19.1537L22.03 19.9219L20.0781 17.97L20.8463 16.7288L20.6475 16.4019C20.1875 15.6438 19.8469 14.8231 19.6356 13.9619L19.5444 13.59L18.125 13.255V10.495L19.545 10.1606L19.6362 9.78875C19.8475 8.9275 20.1875 8.10688 20.6481 7.34875L20.8469 7.02187L20.0788 5.78062L22.0306 3.82875L23.2719 4.59687L23.5994 4.39813C24.3587 3.93813 25.1794 3.5975 26.0394 3.3875L26.4112 3.29625L26.745 1.875H29.505L29.8394 3.29562L30.2113 3.38688C31.0706 3.59688 31.8919 3.9375 32.6512 4.3975L32.9787 4.59625L34.22 3.82812L36.1719 5.78L35.4038 7.02125L35.6025 7.34812C36.0625 8.10625 36.4031 8.92688 36.6144 9.78813L36.7056 10.16L38.125 10.495V13.255L36.705 13.5894Z" fill="white"/>
<path d="M8.30859 12.9418L9.19234 12.0581L7.13422 9.99998L9.19234 7.94185L8.30859 7.05811L6.25047 9.11623L4.19234 7.05811L3.30859 7.94185L5.36672 9.99998L3.30859 12.0581L4.19234 12.9418L6.25047 10.8837L8.30859 12.9418Z" fill="white"/>
<path d="M15.6963 23.4149L16.5802 22.531L17.4641 23.4149L16.5802 24.2987L15.6963 23.4149Z" fill="white"/>
<path d="M13.9287 25.182L14.8126 24.2981L15.6965 25.182L14.8126 26.0659L13.9287 25.182Z" fill="white"/>
<path d="M17.4648 21.6465L18.3041 20.8073L19.188 21.6912L18.3487 22.5304L17.4648 21.6465Z" fill="white"/>
</svg>
