<svg width="40" height="40" viewBox="0 0 40 40" fill="none" xmlns="http://www.w3.org/2000/svg">
<path d="M3.90625 36.875C4.33772 36.875 4.6875 36.5252 4.6875 36.0938C4.6875 35.6623 4.33772 35.3125 3.90625 35.3125C3.47478 35.3125 3.125 35.6623 3.125 36.0938C3.125 36.5252 3.47478 36.875 3.90625 36.875Z" fill="white"/>
<path d="M21.0212 20.0837L30.3962 10.7087C30.7013 10.4036 30.7013 9.9089 30.3962 9.60375C30.0911 9.29867 29.5965 9.29867 29.2913 9.60375L19.9163 18.9787C19.6112 19.2838 19.6112 19.7785 19.9163 20.0837C20.2215 20.3887 20.7161 20.3888 21.0212 20.0837Z" fill="white"/>
<path d="M22.0312 14.0625C23.3236 14.0625 24.375 13.0111 24.375 11.7188C24.375 10.4264 23.3236 9.375 22.0312 9.375C20.7389 9.375 19.6875 10.4264 19.6875 11.7188C19.6875 13.0111 20.7389 14.0625 22.0312 14.0625ZM22.0312 10.9375C22.462 10.9375 22.8125 11.288 22.8125 11.7188C22.8125 12.1495 22.462 12.5 22.0312 12.5C21.6005 12.5 21.25 12.1495 21.25 11.7188C21.25 11.288 21.6005 10.9375 22.0312 10.9375Z" fill="white"/>
<path d="M28.2812 15.625C26.9889 15.625 25.9375 16.6764 25.9375 17.9688C25.9375 19.2611 26.9889 20.3125 28.2812 20.3125C29.5736 20.3125 30.625 19.2611 30.625 17.9688C30.625 16.6764 29.5736 15.625 28.2812 15.625ZM28.2812 18.75C27.8505 18.75 27.5 18.3995 27.5 17.9688C27.5 17.538 27.8505 17.1875 28.2812 17.1875C28.712 17.1875 29.0625 17.538 29.0625 17.9688C29.0625 18.3995 28.712 18.75 28.2812 18.75Z" fill="white"/>
<path d="M3.90625 40C5.09336 40 6.20211 39.4694 6.94359 38.5498L16.5065 26.9059C19.0148 28.7041 22.0568 29.6875 25.1562 29.6875C33.3494 29.6875 40 23.047 40 14.8438C40 12.1766 39.2844 9.56086 37.9304 7.27922C37.7103 6.90813 37.2309 6.78586 36.8598 7.00602C36.4888 7.22617 36.3666 7.70555 36.5867 8.07656C37.7975 10.1171 38.4375 12.4571 38.4375 14.8438C38.4375 18.129 37.2515 21.2322 35.0834 23.666L32.8691 21.4518C34.4501 19.613 35.3125 17.2949 35.3125 14.8438C35.3125 9.50641 31.1741 5.1175 25.9375 4.71727V1.5868C28.0512 1.71078 30.1062 2.335 31.9235 3.41336C32.2943 3.63352 32.7738 3.51117 32.994 3.14016C33.2141 2.76914 33.0919 2.28977 32.7208 2.06961C30.4391 0.715625 27.8233 0 25.1562 0C16.9713 0 10.3125 6.65891 10.3125 14.8438C10.3125 17.9434 11.2959 20.9854 13.0941 23.4935L1.4557 33.052C0.530547 33.798 0 34.9067 0 36.0938C0 38.2477 1.75234 40 3.90625 40ZM33.75 14.8438C33.75 19.5842 29.9071 23.4375 25.1562 23.4375C20.4177 23.4375 16.5625 19.5823 16.5625 14.8438C16.5625 10.1052 20.4177 6.25 25.1562 6.25C29.8948 6.25 33.75 10.1052 33.75 14.8438ZM24.375 1.58609V4.71727C19.3963 5.09773 15.4102 9.08383 15.0298 14.0625H11.8986C12.2894 7.36008 17.6726 1.97687 24.375 1.58609ZM11.8977 15.625H15.0298C15.43 20.8616 19.8189 25 25.1562 25C27.6075 25 29.9256 24.1375 31.7643 22.5566L33.9786 24.7709C31.5446 26.9391 28.4415 28.125 25.1562 28.125C18.0452 28.125 12.2929 22.5577 11.8977 15.625ZM14.0702 24.7138C14.4516 25.1422 14.858 25.5485 15.2863 25.9298L8.88789 33.7205L6.27953 31.1122L14.0702 24.7138ZM2.44195 34.2639L5.06625 32.1087L7.89148 34.9339L5.7318 37.5636C5.28383 38.1189 4.61844 38.4375 3.90625 38.4375C2.61391 38.4375 1.5625 37.3861 1.5625 36.0938C1.5625 35.3816 1.88109 34.7163 2.44195 34.2639Z" fill="white"/>
<path d="M35.0781 5.70312C35.5096 5.70312 35.8594 5.35335 35.8594 4.92188C35.8594 4.4904 35.5096 4.14062 35.0781 4.14062C34.6467 4.14062 34.2969 4.4904 34.2969 4.92188C34.2969 5.35335 34.6467 5.70312 35.0781 5.70312Z" fill="white"/>
</svg>
