<svg width="40" height="40" viewBox="0 0 40 40" fill="none" xmlns="http://www.w3.org/2000/svg">
<path d="M24.375 11.8751V11.2501C24.375 10.2407 23.8144 9.33318 22.9113 8.88193L21.9656 8.40943C22.3088 7.97193 22.5 7.43193 22.5 6.87505V5.73131C22.5 4.34131 21.4606 3.19818 20.1338 3.12881C19.435 3.09318 18.7819 3.33506 18.2794 3.81131C17.7837 4.28131 17.5 4.94256 17.5 5.62506V6.87505C17.5 7.43193 17.6913 7.97193 18.0338 8.40943L17.0881 8.88193C16.1856 9.33318 15.625 10.2407 15.625 11.2501V11.8751H24.375ZM17.6475 10.0001L19.375 9.1363V7.98505L19.1681 7.7988C18.8981 7.55568 18.75 7.22755 18.75 6.87505V5.62506C18.75 5.27881 18.8888 4.95693 19.14 4.71818C19.3906 4.48006 19.7313 4.35756 20.0675 4.37693C20.7194 4.41131 21.25 5.01881 21.25 5.73131V6.87505C21.25 7.22755 21.1019 7.55568 20.8319 7.7988L20.625 7.98505V9.1363L22.3525 10.0001C22.63 10.1388 22.8469 10.3594 22.9794 10.6251H17.0212C17.1531 10.3594 17.37 10.1388 17.6475 10.0001Z" fill="white"/>
<path d="M35.5581 8.4525L35.2156 7.9925L26.825 13.175L32.0075 4.78438L31.5475 4.44187C28.1881 1.945 24.195 0.625 20 0.625C15.805 0.625 11.8119 1.945 8.4525 4.44187L7.9925 4.78438L13.175 13.175L4.78438 7.9925L4.44187 8.4525C1.945 11.8119 0.625 15.805 0.625 20C0.625 24.195 1.945 28.1881 4.44187 31.5475L4.78438 32.0075L13.175 26.825L7.9925 35.2156L8.4525 35.5581C11.8119 38.055 15.805 39.375 20 39.375C24.195 39.375 28.1881 38.055 31.5475 35.5581L32.0075 35.2156L26.825 26.825L35.2156 32.0075L35.5581 31.5475C38.055 28.1881 39.375 24.195 39.375 20C39.375 15.805 38.055 11.8119 35.5581 8.4525ZM9.66375 5.11063C12.7063 2.99187 16.2675 1.875 20 1.875C23.7325 1.875 27.2937 2.99187 30.3362 5.11063L24.4175 14.6944L23.7469 14.0238L22.3738 14.27L21.5763 13.125H18.4231L17.6262 14.27L16.2531 14.0238L15.5825 14.6944L9.66375 5.11063ZM24.6306 23.3244L23.3244 24.6306L21.8044 24.3575L20.9237 25.625H19.0769L18.1956 24.3581L16.6756 24.6313L15.3694 23.325L15.6425 21.805L14.375 20.9237V19.0769L15.6419 18.195L15.3687 16.6756L16.675 15.37L18.195 15.6425L19.0763 14.375H20.9231L21.8044 15.6419L23.3244 15.3694L24.6306 16.675L24.3575 18.1944L25.625 19.0763V20.9231L24.3581 21.8044L24.6306 23.3244ZM5.11125 30.3362C2.99188 27.2937 1.875 23.7325 1.875 20C1.875 16.2675 2.99188 12.7063 5.11125 9.66313L14.695 15.5825L14.0244 16.2537L14.2706 17.6269L13.125 18.4237V21.5769L14.27 22.3738L14.0238 23.7469L14.6944 24.4175L5.11125 30.3362ZM18.125 38.0181V36.875H21.875V38.0181C21.255 38.0812 20.6313 38.125 20 38.125C19.3687 38.125 18.745 38.0812 18.125 38.0181ZM24.375 33.125H15.625V30C15.625 29.655 15.905 29.375 16.25 29.375H23.75C24.095 29.375 24.375 29.655 24.375 30V33.125ZM15.625 34.375H24.375V35C24.375 35.345 24.095 35.625 23.75 35.625H16.25C15.905 35.625 15.625 35.345 15.625 35V34.375ZM30.3362 34.8887C28.1569 36.4069 25.7087 37.4006 23.125 37.8475V36.875H23.75C24.7838 36.875 25.625 36.0337 25.625 35V30C25.625 28.9662 24.7838 28.125 23.75 28.125H16.25C15.2163 28.125 14.375 28.9662 14.375 30V35C14.375 36.0337 15.2163 36.875 16.25 36.875H16.875V37.8481C14.2913 37.4006 11.8431 36.4069 9.66375 34.8894L15.5825 25.3063L16.2531 25.9769L17.6262 25.7306L18.4237 26.875H21.5769L22.3738 25.73L23.7469 25.9762L24.4175 25.3056L30.3362 34.8887ZM34.8887 30.3362L25.3056 24.4175L25.9762 23.7469L25.73 22.3738L26.875 21.5763V18.4231L25.73 17.6262L25.9762 16.2531L25.3056 15.5819L34.8894 9.6625C37.0081 12.7063 38.125 16.2675 38.125 20C38.125 23.7325 37.0081 27.2937 34.8887 30.3362Z" fill="white"/>
<path d="M20 16.875C18.2769 16.875 16.875 18.2769 16.875 20C16.875 21.7231 18.2769 23.125 20 23.125C21.7231 23.125 23.125 21.7231 23.125 20C23.125 18.2769 21.7231 16.875 20 16.875ZM20 21.875C18.9662 21.875 18.125 21.0338 18.125 20C18.125 18.9662 18.9662 18.125 20 18.125C21.0338 18.125 21.875 18.9662 21.875 20C21.875 21.0338 21.0338 21.875 20 21.875Z" fill="white"/>
<path d="M32.5 13.75C29.7431 13.75 27.5 15.9931 27.5 18.75C27.5 20.5013 28.405 21.9875 30 22.88V25.625H35V22.88C36.595 21.9869 37.5 20.5013 37.5 18.75C37.5 15.9931 35.2569 13.75 32.5 13.75ZM31.25 24.375V23.125H33.75V24.375H31.25ZM31.875 18.75C31.875 18.4056 32.155 18.125 32.5 18.125C32.845 18.125 33.125 18.4056 33.125 18.75C33.125 19.0944 32.845 19.375 32.5 19.375C32.155 19.375 31.875 19.0944 31.875 18.75ZM34.2219 21.875H33.125V20.51C33.8506 20.2513 34.375 19.5638 34.375 18.75C34.375 17.7162 33.5338 16.875 32.5 16.875C31.4662 16.875 30.625 17.7162 30.625 18.75C30.625 19.5638 31.1494 20.2513 31.875 20.51V21.875H30.7781C29.9706 21.4644 28.75 20.55 28.75 18.75C28.75 16.6819 30.4319 15 32.5 15C34.5681 15 36.25 16.6819 36.25 18.75C36.25 20.55 35.0294 21.4644 34.2219 21.875Z" fill="white"/>
<path d="M3.125 25H11.875V16.25H3.125V25ZM8.125 23.75H6.875V22.5H8.125V23.75ZM6.875 17.5H8.125V18.75H6.875V17.5ZM4.375 17.5H5.625V20H9.375V17.5H10.625V23.75H9.375V21.25H5.625V23.75H4.375V17.5Z" fill="white"/>
</svg>
