<svg width="40" height="40" viewBox="0 0 40 40" fill="none" xmlns="http://www.w3.org/2000/svg">
<g clip-path="url(#clip0)">
<path d="M39.2454 6.07923L39.772 5.55259C40.0771 5.24752 40.0771 4.75283 39.772 4.44768C39.4669 4.14269 38.9722 4.14269 38.6671 4.44768L38.1404 4.97432L37.6141 4.44799C37.4676 4.30151 37.2689 4.21917 37.0617 4.21917H36.2024L32.2121 0.228825C32.0655 0.0823428 31.8669 0 31.6597 0H2.81454C1.26315 0 0.000976562 1.26209 0.000976562 2.81356V17.4541C0.000976562 19.0055 1.26315 20.2677 2.81454 20.2677H9.62071L5.04381 24.8446C4.51241 25.376 4.21976 26.0826 4.21976 26.8341C4.21976 27.5856 4.51241 28.2922 5.04381 28.8236L15.3962 39.176C15.9276 39.7074 16.6341 40.0001 17.3857 40.0001C18.1372 40.0001 18.8438 39.7074 19.3752 39.176L27.1288 31.4225C27.4339 31.1174 27.4339 30.6228 27.1288 30.3176C26.8237 30.0127 26.329 30.0126 26.024 30.3176L18.2703 38.0711C18.034 38.3074 17.7198 38.4375 17.3857 38.4375C17.0516 38.4375 16.7373 38.3074 16.5011 38.0711L6.14864 27.7187C5.91239 27.4825 5.78224 27.1683 5.78224 26.8341C5.78224 26.4999 5.91239 26.1858 6.14864 25.9495L26.3164 5.78181H36.7382L37.0357 6.0793L35.2292 7.88584C34.9231 7.73913 34.5807 7.65686 34.2193 7.65686C32.927 7.65686 31.8756 8.70826 31.8756 10.0006C31.8756 11.2929 32.927 12.3443 34.2193 12.3443C35.5117 12.3443 36.563 11.2929 36.563 10.0006C36.563 9.63918 36.4807 9.29669 36.334 8.99075L38.1405 7.18421L38.438 7.48171V17.9035L30.9956 25.346C30.6905 25.651 30.6905 26.1457 30.9956 26.4509C31.3007 26.7559 31.7954 26.7559 32.1005 26.4509L39.7718 18.7796C39.9182 18.6331 40.0006 18.4344 40.0006 18.2272V7.15796C40.0006 6.95078 39.9182 6.75211 39.7718 6.60555L39.2454 6.07923ZM14.0304 14.0182C13.5995 14.0182 13.2489 13.6677 13.2489 13.2367C13.2489 12.8057 13.5995 12.4552 14.0304 12.4552C14.4614 12.4552 14.8119 12.8057 14.8119 13.2367C14.8119 13.6676 14.4614 14.0182 14.0304 14.0182ZM25.9928 4.21925C25.7856 4.21925 25.5868 4.30159 25.4404 4.44807L16.355 13.5334C16.3673 13.4361 16.3745 13.3372 16.3745 13.2366C16.3745 11.9442 15.323 10.8926 14.0305 10.8926C12.7381 10.8926 11.6865 11.9442 11.6865 13.2366C11.6865 14.5291 12.738 15.5806 14.0305 15.5806C14.131 15.5806 14.2299 15.5735 14.3272 15.5611L11.1833 18.7051H2.81454C2.1247 18.7051 1.56346 18.1438 1.56346 17.454V2.81356C1.56346 2.12372 2.1247 1.56248 2.81454 1.56248H31.336L33.9928 4.21925H25.9928ZM34.2193 10.7817C33.7885 10.7817 33.4381 10.4312 33.4381 10.0004C33.4381 9.56965 33.7885 9.21919 34.2193 9.21919C34.3976 9.21919 34.5617 9.27989 34.6933 9.38083C34.714 9.40786 34.736 9.43426 34.7607 9.45895C34.7854 9.48364 34.8118 9.50567 34.8388 9.52637C34.9398 9.65801 35.0005 9.82207 35.0005 10.0003C35.0006 10.4312 34.6501 10.7817 34.2193 10.7817Z" fill="white"/>
<path d="M25.9838 23.1119C26.191 23.1119 26.3898 23.0295 26.5362 22.8831L28.304 21.1153C28.609 20.8102 28.609 20.3155 28.304 20.0103C27.9989 19.7054 27.5042 19.7054 27.1991 20.0103L25.9838 21.2257L22.1168 17.3588C21.8118 17.0538 21.3171 17.0538 21.012 17.3588C20.7069 17.6639 20.7069 18.1586 21.012 18.4637L25.4314 22.8831C25.578 23.0295 25.7767 23.1119 25.9838 23.1119Z" fill="white"/>
<path d="M32.0607 16.2539C31.7556 15.9489 31.2609 15.9489 30.9557 16.2539L29.9614 17.2483L28.8566 16.1435L29.8509 15.1491C30.156 14.8441 30.156 14.3494 29.8509 14.0442C29.5458 13.7392 29.0512 13.7392 28.746 14.0442L27.7516 15.0386L26.6468 13.9338L27.6412 12.9394C27.9463 12.6343 27.9463 12.1396 27.6412 11.8345C27.3361 11.5296 26.8414 11.5295 26.5363 11.8345L24.9896 13.3813C24.8431 13.5278 24.7607 13.7265 24.7607 13.9337C24.7607 14.1409 24.8431 14.3395 24.9896 14.4861L29.409 18.9054C29.5615 19.0579 29.7615 19.1343 29.9614 19.1343C30.1613 19.1343 30.3613 19.0579 30.5138 18.9054L32.0606 17.3586C32.3657 17.0537 32.3657 16.559 32.0607 16.2539Z" fill="white"/>
<path d="M23.42 25.2364C23.8043 25.4324 24.2748 25.2794 24.4708 24.8949C24.6666 24.5105 24.5137 24.0401 24.1292 23.8443L18.2736 20.8612C17.972 20.7075 17.6058 20.7655 17.3665 21.0048C17.1272 21.2441 17.0692 21.6104 17.2229 21.9119L20.206 27.7675C20.3439 28.0384 20.6181 28.1944 20.9027 28.1943C21.022 28.1943 21.1431 28.1669 21.2566 28.109C21.6411 27.9131 21.794 27.4427 21.5982 27.0583L21.3587 26.588L22.9498 24.9968L23.42 25.2364ZM20.6128 25.1242L19.7063 23.3446L21.4859 24.2512L20.6128 25.1242Z" fill="white"/>
<path d="M15.9306 31.2798C15.6255 31.5849 15.6254 32.0796 15.9306 32.3847C16.0832 32.5372 16.2831 32.6135 16.483 32.6135C16.6829 32.6135 16.8829 32.5372 17.0354 32.3847L18.1403 31.2799C19.0542 30.3661 19.0542 28.8792 18.1403 27.9653C17.2718 27.0967 15.8859 27.0544 14.966 27.8369C14.9374 27.8585 14.9096 27.8815 14.8836 27.9076L14.8258 27.9653C14.6782 28.1129 14.482 28.1941 14.2734 28.1941C14.0647 28.1941 13.8685 28.1129 13.7209 27.9653C13.4163 27.6607 13.4163 27.1651 13.7209 26.8604L14.8258 25.7556C15.1308 25.4505 15.1309 24.9558 14.8258 24.6507C14.5207 24.3457 14.026 24.3457 13.7209 24.6507L12.616 25.7555C11.7022 26.6693 11.7022 28.1562 12.616 29.0701C13.0588 29.5128 13.6473 29.7565 14.2733 29.7565C14.8984 29.7565 15.4862 29.5134 15.9289 29.0717C15.9294 29.0712 15.9301 29.0707 15.9306 29.0701C16.2351 28.7655 16.7308 28.7655 17.0354 29.0701C17.183 29.2177 17.2643 29.4138 17.2643 29.6225C17.2643 29.8312 17.183 30.0274 17.0354 30.1749L15.9306 31.2798Z" fill="white"/>
<path d="M13.3861 5.04354C13.0104 4.83151 12.5338 4.96401 12.3217 5.33979L7.28271 14.2658C7.0706 14.6416 7.20318 15.118 7.57896 15.3301C7.70036 15.3987 7.83216 15.4312 7.96231 15.4312C8.23497 15.4312 8.49973 15.2883 8.64332 15.0339L13.6823 6.1079C13.8944 5.73213 13.7619 5.25557 13.3861 5.04354Z" fill="white"/>
<path d="M9.77984 7.03099C9.77984 5.7385 8.72836 4.68701 7.43586 4.68701C6.14336 4.68701 5.0918 5.7385 5.0918 7.03099C5.0918 8.32349 6.14328 9.37506 7.43578 9.37506C8.72828 9.37506 9.77984 8.32349 9.77984 7.03099ZM6.6543 7.03099C6.6543 6.60006 7.00484 6.24951 7.43578 6.24951C7.86672 6.24951 8.21727 6.60006 8.21727 7.03099C8.21727 7.46201 7.86672 7.81256 7.43578 7.81256C7.00484 7.81256 6.6543 7.46201 6.6543 7.03099Z" fill="white"/>
<path d="M29.0615 27.6027C28.8553 27.6027 28.6545 27.6863 28.5092 27.8317C28.3639 27.9769 28.2803 28.1785 28.2803 28.384C28.2803 28.5895 28.3639 28.7911 28.5092 28.9363C28.6545 29.0816 28.8553 29.1652 29.0615 29.1652C29.267 29.1652 29.4686 29.0817 29.6139 28.9363C29.7592 28.7911 29.8428 28.5895 29.8428 28.384C29.8428 28.1785 29.7592 27.9769 29.6139 27.8317C29.4686 27.6864 29.267 27.6027 29.0615 27.6027Z" fill="white"/>
</g>
<defs>
<clipPath id="clip0">
<rect width="40" height="40" fill="white"/>
</clipPath>
</defs>
</svg>
