<svg width="60" height="80" viewBox="0 0 60 80" fill="none" xmlns="http://www.w3.org/2000/svg">
<path d="M6.72021 29.6876C6.72021 42.6112 17.2341 53.1251 30.1578 53.1251C43.0814 53.1251 53.5953 42.6112 53.5953 29.6876C53.5953 16.764 43.0814 6.25006 30.1578 6.25006C17.2341 6.25006 6.72021 16.764 6.72021 29.6876ZM30.1578 9.37507C41.3583 9.37507 50.4703 18.487 50.4703 29.6876C50.4703 40.8882 41.3583 50.0001 30.1578 50.0001C18.9572 50.0001 9.84522 40.8882 9.84522 29.6876C9.84522 18.487 18.9572 9.37507 30.1578 9.37507Z" fill="white"/>
<path d="M15.6889 26.9022L21.7454 32.8696L20.352 41.2565C20.2549 41.8406 20.496 42.429 20.9751 42.7769C21.4536 43.1248 22.0878 43.1718 22.6133 42.8996L30.1591 38.9811L37.7043 42.8996C38.2255 43.1699 38.8597 43.1278 39.3425 42.7769C39.8216 42.429 40.0627 41.8406 39.9656 41.2565L38.5722 32.8696L44.6287 26.9022C45.0505 26.4872 45.2012 25.8695 45.0181 25.3062C44.835 24.7434 44.3498 24.3327 43.7645 24.2442L35.3593 22.9789L31.5562 15.3733C31.2919 14.8441 30.7505 14.5096 30.1591 14.5096C29.5671 14.5096 29.0263 14.8441 28.7614 15.3733L24.9583 22.9789L16.5531 24.2442C15.9678 24.332 15.4826 24.7434 15.2995 25.3062C15.1164 25.8695 15.2677 26.4872 15.6889 26.9022ZM26.226 25.9483C26.7289 25.8726 27.1635 25.557 27.3911 25.1023L30.1591 19.5658L32.927 25.1023C33.1547 25.557 33.5893 25.8726 34.0922 25.9483L40.2098 26.8693L35.8012 31.2119C35.4393 31.569 35.2732 32.0799 35.3562 32.5816L36.3707 38.6857L30.8787 35.8341C30.6535 35.7169 30.4063 35.6583 30.1591 35.6583C29.9119 35.6583 29.6647 35.7169 29.4389 35.8341L23.9469 38.6857L24.9613 32.5816C25.045 32.0799 24.8789 31.569 24.5164 31.2119L20.1084 26.8693L26.226 25.9483Z" fill="white"/>
<path d="M31.7205 1.5625C31.7205 2.42554 31.021 3.125 30.158 3.125C29.2949 3.125 28.5955 2.42554 28.5955 1.5625C28.5955 0.699464 29.2949 0 30.158 0C31.021 0 31.7205 0.699464 31.7205 1.5625Z" fill="white"/>
<path d="M22.7939 0.920824C9.64992 4.27593 0.470215 16.1052 0.470215 29.6873C0.470215 38.123 4.01697 46.0716 10.2432 51.7009L0.829712 68.2909C0.526978 68.825 0.56482 69.4866 0.926148 69.9822C1.28748 70.4784 1.90515 70.717 2.50635 70.5919L13.1967 68.3721L16.954 78.9599C17.1579 79.536 17.6797 79.9395 18.2888 79.9938C18.898 80.0481 19.4821 79.7411 19.7842 79.2095L30.1578 60.9722L40.5307 79.2095C40.8102 79.7008 41.3303 79.9993 41.8881 79.9993C41.9339 79.9993 41.9803 79.9975 42.0261 79.9938C42.6352 79.9395 43.157 79.5354 43.3615 78.9599L47.1182 68.3721L57.8086 70.5919C58.4091 70.7164 59.0274 70.4778 59.3888 69.9822C59.7507 69.4866 59.7879 68.825 59.4852 68.2909L50.0717 51.7009C56.2979 46.0716 59.8447 38.123 59.8447 29.6873C59.8447 16.1052 50.665 4.27593 37.5217 0.920824C36.6849 0.707201 35.8346 1.21196 35.621 2.04815C35.4074 2.88433 35.9122 3.73516 36.7483 3.94878C48.5074 6.95049 56.7203 17.5346 56.7203 29.6873C56.7203 44.478 44.708 56.2499 30.1578 56.2499C15.5972 56.2499 3.59522 44.4682 3.59522 29.6873C3.59522 17.5346 11.8075 6.95049 23.5666 3.94878C24.4027 3.73516 24.9075 2.88433 24.6945 2.04815C24.4809 1.21196 23.6306 0.707201 22.7939 0.920824ZM18.757 74.6959L15.6863 66.043C15.4251 65.3069 14.6609 64.8766 13.8961 65.0353L5.25172 66.8303L12.7017 53.7004C17.0456 56.8584 22.189 58.7822 27.5375 59.2583L18.757 74.6959ZM46.4188 65.0353C45.6546 64.8766 44.8898 65.3069 44.6286 66.043L41.5585 74.6959L32.7774 59.2583C38.1265 58.7822 43.2694 56.8584 47.6138 53.7004L55.0638 66.8303L46.4188 65.0353Z" fill="white"/>
</svg>
