<svg width="50" height="50" viewBox="0 0 50 50" fill="none" xmlns="http://www.w3.org/2000/svg">
<path d="M13.1375 41.4062H14.9883C15.3117 42.3133 16.1711 42.9688 17.1883 42.9688C18.4805 42.9688 19.532 41.9172 19.532 40.625C19.532 39.3328 18.4805 38.2812 17.1883 38.2812C16.1711 38.2812 15.3117 38.9367 14.9883 39.8438H13.1375C12.8141 38.9367 11.9547 38.2812 10.9375 38.2812C9.64531 38.2812 8.59375 39.3328 8.59375 40.625C8.59375 41.9172 9.64531 42.9688 10.9375 42.9688C11.9547 42.9688 12.8141 42.3133 13.1375 41.4062ZM17.1875 39.8438C17.618 39.8438 17.9687 40.1938 17.9687 40.625C17.9687 41.0563 17.618 41.4062 17.1875 41.4062C16.757 41.4062 16.4062 41.0563 16.4062 40.625C16.4062 40.1938 16.757 39.8438 17.1875 39.8438ZM10.1562 40.625C10.1562 40.1938 10.507 39.8438 10.9375 39.8438C11.368 39.8438 11.7187 40.1938 11.7187 40.625C11.7187 41.0563 11.368 41.4062 10.9375 41.4062C10.507 41.4062 10.1562 41.0563 10.1562 40.625Z" fill="white"/>
<path d="M39.9875 38.2812C40.3109 39.1883 41.1703 39.8438 42.1875 39.8438C43.4797 39.8438 44.5312 38.7922 44.5312 37.5C44.5312 36.2078 43.4797 35.1562 42.1875 35.1562C41.1703 35.1562 40.3109 35.8117 39.9875 36.7188H35.1562C34.725 36.7188 34.375 37.068 34.375 37.5V41.55C33.468 41.8734 32.8125 42.7328 32.8125 43.75C32.8125 45.0422 33.8641 46.0938 35.1562 46.0938C36.4484 46.0938 37.5 45.0422 37.5 43.75C37.5 42.7328 36.8445 41.8734 35.9375 41.55V38.2812H39.9875ZM42.1875 36.7188C42.618 36.7188 42.9688 37.0688 42.9688 37.5C42.9688 37.9313 42.618 38.2812 42.1875 38.2812C41.757 38.2812 41.4062 37.9313 41.4062 37.5C41.4062 37.0688 41.757 36.7188 42.1875 36.7188ZM35.1562 44.5312C34.7258 44.5312 34.375 44.1812 34.375 43.75C34.375 43.3188 34.7258 42.9688 35.1562 42.9688C35.5867 42.9688 35.9375 43.3188 35.9375 43.75C35.9375 44.1812 35.5867 44.5312 35.1562 44.5312Z" fill="white"/>
<path d="M25 1.5625C12.0766 1.5625 1.5625 12.0766 1.5625 25C1.5625 25.432 1.9125 25.7812 2.34375 25.7812H13.2812V28.2687C12.6195 28.5047 12.0984 29.0258 11.8625 29.6875H8.13594L6.02109 27.5727C5.875 27.4258 5.67578 27.3438 5.46875 27.3438H2.34375V28.9062H5.14531L7.26016 31.0211C7.40625 31.168 7.60547 31.25 7.8125 31.25H11.8625C12.0984 31.9117 12.6195 32.4328 13.2812 32.6688V34.375H8.45C8.12656 33.468 7.26719 32.8125 6.25 32.8125C4.95781 32.8125 3.90625 33.8641 3.90625 35.1562C3.90625 36.4484 4.95781 37.5 6.25 37.5C7.26719 37.5 8.12656 36.8445 8.45 35.9375H14.0625C14.4937 35.9375 14.8438 35.5883 14.8438 35.1562V32.6688C15.7508 32.3453 16.4062 31.4859 16.4062 30.4688C16.4062 29.4516 15.7508 28.5922 14.8438 28.2687V25.7812H17.9688V34.375C17.9688 34.5828 18.0508 34.7812 18.1977 34.9273L21.0938 37.8234V43.8937C20.1867 44.2172 19.5312 45.0766 19.5312 46.0938C19.5312 47.3859 20.5828 48.4375 21.875 48.4375C23.1672 48.4375 24.2188 47.3859 24.2188 46.0938C24.2188 45.0766 23.5633 44.2172 22.6562 43.8937V37.8234L23.9898 36.4898C24.1367 36.3438 24.2188 36.1453 24.2188 35.9375V31.8875C25.1258 31.5641 25.7812 30.7047 25.7812 29.6875C25.7812 28.6703 25.1258 27.8109 24.2188 27.4875V25.7812H31.7078L29.9164 27.5727C29.7695 27.7188 29.6875 27.9172 29.6875 28.125V29.8312C28.7805 30.1547 28.125 31.0141 28.125 32.0312C28.125 33.0484 28.7805 33.9078 29.6875 34.2313V36.3953L28.3539 37.7289C28.207 37.875 28.125 38.0734 28.125 38.2812V43.1125C27.218 43.4359 26.5625 44.2953 26.5625 45.3125C26.5625 46.6047 27.6141 47.6562 28.9062 47.6562C30.1984 47.6562 31.25 46.6047 31.25 45.3125C31.25 44.2953 30.5945 43.4359 29.6875 43.1125V38.6047L31.0211 37.2711C31.168 37.125 31.25 36.9266 31.25 36.7188V34.2313C31.9117 33.9953 32.4328 33.4742 32.6688 32.8125H36.7188C36.9258 32.8125 37.125 32.7305 37.2711 32.5836L39.3859 30.4688H43.1125C43.4359 31.3758 44.2953 32.0312 45.3125 32.0312C46.6047 32.0312 47.6562 30.9797 47.6562 29.6875C47.6562 28.6703 47.0008 27.8109 46.0938 27.4875V25.7812H47.6562C48.0875 25.7812 48.4375 25.432 48.4375 25C48.4375 12.0766 37.9234 1.5625 25 1.5625ZM6.25 35.9375C5.81953 35.9375 5.46875 35.5875 5.46875 35.1562C5.46875 34.725 5.81953 34.375 6.25 34.375C6.68047 34.375 7.03125 34.725 7.03125 35.1562C7.03125 35.5875 6.68047 35.9375 6.25 35.9375ZM14.0625 31.25C13.632 31.25 13.2812 30.9 13.2812 30.4688C13.2812 30.0375 13.632 29.6875 14.0625 29.6875C14.493 29.6875 14.8438 30.0375 14.8438 30.4688C14.8438 30.9 14.493 31.25 14.0625 31.25ZM28.9062 46.0938C28.4758 46.0938 28.125 45.7438 28.125 45.3125C28.125 44.8812 28.4758 44.5312 28.9062 44.5312C29.3367 44.5312 29.6875 44.8812 29.6875 45.3125C29.6875 45.7438 29.3367 46.0938 28.9062 46.0938ZM43.943 14.0719C42.7148 14.5578 41.3766 14.9914 39.9516 15.3711C39.2781 13.2437 38.3891 11.2859 37.3234 9.55312C38.175 9.33672 38.9711 9.09531 39.7141 8.83359C41.3773 10.3492 42.8086 12.1133 43.943 14.0719ZM32.0258 24.2188C32.0063 22.2727 31.9156 20.3156 31.7547 18.4086C34.2492 18.1555 36.6477 17.7641 38.8773 17.2477C39.4398 19.4273 39.7711 21.7719 39.8297 24.2188H32.0258ZM28.6664 9.25625C27.468 9.33047 26.2445 9.375 25 9.375C23.7555 9.375 22.532 9.33047 21.3336 9.25625C22.4266 5.31016 23.8312 3.125 25 3.125C26.1688 3.125 27.5734 5.31016 28.6664 9.25625ZM27.9836 3.56953C30.5383 4.34062 32.8539 6.0875 34.7492 8.52578C33.3438 8.79063 31.8312 8.99062 30.257 9.13359C29.6492 6.83047 28.8898 4.90312 27.9836 3.56953ZM29.0563 10.7992C29.468 12.5875 29.8172 14.6586 30.0648 16.9914C28.4055 17.1188 26.7109 17.1875 25 17.1875C23.2891 17.1875 21.5945 17.1188 19.9359 16.9914C20.1836 14.6586 20.5328 12.5875 20.9445 10.7992C22.268 10.8883 23.6242 10.9375 25 10.9375C26.3758 10.9375 27.732 10.8883 29.0563 10.7992ZM19.743 9.13281C18.1688 8.98984 16.6562 8.78984 15.2508 8.525C17.1461 6.08594 19.4609 4.33984 22.0164 3.56875C21.1102 4.90312 20.3508 6.83047 19.743 9.13281ZM19.3727 10.6672C18.9531 12.5672 18.6266 14.6641 18.3938 16.8547C15.9961 16.6117 13.6938 16.2383 11.5547 15.7461C12.2414 13.5867 13.1617 11.6211 14.2656 9.91563C15.8516 10.2438 17.568 10.4953 19.3727 10.6672ZM18.2445 18.4086C18.0836 20.3156 17.993 22.2727 17.9734 24.2188H10.1687C10.2273 21.7727 10.5586 19.4273 11.1211 17.2477C13.3516 17.7648 15.75 18.1555 18.2445 18.4086ZM19.7906 18.5461C21.4984 18.6789 23.2414 18.75 25 18.75C26.7586 18.75 28.5016 18.6789 30.2094 18.5461C30.3555 20.3094 30.4445 22.2031 30.4625 24.2188H19.5367C19.5555 22.2039 19.6445 20.3094 19.7906 18.5461ZM31.607 16.8547C31.3742 14.6641 31.0477 12.5672 30.6281 10.6672C32.432 10.4953 34.1492 10.2437 35.7352 9.91641C36.8391 11.6227 37.7594 13.5883 38.4461 15.7469C36.307 16.2383 34.0047 16.6117 31.607 16.8547ZM38.3117 7.66016C37.7094 7.84609 37.0711 8.01719 36.4039 8.175C35.4477 6.85156 34.3797 5.69453 33.2219 4.73203C35.0562 5.47813 36.7648 6.46875 38.3117 7.66016ZM13.5953 8.17422C12.9281 8.01641 12.2906 7.84531 11.6875 7.65937C13.2352 6.46875 14.943 5.47734 16.7773 4.73125C15.6195 5.69375 14.5516 6.85156 13.5953 8.17422ZM10.2859 8.83437C11.0289 9.09609 11.8242 9.3375 12.6766 9.55391C11.6109 11.2867 10.7219 13.2445 10.0484 15.3719C8.62422 14.9922 7.28516 14.5586 6.05703 14.0727C7.19141 12.1133 8.62266 10.3492 10.2859 8.83437ZM5.32344 15.4602C6.63984 15.9898 8.07812 16.4609 9.6125 16.8711C9.01484 19.1727 8.66641 21.6445 8.60703 24.2195H3.13828C3.24922 21.0875 4.02656 18.125 5.32344 15.4602ZM21.875 46.875C21.4445 46.875 21.0938 46.525 21.0938 46.0938C21.0938 45.6625 21.4445 45.3125 21.875 45.3125C22.3055 45.3125 22.6562 45.6625 22.6562 46.0938C22.6562 46.525 22.3055 46.875 21.875 46.875ZM23.4375 30.4688C23.007 30.4688 22.6562 30.1187 22.6562 29.6875C22.6562 29.2563 23.007 28.9062 23.4375 28.9062C23.868 28.9062 24.2188 29.2563 24.2188 29.6875C24.2188 30.1187 23.868 30.4688 23.4375 30.4688ZM22.6562 27.4875C21.7492 27.8109 21.0938 28.6703 21.0938 29.6875C21.0938 30.7047 21.7492 31.5641 22.6562 31.8875V35.6141L21.875 36.3953L19.5312 34.0516V25.7812H22.6562V27.4875ZM30.4688 32.8125C30.0383 32.8125 29.6875 32.4625 29.6875 32.0312C29.6875 31.6 30.0383 31.25 30.4688 31.25C30.8992 31.25 31.25 31.6 31.25 32.0312C31.25 32.4625 30.8992 32.8125 30.4688 32.8125ZM45.3125 30.4688C44.882 30.4688 44.5312 30.1187 44.5312 29.6875C44.5312 29.2563 44.882 28.9062 45.3125 28.9062C45.743 28.9062 46.0938 29.2563 46.0938 29.6875C46.0938 30.1187 45.743 30.4688 45.3125 30.4688ZM44.5312 27.4875C43.8695 27.7234 43.3484 28.2445 43.1125 28.9062H39.0625C38.8555 28.9062 38.6562 28.9883 38.5102 29.1352L36.3953 31.25H32.6688C32.4328 30.5883 31.9117 30.0672 31.25 29.8312V28.4484L33.9172 25.7812H44.5312V27.4875ZM41.3922 24.2188C41.3328 21.6437 40.9844 19.1719 40.3867 16.8703C41.9211 16.4609 43.3594 15.9891 44.6758 15.4594C45.9734 18.125 46.7508 21.0875 46.8609 24.2188H41.3922Z" fill="white"/>
</svg>
