<svg width="80" height="80" viewBox="0 0 80 80" fill="none" xmlns="http://www.w3.org/2000/svg">
<path d="M80 46.1688V29.8361C80 28.6783 79.0606 27.7363 77.9059 27.7363H62.8247C58.95 15.909 47.8631 7.34802 34.8256 7.34802C18.5752 7.34802 5.35453 20.6482 5.35453 36.9965C5.35453 39.1076 5.57844 41.1665 5.9975 43.1536H2.66594C1.44859 43.1536 0.458438 44.1471 0.458438 45.368C0.458438 46.4982 0.549375 47.6116 0.720937 48.7021C0.367812 49.0969 0.150781 49.6166 0.150781 50.1877C0.150781 51.3908 0.250312 52.5758 0.442187 53.7336C0.165625 54.1061 0 54.566 0 55.0651C0 63.8319 5.20687 71.6561 13.2648 74.9977C13.5362 75.1105 13.8231 75.1675 14.1173 75.1675H31.01C31.3044 75.1675 31.5912 75.1104 31.8622 74.9979C36.4245 73.1058 40.0717 69.7761 42.3784 65.6527C48.5816 63.9968 53.9881 60.3546 57.8794 55.4438V65.5083C56.2486 65.9776 54.9461 67.4038 54.4695 69.2465H53.5014C52.4244 69.2465 51.5483 70.1225 51.5483 71.1996V73.4133C51.5483 74.4904 52.4244 75.3665 53.5014 75.3665H77.0002C78.077 75.3665 78.9533 74.4904 78.9533 73.4133V71.1997C78.9533 70.1227 78.077 69.2466 77.0002 69.2466H76.032C75.5555 67.404 74.2531 65.9777 72.6222 65.5085V54.6821C76.7838 54.1055 80 50.5088 80 46.1688ZM42.3247 45.4974C42.3191 46.3293 42.2575 47.1505 42.1462 47.9583H2.98094C2.86984 47.1505 2.80813 46.3293 2.8025 45.4974H42.3247ZM30.9862 72.8238H14.1409C11.8019 71.8504 9.73547 70.4504 8.00969 68.7372H37.1177C35.3919 70.4502 33.3253 71.8504 30.9862 72.8238ZM39.1277 66.3935H5.99953C3.68937 63.2061 2.36656 59.3093 2.34391 55.1719H29.5311C30.1783 55.1719 30.703 54.6474 30.703 54C30.703 53.3527 30.1783 52.8282 29.5311 52.8282H2.6775C2.56297 51.9991 2.49984 51.1563 2.49484 50.3022H42.6325C42.6275 51.1563 42.5644 51.9991 42.4498 52.8282H35.7811C35.1339 52.8282 34.6092 53.3527 34.6092 54C34.6092 54.6474 35.1339 55.1719 35.7811 55.1719H42.7831C42.7606 59.3093 41.4378 63.2061 39.1277 66.3935ZM43.7128 62.7927C44.6317 60.3749 45.1273 57.765 45.1273 55.0651C45.1273 54.5661 44.9616 54.1063 44.6852 53.7338C44.877 52.5758 44.9766 51.3908 44.9766 50.1877C44.9766 49.6168 44.7595 49.0969 44.4064 48.7021C44.578 47.6116 44.6689 46.4982 44.6689 45.368C44.6689 45.3421 44.6659 45.3169 44.665 45.2911C46.54 43.0454 47.6711 40.1516 47.6711 36.9965C47.6711 33.6708 46.4173 30.5116 44.1409 28.101C43.6964 27.6302 42.9548 27.6093 42.4842 28.0535C42.0136 28.4979 41.9925 29.2396 42.4367 29.7102C44.3006 31.684 45.3272 34.2716 45.3272 36.9965C45.3272 39.3583 44.5509 41.539 43.2458 43.3008C43.0016 43.2072 42.7378 43.1536 42.4613 43.1536H26.2966C25.0567 41.4185 24.3241 39.2926 24.3241 36.9965C24.3241 31.1657 29.035 26.4218 34.8256 26.4218C35.7367 26.4218 36.6403 26.5391 37.5117 26.7705C38.1369 26.9371 38.7791 26.5646 38.9452 25.939C39.1114 25.3135 38.7391 24.6718 38.1134 24.5055C37.0458 24.2219 35.9395 24.078 34.8255 24.078C27.7425 24.078 21.9802 29.8732 21.9802 36.9965C21.9802 39.2252 22.5462 41.3224 23.5389 43.1536H8.39844C7.94297 41.1738 7.69828 39.1138 7.69828 36.9965C7.69828 21.9407 19.8675 9.69177 34.8256 9.69177C46.5555 9.69177 56.5692 17.2246 60.3458 27.7361H52.5958C51.4411 27.7361 50.5017 28.6782 50.5017 29.836V46.1686C50.5017 49.7922 52.7444 52.8969 55.9064 54.1594C52.7505 58.0791 48.5394 61.103 43.7128 62.7927ZM59.0513 67.6861C59.9487 67.6861 60.7391 68.3121 61.1616 69.2465H56.9411C57.3636 68.3121 58.1539 67.6861 59.0513 67.6861ZM60.2233 65.5085V54.6821C62.192 54.4094 63.948 53.4608 65.2531 52.0768C66.5575 53.4599 68.3112 54.4086 70.2786 54.6815V65.5085C68.6477 65.9777 67.3452 67.404 66.8688 69.2466H63.6331C63.1567 67.404 61.8542 65.9777 60.2233 65.5085ZM64.2106 73.0229H53.892V71.5904H64.2106V73.0229ZM76.6095 71.5904V73.0229H66.5544V71.5904H76.6095ZM73.5606 69.2466H69.3402C69.7627 68.3122 70.553 67.6863 71.4503 67.6863C72.3477 67.6861 73.138 68.3121 73.5606 69.2466ZM71.4503 52.421C69.5128 52.421 67.7825 51.5196 66.6437 50.1133C67.2539 48.9311 67.6009 47.5904 67.6009 46.1688V42.1872C67.6009 41.5399 67.0762 41.0154 66.4291 41.0154C65.7819 41.0154 65.2572 41.5399 65.2572 42.1872V46.1688C65.2572 49.6163 62.4731 52.421 59.0511 52.421C55.6292 52.421 52.8452 49.6163 52.8452 46.1688V30.0801H65.2572V35.9371C65.2572 36.5844 65.7819 37.109 66.4291 37.109C67.0762 37.109 67.6009 36.5844 67.6009 35.9371V30.0801H77.6562V46.1688C77.6562 49.6163 74.8723 52.421 71.4503 52.421Z" fill="white"/>
<path d="M9.46079 15.1287C7.9586 14.6605 7.84141 14.5433 7.3736 13.0392C7.17173 12.3895 6.57923 11.9531 5.89891 11.9531C5.21845 11.9531 4.62579 12.3898 4.42438 13.0389C3.95657 14.5431 3.83954 14.6603 2.33751 15.1286C1.68845 15.3308 1.2522 15.9234 1.2522 16.6034C1.25235 17.2834 1.68845 17.8762 2.33735 18.0783C3.8397 18.5467 3.95673 18.6639 4.42423 20.1673C4.62579 20.8172 5.21845 21.2539 5.89891 21.2539C6.57923 21.2539 7.17173 20.8175 7.37345 20.1683C7.84141 18.6638 7.9586 18.5466 9.46094 18.0783C10.1097 17.8758 10.5455 17.2831 10.5455 16.6034C10.5455 15.9238 10.1095 15.3312 9.46079 15.1287ZM5.89923 17.6677C5.61735 17.222 5.28095 16.8856 4.83532 16.6036C5.28095 16.3216 5.6172 15.9853 5.89907 15.5395C6.18095 15.9853 6.51735 16.3216 6.96298 16.6036C6.51735 16.8856 6.1811 17.2219 5.89923 17.6677Z" fill="white"/>
<path d="M76.0085 19.4465C74.5063 18.9782 74.3893 18.861 73.9215 17.3574C73.7199 16.7073 73.1272 16.2706 72.4466 16.2706C71.7665 16.2706 71.1738 16.7071 70.9721 17.3567C70.5043 18.8609 70.3872 18.9781 68.8854 19.4464C68.2363 19.6485 67.8 20.2412 67.8 20.921C67.7999 21.6012 68.2361 22.194 68.8849 22.396C70.3872 22.8645 70.5043 22.9817 70.9719 24.4857C71.1738 25.1353 71.7663 25.5717 72.4466 25.5717C73.1271 25.5717 73.7197 25.1349 73.9211 24.4862C74.3893 22.9815 74.5063 22.8643 76.0085 22.396C76.6574 22.1937 77.0933 21.601 77.0933 20.9212C77.0933 20.2415 76.6574 19.6489 76.0085 19.4465ZM72.4468 21.9854C72.165 21.5398 71.8285 21.2034 71.3829 20.9213C71.8285 20.6393 72.1647 20.3031 72.4468 19.8573C72.7286 20.3031 73.0649 20.6393 73.5107 20.9213C73.065 21.2034 72.7288 21.5398 72.4468 21.9854Z" fill="white"/>
<path d="M64.6441 8.45494C62.755 7.86619 62.5547 7.66557 61.9661 5.77416C61.7544 5.09213 61.1322 4.63385 60.418 4.63385C59.7041 4.63385 59.0819 5.09198 58.87 5.77369C58.2817 7.66557 58.0816 7.86604 56.192 8.45494C55.5108 8.66729 55.053 9.28963 55.053 10.0034C55.053 10.7171 55.5106 11.3393 56.192 11.5518C58.0814 12.1409 58.2816 12.3412 58.8699 14.2331C59.0819 14.9148 59.7039 15.3729 60.418 15.3729C61.1322 15.3729 61.7544 14.9146 61.9659 14.2334C62.5547 12.3412 62.755 12.1406 64.6445 11.5517C65.3255 11.3392 65.7831 10.717 65.7831 10.0034C65.7831 9.28979 65.3255 8.6676 64.6441 8.45494ZM60.4181 11.7807C59.987 10.9667 59.4552 10.4348 58.6411 10.0034C59.4553 9.57197 59.987 9.04026 60.4181 8.22604C60.8492 9.04026 61.3811 9.57213 62.195 10.0034C61.3813 10.4348 60.8494 10.9665 60.4181 11.7807Z" fill="white"/>
</svg>
